<?xml version="1.0" encoding="UTF-8" standalone="no"?>
<svg
   width="1900"
   height="950"
   fill="none"
   version="1.1"
   viewBox="0 0 1900 950"
   id="svg9"
   sodipodi:docname="everyorg-cover.svg"
   inkscape:version="1.4.3 (0d15f75042, 2025-12-25)"
   inkscape:export-filename="everyorg-cover.png"
   inkscape:export-xdpi="96"
   inkscape:export-ydpi="96"
   xmlns:inkscape="http://www.inkscape.org/namespaces/inkscape"
   xmlns:sodipodi="http://sodipodi.sourceforge.net/DTD/sodipodi-0.dtd"
   xmlns="http://www.w3.org/2000/svg"
   xmlns:svg="http://www.w3.org/2000/svg">
  <defs
     id="defs9">
    <rect
       x="96.018974"
       y="273.56351"
       width="1471.5637"
       height="429.34838"
       id="rect4" />
    <rect
       x="123.10564"
       y="321.87622"
       width="1038.0142"
       height="193.50751"
       id="rect10" />
    <clipPath
       clipPathUnits="userSpaceOnUse"
       id="clipPath2">
      <rect
         style="fill:#ffffff;stroke-width:120"
         id="rect3"
         width="1200"
         height="630"
         x="0"
         y="0" />
    </clipPath>
    <clipPath
       id="clip0_595_21552">
      <rect
         width="480"
         height="420"
         fill="white"
         style="fill:#ffffff;fill-opacity:1"
         id="rect75"
         x="0"
         y="0" />
    </clipPath>
    <linearGradient
       id="paint0_linear_595_21552"
       x1="220"
       y1="89.5"
       x2="220"
       y2="111"
       gradientUnits="userSpaceOnUse">
      <stop
         stop-color="#8CD7AB"
         style="stop-color:#8CD7AB;stop-color:color(display-p3 0.5490 0.8431 0.6706);stop-opacity:1;"
         id="stop68" />
      <stop
         offset="1"
         stop-color="#81C69D"
         style="stop-color:#81C69D;stop-color:color(display-p3 0.5059 0.7765 0.6157);stop-opacity:1;"
         id="stop69" />
    </linearGradient>
    <linearGradient
       id="paint1_linear_595_21552"
       x1="341"
       y1="155"
       x2="341"
       y2="185.5"
       gradientUnits="userSpaceOnUse">
      <stop
         stop-color="#8CD7AB"
         style="stop-color:#8CD7AB;stop-color:color(display-p3 0.5490 0.8431 0.6706);stop-opacity:1;"
         id="stop70" />
      <stop
         offset="1"
         stop-color="#3AAE6A"
         style="stop-color:#3AAE6A;stop-color:color(display-p3 0.2275 0.6824 0.4157);stop-opacity:1;"
         id="stop71" />
    </linearGradient>
    <linearGradient
       id="paint2_linear_595_21552"
       x1="205.5"
       y1="227"
       x2="205.5"
       y2="250"
       gradientUnits="userSpaceOnUse">
      <stop
         stop-color="#8CD7AB"
         style="stop-color:#8CD7AB;stop-color:color(display-p3 0.5490 0.8431 0.6706);stop-opacity:1;"
         id="stop72" />
      <stop
         offset="1"
         stop-color="#3AAE6A"
         style="stop-color:#3AAE6A;stop-color:color(display-p3 0.2275 0.6824 0.4157);stop-opacity:1;"
         id="stop73" />
    </linearGradient>
    <linearGradient
       id="paint3_linear_595_21552"
       x1="225"
       y1="174"
       x2="225"
       y2="327"
       gradientUnits="userSpaceOnUse">
      <stop
         stop-color="#8CD7AB"
         style="stop-color:#8CD7AB;stop-color:color(display-p3 0.5490 0.8431 0.6706);stop-opacity:1;"
         id="stop74" />
      <stop
         offset="1"
         stop-color="#D9F2E3"
         style="stop-color:#D9F2E3;stop-color:color(display-p3 0.8510 0.9490 0.8902);stop-opacity:1;"
         id="stop75" />
    </linearGradient>
  </defs>
  <sodipodi:namedview
     id="namedview9"
     pagecolor="#fdfdfd"
     bordercolor="#666666"
     borderopacity="1.0"
     inkscape:showpageshadow="2"
     inkscape:pageopacity="0.0"
     inkscape:pagecheckerboard="0"
     inkscape:deskcolor="#d1d1d1"
     showgrid="false"
     inkscape:zoom="0.73883946"
     inkscape:cx="821.55872"
     inkscape:cy="583.34729"
     inkscape:window-width="3840"
     inkscape:window-height="2160"
     inkscape:window-x="0"
     inkscape:window-y="0"
     inkscape:window-maximized="0"
     inkscape:current-layer="svg9"
     inkscape:export-bgcolor="#fdfdfdff" />
  <g
     clip-path="url(#clip0_595_21552)"
     id="g68"
     transform="matrix(2.4090268,0,0,2.4090268,586.92006,467.79956)"
     style="opacity:0.7;stroke-width:0.819737">
    <rect
       x="69"
       y="192"
       width="15"
       height="15"
       rx="3"
       fill="#8cd7ab"
       style="fill-opacity:1;stroke-width:0.819737"
       id="rect1-3" />
    <path
       d="m 169.5,388 v -16.873 c 0,-4.243 -1.686,-8.313 -4.686,-11.313 L 81.1863,276.186 c -3.0006,-3 -4.6863,-7.07 -4.6863,-11.313 V 208"
       stroke="#8cd7ab"
       style="stroke-width:0.819737;stroke-opacity:1"
       stroke-linecap="round"
       stroke-dasharray="0.0819737, 1.63948"
       id="path1-6" />
    <rect
       x="288"
       y="218"
       width="15"
       height="15"
       rx="3"
       fill="#ededed"
       style="fill-opacity:1;stroke-width:0.819737"
       id="rect2" />
    <path
       d="m 277.5,282.5 v -8.686 c 0,-2.122 0.843,-4.157 2.343,-5.657 l 13.314,-13.314 c 1.5,-1.5 2.343,-3.535 2.343,-5.657 V 233"
       stroke="#ededed"
       style="stroke-width:0.819737;stroke-opacity:1"
       id="path2-7" />
    <path
       d="M 268.5,423.668 V 154.185 c 0,-4.238 1.682,-8.303 4.676,-11.303 l 24.648,-24.694 c 2.994,-2.999 4.676,-7.065 4.676,-11.303 V 52.3867"
       stroke="#8cd7ab"
       style="stroke-width:0.819737;stroke-opacity:1"
       id="path3-5" />
    <path
       d="M 250.5,423.668 V 78.8967 c 0,-3.7529 1.43,-7.3646 4,-10.0998 2.57,-2.7352 4,-6.347 4,-10.0998 V 18.1289"
       stroke="#d9f2e3"
       style="stroke-width:0.819737;stroke-opacity:1"
       stroke-linecap="round"
       stroke-dasharray="1.63948, 3.27894"
       id="path4-3" />
    <path
       d="M 232.5,423.668 V 200.164 c 0,-4.235 -1.679,-8.297 -4.669,-11.297 L 133.169,93.9177 C 130.179,90.9185 128.5,86.8562 128.5,82.6212 V 38.5664"
       stroke="#d9f2e3"
       style="stroke-width:0.819737;stroke-opacity:1"
       id="path5-5" />
    <path
       d="M 286.5,423.668 V 308.326 c 0,-4.243 1.685,-8.312 4.685,-11.313 l 139.63,-139.651 c 3,-3.001 4.685,-7.07 4.685,-11.313 V 90.5117"
       stroke="#3aae6a"
       style="stroke-width:0.819737;stroke-opacity:1"
       id="path6-6" />
    <path
       d="m 160.5,423.668 v -94.939 c 0,-4.223 -1.669,-8.274 -4.644,-11.271 L 23.1442,183.753 C 20.1694,180.756 18.5,176.705 18.5,172.482 v -17.47"
       stroke="#3aae6a"
       style="stroke-width:0.819737;stroke-opacity:1"
       id="path7-2" />
    <path
       d="m 304.5,423.668 v -60.406 c 0,-4.249 1.69,-8.324 4.698,-11.325 L 456.802,204.626 c 3.008,-3.002 4.698,-7.076 4.698,-11.325 v -19.805"
       stroke="#8cd7ab"
       style="stroke-width:0.819737;stroke-opacity:1"
       id="path8-9" />
    <path
       d="M 322.5,423.668 V 305.78 c 0,-4.248 -1.689,-8.322 -4.695,-11.323 l -135.61,-135.39 c -3.006,-3.002 -4.695,-7.075 -4.695,-11.323 v -35.803"
       stroke="#8cd7ab"
       style="stroke-width:0.819737;stroke-opacity:1"
       id="path9-1" />
    <path
       d="m 295.5,423.668 v -87.642 c 0,-4.257 1.697,-8.339 4.715,-11.342 l 91.57,-91.102 c 3.018,-3.003 4.715,-7.085 4.715,-11.343 v -92.938"
       stroke="#81c69d"
       style="stroke-width:0.819737;stroke-opacity:1"
       stroke-linecap="round"
       stroke-dasharray="0.0819737, 1.63948"
       id="path10-2" />
    <path
       d="m 313.5,423.668 v -177.06 c 0,-4.255 1.695,-8.335 4.71,-11.337 l 52.58,-52.358 c 3.015,-3.002 4.71,-7.082 4.71,-11.338 V 67.082"
       stroke="#3aae6a"
       style="stroke-width:0.819737;stroke-opacity:1"
       id="path11-7" />
    <path
       d="m 214.5,423.668 v -71.074 c 0,-4.235 -1.679,-8.298 -4.669,-11.297 l -94.662,-94.95 c -2.99,-2.999 -4.669,-7.061 -4.669,-11.296 V 81.2305"
       stroke="#81c69d"
       style="stroke-width:0.819737;stroke-opacity:1"
       stroke-linecap="round"
       stroke-dasharray="1.63948, 3.27894"
       id="path12-0" />
    <path
       d="m 205.5,423.668 v -106.84 c 0,-4.235 -1.679,-8.297 -4.669,-11.296 L 47.169,151.398 C 44.179,148.399 42.5,144.337 42.5,140.102 v -30.649"
       stroke="#d9f2e3"
       style="stroke-width:0.819737;stroke-opacity:1"
       id="path13-9" />
    <path
       d="M 277.5,423.668 V 227.42 c 0,-4.239 1.682,-8.304 4.676,-11.304 l 41.648,-41.724 c 2.994,-3 4.676,-7.065 4.676,-11.304 V 87.9219"
       stroke="#ededed"
       style="stroke-width:0.819737;stroke-opacity:1"
       id="path14-3" />
    <path
       d="M 196.5,423.668 V 206.89 c 0,-4.184 -1.639,-8.201 -4.565,-11.191 l -40.87,-41.765 c -2.926,-2.99 -4.565,-7.007 -4.565,-11.191 V 81"
       stroke="#3aae6a"
       style="stroke-width:0.819737;stroke-opacity:1"
       id="path15-6" />
    <path
       d="M 151.5,423.668 V 117.982 c 0,-4.238 1.682,-8.303 4.676,-11.303 l 24.648,-24.6937 c 2.994,-2.9997 4.676,-7.065 4.676,-11.3033 V 21.1094"
       stroke="#3aae6a"
       style="stroke-width:0.819737;stroke-opacity:1"
       id="path16-0" />
    <path
       d="M 169.5,423.668 V 238.499 c 0,-4.244 -1.686,-8.314 -4.686,-11.314 L 65.1863,127.557 c -3.0006,-3 -4.6863,-7.07 -4.6863,-11.313 V 77.7383"
       stroke="#3aae6a"
       style="stroke-width:0.819737;stroke-opacity:1"
       stroke-linecap="round"
       stroke-dasharray="0.0819737, 1.63948"
       id="path17-6" />
    <path
       d="M 178.5,423.668 V 170.075 c 0,-4.318 1.746,-8.454 4.841,-11.466 l 25.318,-24.64 c 3.095,-3.012 4.841,-7.147 4.841,-11.466 V 17.2773"
       stroke="#81c69d"
       style="stroke-width:0.819737;stroke-opacity:1"
       id="path18-2" />
    <path
       d="M 259.5,423.668 V 189.525 c 0,-4.238 1.682,-8.304 4.676,-11.303 l 7.648,-7.662 c 2.994,-3 4.676,-7.065 4.676,-11.304 V 79.4062"
       stroke="#3aae6a"
       style="stroke-width:0.819737;stroke-opacity:1"
       id="path19-6" />
    <path
       d="M 223.5,423.668 V 247.88 c 0,-4.252 1.693,-8.329 4.704,-11.331 L 344.796,120.322 c 3.011,-3.002 4.704,-7.079 4.704,-11.331 V 37.7148"
       stroke="#cdcdcd"
       style="stroke-width:0.819737;stroke-opacity:1"
       stroke-linecap="round"
       stroke-dasharray="1.63948, 3.27894"
       id="path20-1" />
    <path
       d="M 331.5,423.668 V 195.966 c 0,-4.271 -1.707,-8.364 -4.741,-11.368 L 248.241,106.832 C 245.207,103.827 243.5,99.7343 243.5,95.4641 V 36"
       stroke="#3aae6a"
       style="stroke-width:0.819737;stroke-opacity:1"
       id="path21-8" />
    <path
       d="M 187.5,423.668 V 218.893 c 0,-4.232 -1.676,-8.291 -4.662,-11.29 l -82.676,-83.03 C 97.1763,121.574 95.5,117.515 95.5,113.283 V 44.5273"
       stroke="#ededed"
       style="stroke-width:0.819737;stroke-opacity:1"
       id="path22-7" />
    <path
       d="M 241.5,423.668 V 322.783 c 0,-4.232 -1.676,-8.291 -4.661,-11.289 L 90.1614,164.17 C 87.1761,161.172 85.5,157.113 85.5,152.881 v -31.619"
       stroke="#3aae6a"
       style="stroke-width:0.819737;stroke-opacity:1"
       id="path23-9" />
    <rect
       x="247"
       y="16"
       width="23"
       height="23"
       rx="6"
       fill="#d9f2e3"
       style="fill-opacity:1;stroke-width:0.819737"
       id="rect23" />
    <rect
       x="232"
       y="32"
       width="23"
       height="23"
       rx="6"
       fill="#3fbd73"
       style="fill-opacity:1;stroke-width:0.819737"
       id="rect24" />
    <rect
       x="232.5"
       y="32.5"
       width="22"
       height="22"
       rx="5.5"
       stroke="black"
       stroke-opacity="0.08"
       style="stroke:#000000;stroke-width:0.819737;stroke-opacity:0.08"
       id="rect25" />
    <rect
       x="265"
       y="68"
       width="23"
       height="23"
       rx="6"
       fill="#3fbd73"
       style="fill-opacity:1;stroke-width:0.819737"
       id="rect26" />
    <rect
       x="265.5"
       y="68.5"
       width="22"
       height="22"
       rx="5.5"
       stroke="black"
       stroke-opacity="0.08"
       style="stroke:#000000;stroke-width:0.819737;stroke-opacity:0.08"
       id="rect27" />
    <rect
       x="291"
       y="34"
       width="23"
       height="23"
       rx="6"
       fill="#8cd7ab"
       style="fill-opacity:1;stroke-width:0.819737"
       id="rect28" />
    <rect
       x="317"
       y="75"
       width="23"
       height="23"
       rx="6"
       fill="#ededed"
       style="fill-opacity:1;stroke-width:0.819737"
       id="rect29" />
    <rect
       x="338"
       y="25"
       width="23"
       height="23"
       rx="6"
       fill="#cdcdcd"
       style="fill-opacity:1;stroke-width:0.819737"
       id="rect30" />
    <rect
       x="364"
       y="51"
       width="23"
       height="23"
       rx="6"
       fill="#3fbd73"
       style="fill-opacity:1;stroke-width:0.819737"
       id="rect31" />
    <rect
       x="364.5"
       y="51.5"
       width="22"
       height="22"
       rx="5.5"
       stroke="black"
       stroke-opacity="0.08"
       style="stroke:#000000;stroke-width:0.819737;stroke-opacity:0.08"
       id="rect32" />
    <rect
       x="385"
       y="117"
       width="23"
       height="23"
       rx="6"
       fill="#8cd7ab"
       style="fill-opacity:1;stroke-width:0.819737"
       id="rect33" />
    <rect
       x="385.5"
       y="117.5"
       width="22"
       height="22"
       rx="5.5"
       stroke="black"
       stroke-opacity="0.08"
       style="stroke:#000000;stroke-width:0.819737;stroke-opacity:0.08"
       id="rect34" />
    <rect
       x="424"
       y="87"
       width="23"
       height="23"
       rx="6"
       fill="#3fbd73"
       style="fill-opacity:1;stroke-width:0.819737"
       id="rect35" />
    <rect
       x="424.5"
       y="87.5"
       width="22"
       height="22"
       rx="5.5"
       stroke="black"
       stroke-opacity="0.08"
       style="stroke:#000000;stroke-width:0.819737;stroke-opacity:0.08"
       id="rect36" />
    <rect
       x="450"
       y="161"
       width="23"
       height="23"
       rx="6"
       fill="#8cd7ab"
       style="fill-opacity:1;stroke-width:0.819737"
       id="rect37" />
    <rect
       x="202"
       y="9"
       width="23"
       height="23"
       rx="6"
       fill="#8cd7ab"
       style="fill-opacity:1;stroke-width:0.819737"
       id="rect38" />
    <rect
       x="202.5"
       y="9.5"
       width="22"
       height="22"
       rx="5.5"
       stroke="black"
       stroke-opacity="0.08"
       style="stroke:#000000;stroke-width:0.819737;stroke-opacity:0.08"
       id="rect39" />
    <rect
       x="174"
       y="19"
       width="23"
       height="23"
       rx="6"
       fill="#3fbd73"
       style="fill-opacity:1;stroke-width:0.819737"
       id="rect40" />
    <rect
       x="174.5"
       y="19.5"
       width="22"
       height="22"
       rx="5.5"
       stroke="black"
       stroke-opacity="0.08"
       style="stroke:#000000;stroke-width:0.819737;stroke-opacity:0.08"
       id="rect41" />
    <rect
       x="166"
       y="100"
       width="23"
       height="23"
       rx="6"
       fill="#8cd7ab"
       style="fill-opacity:1;stroke-width:0.819737"
       id="rect42" />
    <rect
       x="135"
       y="58"
       width="23"
       height="23"
       rx="6"
       fill="#3fbd73"
       style="fill-opacity:1;stroke-width:0.819737"
       id="rect43" />
    <rect
       x="135.5"
       y="58.5"
       width="22"
       height="22"
       rx="5.5"
       stroke="black"
       stroke-opacity="0.08"
       style="stroke:#000000;stroke-width:0.819737;stroke-opacity:0.08"
       id="rect44" />
    <rect
       x="117"
       y="22"
       width="23"
       height="23"
       rx="6"
       fill="#d9f2e3"
       style="fill-opacity:1;stroke-width:0.819737"
       id="rect45" />
    <rect
       x="99"
       y="69"
       width="23"
       height="23"
       rx="6"
       fill="#8cd7ab"
       style="fill-opacity:1;stroke-width:0.819737"
       id="rect46" />
    <rect
       x="99.5"
       y="69.5"
       width="22"
       height="22"
       rx="5.5"
       stroke="black"
       stroke-opacity="0.08"
       style="stroke:#000000;stroke-width:0.819737;stroke-opacity:0.08"
       id="rect47" />
    <rect
       x="84"
       y="35"
       width="23"
       height="23"
       rx="6"
       fill="#ededed"
       style="fill-opacity:1;stroke-width:0.819737"
       id="rect48" />
    <rect
       x="74"
       y="109"
       width="23"
       height="23"
       rx="6"
       fill="#3fbd73"
       style="fill-opacity:1;stroke-width:0.819737"
       id="rect49" />
    <rect
       x="74.5"
       y="109.5"
       width="22"
       height="22"
       rx="5.5"
       stroke="black"
       stroke-opacity="0.08"
       style="stroke:#000000;stroke-width:0.819737;stroke-opacity:0.08"
       id="rect50" />
    <rect
       x="49"
       y="68"
       width="23"
       height="23"
       rx="6"
       fill="#3fbd73"
       style="fill-opacity:1;stroke-width:0.819737"
       id="rect51" />
    <rect
       x="49.5"
       y="68.5"
       width="22"
       height="22"
       rx="5.5"
       stroke="black"
       stroke-opacity="0.08"
       style="stroke:#000000;stroke-width:0.819737;stroke-opacity:0.08"
       id="rect52" />
    <rect
       x="31"
       y="99"
       width="23"
       height="23"
       rx="6"
       fill="#d9f2e3"
       style="fill-opacity:1;stroke-width:0.819737"
       id="rect53" />
    <rect
       x="8"
       y="143"
       width="23"
       height="23"
       rx="6"
       fill="#3fbd73"
       style="fill-opacity:1;stroke-width:0.819737"
       id="rect54" />
    <rect
       x="8.5"
       y="143.5"
       width="22"
       height="22"
       rx="5.5"
       stroke="black"
       stroke-opacity="0.08"
       style="stroke:#000000;stroke-width:0.819737;stroke-opacity:0.08"
       id="rect55" />
    <path
       d="m 213.5,115.5 v -5.686 c 0,-2.122 0.843,-4.157 2.343,-5.657 l 8.314,-8.3139 c 1.5,-1.5002 2.343,-3.5351 2.343,-5.6568 V 82.5"
       stroke="url(#paint0_linear_595_21552)"
       id="path55"
       style="stroke:url(#paint0_linear_595_21552);stroke-width:0.819737" />
    <rect
       x="217"
       y="65"
       width="19"
       height="19"
       rx="4"
       fill="#8cd7ab"
       style="fill-opacity:1;stroke-width:0.819737"
       id="rect56" />
    <rect
       x="223"
       y="116"
       width="19"
       height="19"
       rx="4"
       fill="#d9f2e3"
       style="fill-opacity:1;stroke-width:0.819737"
       id="rect57" />
    <rect
       x="211"
       y="139"
       width="15"
       height="15"
       rx="3"
       fill="#d9f2e3"
       style="fill-opacity:1;stroke-width:0.819737"
       id="rect58" />
    <rect
       x="237"
       y="159"
       width="15"
       height="15"
       rx="3"
       fill="#8cd7ab"
       style="fill-opacity:1;stroke-width:0.819737"
       id="rect59" />
    <rect
       x="127"
       y="232"
       width="15"
       height="15"
       rx="3"
       fill="#81c69d"
       style="fill-opacity:1;stroke-width:0.819737"
       id="rect60" />
    <rect
       x="340"
       y="130"
       width="19"
       height="19"
       rx="4"
       fill="#8cd7ab"
       style="fill-opacity:1;stroke-width:0.819737"
       id="rect61" />
    <rect
       x="205"
       y="208"
       width="19"
       height="19"
       rx="4"
       fill="#8cd7ab"
       style="fill-opacity:1;stroke-width:0.819737"
       id="rect62" />
    <path
       d="m 331.5,217 v -10.686 c 0,-2.122 0.843,-4.157 2.343,-5.657 l 13.314,-13.314 c 1.5,-1.5 2.343,-3.535 2.343,-5.657 V 149"
       stroke="url(#paint1_linear_595_21552)"
       id="path62"
       style="stroke:url(#paint1_linear_595_21552);stroke-width:0.819737" />
    <path
       d="M 232.5,206.5 V 135"
       stroke="#d9f2e3"
       style="stroke-width:0.819737;stroke-opacity:1"
       id="path63" />
    <path
       d="m 232.5,183.5 v -3.686 c 0,-2.122 -0.843,-4.157 -2.343,-5.657 l -9.314,-9.314 c -1.5,-1.5 -2.343,-3.535 -2.343,-5.657 V 154"
       stroke="#d9f2e3"
       style="stroke-width:0.819737;stroke-opacity:1"
       id="path64" />
    <rect
       x="172.5"
       y="17.5"
       width="26"
       height="26"
       rx="7"
       stroke="#3aae6a"
       style="stroke-width:0.819737;stroke-opacity:1"
       stroke-linecap="round"
       stroke-dasharray="0.0819737, 1.63948"
       id="rect64" />
    <rect
       x="383.5"
       y="115.5"
       width="26"
       height="26"
       rx="7"
       stroke="#8cd7ab"
       style="stroke-width:0.819737;stroke-opacity:1"
       stroke-linecap="round"
       stroke-dasharray="0.0819737, 1.63948"
       id="rect65" />
    <rect
       x="233.5"
       y="155.5"
       width="22"
       height="22"
       rx="6"
       stroke="#8cd7ab"
       style="stroke-width:0.819737;stroke-opacity:1"
       stroke-linecap="round"
       stroke-dasharray="0.0819737, 1.63948"
       id="rect66" />
    <path
       d="m 196.5,264.5 v -6.686 c 0,-2.122 0.843,-4.157 2.343,-5.657 l 13.314,-13.314 c 1.5,-1.5 2.343,-3.535 2.343,-5.657 V 227"
       stroke="url(#paint2_linear_595_21552)"
       id="path66"
       style="stroke:url(#paint2_linear_595_21552);stroke-width:0.819737" />
    <path
       d="m 205.5,327 v -34.656 c 0,-2.14 0.857,-4.19 2.38,-5.693 l 34.24,-33.802 c 1.523,-1.503 2.38,-3.553 2.38,-5.693 V 174"
       stroke="url(#paint3_linear_595_21552)"
       id="path67"
       style="stroke:url(#paint3_linear_595_21552);stroke-width:0.819737" />
    <path
       d="m 178.5,380 v -42.425 c 0,-4.213 -1.661,-8.255 -4.623,-11.25 l -34.754,-35.15 c -2.962,-2.995 -4.623,-7.037 -4.623,-11.25 V 248"
       stroke="#81c69d"
       style="stroke-width:0.819737;stroke-opacity:1"
       stroke-linecap="round"
       stroke-dasharray="0.0819737, 1.63948"
       id="path68" />
  </g>
  <text
     xml:space="preserve"
     id="text4"
     style="font-style:normal;font-variant:normal;font-weight:600;font-stretch:normal;font-size:125.333px;line-height:1.05;font-family:'Plus Jakarta Sans';-inkscape-font-specification:'Plus Jakarta Sans Semi-Bold';text-align:start;writing-mode:lr-tb;direction:ltr;white-space:pre;shape-inside:url(#rect4);shape-padding:0;display:inline;fill:#3a3e43;fill-opacity:1;stroke:none;stroke-width:20;stroke-dasharray:none;stroke-opacity:1;paint-order:stroke fill markers"
     x="0"
     y="0"
     transform="translate(38.292167,-189.6833)"><tspan
       x="96.019531"
       y="377.90319"
       id="tspan3"><tspan
         style="font-weight:normal;font-family:ovo;-inkscape-font-specification:ovo"
         id="tspan1">Truly sustainable funding </tspan></tspan><tspan
       x="96.019531"
       y="514.42379"
       id="tspan5"><tspan
         style="font-weight:normal;font-family:ovo;-inkscape-font-specification:ovo"
         id="tspan4">for critical open source </tspan></tspan><tspan
       x="96.019531"
       y="650.94439"
       id="tspan7"><tspan
         style="font-weight:normal;font-family:ovo;-inkscape-font-specification:ovo"
         id="tspan6">software. </tspan></tspan></text>
</svg>
