<svg width="180" height="32" viewBox="0 0 180 32" fill="none" xmlns="http://www.w3.org/2000/svg">
<path d="M49.4822 7.61353V23.2716H46.6753V7.61353H49.4822Z" fill="#111111"/>
<path d="M54.8326 11.7807V14.1935C55.4248 12.592 56.7629 11.5183 58.7142 11.5183C61.0828 11.5183 62.3767 13.163 62.3767 15.8171V23.2737H59.7447V16.541C59.7447 14.6982 58.867 13.6456 57.3319 13.6456C55.7968 13.6456 54.8759 14.6982 54.8759 16.541V23.2737H52.2439V11.7817H54.8316L54.8326 11.7807Z" fill="#111111"/>
<path d="M63.6688 11.7808H65.028V11.1886C65.028 8.57878 66.4315 7.51514 69.0856 7.51514C69.3047 7.51514 69.5239 7.53725 69.7652 7.58149V9.77412H69.1509C68.0109 9.77412 67.66 9.78518 67.66 11.1223V11.7798H69.7652V13.8196H67.66V23.2717H65.028V13.8196H63.6688V11.7798V11.7808Z" fill="#111111"/>
<path d="M74.4124 7.54834V9.93902H71.7804V7.54834H74.4124ZM74.4124 11.7808V23.2728H71.7804V11.7808H74.4124Z" fill="#111111"/>
<path d="M79.588 11.7807V14.1935C80.1801 12.592 81.5182 11.5183 83.4696 11.5183C85.8382 11.5183 87.132 13.163 87.132 15.8171V23.2737H84.5001V16.541C84.5001 14.6982 83.6224 13.6456 82.0873 13.6456C80.5521 13.6456 79.6312 14.6982 79.6312 16.541V23.2737H76.9993V11.7817H79.587L79.588 11.7807Z" fill="#111111"/>
<path d="M92.2625 7.54834V9.93902H89.6305V7.54834H92.2625ZM92.2625 11.7808V23.2728H89.6305V11.7808H92.2625Z" fill="#111111"/>
<path d="M98.1609 23.4264C96.1432 23.4264 95.0031 22.4171 95.0031 20.3119V13.8205H93.6439V11.7806H95.0031V9.4563H97.6351V11.7806H100.047V13.8205H97.6351V19.8072C97.6351 20.9262 98.0955 21.3202 99.2145 21.3202H100.048V23.2716C99.5653 23.3591 98.9511 23.4254 98.1619 23.4254L98.1609 23.4264Z" fill="#111111"/>
<path d="M103.489 17.8117C103.598 20.2678 104.87 21.5184 106.581 21.5184C108.051 21.5184 108.95 20.5754 109.191 19.4565H111.45C111.099 21.8683 109.169 23.5351 106.494 23.5351C103.204 23.5351 100.836 21.1665 100.836 17.5262C100.836 13.8859 103.227 11.5173 106.428 11.5173C109.915 11.5173 111.604 14.1272 111.429 17.8117H103.49H103.489ZM103.621 16.0574H108.972C108.731 14.084 107.656 13.3822 106.45 13.3822C104.98 13.3822 103.971 14.3031 103.621 16.0574Z" fill="#111111"/>
<path d="M133.054 23.3712H130.641V19.9722C129.962 22.1437 128.076 23.6346 125.422 23.6346C121.342 23.6346 118.294 20.499 118.294 15.5417C118.294 10.5844 121.561 7.44873 126.233 7.44873C130.137 7.44873 132.856 9.5539 132.921 12.7117H130.334C130.092 10.9795 128.513 9.8173 126.233 9.8173C123.25 9.8173 121.167 11.9667 121.167 15.5417C121.167 19.1166 123.294 21.266 126.079 21.266C128.689 21.266 130.356 19.6645 130.356 17.5815V17.4277H126.101V15.1245H133.053V23.3702L133.054 23.3712Z" fill="#111111"/>
<path d="M138.052 7.64673V10.0374H135.42V7.64673H138.052ZM138.052 11.8792V23.3712H135.42V11.8792H138.052Z" fill="#111111"/>
<path d="M143.437 23.3711L139.533 11.8792H142.318L145.279 21.3966L148.217 11.8792H150.805L146.901 23.3711H143.436H143.437Z" fill="#111111"/>
<path d="M154.818 7.64673V10.0374H152.186V7.64673H154.818ZM154.818 11.8792V23.3712H152.186V11.8792H154.818Z" fill="#111111"/>
<path d="M159.431 11.8793V14.2921C160.023 12.6906 161.361 11.6169 163.312 11.6169C165.681 11.6169 166.975 13.2617 166.975 15.9158V23.3723H164.343V16.6396C164.343 14.7978 163.465 13.7442 161.93 13.7442C160.395 13.7442 159.474 14.7968 159.474 16.6396V23.3723H156.842V11.8803H159.43L159.431 11.8793Z" fill="#111111"/>
<path d="M171.075 23.6347C171.448 24.8843 172.566 25.6303 174.233 25.6303C176.36 25.6303 177.39 24.3143 177.39 22.2534V20.2799C176.82 21.9246 175.328 23.131 173.464 23.131C171.052 23.131 168.772 21.0037 168.772 17.4067C168.772 13.8096 171.053 11.6169 173.596 11.6169C175.395 11.6169 176.864 12.8455 177.412 14.5123V11.8803H180V22.2976C180 25.5428 178.027 27.6048 174.233 27.6048C171.008 27.6048 169.079 26.1139 168.816 23.6357H171.075V23.6347ZM171.535 17.4067C171.535 19.7752 172.917 21.1133 174.561 21.1133C176.009 21.1133 177.412 20.1261 177.412 17.7575V17.1433C177.412 14.7747 176.009 13.7221 174.561 13.7221C172.917 13.7221 171.535 15.0602 171.535 17.4067Z" fill="#111111"/>
<path d="M25.6371 26.4737C25.6984 26.0162 25.7708 25.5287 25.7899 25.0833C25.8301 24.1312 25.8442 23.1772 25.8442 22.2231C25.8442 21.8381 25.8381 21.4953 26.0874 21.1414C27.9986 18.426 29.4402 15.4864 30.2385 12.2482C30.5994 10.7854 30.7753 9.30156 30.6778 7.79758C30.6165 6.84955 30.4234 5.92163 29.8745 5.11234C29.393 4.40257 28.7295 4.03462 27.8619 4.01049C26.7882 3.98033 25.8301 4.34527 24.9092 4.83487C23.0895 5.802 21.5765 7.15317 20.2364 8.69635C17.6748 11.647 15.8029 14.9877 14.6709 18.7326C14.1783 20.3612 13.8807 22.0261 13.932 23.7351C13.9571 24.5736 14.0747 25.402 14.3994 26.1872C14.8176 27.1995 15.5033 27.8892 16.6453 27.9867C17.6225 28.0701 18.5856 27.7364 19.1828 26.6597C19.6171 25.8765 19.7991 25.022 19.8504 24.1393C19.9901 21.7556 19.4723 19.4816 18.649 17.2658C18.5293 16.9451 18.5123 16.6807 18.6822 16.3781C19.1597 15.5276 19.6151 14.666 20.0836 13.8105C20.1489 13.6919 20.2364 13.5853 20.348 13.4234C20.4224 13.5451 20.4827 13.6265 20.5249 13.716C21.5624 15.8976 22.3406 18.1656 22.7286 20.5523C23.0614 22.6001 23.1167 24.649 22.5095 26.6657C22.0862 28.0711 21.3704 29.2876 20.1318 30.1321C17.6034 31.8532 13.4293 31.4008 11.7504 27.8339C11.2749 26.8245 11.0135 25.7599 10.9149 24.653C10.6335 21.5073 11.3291 18.5225 12.4642 15.6251C13.9722 11.7777 16.1447 8.34851 19.0672 5.41394C20.4948 3.98033 22.0762 2.74478 23.9119 1.8631C25.1032 1.29207 26.3478 0.893958 27.6839 0.897979C30.0575 0.905017 31.7857 1.99781 32.8755 4.09092C33.4284 5.15356 33.6717 6.30667 33.7632 7.49699C34.0044 10.6256 33.2776 13.5833 32.1416 16.4555C30.6939 20.1159 28.6329 23.3963 25.9025 26.2445C25.8482 26.3008 25.7899 26.354 25.7285 26.4033C25.7151 26.414 25.6846 26.4375 25.6371 26.4737Z" fill="#1465E7"/>
<path d="M13.1105 8.14576C12.9697 8.01808 12.8662 7.93263 12.7717 7.83712C11.4768 6.52214 10.0673 5.35897 8.37535 4.58285C7.66458 4.25713 6.92968 4.02892 6.13144 4.01082C5.03663 3.98569 4.26052 4.47026 3.75282 5.41125C3.37783 6.10694 3.20994 6.86597 3.14962 7.64711C2.92041 10.637 3.73473 13.4167 4.88986 16.1211C5.68206 17.9769 6.6894 19.7151 7.85861 21.3599C7.94205 21.4765 7.99634 21.6504 7.98628 21.7922C7.88475 23.2408 7.88977 24.6845 8.16523 26.1171C8.18333 26.2116 8.1783 26.3101 8.19037 26.4961C8.05465 26.3755 7.96919 26.3091 7.8948 26.2307C5.73233 23.9788 4.00114 21.4262 2.62685 18.6284C1.59337 16.5242 0.809205 14.3346 0.346751 12.0314C0.054199 10.5746 -0.0634251 9.10283 0.033087 7.62499C0.138647 6.00239 0.530727 4.45216 1.53606 3.12311C2.48007 1.87549 3.73071 1.14662 5.28897 0.950583C7.14281 0.718351 8.81367 1.28838 10.4132 2.13286C12.0307 2.98638 13.4392 4.12543 14.7331 5.41024C14.8487 5.52485 14.9543 5.61433 14.8125 5.80132C14.2596 6.5322 13.7217 7.27413 13.1788 8.01305C13.1557 8.04522 13.1416 8.08343 13.1085 8.14676L13.1105 8.14576Z" fill="#1465E7"/>
</svg>
