<?xml version="1.0" encoding="UTF-8" standalone="no"?>
<svg
   width="1200"
   height="630"
   fill="none"
   version="1.1"
   viewBox="0 0 1200 630"
   id="svg9"
   sodipodi:docname="opengraph.svg"
   inkscape:version="1.4.3 (0d15f75042, 2025-12-25)"
   inkscape:export-filename="opengraph.png"
   inkscape:export-xdpi="96"
   inkscape:export-ydpi="96"
   xmlns:inkscape="http://www.inkscape.org/namespaces/inkscape"
   xmlns:sodipodi="http://sodipodi.sourceforge.net/DTD/sodipodi-0.dtd"
   xmlns="http://www.w3.org/2000/svg"
   xmlns:svg="http://www.w3.org/2000/svg">
  <defs
     id="defs9">
    <rect
       x="96.018976"
       y="273.5635"
       width="719.23647"
       height="219.21313"
       id="rect4" />
    <rect
       x="123.10564"
       y="321.87621"
       width="1038.0142"
       height="193.5075"
       id="rect10" />
    <clipPath
       clipPathUnits="userSpaceOnUse"
       id="clipPath2">
      <rect
         style="fill:#ffffff;stroke-width:120"
         id="rect3"
         width="1200"
         height="630"
         x="0"
         y="0" />
    </clipPath>
    <clipPath
       id="clip0_595_21552">
      <rect
         width="480"
         height="420"
         fill="white"
         style="fill:#ffffff;fill-opacity:1"
         id="rect75"
         x="0"
         y="0" />
    </clipPath>
    <linearGradient
       id="paint0_linear_595_21552"
       x1="220"
       y1="89.5"
       x2="220"
       y2="111"
       gradientUnits="userSpaceOnUse">
      <stop
         stop-color="#8CD7AB"
         style="stop-color:#8CD7AB;stop-color:color(display-p3 0.5490 0.8431 0.6706);stop-opacity:1;"
         id="stop68" />
      <stop
         offset="1"
         stop-color="#81C69D"
         style="stop-color:#81C69D;stop-color:color(display-p3 0.5059 0.7765 0.6157);stop-opacity:1;"
         id="stop69" />
    </linearGradient>
    <linearGradient
       id="paint1_linear_595_21552"
       x1="341"
       y1="155"
       x2="341"
       y2="185.5"
       gradientUnits="userSpaceOnUse">
      <stop
         stop-color="#8CD7AB"
         style="stop-color:#8CD7AB;stop-color:color(display-p3 0.5490 0.8431 0.6706);stop-opacity:1;"
         id="stop70" />
      <stop
         offset="1"
         stop-color="#3AAE6A"
         style="stop-color:#3AAE6A;stop-color:color(display-p3 0.2275 0.6824 0.4157);stop-opacity:1;"
         id="stop71" />
    </linearGradient>
    <linearGradient
       id="paint2_linear_595_21552"
       x1="205.5"
       y1="227"
       x2="205.5"
       y2="250"
       gradientUnits="userSpaceOnUse">
      <stop
         stop-color="#8CD7AB"
         style="stop-color:#8CD7AB;stop-color:color(display-p3 0.5490 0.8431 0.6706);stop-opacity:1;"
         id="stop72" />
      <stop
         offset="1"
         stop-color="#3AAE6A"
         style="stop-color:#3AAE6A;stop-color:color(display-p3 0.2275 0.6824 0.4157);stop-opacity:1;"
         id="stop73" />
    </linearGradient>
    <linearGradient
       id="paint3_linear_595_21552"
       x1="225"
       y1="174"
       x2="225"
       y2="327"
       gradientUnits="userSpaceOnUse">
      <stop
         stop-color="#8CD7AB"
         style="stop-color:#8CD7AB;stop-color:color(display-p3 0.5490 0.8431 0.6706);stop-opacity:1;"
         id="stop74" />
      <stop
         offset="1"
         stop-color="#D9F2E3"
         style="stop-color:#D9F2E3;stop-color:color(display-p3 0.8510 0.9490 0.8902);stop-opacity:1;"
         id="stop75" />
    </linearGradient>
  </defs>
  <sodipodi:namedview
     id="namedview9"
     pagecolor="#ffffff"
     bordercolor="#666666"
     borderopacity="1.0"
     inkscape:showpageshadow="2"
     inkscape:pageopacity="0.0"
     inkscape:pagecheckerboard="0"
     inkscape:deskcolor="#d1d1d1"
     showgrid="false"
     inkscape:zoom="0.54097717"
     inkscape:cx="595.2192"
     inkscape:cy="400.20173"
     inkscape:window-width="1440"
     inkscape:window-height="960"
     inkscape:window-x="0"
     inkscape:window-y="0"
     inkscape:window-maximized="0"
     inkscape:current-layer="svg9">
    <sodipodi:guide
       position="0,560"
       orientation="0,1"
       id="guide1"
       inkscape:locked="false"
       inkscape:label=""
       inkscape:color="rgb(0,134,229)" />
    <sodipodi:guide
       position="1130,630"
       orientation="-1,0"
       id="guide2"
       inkscape:locked="false"
       inkscape:label=""
       inkscape:color="rgb(0,134,229)" />
    <sodipodi:guide
       position="1200,70"
       orientation="0,1"
       id="guide3"
       inkscape:locked="false"
       inkscape:label=""
       inkscape:color="rgb(0,134,229)" />
    <sodipodi:guide
       position="70,0"
       orientation="-1,0"
       id="guide4"
       inkscape:locked="false"
       inkscape:label=""
       inkscape:color="rgb(0,134,229)" />
  </sodipodi:namedview>
  <rect
     width="1200"
     height="630"
     fill="#080e17"
     style="paint-order:stroke fill markers;fill:#ffffff;fill-opacity:1"
     id="rect1"
     x="0"
     y="0" />
  <g
     id="g10"
     transform="matrix(0.51401363,0,0,0.51401363,37.558973,431.57241)"
     style="stroke-width:0.849237">
    <path
       d="m 226.9697,81.072181 v 58.509899 c 0,8.48749 -3.3717,16.62712 -9.37298,22.62872 l -45.02991,45.02992 v -2.24332 c 0,-8.4875 3.3717,-16.62713 9.37298,-22.62873 l 26.05642,-26.0561 c 6.00128,-6.0016 9.37298,-14.14124 9.37298,-22.62873 V 72.064822 c -4.00821,-3.281486 -8.2878,-6.253164 -12.80068,-8.877624 v 36.894862 c 0,5.09243 -2.02283,9.97621 -5.62398,13.57704 l -3.97653,3.97685 V 58.290362 c -4.12278,-1.824289 -8.39757,-3.375284 -12.80068,-4.629495 v 76.775763 l -9.60051,9.60051 V 51.323303 c -4.18006,-0.748773 -8.45293,-1.232977 -12.80068,-1.440076 V 152.83782 l -5.52958,5.52958 c -10.80281,10.80249 -16.87162,25.45415 -16.87162,40.73144 v 42.79461 h 12.80069 v -42.79461 c 0,-11.88223 4.72025,-23.27804 13.12229,-31.68008 l 41.2806,-41.2806 v 7.54568 c 0,5.09243 -2.02283,9.97621 -5.62398,13.57705 l -26.0561,26.05642 c -8.40205,8.40205 -13.1223,19.79753 -13.1223,31.68009 v 36.89605 h 12.80068 v -8.59662 c 0,-5.09243 2.02283,-9.97621 5.62398,-13.57704 l 48.4573,-48.45763 c 8.40204,-8.40204 13.12229,-19.79753 13.12229,-31.68008 V 98.325803 C 236.15675,92.105312 231.85572,86.320684 226.9697,81.072181 Z"
       fill="#51f395"
       style="fill:#3fbd73;fill-opacity:1;stroke-width:0.849236"
       id="path1" />
    <path
       d="m 150.16562,49.883227 v 79.455103 l -7.17671,-7.1767 c -3.60115,-3.60083 -5.62398,-8.48493 -5.62398,-13.57736 V 51.323303 c 4.18007,-0.748773 8.45293,-1.232977 12.80069,-1.440076 z"
       fill="#81d7ff"
       style="fill:#5ba9ee;fill-opacity:1;stroke-width:0.849236"
       id="path2" />
    <path
       d="M 70.16136,98.325803 C 73.77512,92.105312 78.075925,86.320684 82.962041,81.072181 V 106.1147 c 0,5.255 2.153683,10.28022 5.958941,13.90442 l 3.64157,3.46802 V 72.064822 c 4.008117,-3.281486 8.287668,-6.253164 12.800678,-8.877624 v 72.490992 l 31.37095,29.87711 c -2.26572,3.93397 -4.12598,8.08523 -5.55325,12.3885 l -25.8177,-24.58851 v 6.97029 c 0,5.33948 2.22316,10.43736 6.13569,14.07051 l 16.87514,15.66963 c -0.40387,2.97744 -0.60964,5.99488 -0.60964,9.03312 v 7.86922 L 102.7887,183.77643 C 96.267773,177.72139 92.562552,169.22429 92.562552,160.32558 V 141.16424 L 80.092928,129.28841 c -6.342097,-6.04 -9.931568,-14.41549 -9.931568,-23.17371 z"
       fill="#81d7ff"
       style="fill:#5ba9ee;fill-opacity:1;stroke-width:0.849236"
       id="path3" />
    <path
       d="m 114.96374,58.290362 c 4.12278,-1.824289 8.39757,-3.375284 12.80068,-4.629495 v 56.568293 c 0,8.75822 3.58931,17.13371 9.93141,23.17371 l 12.46979,11.87583 v 3.58227 l -2.71759,2.71791 c -1.50792,1.5076 -2.93648,3.07952 -4.28343,4.70937 l -14.29676,-13.61577 c -8.87887,-8.45613 -13.9041,-20.18187 -13.9041,-32.44332 z"
       fill="#81d7ff"
       style="fill:#5ba9ee;fill-opacity:1;stroke-width:0.849236"
       id="path4" />
    <path
       d="m 314.82718,139.76001 c -2.82895,0 -5.40413,-0.54403 -7.72521,-1.63209 -2.28493,-1.08806 -4.26167,-2.55694 -5.92992,-4.40663 -1.63209,-1.88586 -2.90159,-3.98966 -3.8082,-6.31074 -0.90693,-2.35757 -1.36008,-4.76921 -1.36008,-7.23559 0,-2.57517 0.47139,-5.0233 1.41448,-7.34439 0.97925,-2.35756 2.30284,-4.44279 3.97141,-6.25633 1.70441,-1.8497 3.6994,-3.30033 5.98432,-4.35223 2.32108,-1.08806 4.85978,-1.63209 7.6164,-1.63209 2.79247,0 5.33149,0.56227 7.61641,1.68649 2.32108,1.12422 4.29783,2.62958 5.92992,4.51544 1.63208,1.88586 2.90127,3.98966 3.8082,6.31074 0.90661,2.32108 1.36007,4.71481 1.36007,7.18118 0,2.5387 -0.47171,4.98683 -1.41448,7.34439 -0.94309,2.32108 -2.267,4.40664 -3.97141,6.25633 -1.66857,1.81354 -3.66323,3.24594 -5.98431,4.29783 -2.28493,1.0519 -4.78746,1.57769 -7.5076,1.57769 z m -11.207,-19.58505 c 0,1.66825 0.25377,3.28242 0.76164,4.84186 0.50755,1.55945 1.23303,2.956 2.17612,4.18903 0.97925,1.19686 2.15787,2.15787 3.53618,2.88335 1.41448,0.689 3.01008,1.03365 4.78746,1.03365 1.81322,0 3.42738,-0.36258 4.84186,-1.08805 1.41447,-0.76164 2.59309,-1.75914 3.53618,-2.99216 0.94277,-1.26951 1.65001,-2.66575 2.12172,-4.18903 0.50754,-1.55944 0.76164,-3.1192 0.76164,-4.67865 0,-1.66824 -0.27202,-3.26417 -0.81605,-4.78745 -0.50786,-1.55944 -1.25126,-2.93776 -2.23051,-4.13462 -0.94309,-1.23303 -2.12172,-2.19436 -3.53619,-2.88335 -1.37832,-0.72548 -2.93776,-1.08806 -4.67865,-1.08806 -1.8497,0 -3.48179,0.38082 -4.89626,1.14246 -1.37831,0.72548 -2.53902,1.70473 -3.48179,2.93776 -0.94309,1.23302 -1.66857,2.61134 -2.17611,4.13462 -0.47171,1.52328 -0.70724,3.08272 -0.70724,4.67864 z"
       fill="white"
       style="fill:#3a3e43;fill-opacity:1;stroke-width:0.849236"
       id="path5" />
    <path
       d="m 340.76968,139.48799 v -38.62605 h 16.37527 c 1.77705,0 3.40914,0.36258 4.89626,1.08806 1.4868,0.72547 2.77454,1.70473 3.8626,2.93775 1.12422,1.23303 1.99467,2.61134 2.61134,4.13462 0.61635,1.52328 0.92485,3.08273 0.92485,4.67865 0,2.17612 -0.50787,4.24343 -1.52328,6.20193 -1.01573,1.9585 -2.41197,3.55443 -4.18902,4.78746 -1.77738,1.23302 -3.88085,1.84969 -6.31074,1.84969 h -9.13969 v 12.94789 z m 7.50759,-19.53064 h 8.70447 c 0.90661,0 1.72265,-0.25377 2.44813,-0.76164 0.72516,-0.50786 1.30567,-1.23302 1.74089,-2.17611 0.43522,-0.97925 0.65284,-2.08555 0.65284,-3.31858 0,-1.34183 -0.2541,-2.48429 -0.76165,-3.42738 -0.4717,-0.94309 -1.10629,-1.65033 -1.9041,-2.12171 -0.76164,-0.47139 -1.59592,-0.70724 -2.50253,-0.70724 h -8.37805 z"
       fill="white"
       style="fill:#3a3e43;fill-opacity:1;stroke-width:0.849236"
       id="path6" />
    <path
       d="m 402.79025,132.90524 v 6.58275 h -26.81934 v -38.62605 h 26.32972 v 6.58275 h -18.82212 v 9.30289 h 16.26518 v 6.09313 h -16.26518 v 10.06453 z"
       fill="white"
       style="fill:#3a3e43;fill-opacity:1;stroke-width:0.849236"
       id="path7" />
    <path
       d="m 417.45663,114.68027 v 24.80772 h -7.5076 v -38.62605 h 5.98432 l 19.96587,25.46055 v -25.40615 h 7.50759 v 38.57165 h -6.25633 z"
       fill="white"
       style="fill:#3a3e43;fill-opacity:1;stroke-width:0.849236"
       id="path8" />
    <path
       d="m 490.1357,110.98088 c -0.25281,-0.25378 -0.72644,-0.59844 -1.41448,-1.03366 -0.65283,-0.43522 -1.46887,-0.8522 -2.44813,-1.25127 -0.94405,-0.39906 -1.9777,-0.7434 -3.10096,-1.03365 -1.12326,-0.32642 -2.26572,-0.48963 -3.42738,-0.48963 -2.03211,0 -3.57139,0.38082 -4.62425,1.14246 -1.01445,0.76164 -1.52328,1.83146 -1.52328,3.20977 0,1.0519 0.32642,1.88587 0.97925,2.50254 0.65284,0.61667 1.63209,1.14246 2.93776,1.57768 1.30567,0.43523 2.93775,0.90661 4.89626,1.41448 2.53773,0.61667 4.73305,1.37831 6.58275,2.28492 1.8849,0.87044 3.31858,2.03115 4.29783,3.48178 1.01445,1.41448 1.52328,3.30034 1.52328,5.6579 0,2.06731 -0.38082,3.84437 -1.14246,5.33149 -0.76164,1.45064 -1.8145,2.62958 -3.15537,3.53619 -1.34087,0.9066 -2.86415,1.57768 -4.56984,2.0129 -1.70569,0.39906 -3.51699,0.59844 -5.44029,0.59844 -1.9233,0 -3.84341,-0.19938 -5.76671,-0.59844 -1.9233,-0.39906 -3.773,-0.96101 -5.54909,-1.68649 -1.7761,-0.76164 -3.40819,-1.66824 -4.89626,-2.72014 l 3.31857,-6.47395 c 0.32642,0.32642 0.90565,0.76165 1.74089,1.30567 0.83525,0.50787 1.8497,1.03366 3.04657,1.57769 1.19686,0.50787 2.50253,0.94309 3.917,1.30567 1.41448,0.36258 2.84816,0.54403 4.29783,0.54403 2.03211,0 3.57139,-0.34466 4.62425,-1.03366 1.05286,-0.689 1.57768,-1.66825 1.57768,-2.93775 0,-1.16071 -0.41602,-2.06731 -1.25126,-2.72015 -0.83525,-0.65283 -1.99371,-1.2151 -3.48179,-1.68649 -1.48808,-0.50787 -3.24497,-1.0519 -5.27708,-1.63209 -2.42893,-0.68899 -4.46104,-1.45063 -6.09312,-2.28492 -1.63209,-0.87044 -2.84815,-1.9585 -3.645,-3.26417 -0.79684,-1.30567 -1.19686,-2.93776 -1.19686,-4.89626 0,-2.6475 0.61763,-4.8601 1.8497,-6.63715 1.27047,-1.81354 2.97296,-3.17361 5.11387,-4.08022 2.14091,-0.94309 4.51544,-1.41448 7.12678,-1.41448 1.8145,0 3.51699,0.19937 5.11387,0.59844 1.63209,0.39906 3.15537,0.92484 4.56984,1.57768 1.41448,0.65283 2.68495,1.36007 3.80821,2.12171 z"
       fill="white"
       style="fill:#3a3e43;fill-opacity:1;stroke-width:0.849236"
       id="path9" />
    <path
       d="m 518.278,139.76001 c -2.82895,0 -5.40509,-0.54403 -7.72521,-1.63209 -2.28493,-1.08806 -4.26263,-2.55694 -5.92992,-4.40663 -1.63209,-1.88586 -2.90255,-3.98966 -3.8082,-6.31074 -0.90565,-2.35757 -1.36007,-4.76921 -1.36007,-7.23559 0,-2.57517 0.47042,-5.0233 1.41447,-7.34439 0.97925,-2.35756 2.30412,-4.44279 3.97141,-6.25633 1.70569,-1.8497 3.6994,-3.30033 5.98432,-4.35223 2.32012,-1.08806 4.86106,-1.63209 7.61641,-1.63209 2.79374,0 5.33148,0.56227 7.6164,1.68649 2.32012,1.12422 4.29783,2.62958 5.92992,4.51544 1.63208,1.88586 2.90255,3.98966 3.8082,6.31074 0.90565,2.32108 1.36007,4.71481 1.36007,7.18118 0,2.5387 -0.47042,4.98683 -1.41447,7.34439 -0.94406,2.32108 -2.26573,4.40664 -3.97142,6.25633 -1.66728,1.81354 -3.66419,3.24594 -5.98431,4.29783 -2.28493,1.0519 -4.78746,1.57769 -7.5076,1.57769 z m -11.207,-19.58505 c 0,1.66825 0.25281,3.28242 0.76164,4.84186 0.50883,1.55945 1.23207,2.956 2.17612,4.18903 0.97925,1.19686 2.15691,2.15787 3.53618,2.88335 1.41448,0.689 3.01136,1.03365 4.78746,1.03365 1.8145,0 3.42738,-0.36258 4.84186,-1.08805 1.41447,-0.76164 2.59213,-1.75914 3.53618,-2.99216 0.94406,-1.26951 1.65129,-2.66575 2.12172,-4.18903 0.50882,-1.55944 0.76164,-3.1192 0.76164,-4.67865 0,-1.66824 -0.27202,-3.26417 -0.81605,-4.78745 -0.50882,-1.55944 -1.25126,-2.93776 -2.23051,-4.13462 -0.94405,-1.23303 -2.12172,-2.19436 -3.53619,-2.88335 -1.37928,-0.72548 -2.93776,-1.08806 -4.67865,-1.08806 -1.8497,0 -3.48179,0.38082 -4.89626,1.14246 -1.37927,0.72548 -2.53774,1.70473 -3.48179,2.93776 -0.94405,1.23302 -1.66728,2.61134 -2.17611,4.13462 -0.47043,1.52328 -0.70724,3.08272 -0.70724,4.67864 z"
       fill="white"
       style="fill:#3a3e43;fill-opacity:1;stroke-width:0.849236"
       id="path10" />
    <path
       d="m 560.59705,139.76001 c -3.08497,0 -5.71231,-0.50787 -7.88842,-1.52328 -2.14092,-1.0519 -3.88181,-2.4843 -5.22268,-4.29783 -1.30567,-1.81354 -2.26892,-3.86261 -2.88335,-6.14753 -0.61764,-2.32108 -0.92485,-4.73305 -0.92485,-7.23558 v -19.69385 h 7.5076 v 19.69385 c 0,1.59592 0.144,3.15536 0.43522,4.67864 0.32642,1.48712 0.85124,2.82895 1.57768,4.02582 0.72324,1.19686 1.68649,2.13995 2.88336,2.82895 1.19686,0.689 2.68174,1.03365 4.46103,1.03365 1.8113,0 3.31858,-0.34465 4.51544,-1.03365 1.23207,-0.72548 2.19212,-1.68649 2.88336,-2.88335 0.72324,-1.19687 1.25126,-2.5387 1.57768,-4.02582 0.32642,-1.52328 0.48963,-3.0648 0.48963,-4.62424 v -19.69385 h 7.45319 v 19.69385 c 0,2.6475 -0.32641,5.13211 -0.97925,7.45319 -0.61763,2.32109 -1.61608,4.37047 -2.99216,6.14753 -1.34407,1.74089 -3.08496,3.1192 -5.22267,4.13462 -2.14092,0.97925 -4.69785,1.46888 -7.67081,1.46888 z"
       fill="white"
       style="fill:#3a3e43;fill-opacity:1;stroke-width:0.849236"
       id="path11" />
    <path
       d="m 586.32962,139.48799 v -38.62605 h 17.0825 c 1.7761,0 3.40819,0.36258 4.89626,1.08806 1.52329,0.72547 2.82896,1.70473 3.91701,2.93775 1.12326,1.23303 1.97451,2.61134 2.55694,4.13462 0.61443,1.52328 0.92485,3.08273 0.92485,4.67865 0,1.63209 -0.29122,3.20977 -0.87045,4.73305 -0.54403,1.48712 -1.34407,2.79279 -2.39373,3.91701 -1.05285,1.12422 -2.28492,1.99467 -3.69939,2.61134 l 8.81327,14.52557 h -8.26924 l -7.94283,-12.94789 h -7.5076 v 12.94789 z m 7.50759,-19.53064 h 9.41171 c 0.94085,0 1.77609,-0.27201 2.50253,-0.81604 0.72324,-0.58019 1.30567,-1.34183 1.74089,-2.28492 0.43522,-0.94309 0.65284,-1.99467 0.65284,-3.15537 0,-1.23302 -0.25602,-2.30316 -0.76164,-3.20977 -0.50883,-0.94309 -1.16167,-1.68649 -1.95851,-2.23052 -0.76164,-0.54403 -1.59688,-0.81604 -2.50253,-0.81604 h -9.08529 z"
       fill="white"
       style="fill:#3a3e43;fill-opacity:1;stroke-width:0.849236"
       id="path12" />
    <path
       d="m 621.26267,119.90295 c 0,-2.35756 0.41603,-4.66041 1.25127,-6.90917 0.87045,-2.28492 2.12171,-4.35223 3.7538,-6.20193 1.63209,-1.88586 3.62579,-3.37298 5.98432,-4.46103 2.35532,-1.12422 5.04027,-1.68649 8.05163,-1.68649 3.55219,0 6.61795,0.77988 9.19409,2.33932 2.61133,1.55944 4.55064,3.59059 5.8211,6.09312 l -5.7667,3.97142 c -0.65284,-1.45064 -1.50728,-2.5931 -2.55694,-3.42739 -1.05285,-0.87044 -2.17611,-1.46887 -3.37298,-1.79529 -1.19686,-0.36258 -2.37772,-0.54403 -3.53619,-0.54403 -1.8881,0 -3.53618,0.38082 -4.95066,1.14246 -1.37927,0.76164 -2.54093,1.75913 -3.48178,2.99216 -0.94405,1.23302 -1.65129,2.61134 -2.12172,4.13462 -0.43522,1.52328 -0.65283,3.04656 -0.65283,4.56984 0,1.70473 0.27201,3.35474 0.81604,4.95067 0.54403,1.55944 1.30567,2.95599 2.28492,4.18902 1.01446,1.19686 2.21132,2.15787 3.59059,2.88335 1.41448,0.689 2.95376,1.03366 4.62425,1.03366 1.19686,0 2.40973,-0.19937 3.64499,-0.59844 1.23207,-0.39906 2.37453,-1.03365 3.42739,-1.9041 1.04965,-0.87044 1.8657,-1.99466 2.44813,-3.37298 l 6.14752,3.53619 c -0.76164,1.92234 -2.0129,3.55443 -3.7538,4.89626 -1.70569,1.34183 -3.62899,2.35757 -5.7667,3.04656 -2.14092,0.689 -4.26263,1.03366 -6.36514,1.03366 -2.75855,0 -5.27708,-0.56227 -7.562,-1.68649 -2.28492,-1.1607 -4.26263,-2.68398 -5.92992,-4.56984 -1.63209,-1.92235 -2.92175,-4.06198 -3.8626,-6.41954 -0.90885,-2.39373 -1.36008,-4.8057 -1.36008,-7.23559 z"
       fill="white"
       style="fill:#3a3e43;fill-opacity:1;stroke-width:0.849236"
       id="path13" />
    <path
       d="m 689.02308,132.90524 v 6.58275 h -26.82063 v -38.62605 h 26.331 v 6.58275 h -18.8234 v 9.30289 h 16.26647 v 6.09313 h -16.26647 v 10.06453 z"
       fill="white"
       style="fill:#3a3e43;fill-opacity:1;stroke-width:0.849236"
       id="path14" />
    <path
       d="m 318.15695,185.16082 v 5.5299 h -19.16262 v -27.26545 h 18.817 v 5.52989 h -12.51906 v 5.29948 h 10.75257 v 5.10747 h -10.75257 v 5.79871 z"
       fill="white"
       style="fill:#3a3e43;fill-opacity:1;stroke-width:0.849236"
       id="path15" />
    <path
       d="m 345.17791,175.09949 v 15.59123 h -6.29793 v -27.26545 h 4.99226 l 12.63427,16.05205 v -16.05205 h 6.29794 v 27.26545 h -5.14588 z"
       fill="white"
       style="fill:#3a3e43;fill-opacity:1;stroke-width:0.849236"
       id="path16" />
    <path
       d="m 384.91602,190.69072 v -27.26545 h 10.17782 c 2.99536,0 5.4915,0.61443 7.4884,1.84329 2.02251,1.20327 3.54579,2.84175 4.56985,4.91546 1.02405,2.04811 1.53608,4.32663 1.53608,6.83557 0,2.76495 -0.56323,5.17147 -1.68969,7.21958 -1.12646,2.04811 -2.71375,3.6354 -4.76186,4.76186 -2.0225,1.12646 -4.40343,1.68969 -7.14278,1.68969 z m 17.35901,-13.67113 c 0,-1.58729 -0.28162,-2.98256 -0.84485,-4.18582 -0.56323,-1.22887 -1.38247,-2.17612 -2.45773,-2.84176 -1.07526,-0.69123 -2.36812,-1.03685 -3.87861,-1.03685 h -3.8786 v 16.20566 h 3.8786 c 1.53609,0 2.82896,-0.34562 3.87861,-1.03685 1.07526,-0.71684 1.8945,-1.68969 2.45773,-2.91856 0.56323,-1.25447 0.84485,-2.64974 0.84485,-4.18582 z"
       fill="white"
       style="fill:#3a3e43;fill-opacity:1;stroke-width:0.849236"
       id="path17" />
    <path
       d="m 441.2435,190.92113 c -2.04811,0 -3.90421,-0.38402 -5.5683,-1.15206 -1.63848,-0.79365 -3.05936,-1.8433 -4.26262,-3.14897 -1.17767,-1.33127 -2.08651,-2.81615 -2.72655,-4.45464 -0.64003,-1.66409 -0.96005,-3.37938 -0.96005,-5.14587 0,-1.8177 0.33282,-3.54579 0.99845,-5.18428 0.69124,-1.63848 1.63849,-3.09776 2.84175,-4.37783 1.22887,-1.30567 2.67535,-2.32972 4.33944,-3.07216 1.66408,-0.74244 3.48178,-1.11366 5.45309,-1.11366 2.0225,0 3.853,0.39682 5.49149,1.19046 1.66409,0.76804 3.08496,1.8177 4.26262,3.14897 1.20327,1.33127 2.12492,2.82895 2.76495,4.49304 0.64004,1.63848 0.96005,3.31537 0.96005,5.03066 0,1.8177 -0.33282,3.54579 -0.99845,5.18428 -0.66564,1.63849 -1.61289,3.11057 -2.84175,4.41623 -1.22887,1.28007 -2.67534,2.30413 -4.33943,3.07217 -1.63849,0.74244 -3.44339,1.11366 -5.41469,1.11366 z m -7.10438,-13.82474 c 0,1.04966 0.15361,2.07371 0.46083,3.07217 0.30721,0.97285 0.75524,1.84329 1.34407,2.61133 0.61443,0.76805 1.36967,1.38248 2.26572,1.8433 0.89605,0.46083 1.9201,0.69124 3.07216,0.69124 1.20327,0 2.25292,-0.23041 3.14897,-0.69124 0.89605,-0.48642 1.63849,-1.12646 2.22732,-1.9201 0.58883,-0.79364 1.02405,-1.67689 1.30567,-2.64974 0.30721,-0.99845 0.46082,-2.00971 0.46082,-3.03376 0,-1.04966 -0.15361,-2.06091 -0.46082,-3.03376 -0.30722,-0.97285 -0.76804,-1.8433 -1.38248,-2.61134 -0.61443,-0.79364 -1.36967,-1.40808 -2.26572,-1.8433 -0.89604,-0.43522 -1.9073,-0.65283 -3.03376,-0.65283 -1.20326,0 -2.25292,0.23041 -3.14897,0.69123 -0.87044,0.46083 -1.61288,1.08806 -2.22731,1.8817 -0.58884,0.76804 -1.03686,1.65129 -1.34408,2.64974 -0.28161,0.97285 -0.42242,1.97131 -0.42242,2.99536 z"
       fill="white"
       style="fill:#3a3e43;fill-opacity:1;stroke-width:0.849236"
       id="path18" />
    <path
       d="m 483.27453,163.46367 h 5.79871 l 2.84175,8.71726 2.84176,-8.71726 h 5.83711 l -4.64665,12.67267 2.76495,7.25799 6.83556,-19.96906 h 6.87396 l -10.63736,27.26545 h -5.45309 l -4.41624,-10.67577 -4.37783,10.67577 h -5.49149 l -10.59896,-27.26545 h 6.83556 l 6.87396,19.96906 2.68815,-7.25799 z"
       fill="white"
       style="fill:#3a3e43;fill-opacity:1;stroke-width:0.849236"
       id="path19" />
    <path
       d="m 553.19185,190.69072 v -16.24407 l -5.87551,11.82783 h -3.45618 l -5.87552,-11.82783 v 16.24407 h -6.29793 v -27.26545 h 6.83556 l 7.06598,14.24715 7.10438,-14.24715 h 6.79716 v 27.26545 z"
       fill="white"
       style="fill:#3a3e43;fill-opacity:1;stroke-width:0.849236"
       id="path20" />
    <path
       d="m 600.78478,185.16082 v 5.5299 h -19.16261 v -27.26545 h 18.817 v 5.52989 H 587.9201 v 5.29948 h 10.75257 v 5.10747 H 587.9201 v 5.79871 z"
       fill="white"
       style="fill:#3a3e43;fill-opacity:1;stroke-width:0.849236"
       id="path21" />
    <path
       d="m 627.80702,175.09949 v 15.59123 h -6.29793 v -27.26545 h 4.99226 l 12.63427,16.05205 v -16.05205 h 6.29794 v 27.26545 h -5.14587 z"
       fill="white"
       style="fill:#3a3e43;fill-opacity:1;stroke-width:0.849236"
       id="path22" />
    <path
       d="m 688.31904,168.95516 h -8.29484 v 21.73556 h -6.29794 v -21.73556 h -8.33324 v -5.52989 h 22.92602 z"
       fill="white"
       style="fill:#3a3e43;fill-opacity:1;stroke-width:0.849236"
       id="path23" />
  </g>
  <g
     clip-path="url(#clip0_595_21552)"
     id="g68"
     transform="matrix(1.2743526,0,0,1.2743526,526.81179,251.98557)">
    <rect
       x="69"
       y="192"
       width="15"
       height="15"
       rx="3"
       fill="#8cd7ab"
       style="fill-opacity:1"
       id="rect1-3" />
    <path
       d="m 169.5,388 v -16.873 c 0,-4.243 -1.686,-8.313 -4.686,-11.313 L 81.1863,276.186 c -3.0006,-3 -4.6863,-7.07 -4.6863,-11.313 V 208"
       stroke="#8cd7ab"
       style="stroke-opacity:1"
       stroke-linecap="round"
       stroke-dasharray="0.1, 2"
       id="path1-6" />
    <rect
       x="288"
       y="218"
       width="15"
       height="15"
       rx="3"
       fill="#ededed"
       style="fill-opacity:1"
       id="rect2" />
    <path
       d="m 277.5,282.5 v -8.686 c 0,-2.122 0.843,-4.157 2.343,-5.657 l 13.314,-13.314 c 1.5,-1.5 2.343,-3.535 2.343,-5.657 V 233"
       stroke="#ededed"
       style="stroke-opacity:1"
       id="path2-7" />
    <path
       d="M 268.5,423.668 V 154.185 c 0,-4.238 1.682,-8.303 4.676,-11.303 l 24.648,-24.694 c 2.994,-2.999 4.676,-7.065 4.676,-11.303 V 52.3867"
       stroke="#8cd7ab"
       style="stroke-opacity:1"
       id="path3-5" />
    <path
       d="M 250.5,423.668 V 78.8967 c 0,-3.7529 1.43,-7.3646 4,-10.0998 2.57,-2.7352 4,-6.347 4,-10.0998 V 18.1289"
       stroke="#d9f2e3"
       style="stroke-opacity:1"
       stroke-linecap="round"
       stroke-dasharray="2, 4"
       id="path4-3" />
    <path
       d="M 232.5,423.668 V 200.164 c 0,-4.235 -1.679,-8.297 -4.669,-11.297 L 133.169,93.9177 C 130.179,90.9185 128.5,86.8562 128.5,82.6212 V 38.5664"
       stroke="#d9f2e3"
       style="stroke-opacity:1"
       id="path5-5" />
    <path
       d="M 286.5,423.668 V 308.326 c 0,-4.243 1.685,-8.312 4.685,-11.313 l 139.63,-139.651 c 3,-3.001 4.685,-7.07 4.685,-11.313 V 90.5117"
       stroke="#3aae6a"
       style="stroke-opacity:1"
       id="path6-6" />
    <path
       d="m 160.5,423.668 v -94.939 c 0,-4.223 -1.669,-8.274 -4.644,-11.271 L 23.1442,183.753 C 20.1694,180.756 18.5,176.705 18.5,172.482 v -17.47"
       stroke="#3aae6a"
       style="stroke-opacity:1"
       id="path7-2" />
    <path
       d="m 304.5,423.668 v -60.406 c 0,-4.249 1.69,-8.324 4.698,-11.325 L 456.802,204.626 c 3.008,-3.002 4.698,-7.076 4.698,-11.325 v -19.805"
       stroke="#8cd7ab"
       style="stroke-opacity:1"
       id="path8-9" />
    <path
       d="M 322.5,423.668 V 305.78 c 0,-4.248 -1.689,-8.322 -4.695,-11.323 l -135.61,-135.39 c -3.006,-3.002 -4.695,-7.075 -4.695,-11.323 v -35.803"
       stroke="#8cd7ab"
       style="stroke-opacity:1"
       id="path9-1" />
    <path
       d="m 295.5,423.668 v -87.642 c 0,-4.257 1.697,-8.339 4.715,-11.342 l 91.57,-91.102 c 3.018,-3.003 4.715,-7.085 4.715,-11.343 v -92.938"
       stroke="#81c69d"
       style="stroke-opacity:1"
       stroke-linecap="round"
       stroke-dasharray="0.1, 2"
       id="path10-2" />
    <path
       d="m 313.5,423.668 v -177.06 c 0,-4.255 1.695,-8.335 4.71,-11.337 l 52.58,-52.358 c 3.015,-3.002 4.71,-7.082 4.71,-11.338 V 67.082"
       stroke="#3aae6a"
       style="stroke-opacity:1"
       id="path11-7" />
    <path
       d="m 214.5,423.668 v -71.074 c 0,-4.235 -1.679,-8.298 -4.669,-11.297 l -94.662,-94.95 c -2.99,-2.999 -4.669,-7.061 -4.669,-11.296 V 81.2305"
       stroke="#81c69d"
       style="stroke-opacity:1"
       stroke-linecap="round"
       stroke-dasharray="2, 4"
       id="path12-0" />
    <path
       d="m 205.5,423.668 v -106.84 c 0,-4.235 -1.679,-8.297 -4.669,-11.296 L 47.169,151.398 C 44.179,148.399 42.5,144.337 42.5,140.102 v -30.649"
       stroke="#d9f2e3"
       style="stroke-opacity:1"
       id="path13-9" />
    <path
       d="M 277.5,423.668 V 227.42 c 0,-4.239 1.682,-8.304 4.676,-11.304 l 41.648,-41.724 c 2.994,-3 4.676,-7.065 4.676,-11.304 V 87.9219"
       stroke="#ededed"
       style="stroke-opacity:1"
       id="path14-3" />
    <path
       d="M 196.5,423.668 V 206.89 c 0,-4.184 -1.639,-8.201 -4.565,-11.191 l -40.87,-41.765 c -2.926,-2.99 -4.565,-7.007 -4.565,-11.191 V 81"
       stroke="#3aae6a"
       style="stroke-opacity:1"
       id="path15-6" />
    <path
       d="M 151.5,423.668 V 117.982 c 0,-4.238 1.682,-8.303 4.676,-11.303 l 24.648,-24.6937 c 2.994,-2.9997 4.676,-7.065 4.676,-11.3033 V 21.1094"
       stroke="#3aae6a"
       style="stroke-opacity:1"
       id="path16-0" />
    <path
       d="M 169.5,423.668 V 238.499 c 0,-4.244 -1.686,-8.314 -4.686,-11.314 L 65.1863,127.557 c -3.0006,-3 -4.6863,-7.07 -4.6863,-11.313 V 77.7383"
       stroke="#3aae6a"
       style="stroke-opacity:1"
       stroke-linecap="round"
       stroke-dasharray="0.1, 2"
       id="path17-6" />
    <path
       d="M 178.5,423.668 V 170.075 c 0,-4.318 1.746,-8.454 4.841,-11.466 l 25.318,-24.64 c 3.095,-3.012 4.841,-7.147 4.841,-11.466 V 17.2773"
       stroke="#81c69d"
       style="stroke-opacity:1"
       id="path18-2" />
    <path
       d="M 259.5,423.668 V 189.525 c 0,-4.238 1.682,-8.304 4.676,-11.303 l 7.648,-7.662 c 2.994,-3 4.676,-7.065 4.676,-11.304 V 79.4062"
       stroke="#3aae6a"
       style="stroke-opacity:1"
       id="path19-6" />
    <path
       d="M 223.5,423.668 V 247.88 c 0,-4.252 1.693,-8.329 4.704,-11.331 L 344.796,120.322 c 3.011,-3.002 4.704,-7.079 4.704,-11.331 V 37.7148"
       stroke="#cdcdcd"
       style="stroke-opacity:1"
       stroke-linecap="round"
       stroke-dasharray="2, 4"
       id="path20-1" />
    <path
       d="M 331.5,423.668 V 195.966 c 0,-4.271 -1.707,-8.364 -4.741,-11.368 L 248.241,106.832 C 245.207,103.827 243.5,99.7343 243.5,95.4641 V 36"
       stroke="#3aae6a"
       style="stroke-opacity:1"
       id="path21-8" />
    <path
       d="M 187.5,423.668 V 218.893 c 0,-4.232 -1.676,-8.291 -4.662,-11.29 l -82.676,-83.03 C 97.1763,121.574 95.5,117.515 95.5,113.283 V 44.5273"
       stroke="#ededed"
       style="stroke-opacity:1"
       id="path22-7" />
    <path
       d="M 241.5,423.668 V 322.783 c 0,-4.232 -1.676,-8.291 -4.661,-11.289 L 90.1614,164.17 C 87.1761,161.172 85.5,157.113 85.5,152.881 v -31.619"
       stroke="#3aae6a"
       style="stroke-opacity:1"
       id="path23-9" />
    <rect
       x="247"
       y="16"
       width="23"
       height="23"
       rx="6"
       fill="#d9f2e3"
       style="fill-opacity:1"
       id="rect23" />
    <rect
       x="232"
       y="32"
       width="23"
       height="23"
       rx="6"
       fill="#3fbd73"
       style="fill-opacity:1"
       id="rect24" />
    <rect
       x="232.5"
       y="32.5"
       width="22"
       height="22"
       rx="5.5"
       stroke="black"
       stroke-opacity="0.08"
       style="stroke:#000000;stroke-opacity:0.08"
       id="rect25" />
    <rect
       x="265"
       y="68"
       width="23"
       height="23"
       rx="6"
       fill="#3fbd73"
       style="fill-opacity:1"
       id="rect26" />
    <rect
       x="265.5"
       y="68.5"
       width="22"
       height="22"
       rx="5.5"
       stroke="black"
       stroke-opacity="0.08"
       style="stroke:#000000;stroke-opacity:0.08"
       id="rect27" />
    <rect
       x="291"
       y="34"
       width="23"
       height="23"
       rx="6"
       fill="#8cd7ab"
       style="fill-opacity:1"
       id="rect28" />
    <rect
       x="317"
       y="75"
       width="23"
       height="23"
       rx="6"
       fill="#ededed"
       style="fill-opacity:1"
       id="rect29" />
    <rect
       x="338"
       y="25"
       width="23"
       height="23"
       rx="6"
       fill="#cdcdcd"
       style="fill-opacity:1"
       id="rect30" />
    <rect
       x="364"
       y="51"
       width="23"
       height="23"
       rx="6"
       fill="#3fbd73"
       style="fill-opacity:1"
       id="rect31" />
    <rect
       x="364.5"
       y="51.5"
       width="22"
       height="22"
       rx="5.5"
       stroke="black"
       stroke-opacity="0.08"
       style="stroke:#000000;stroke-opacity:0.08"
       id="rect32" />
    <rect
       x="385"
       y="117"
       width="23"
       height="23"
       rx="6"
       fill="#8cd7ab"
       style="fill-opacity:1"
       id="rect33" />
    <rect
       x="385.5"
       y="117.5"
       width="22"
       height="22"
       rx="5.5"
       stroke="black"
       stroke-opacity="0.08"
       style="stroke:#000000;stroke-opacity:0.08"
       id="rect34" />
    <rect
       x="424"
       y="87"
       width="23"
       height="23"
       rx="6"
       fill="#3fbd73"
       style="fill-opacity:1"
       id="rect35" />
    <rect
       x="424.5"
       y="87.5"
       width="22"
       height="22"
       rx="5.5"
       stroke="black"
       stroke-opacity="0.08"
       style="stroke:#000000;stroke-opacity:0.08"
       id="rect36" />
    <rect
       x="450"
       y="161"
       width="23"
       height="23"
       rx="6"
       fill="#8cd7ab"
       style="fill-opacity:1"
       id="rect37" />
    <rect
       x="202"
       y="9"
       width="23"
       height="23"
       rx="6"
       fill="#8cd7ab"
       style="fill-opacity:1"
       id="rect38" />
    <rect
       x="202.5"
       y="9.5"
       width="22"
       height="22"
       rx="5.5"
       stroke="black"
       stroke-opacity="0.08"
       style="stroke:#000000;stroke-opacity:0.08"
       id="rect39" />
    <rect
       x="174"
       y="19"
       width="23"
       height="23"
       rx="6"
       fill="#3fbd73"
       style="fill-opacity:1"
       id="rect40" />
    <rect
       x="174.5"
       y="19.5"
       width="22"
       height="22"
       rx="5.5"
       stroke="black"
       stroke-opacity="0.08"
       style="stroke:#000000;stroke-opacity:0.08"
       id="rect41" />
    <rect
       x="166"
       y="100"
       width="23"
       height="23"
       rx="6"
       fill="#8cd7ab"
       style="fill-opacity:1"
       id="rect42" />
    <rect
       x="135"
       y="58"
       width="23"
       height="23"
       rx="6"
       fill="#3fbd73"
       style="fill-opacity:1"
       id="rect43" />
    <rect
       x="135.5"
       y="58.5"
       width="22"
       height="22"
       rx="5.5"
       stroke="black"
       stroke-opacity="0.08"
       style="stroke:#000000;stroke-opacity:0.08"
       id="rect44" />
    <rect
       x="117"
       y="22"
       width="23"
       height="23"
       rx="6"
       fill="#d9f2e3"
       style="fill-opacity:1"
       id="rect45" />
    <rect
       x="99"
       y="69"
       width="23"
       height="23"
       rx="6"
       fill="#8cd7ab"
       style="fill-opacity:1"
       id="rect46" />
    <rect
       x="99.5"
       y="69.5"
       width="22"
       height="22"
       rx="5.5"
       stroke="black"
       stroke-opacity="0.08"
       style="stroke:#000000;stroke-opacity:0.08"
       id="rect47" />
    <rect
       x="84"
       y="35"
       width="23"
       height="23"
       rx="6"
       fill="#ededed"
       style="fill-opacity:1"
       id="rect48" />
    <rect
       x="74"
       y="109"
       width="23"
       height="23"
       rx="6"
       fill="#3fbd73"
       style="fill-opacity:1"
       id="rect49" />
    <rect
       x="74.5"
       y="109.5"
       width="22"
       height="22"
       rx="5.5"
       stroke="black"
       stroke-opacity="0.08"
       style="stroke:#000000;stroke-opacity:0.08"
       id="rect50" />
    <rect
       x="49"
       y="68"
       width="23"
       height="23"
       rx="6"
       fill="#3fbd73"
       style="fill-opacity:1"
       id="rect51" />
    <rect
       x="49.5"
       y="68.5"
       width="22"
       height="22"
       rx="5.5"
       stroke="black"
       stroke-opacity="0.08"
       style="stroke:#000000;stroke-opacity:0.08"
       id="rect52" />
    <rect
       x="31"
       y="99"
       width="23"
       height="23"
       rx="6"
       fill="#d9f2e3"
       style="fill-opacity:1"
       id="rect53" />
    <rect
       x="8"
       y="143"
       width="23"
       height="23"
       rx="6"
       fill="#3fbd73"
       style="fill-opacity:1"
       id="rect54" />
    <rect
       x="8.5"
       y="143.5"
       width="22"
       height="22"
       rx="5.5"
       stroke="black"
       stroke-opacity="0.08"
       style="stroke:#000000;stroke-opacity:0.08"
       id="rect55" />
    <path
       d="m 213.5,115.5 v -5.686 c 0,-2.122 0.843,-4.157 2.343,-5.657 l 8.314,-8.3139 c 1.5,-1.5002 2.343,-3.5351 2.343,-5.6568 V 82.5"
       stroke="url(#paint0_linear_595_21552)"
       id="path55"
       style="stroke:url(#paint0_linear_595_21552)" />
    <rect
       x="217"
       y="65"
       width="19"
       height="19"
       rx="4"
       fill="#8cd7ab"
       style="fill-opacity:1"
       id="rect56" />
    <rect
       x="223"
       y="116"
       width="19"
       height="19"
       rx="4"
       fill="#d9f2e3"
       style="fill-opacity:1"
       id="rect57" />
    <rect
       x="211"
       y="139"
       width="15"
       height="15"
       rx="3"
       fill="#d9f2e3"
       style="fill-opacity:1"
       id="rect58" />
    <rect
       x="237"
       y="159"
       width="15"
       height="15"
       rx="3"
       fill="#8cd7ab"
       style="fill-opacity:1"
       id="rect59" />
    <rect
       x="127"
       y="232"
       width="15"
       height="15"
       rx="3"
       fill="#81c69d"
       style="fill-opacity:1"
       id="rect60" />
    <rect
       x="340"
       y="130"
       width="19"
       height="19"
       rx="4"
       fill="#8cd7ab"
       style="fill-opacity:1"
       id="rect61" />
    <rect
       x="205"
       y="208"
       width="19"
       height="19"
       rx="4"
       fill="#8cd7ab"
       style="fill-opacity:1"
       id="rect62" />
    <path
       d="m 331.5,217 v -10.686 c 0,-2.122 0.843,-4.157 2.343,-5.657 l 13.314,-13.314 c 1.5,-1.5 2.343,-3.535 2.343,-5.657 V 149"
       stroke="url(#paint1_linear_595_21552)"
       id="path62"
       style="stroke:url(#paint1_linear_595_21552)" />
    <path
       d="M 232.5,206.5 V 135"
       stroke="#d9f2e3"
       style="stroke-opacity:1"
       id="path63" />
    <path
       d="m 232.5,183.5 v -3.686 c 0,-2.122 -0.843,-4.157 -2.343,-5.657 l -9.314,-9.314 c -1.5,-1.5 -2.343,-3.535 -2.343,-5.657 V 154"
       stroke="#d9f2e3"
       style="stroke-opacity:1"
       id="path64" />
    <rect
       x="172.5"
       y="17.5"
       width="26"
       height="26"
       rx="7"
       stroke="#3aae6a"
       style="stroke-opacity:1"
       stroke-linecap="round"
       stroke-dasharray="0.1, 2"
       id="rect64" />
    <rect
       x="383.5"
       y="115.5"
       width="26"
       height="26"
       rx="7"
       stroke="#8cd7ab"
       style="stroke-opacity:1"
       stroke-linecap="round"
       stroke-dasharray="0.1, 2"
       id="rect65" />
    <rect
       x="233.5"
       y="155.5"
       width="22"
       height="22"
       rx="6"
       stroke="#8cd7ab"
       style="stroke-opacity:1"
       stroke-linecap="round"
       stroke-dasharray="0.1, 2"
       id="rect66" />
    <path
       d="m 196.5,264.5 v -6.686 c 0,-2.122 0.843,-4.157 2.343,-5.657 l 13.314,-13.314 c 1.5,-1.5 2.343,-3.535 2.343,-5.657 V 227"
       stroke="url(#paint2_linear_595_21552)"
       id="path66"
       style="stroke:url(#paint2_linear_595_21552)" />
    <path
       d="m 205.5,327 v -34.656 c 0,-2.14 0.857,-4.19 2.38,-5.693 l 34.24,-33.802 c 1.523,-1.503 2.38,-3.553 2.38,-5.693 V 174"
       stroke="url(#paint3_linear_595_21552)"
       id="path67"
       style="stroke:url(#paint3_linear_595_21552)" />
    <path
       d="m 178.5,380 v -42.425 c 0,-4.213 -1.661,-8.255 -4.623,-11.25 l -34.754,-35.15 c -2.962,-2.995 -4.623,-7.037 -4.623,-11.25 V 248"
       stroke="#81c69d"
       style="stroke-opacity:1"
       stroke-linecap="round"
       stroke-dasharray="0.1, 2"
       id="path68" />
  </g>
  <text
     xml:space="preserve"
     id="text4"
     style="font-style:normal;font-variant:normal;font-weight:600;font-stretch:normal;font-size:58.6667px;line-height:1.1;font-family:'Plus Jakarta Sans';-inkscape-font-specification:'Plus Jakarta Sans Semi-Bold';text-align:start;writing-mode:lr-tb;direction:ltr;white-space:pre;shape-inside:url(#rect4);shape-padding:0;display:inline;fill:#3a3e43;fill-opacity:1"
     x="0"
     y="0"
     transform="translate(-25.326675,-209.09514)"><tspan
       x="96.019531"
       y="324.82797"
       id="tspan2"><tspan
         style="font-weight:500;-inkscape-font-specification:'Plus Jakarta Sans Medium'"
         id="tspan1">Truly sustainable funding
</tspan></tspan><tspan
       x="96.019531"
       y="389.36136"
       id="tspan5"><tspan
         style="font-weight:500;-inkscape-font-specification:'Plus Jakarta Sans Medium'"
         id="tspan3">for critical open source </tspan></tspan><tspan
       x="96.019531"
       y="453.89475"
       id="tspan7"><tspan
         style="font-weight:500;-inkscape-font-specification:'Plus Jakarta Sans Medium'"
         id="tspan6">software. </tspan></tspan></text>
</svg>
