<?xml version="1.0" encoding="UTF-8" standalone="no"?>
<svg
   width="140"
   height="140"
   viewBox="0 0 140 140"
   fill="none"
   version="1.1"
   id="svg5"
   sodipodi:docname="social-avatar.svg"
   inkscape:version="1.4.3 (0d15f75042, 2025-12-25)"
   xmlns:inkscape="http://www.inkscape.org/namespaces/inkscape"
   xmlns:sodipodi="http://sodipodi.sourceforge.net/DTD/sodipodi-0.dtd"
   xmlns="http://www.w3.org/2000/svg"
   xmlns:svg="http://www.w3.org/2000/svg">
  <sodipodi:namedview
     id="namedview5"
     pagecolor="#ffffff"
     bordercolor="#666666"
     borderopacity="1.0"
     inkscape:showpageshadow="2"
     inkscape:pageopacity="0.0"
     inkscape:pagecheckerboard="0"
     inkscape:deskcolor="#d1d1d1"
     inkscape:zoom="6.1857143"
     inkscape:cx="69.919169"
     inkscape:cy="69.919169"
     inkscape:window-width="3840"
     inkscape:window-height="2127"
     inkscape:window-x="0"
     inkscape:window-y="0"
     inkscape:window-maximized="0"
     inkscape:current-layer="svg5" />
  <rect
     width="140"
     height="140"
     fill="url(#paint0_linear_179_261)"
     style=""
     id="rect1" />
  <g
     id="g5"
     transform="translate(4.355465,4.93072)">
    <path
       d="m 106.94649,27.890266 v 33.561791 c 0,4.8684 -1.93384,9.53745 -5.37659,12.979922 L 75.740568,100.26131 v -1.286787 c 0,-4.868124 1.933943,-9.537357 5.376506,-12.97983 L 96.06297,71.048614 c 3.442748,-3.442472 5.3766,-8.111522 5.3766,-12.979922 V 22.723574 c -2.299145,-1.88236 -4.754317,-3.586938 -7.342574,-5.092348 v 21.163218 c 0,2.921058 -1.160401,5.722432 -3.225866,7.787989 l -2.281062,2.280969 V 14.822417 C 86.22521,13.776009 83.773066,12.886273 81.247497,12.166884 v 44.039182 l -5.506929,5.506928 V 10.826039 C 73.342852,10.396499 70.89181,10.118766 68.397998,9.9999999 V 69.055474 l -3.171807,3.171898 c -6.19658,6.196488 -9.677693,14.600703 -9.677693,23.364062 v 24.547126 h 7.342571 V 95.591434 c 0,-6.815926 2.707574,-13.352558 7.527053,-18.172129 L 94.096996,53.740522 v 4.32817 c 0,2.921059 -1.160401,5.722433 -3.225866,7.78799 L 75.925051,80.802669 c -4.81948,4.819572 -7.527053,11.356204 -7.527053,18.171854 v 21.164037 h 7.34257 v -4.93144 c 0,-2.92052 1.160402,-5.7217 3.225868,-7.78772 L 106.76202,79.624003 c 4.81948,-4.819571 7.52705,-11.356204 7.52705,-18.171946 V 37.78695 c -2.07245,-3.56803 -4.53955,-6.886046 -7.34258,-9.896684 z"
       fill="white"
       style="fill:#ffffff;fill-opacity:1;stroke-width:1"
       id="path1" />
    <path
       d="M 62.891069,9.9999999 V 55.576165 L 58.774365,51.459461 C 56.7089,49.393904 55.548498,46.592529 55.548498,43.671471 V 10.826039 c 2.397717,-0.42954 4.848758,-0.707273 7.342571,-0.8260391 z"
       fill="white"
       style="fill:#ffffff;fill-opacity:1;stroke-width:1"
       id="path2" />
    <path
       d="m 17,37.78695 c 2.072899,-3.56803 4.53982,-6.886046 7.342571,-9.896684 v 14.364639 c 0,3.014218 1.235387,5.896728 3.418058,7.975501 l 2.08887,1.989378 v -29.49621 c 2.299051,-1.88236 4.753856,-3.586938 7.342571,-5.092348 v 41.581531 l 17.994623,17.137745 c -1.299727,2.256556 -2.366695,4.637659 -3.185391,7.105956 L 37.19207,69.35248 v 3.998213 c 0,3.062588 1.275222,5.98695 3.519478,8.070864 l 9.679712,8.988316 c -0.231659,1.70779 -0.34969,3.438618 -0.34969,5.181561 v 4.513846 L 35.715296,86.802193 c -3.740489,-3.473312 -5.865797,-8.347127 -5.865797,-13.4515 V 62.359507 l -7.152674,-6.81207 C 19.058949,52.082845 17,47.278601 17,42.254905 Z"
       fill="white"
       style="fill:#ffffff;fill-opacity:1;stroke-width:1"
       id="path3" />
    <path
       d="m 42.698999,14.822417 c 2.364858,-1.046408 4.817002,-1.936144 7.342571,-2.655533 v 32.448107 c 0,5.023696 2.058948,9.827939 5.696826,13.292532 l 7.152673,6.812162 v 2.054818 l -1.55892,1.55892 c -0.86477,0.864772 -1.684293,1.766439 -2.456916,2.701332 L 50.674591,63.224646 C 45.581509,58.374143 42.698999,51.648165 42.698999,44.614991 Z"
       fill="white"
       style="fill:#ffffff;fill-opacity:1;stroke-width:1"
       id="path4" />
  </g>
  <defs
     id="defs5">
    <linearGradient
       id="paint0_linear_179_261"
       x1="0"
       y1="0"
       x2="140"
       y2="146"
       gradientUnits="userSpaceOnUse">
      <stop
         stop-color="#3DA4FF"
         style="stop-color:#3DA4FF;stop-color:color(display-p3 0.2392 0.6431 1.0000);stop-opacity:1;"
         id="stop4" />
      <stop
         offset="1"
         stop-color="#19B964"
         style="stop-color:#19B964;stop-color:color(display-p3 0.0980 0.7255 0.3922);stop-opacity:1;"
         id="stop5" />
    </linearGradient>
  </defs>
</svg>
