<svg width="200" height="200" viewBox="0 0 200 200" fill="none" xmlns="http://www.w3.org/2000/svg">
<path d="M19 71.9982C19 76.9482 21.0197 81.6817 24.5869 85.0955L28 88.3603V13H40V99.8443L94.4307 147C92.3072 150.705 90.5623 154.614 89.2246 158.667L40 116.498V123.066L40.0234 124.005C40.2658 128.689 42.3127 133.111 45.751 136.319L87.8682 171.58C87.4896 174.384 87.294 177.225 87.2939 180.087L86 187L37.5859 145.156C31.855 139.809 28.4451 132.439 28.041 124.632L28 123.066V105.014L16.3105 93.827C10.3654 88.1374 7 80.2481 7 71.9982V13H19V71.9982Z" fill="#5BA9EE" style="fill:#5BA9EE;fill:color(display-p3 0.3569 0.6646 0.9339);fill-opacity:1;"/>
<path d="M61 75.8753C61.0002 84.1251 64.3654 92.0146 70.3105 97.7041L94.4307 119.692V123.066L91.8818 125.627C90.4687 127.047 89.1307 128.528 87.8682 130.063L62.0342 106.436C53.7109 98.4703 49.0002 87.425 49 75.8753V13H61V75.8753Z" fill="#5BA9EE" style="fill:#5BA9EE;fill:color(display-p3 0.3569 0.6646 0.9339);fill-opacity:1;"/>
<path d="M82 93.8741L75.2734 87.115C71.8978 83.723 70 79.1209 70 74.3239V13H82V93.8741Z" fill="#5BA9EE" style="fill:#5BA9EE;fill:color(display-p3 0.3569 0.6646 0.9339);fill-opacity:1;"/>
<path d="M117 71.9982C117 76.9482 119.02 81.6817 122.587 85.0955L126 88.3603V13H138V99.8443L192.431 147C190.307 150.705 188.562 154.614 187.225 158.667L138 116.498V123.066L138.023 124.005C138.266 128.689 140.313 133.111 143.751 136.319L185.868 171.58C185.49 174.384 185.294 177.225 185.294 180.087L184 187L135.586 145.156C129.855 139.809 126.445 132.439 126.041 124.632L126 123.066V105.014L114.311 93.827C108.365 88.1374 105 80.2481 105 71.9982V13H117V71.9982Z" fill="#5BA9EE" style="fill:#5BA9EE;fill:color(display-p3 0.3569 0.6646 0.9339);fill-opacity:1;"/>
<path d="M159 75.8753C159 84.1251 162.365 92.0146 168.311 97.7041L192.431 119.692V123.066L189.882 125.627C188.469 127.047 187.131 128.528 185.868 130.063L160.034 106.436C151.711 98.4703 147 87.425 147 75.8753V13H159V75.8753Z" fill="#5BA9EE" style="fill:#5BA9EE;fill:color(display-p3 0.3569 0.6646 0.9339);fill-opacity:1;"/>
<path d="M180 93.8741L173.273 87.115C169.898 83.723 168 79.1209 168 74.3239V13H180V93.8741Z" fill="#5BA9EE" style="fill:#5BA9EE;fill:color(display-p3 0.3569 0.6646 0.9339);fill-opacity:1;"/>
</svg>
