<svg width="200" height="200" viewBox="0 0 200 200" fill="none" xmlns="http://www.w3.org/2000/svg">
<path d="M27 81.9982C27 86.9482 29.0197 91.6817 32.5869 95.0955L36 98.3603V23H48V109.844L102.431 157C100.307 160.705 98.5623 164.614 97.2246 168.667L48 126.498V133.066L48.0234 134.005C48.2658 138.689 50.3127 143.111 53.751 146.319L95.8682 181.58C95.4896 184.384 95.294 187.225 95.2939 190.087L94 197L45.5859 155.156C39.855 149.809 36.4451 142.439 36.041 134.632L36 133.066V115.014L24.3105 103.827C18.3654 98.1374 15 90.2481 15 81.9982V23H27V81.9982Z" fill="#5BA9EE" style="fill:#5BA9EE;fill:color(display-p3 0.3569 0.6646 0.9339);fill-opacity:1;"/>
<path d="M69 85.8753C69.0002 94.1251 72.3654 102.015 78.3105 107.704L102.431 129.692V133.066L99.8818 135.627C98.4687 137.047 97.1307 138.528 95.8682 140.063L70.0342 116.436C61.7109 108.47 57.0002 97.425 57 85.8753V23H69V85.8753Z" fill="#5BA9EE" style="fill:#5BA9EE;fill:color(display-p3 0.3569 0.6646 0.9339);fill-opacity:1;"/>
<path d="M90 103.874L83.2734 97.115C79.8978 93.723 78 89.1209 78 84.3239V23H90V103.874Z" fill="#5BA9EE" style="fill:#5BA9EE;fill:color(display-p3 0.3569 0.6646 0.9339);fill-opacity:1;"/>
<path d="M172 81.9982C172 86.9482 169.98 91.6817 166.413 95.0955L163 98.3603V23H151V109.844L96.5693 157C98.6928 160.705 100.438 164.614 101.775 168.667L151 126.498V133.066L150.977 134.005C150.734 138.689 148.687 143.111 145.249 146.319L103.132 181.58C103.51 184.384 103.706 187.225 103.706 190.087L105 197L153.414 155.156C159.145 149.809 162.555 142.439 162.959 134.632L163 133.066V115.014L174.689 103.827C180.635 98.1374 184 90.2481 184 81.9982V23H172V81.9982Z" fill="#5BA9EE" style="fill:#5BA9EE;fill:color(display-p3 0.3569 0.6646 0.9339);fill-opacity:1;"/>
<path d="M130 85.8753C130 94.1251 126.635 102.015 120.689 107.704L96.5693 129.692V133.066L99.1182 135.627C100.531 137.047 101.869 138.528 103.132 140.063L128.966 116.436C137.289 108.47 142 97.425 142 85.8753V23H130V85.8753Z" fill="#5BA9EE" style="fill:#5BA9EE;fill:color(display-p3 0.3569 0.6646 0.9339);fill-opacity:1;"/>
<path d="M109 103.874L115.727 97.115C119.102 93.723 121 89.1209 121 84.3239V23H109V103.874Z" fill="#5BA9EE" style="fill:#5BA9EE;fill:color(display-p3 0.3569 0.6646 0.9339);fill-opacity:1;"/>
<path d="M105 197C100.875 197 99.5 197 94 197V128H105V197Z" fill="#5BA9EE" style="fill:#5BA9EE;fill:color(display-p3 0.3569 0.6646 0.9339);fill-opacity:1;"/>
</svg>
