<svg width="200" height="200" viewBox="0 0 200 200" fill="none" xmlns="http://www.w3.org/2000/svg">
<path d="M200 152.6C200 158.122 195.523 162.6 190 162.6H10C4.47719 162.6 0 158.122 0 152.6V89H200V152.6ZM155 119C149.477 119 145 123.477 145 129V139C145 144.523 149.477 149 155 149H175C180.523 149 185 144.523 185 139V129C185 123.477 180.523 119 175 119H155ZM190 37C195.523 37 200 41.4772 200 47V63H0V47C0 41.4772 4.47718 37 10 37H190Z" fill="#3FBD73" style="fill:#3FBD73;fill:color(display-p3 0.2455 0.7402 0.4516);fill-opacity:1;"/>
</svg>
