<svg width="44" height="44" viewBox="0 0 44 44" fill="none" xmlns="http://www.w3.org/2000/svg">
<rect width="44" height="44" fill="#5BA9EE" fill-opacity="0.12" style="fill:#5BA9EE;fill:color(display-p3 0.3569 0.6646 0.9339);fill-opacity:0.12;"/>
<path fill-rule="evenodd" clip-rule="evenodd" d="M31.5 29.9998C31.7761 29.9998 32 30.2236 32 30.4998C32 30.7759 31.7761 30.9998 31.5 30.9998H12.5C12.2239 30.9998 12 30.7759 12 30.4998C12 30.2236 12.2239 29.9998 12.5 29.9998H31.5ZM15.5 18.9998C15.7761 18.9998 16 19.2236 16 19.4998C16 19.7759 15.7761 19.9998 15.5 19.9998H15V27.9998H15.5C15.7761 27.9998 16 28.2236 16 28.4998C16 28.7759 15.7761 28.9998 15.5 28.9998H13.5C13.2239 28.9998 13 28.7759 13 28.4998C13 28.2236 13.2239 27.9998 13.5 27.9998H14V19.9998H13.5C13.2239 19.9998 13 19.7759 13 19.4998C13 19.2236 13.2239 18.9998 13.5 18.9998H15.5ZM20.5 18.9998C20.7761 18.9998 21 19.2236 21 19.4998C21 19.7759 20.7761 19.9998 20.5 19.9998H20V27.9998H20.5C20.7761 27.9998 21 28.2236 21 28.4998C21 28.7759 20.7761 28.9998 20.5 28.9998H18.5C18.2239 28.9998 18 28.7759 18 28.4998C18 28.2236 18.2239 27.9998 18.5 27.9998H19V19.9998H18.5C18.2239 19.9998 18 19.7759 18 19.4998C18 19.2236 18.2239 18.9998 18.5 18.9998H20.5ZM25.5 18.9998C25.7761 18.9998 26 19.2236 26 19.4998C26 19.7759 25.7761 19.9998 25.5 19.9998H25V27.9998H25.5C25.7761 27.9998 26 28.2236 26 28.4998C26 28.7759 25.7761 28.9998 25.5 28.9998H23.5C23.2239 28.9998 23 28.7759 23 28.4998C23 28.2236 23.2239 27.9998 23.5 27.9998H24V19.9998H23.5C23.2239 19.9998 23 19.7759 23 19.4998C23 19.2236 23.2239 18.9998 23.5 18.9998H25.5ZM30.5 18.9998C30.7761 18.9998 31 19.2236 31 19.4998C31 19.7759 30.7761 19.9998 30.5 19.9998H30V27.9998H30.5C30.7761 27.9998 31 28.2236 31 28.4998C31 28.7759 30.7761 28.9998 30.5 28.9998H28.5C28.2239 28.9998 28 28.7759 28 28.4998C28 28.2236 28.2239 27.9998 28.5 27.9998H29V19.9998H28.5C28.2239 19.9998 28 19.7759 28 19.4998C28 19.2236 28.2239 18.9998 28.5 18.9998H30.5ZM21.8809 12.0144C21.9981 11.9856 22.1231 12 22.2324 12.0574L31.7324 17.0574C31.9359 17.1645 32.0405 17.3966 31.9854 17.6199C31.9301 17.843 31.7299 17.9998 31.5 17.9998H12.5C12.2701 17.9998 12.0699 17.843 12.0146 17.6199C11.9595 17.3966 12.0641 17.1645 12.2676 17.0574L21.7676 12.0574L21.8809 12.0144ZM14.5234 16.9998H29.4766L22 13.0642L14.5234 16.9998Z" fill="#5BA9EE" style="fill:#5BA9EE;fill:color(display-p3 0.3569 0.6646 0.9339);fill-opacity:1;"/>
</svg>
