<svg width="20" height="19" viewBox="0 0 20 19" fill="none" xmlns="http://www.w3.org/2000/svg">
<path fill-rule="evenodd" clip-rule="evenodd" d="M19.5 17.9998C19.7761 17.9998 20 18.2236 20 18.4998C20 18.7759 19.7761 18.9998 19.5 18.9998H0.5C0.223858 18.9998 0 18.7759 0 18.4998C0 18.2236 0.223858 17.9998 0.5 17.9998H19.5ZM3.5 6.99976C3.77614 6.99976 4 7.22362 4 7.49976C4 7.7759 3.77614 7.99976 3.5 7.99976H3V15.9998H3.5C3.77614 15.9998 4 16.2236 4 16.4998C4 16.7759 3.77614 16.9998 3.5 16.9998H1.5C1.22386 16.9998 1 16.7759 1 16.4998C1 16.2236 1.22386 15.9998 1.5 15.9998H2V7.99976H1.5C1.22386 7.99976 1 7.7759 1 7.49976C1 7.22362 1.22386 6.99976 1.5 6.99976H3.5ZM8.5 6.99976C8.77614 6.99976 9 7.22362 9 7.49976C9 7.7759 8.77614 7.99976 8.5 7.99976H8V15.9998H8.5C8.77614 15.9998 9 16.2236 9 16.4998C9 16.7759 8.77614 16.9998 8.5 16.9998H6.5C6.22386 16.9998 6 16.7759 6 16.4998C6 16.2236 6.22386 15.9998 6.5 15.9998H7V7.99976H6.5C6.22386 7.99976 6 7.7759 6 7.49976C6 7.22362 6.22386 6.99976 6.5 6.99976H8.5ZM13.5 6.99976C13.7761 6.99976 14 7.22362 14 7.49976C14 7.7759 13.7761 7.99976 13.5 7.99976H13V15.9998H13.5C13.7761 15.9998 14 16.2236 14 16.4998C14 16.7759 13.7761 16.9998 13.5 16.9998H11.5C11.2239 16.9998 11 16.7759 11 16.4998C11 16.2236 11.2239 15.9998 11.5 15.9998H12V7.99976H11.5C11.2239 7.99976 11 7.7759 11 7.49976C11 7.22362 11.2239 6.99976 11.5 6.99976H13.5ZM18.5 6.99976C18.7761 6.99976 19 7.22362 19 7.49976C19 7.7759 18.7761 7.99976 18.5 7.99976H18V15.9998H18.5C18.7761 15.9998 19 16.2236 19 16.4998C19 16.7759 18.7761 16.9998 18.5 16.9998H16.5C16.2239 16.9998 16 16.7759 16 16.4998C16 16.2236 16.2239 15.9998 16.5 15.9998H17V7.99976H16.5C16.2239 7.99976 16 7.7759 16 7.49976C16 7.22362 16.2239 6.99976 16.5 6.99976H18.5ZM9.88086 0.0144074C9.9981 -0.0143665 10.1231 -3.93744e-05 10.2324 0.0573761L19.7324 5.05738C19.9359 5.16447 20.0405 5.39665 19.9854 5.61988C19.9301 5.84301 19.7299 5.99976 19.5 5.99976H0.5C0.270117 5.99976 0.0698701 5.84301 0.0146484 5.61988C-0.04051 5.39665 0.0640959 5.16447 0.267578 5.05738L9.76758 0.0573761L9.88086 0.0144074ZM2.52344 4.99976H17.4766L10 1.06421L2.52344 4.99976Z" fill="#BBBDBF" style="fill:#BBBDBF;"/>
</svg>
