<svg width="20" height="20" viewBox="0 0 20 20" fill="none" xmlns="http://www.w3.org/2000/svg">
<path d="M18.5 3C19.3284 3 20 3.67157 20 4.5V15.5C20 16.3284 19.3284 17 18.5 17H1.5C0.671573 17 0 16.3284 0 15.5V4.5C0 3.67157 0.671573 3 1.5 3H18.5ZM12 12.5C11.5375 12.5 11.1574 12.6171 10.8555 12.8184C10.5567 13.0176 10.3636 13.2796 10.2402 13.5264C10.1178 13.7712 10.0592 14.0102 10.0303 14.1836C10.0156 14.2714 10.0078 14.3461 10.0039 14.4004C10.002 14.4274 10.0015 14.45 10.001 14.4668C10.0007 14.475 10.0001 14.4818 10 14.4873V14.499L10.5 14.5H10C10 14.7761 10.2239 15 10.5 15C10.7761 15 11 14.7761 11 14.5C11.0002 14.4949 11.001 14.4845 11.002 14.4707C11.0039 14.443 11.0079 14.4001 11.0166 14.3477C11.0346 14.2398 11.0697 14.1037 11.1348 13.9736C11.1989 13.8454 11.2871 13.7324 11.4102 13.6504C11.5301 13.5704 11.7125 13.5 12 13.5C12.2875 13.5 12.4699 13.5704 12.5898 13.6504C12.7129 13.7324 12.8011 13.8454 12.8652 13.9736C12.9303 14.1037 12.9654 14.2398 12.9834 14.3477C12.9921 14.4001 12.9961 14.443 12.998 14.4707C12.999 14.4845 12.9998 14.4949 13 14.5C13 14.7761 13.2239 15 13.5 15C13.7417 15 13.9437 14.8286 13.9902 14.6006L14 14.5049V14.5059C14 14.5044 14.0005 14.4991 14.001 14.4922C14.002 14.4781 14.004 14.4548 14.0088 14.4258C14.019 14.3648 14.0385 14.2912 14.0723 14.2236C14.1051 14.1579 14.1465 14.1074 14.1992 14.0723C14.2488 14.0392 14.3375 14 14.5 14C14.6625 14 14.7512 14.0392 14.8008 14.0723C14.8535 14.1074 14.8949 14.1579 14.9277 14.2236C14.9615 14.2912 14.981 14.3648 14.9912 14.4258C14.996 14.4548 14.998 14.4781 14.999 14.4922C14.9995 14.4984 14.9999 14.5031 15 14.5049L15.0098 14.6006C15.0563 14.8286 15.2583 15 15.5 15H16.5C16.7761 15 17 14.7761 17 14.5C17 14.2239 16.7761 14 16.5 14H15.9121C15.8889 13.9288 15.8605 13.8529 15.8223 13.7764C15.7301 13.5921 15.584 13.3926 15.3555 13.2402C15.1238 13.0858 14.8375 13 14.5 13C14.1625 13 13.8762 13.0858 13.6445 13.2402C13.6301 13.2499 13.6173 13.2615 13.6035 13.2715C13.4883 13.1087 13.3406 12.9491 13.1445 12.8184C12.8426 12.6171 12.4625 12.5 12 12.5ZM1.5 7C1.22386 7 1 7.22386 1 7.5V8.5C1 8.77614 1.22386 9 1.5 9H18.5C18.7761 9 19 8.77614 19 8.5V7.5C19 7.22386 18.7761 7 18.5 7H1.5Z" fill="#3FBD73" style="fill:#bbbdbf;"/>
</svg>
