<svg width="44" height="44" viewBox="0 0 44 44" fill="none" xmlns="http://www.w3.org/2000/svg">
<rect width="44" height="44" fill="#5BA9EE" fill-opacity="0.12" style="fill:#5BA9EE;fill:color(display-p3 0.3569 0.6646 0.9339);fill-opacity:0.12;"/>
<path d="M26.5 12C27.3284 12 28 12.6716 28 13.5V31.5C28 31.7761 27.7761 32 27.5 32C27.2239 32 27 31.7761 27 31.5V13.5C27 13.2239 26.7761 13 26.5 13H17.5C17.2239 13 17 13.2239 17 13.5V31.5C17 31.7761 16.7761 32 16.5 32C16.2239 32 16 31.7761 16 31.5V13.5C16 12.6716 16.6716 12 17.5 12H26.5ZM22 16V29L18 31V14L22 16Z" fill="#5BA9EE" style="fill:#5BA9EE;fill:color(display-p3 0.3569 0.6646 0.9339);fill-opacity:1;"/>
</svg>
