<svg width="94" height="81" viewBox="0 0 94 81" fill="none" xmlns="http://www.w3.org/2000/svg">
<rect width="90" height="90" transform="translate(2 2)" fill="#5BA9EE" fill-opacity="0.12" style="fill:#5BA9EE;fill:color(display-p3 0.3569 0.6646 0.9339);fill-opacity:0.12;"/>
<rect opacity="0.2" x="2.5" y="2.5" width="89" height="89" stroke="#445E76" style="stroke:#445E76;stroke:color(display-p3 0.2667 0.3686 0.4627);stroke-opacity:1;"/>
<rect x="0.5" y="0.5" width="4" height="4" fill="#3A3E43" stroke="#445E76" style="fill:#3A3E43;fill:color(display-p3 0.2275 0.2431 0.2627);fill-opacity:1;stroke:#445E76;stroke:color(display-p3 0.2667 0.3686 0.4627);stroke-opacity:1;"/>
<rect x="89.5" y="0.5" width="4" height="4" fill="#3A3E43" stroke="#445E76" style="fill:#3A3E43;fill:color(display-p3 0.2275 0.2431 0.2627);fill-opacity:1;stroke:#445E76;stroke:color(display-p3 0.2667 0.3686 0.4627);stroke-opacity:1;"/>
<path d="M72.6118 40.4229C78.3041 46.3533 81.9533 54.253 82.439 63H62.3687C61.9526 59.7735 60.5434 56.8621 58.4604 54.5742L72.6118 40.4229ZM35.5464 54.5615C33.4583 56.8512 32.0479 59.7687 31.6313 63H11.561C12.047 54.2481 15.6992 46.3437 21.397 40.4121L35.5464 54.5615ZM48.2573 29.5244C56.9294 29.8263 64.8079 33.2384 70.8179 38.6807L56.6353 52.8633C54.2975 51.0046 51.4117 49.8053 48.2573 49.5518V29.5244ZM45.7573 49.5508C42.6027 49.8013 39.7158 50.9974 37.3765 52.8535L23.1919 38.6699C29.2038 33.2304 37.0845 29.8227 45.7573 29.5244V49.5508Z" stroke="#445E76" style="stroke:#445E76;stroke:color(display-p3 0.2667 0.3686 0.4627);stroke-opacity:1;"/>
<path d="M72.6187 39.7095C78.71 45.8794 82.5867 54.2381 82.9663 63.5H61.9253C61.5816 60.0381 60.0586 56.9251 57.7666 54.5615L72.6187 39.7095Z" fill="#445E76" style="fill:#445E76;fill:color(display-p3 0.2667 0.3686 0.4627);fill-opacity:1;"/>
<path d="M45.0159 60.7542L57.0581 43.8345C57.5853 43.0937 58.7292 43.7541 58.3513 44.5811L49.7194 63.4698C49.0508 64.933 47.2676 65.5028 45.8744 64.6984C44.4812 63.894 44.0831 62.0649 45.0159 60.7542Z" fill="#445E76" style="fill:#445E76;fill:color(display-p3 0.2667 0.3686 0.4627);fill-opacity:1;"/>
</svg>
