<svg width="64" height="65" viewBox="0 0 64 65" fill="none" xmlns="http://www.w3.org/2000/svg">
<rect width="60" height="60" transform="translate(2 2.5)" fill="#5BA9EE" fill-opacity="0.12" style="fill:#5BA9EE;fill:color(display-p3 0.3569 0.6646 0.9339);fill-opacity:0.12;"/>
<rect opacity="0.2" x="2.5" y="3" width="59" height="59" stroke="#5BA9EE" style="stroke:#5BA9EE;stroke:color(display-p3 0.3569 0.6646 0.9339);stroke-opacity:1;"/>
<rect x="0.5" y="1" width="4" height="4" fill="white" stroke="#CEE6FA" style="fill:white;fill-opacity:1;stroke:#CEE6FA;stroke:color(display-p3 0.8078 0.9020 0.9804);stroke-opacity:1;"/>
<rect x="0.5" y="60" width="4" height="4" fill="white" stroke="#CEE6FA" style="fill:white;fill-opacity:1;stroke:#CEE6FA;stroke:color(display-p3 0.8078 0.9020 0.9804);stroke-opacity:1;"/>
<rect x="59.5" y="1" width="4" height="4" fill="white" stroke="#CEE6FA" style="fill:white;fill-opacity:1;stroke:#CEE6FA;stroke:color(display-p3 0.8078 0.9020 0.9804);stroke-opacity:1;"/>
<rect x="59.5" y="60" width="4" height="4" fill="white" stroke="#CEE6FA" style="fill:white;fill-opacity:1;stroke:#CEE6FA;stroke:color(display-p3 0.8078 0.9020 0.9804);stroke-opacity:1;"/>
<path d="M49.0723 28.3525C52.7356 32.2244 55.0938 37.3399 55.4502 43H42.3926C42.0957 40.9267 41.192 39.0511 39.8701 37.5547L49.0723 28.3525ZM24.1348 37.5469C22.8096 39.0446 21.9046 40.9236 21.6074 43H8.5498C8.9064 37.3367 11.2667 32.2183 14.9336 28.3457L24.1348 37.5469ZM33.0049 21.0215C38.6152 21.2575 43.716 23.4602 47.6377 26.959L38.4111 36.1855C36.8871 35.0084 35.0301 34.2395 33.0049 34.0469V21.0215ZM31.0049 34.0459C28.9793 34.2366 27.1209 35.003 25.5957 36.1787L16.3682 26.9512C20.2912 23.4542 25.3941 21.2551 31.0049 21.0215V34.0459Z" stroke="#5BA9EE" style="stroke:#5BA9EE;stroke:color(display-p3 0.3569 0.6646 0.9339);stroke-opacity:1;"/>
<path d="M49.0791 27.6396C53.14 31.7529 55.7244 37.3254 55.9775 43.5H41.9502C41.721 41.192 40.7057 39.1167 39.1777 37.541L49.0791 27.6396Z" fill="#5BA9EE" style="fill:#5BA9EE;fill:color(display-p3 0.3569 0.6646 0.9339);fill-opacity:1;"/>
<path d="M30.6773 41.6697L38.7054 30.3898C39.0569 29.896 39.8194 30.3362 39.5675 30.8876L33.8129 43.48C33.3672 44.4555 32.1784 44.8353 31.2496 44.2991C30.3208 43.7629 30.0554 42.5434 30.6773 41.6697Z" fill="#5BA9EE" style="fill:#5BA9EE;fill:color(display-p3 0.3569 0.6646 0.9339);fill-opacity:1;"/>
</svg>
