<svg width="44" height="44" viewBox="0 0 44 44" fill="none" xmlns="http://www.w3.org/2000/svg">
<rect width="44" height="44" fill="#5BA9EE" fill-opacity="0.12" style="fill:#5BA9EE;fill:color(display-p3 0.3569 0.6646 0.9339);fill-opacity:0.12;"/>
<path d="M22 12C27.5023 12 31.9649 16.4439 31.998 21.9385C32.001 21.9603 32.0049 21.9823 32.0049 22.0049C32.0049 22.0281 32.0011 22.0508 31.998 22.0732C31.9587 27.5624 27.4984 32 22 32C16.4772 32 12 27.5228 12 22C12 16.4772 16.4772 12 22 12ZM21.5 27.0059C20.5554 27.0297 19.6497 27.1219 18.8008 27.2695C18.9665 27.7604 19.1543 28.2138 19.3594 28.624C20.0402 29.9856 20.8109 30.6868 21.5 30.9141V27.0059ZM22.5 30.9141C23.1891 30.6868 23.9598 29.9856 24.6406 28.624C24.8457 28.2139 25.0325 27.7603 25.1982 27.2695C24.3496 27.122 23.4441 27.0297 22.5 27.0059V30.9141ZM17.8154 27.4727C16.9707 27.6743 16.1977 27.9341 15.5176 28.2402C16.5933 29.3575 17.9544 30.196 19.4844 30.6406C18.813 29.8567 18.2404 28.7701 17.8154 27.4727ZM26.1836 27.4727C25.7585 28.7702 25.1861 29.8568 24.5146 30.6406C26.0448 30.1961 27.4056 29.3574 28.4814 28.2402C27.8013 27.9342 27.0284 27.6742 26.1836 27.4727ZM13.0146 22.5049C13.1172 24.3591 13.7818 26.0624 14.8398 27.4502C15.6342 27.067 16.544 26.7497 17.5371 26.5098C17.2299 25.2961 17.0425 23.9405 17.0068 22.5049H13.0146ZM26.9932 22.5049C26.9575 23.941 26.7683 25.2967 26.4609 26.5107C27.4543 26.7507 28.3646 27.067 29.1592 27.4502C30.2174 26.0623 30.8828 24.3593 30.9854 22.5049H26.9932ZM18.0068 22.5049C18.0429 23.8825 18.2265 25.1686 18.5176 26.3047C19.4594 26.1348 20.4611 26.0308 21.5 26.0059V22.5049H18.0068ZM22.5 22.5049V26.0059C23.5386 26.0308 24.5399 26.1349 25.4814 26.3047C25.7726 25.1686 25.9571 23.8826 25.9932 22.5049H22.5ZM14.8398 16.5488C13.7797 17.9392 13.1154 19.6467 13.0146 21.5049H17.0068C17.0419 20.0653 17.2291 18.7059 17.5371 17.4893C16.5439 17.2493 15.6342 16.9321 14.8398 16.5488ZM18.5176 17.6943C18.2256 18.8333 18.0413 20.1232 18.0059 21.5049H21.5V17.9932C20.461 17.9682 19.4595 17.8642 18.5176 17.6943ZM25.4814 17.6943C24.5398 17.8641 23.5386 17.9682 22.5 17.9932V21.5049H25.9941C25.9587 20.1231 25.7734 18.8334 25.4814 17.6943ZM29.1592 16.5488C28.3646 16.9321 27.4544 17.2483 26.4609 17.4883C26.7691 18.7053 26.9581 20.0648 26.9932 21.5049H30.9854C30.8846 19.6465 30.2195 17.9393 29.1592 16.5488ZM21.5 13.085C20.8108 13.3121 20.0403 14.0142 19.3594 15.376C19.1544 15.7859 18.9665 16.239 18.8008 16.7295C19.6497 16.8771 20.5554 16.9693 21.5 16.9932V13.085ZM22.5 16.9932C23.4442 16.9693 24.3495 16.877 25.1982 16.7295C25.0326 16.2391 24.8456 15.7858 24.6406 15.376C23.9597 14.0142 23.1892 13.3121 22.5 13.085V16.9932ZM19.4844 13.3584C17.9545 13.803 16.5933 14.6417 15.5176 15.7588C16.1977 16.065 16.9706 16.3247 17.8154 16.5264C18.2405 15.229 18.813 14.1421 19.4844 13.3584ZM24.5146 13.3584C25.1862 14.1421 25.7584 15.2289 26.1836 16.5264C27.0285 16.3248 27.8013 16.0649 28.4814 15.7588C27.4056 14.6418 26.0446 13.8028 24.5146 13.3584Z" fill="#5BA9EE" style="fill:#5BA9EE;fill:color(display-p3 0.3569 0.6646 0.9339);fill-opacity:1;"/>
</svg>
