<svg width="44" height="44" viewBox="0 0 44 44" fill="none" xmlns="http://www.w3.org/2000/svg">
<rect width="44" height="44" fill="#5BA9EE" fill-opacity="0.12" style="fill:#5BA9EE;fill:color(display-p3 0.3569 0.6646 0.9339);fill-opacity:0.12;"/>
<path d="M22 12C27.5228 12 32 16.4772 32 22C32 27.5228 27.5228 32 22 32C16.4772 32 12 27.5228 12 22C12 16.4772 16.4772 12 22 12ZM17.4238 26.1709C17.8888 27.8725 18.7192 29.4227 19.8252 30.7334C20.5218 30.9063 21.2499 31 22 31C23.1316 31 24.2133 30.7885 25.2109 30.4072C24.2824 29.7112 23.449 28.8949 22.7363 27.9795C22.6592 27.9917 22.5805 28 22.5 28C21.8339 28 21.27 27.5656 21.0742 26.9648C19.7978 26.875 18.5721 26.6029 17.4238 26.1709ZM13.126 23.498C13.6175 26.4309 15.5261 28.8822 18.125 30.124C17.2504 28.7913 16.6158 27.2878 16.2783 25.6748C15.1198 25.1059 14.0587 24.3698 13.126 23.498ZM27.459 25.7988C26.365 26.3059 25.1893 26.6654 23.9561 26.8516C23.8982 27.0921 23.7832 27.3094 23.625 27.4893C24.3756 28.4276 25.2637 29.2512 26.2598 29.9287C27.4952 29.2635 28.5555 28.3174 29.3594 27.1768C28.6839 26.7746 28.0482 26.3128 27.459 25.7988ZM30.873 23.498C30.1318 24.1908 29.3098 24.7981 28.4219 25.3037C28.8841 25.6806 29.3749 26.0234 29.8906 26.3291C30.3672 25.4624 30.7036 24.5089 30.873 23.498ZM18.1787 20.4248C17.9367 20.7329 17.5779 20.9435 17.168 20.9893C17.0577 21.643 17 22.3149 17 23C17 23.6765 17.0585 24.3394 17.166 24.9854C18.3846 25.5223 19.709 25.8617 21.0996 25.9648C21.1455 25.8447 21.2057 25.7319 21.2793 25.6289C20.5757 24.1665 20.1362 22.5524 20.0264 20.8486C19.3941 20.7523 18.7776 20.6088 18.1787 20.4248ZM23.1377 20.9482C22.7628 20.9808 22.3833 21 22 21C21.6767 21 21.3565 20.9842 21.0391 20.9609C21.1541 22.4127 21.5274 23.7913 22.1133 25.0518C22.2368 25.0189 22.3662 25 22.5 25C23.0977 25 23.6114 25.3506 23.8525 25.8564C24.8375 25.7038 25.7824 25.4315 26.6729 25.0547C25.6681 24.0198 24.8348 22.818 24.2168 21.4951C23.782 21.4713 23.3964 21.2649 23.1377 20.9482ZM30.1309 18.1406C28.8424 19.175 27.3527 19.9676 25.7295 20.4531C25.6326 20.7592 25.4395 21.0209 25.1865 21.207C25.7996 22.478 26.63 23.6241 27.6299 24.5977C28.9073 23.9176 30.0478 23.0147 30.998 21.9385C30.9889 20.5796 30.6788 19.293 30.1309 18.1406ZM13.8682 18.1406C13.3203 19.293 13.0101 20.5798 13.001 21.9385C13.8793 22.9333 14.9207 23.7797 16.082 24.4395C16.0299 23.9667 16 23.4866 16 23C16 22.2371 16.0663 21.4895 16.1924 20.7627C15.7764 20.4961 15.5 20.0308 15.5 19.5C15.5 19.4209 15.5077 19.3434 15.5195 19.2676C14.9395 18.9333 14.3872 18.5573 13.8682 18.1406ZM23.1943 13.0811C21.82 15.0252 21.0092 17.3956 21 19.9561C21.3298 19.9833 21.6632 20 22 20C22.2691 20 22.5361 19.9872 22.8008 19.9697C22.8095 19.529 23.0081 19.1351 23.3184 18.8662C23.1108 17.944 23 16.985 23 16C23 15.0027 23.1132 14.0313 23.3262 13.0977C23.2824 13.0912 23.2383 13.0869 23.1943 13.0811ZM21.7998 13.3994C20.1138 14.6659 18.7727 16.3655 17.9414 18.333C18.2764 18.6036 18.4912 19.015 18.498 19.4775C18.9873 19.6266 19.4894 19.745 20.0029 19.8311C20.0328 17.4852 20.6837 15.2891 21.7998 13.3994ZM24.3066 13.2988C24.107 14.1667 24 15.0706 24 16C24 16.8576 24.0897 17.6943 24.2607 18.501C24.2737 18.5006 24.2867 18.5 24.2998 18.5C24.9229 18.5 25.457 18.8801 25.6836 19.4209C27.1463 18.9496 28.486 18.2067 29.6436 17.249C28.4475 15.3288 26.5491 13.8917 24.3066 13.2988ZM20.5557 13.1162C17.94 13.5382 15.7021 15.0869 14.3555 17.249C14.8676 17.6728 15.4167 18.0526 15.9951 18.3877C16.2607 18.1476 16.6119 18.0005 16.998 18C17.7895 16.1024 19.0166 14.4324 20.5557 13.1162Z" fill="#5BA9EE" style="fill:#5BA9EE;fill:color(display-p3 0.3569 0.6646 0.9339);fill-opacity:1;"/>
</svg>
