<svg width="44" height="44" viewBox="0 0 44 44" fill="none" xmlns="http://www.w3.org/2000/svg">
<rect width="44" height="44" fill="#5BA9EE" fill-opacity="0.12" style="fill:#5BA9EE;fill:color(display-p3 0.3569 0.6646 0.9339);fill-opacity:0.12;"/>
<path d="M22.5 18C22.5 20.4853 21.2091 22.5 19 22.5C16.7909 22.5 15.5 20.4853 15.5 18C15.5 15.1933 16.4575 13.5 19 13.5C21.5425 13.5 22.5 15.1933 22.5 18Z" stroke="#5BA9EE" style="stroke:#5BA9EE;stroke:color(display-p3 0.3569 0.6627 0.9333);stroke-opacity:1;"/>
<path d="M29.5 19.5C29.5 21.1569 28.578 22.5 27 22.5C25.422 22.5 24.5 21.1569 24.5 19.5C24.5 17.6289 25.1839 16.5 27 16.5C28.8161 16.5 29.5 17.6289 29.5 19.5Z" stroke="#5BA9EE" style="stroke:#5BA9EE;stroke:color(display-p3 0.3569 0.6627 0.9333);stroke-opacity:1;"/>
<path d="M28.5 25C30.433 25 32 26.567 32 28.5H31C31 27.1193 29.8807 26 28.5 26H25.7383C25.4242 25.6198 25.06 25.2839 24.6553 25H28.5ZM22 25.0342C22.1353 25.0467 22.2594 25.0633 22.3779 25.0869C22.4896 25.1091 22.5996 25.1358 22.708 25.166C23.2497 25.3169 23.7497 25.5645 24.1875 25.8906C24.2341 25.9254 24.278 25.9635 24.3232 26H22V25.0342Z" fill="#5BA9EE" style="fill:#5BA9EE;fill:color(display-p3 0.3569 0.6627 0.9333);fill-opacity:1;"/>
<path d="M12.5 30.5C12.5 29.5707 12.5 29.106 12.5769 28.7196C12.8925 27.1329 14.1329 25.8925 15.7196 25.5769C16.106 25.5 16.5707 25.5 17.5 25.5H20.5C21.4293 25.5 21.894 25.5 22.2804 25.5769C23.8671 25.8925 25.1075 27.1329 25.4231 28.7196C25.5 29.106 25.5 29.5707 25.5 30.5" stroke="#5BA9EE" style="stroke:#5BA9EE;stroke:color(display-p3 0.3569 0.6627 0.9333);stroke-opacity:1;"/>
</svg>
