<svg width="64" height="65" viewBox="0 0 64 65" fill="none" xmlns="http://www.w3.org/2000/svg">
<rect width="60" height="60" transform="translate(2 2.5)" fill="#5BA9EE" fill-opacity="0.12" style="fill:#5BA9EE;fill:color(display-p3 0.3569 0.6646 0.9339);fill-opacity:0.12;"/>
<rect opacity="0.2" x="2.5" y="3" width="59" height="59" stroke="#5BA9EE" style="stroke:#5BA9EE;stroke:color(display-p3 0.3569 0.6646 0.9339);stroke-opacity:1;"/>
<rect x="0.5" y="1" width="4" height="4" fill="white" stroke="#CEE6FA" style="fill:white;fill-opacity:1;stroke:#CEE6FA;stroke:color(display-p3 0.8078 0.9020 0.9804);stroke-opacity:1;"/>
<rect x="0.5" y="60" width="4" height="4" fill="white" stroke="#CEE6FA" style="fill:white;fill-opacity:1;stroke:#CEE6FA;stroke:color(display-p3 0.8078 0.9020 0.9804);stroke-opacity:1;"/>
<rect x="59.5" y="1" width="4" height="4" fill="white" stroke="#CEE6FA" style="fill:white;fill-opacity:1;stroke:#CEE6FA;stroke:color(display-p3 0.8078 0.9020 0.9804);stroke-opacity:1;"/>
<rect x="59.5" y="60" width="4" height="4" fill="white" stroke="#CEE6FA" style="fill:white;fill-opacity:1;stroke:#CEE6FA;stroke:color(display-p3 0.8078 0.9020 0.9804);stroke-opacity:1;"/>
<path d="M13.1141 28.77C18.6406 29.0248 24.0914 31.262 28.3114 35.482C32.5311 39.7017 34.7677 45.1523 35.0227 50.6785C29.4964 50.4236 24.0459 48.187 19.8261 43.9672C15.6061 39.7473 13.3689 34.2965 13.1141 28.77Z" stroke="#5BA9EE" style="stroke:#5BA9EE;stroke:color(display-p3 0.3569 0.6646 0.9339);stroke-opacity:1;"/>
<path d="M27.656 11.5706C30.9674 13.5675 33.584 16.7417 34.8105 20.7281C36.0368 24.7143 35.6562 28.81 34.0402 32.3227C30.7294 30.3257 28.1132 27.1518 26.8869 23.1658C25.6607 19.1795 26.0398 15.0833 27.656 11.5706Z" stroke="#5BA9EE" style="stroke:#5BA9EE;stroke:color(display-p3 0.3569 0.6646 0.9339);stroke-opacity:1;"/>
<path d="M49.0131 21.4762C43.8881 22.9776 39.3103 26.3771 36.4293 31.3672C33.5483 36.3572 32.8931 42.0214 34.1553 47.2105C39.2803 45.7091 43.8581 42.3096 46.7391 37.3195C49.6201 32.3295 50.2753 26.6653 49.0131 21.4762Z" fill="#5BA9EE" style="fill:#5BA9EE;fill:color(display-p3 0.3569 0.6646 0.9339);fill-opacity:1;"/>
</svg>
