<svg width="244" height="226" viewBox="0 0 244 226" fill="none" xmlns="http://www.w3.org/2000/svg">
<rect width="240" height="240" transform="translate(2 -16)" fill="#5BA9EE" fill-opacity="0.12" style="fill:#5BA9EE;fill:color(display-p3 0.3569 0.6646 0.9339);fill-opacity:0.12;"/>
<rect opacity="0.2" x="2.5" y="-15.5" width="239" height="239" stroke="#445E76" style="stroke:#445E76;stroke:color(display-p3 0.2667 0.3686 0.4627);stroke-opacity:1;"/>
<rect x="0.5" y="221.5" width="4" height="4" fill="#3A3E43" stroke="#445E76" style="fill:#3A3E43;fill:color(display-p3 0.2275 0.2431 0.2627);fill-opacity:1;stroke:#445E76;stroke:color(display-p3 0.2667 0.3686 0.4627);stroke-opacity:1;"/>
<rect x="239.5" y="221.5" width="4" height="4" fill="#3A3E43" stroke="#445E76" style="fill:#3A3E43;fill:color(display-p3 0.2275 0.2431 0.2627);fill-opacity:1;stroke:#445E76;stroke:color(display-p3 0.2667 0.3686 0.4627);stroke-opacity:1;"/>
<path d="M44.8999 87.5234C67.9187 88.1863 90.7378 97.2989 108.306 114.867C125.874 132.435 134.986 155.254 135.649 178.273C112.631 177.61 89.8118 168.498 72.2437 150.93C54.6754 133.361 45.5628 110.542 44.8999 87.5234Z" stroke="#445E76" style="stroke:#445E76;stroke:color(display-p3 0.2667 0.3686 0.4627);stroke-opacity:1;"/>
<path d="M103.972 18.1595C118.195 26.2652 129.482 39.5914 134.675 56.4727C139.868 73.3541 138.024 90.7198 130.817 105.419C116.594 97.3128 105.308 83.9862 100.114 67.1051C94.9211 50.2239 96.7645 32.8581 103.972 18.1595Z" stroke="#445E76" style="stroke:#445E76;stroke:color(display-p3 0.2667 0.3686 0.4627);stroke-opacity:1;"/>
<path d="M190.052 59.9048C169.552 65.9105 151.241 79.5084 139.717 99.4686C128.193 119.429 125.573 142.086 130.621 162.842C151.121 156.836 169.432 143.238 180.956 123.278C192.481 103.318 195.101 80.6611 190.052 59.9048Z" fill="#445E76" style="fill:#445E76;fill:color(display-p3 0.2667 0.3686 0.4627);fill-opacity:1;"/>
</svg>
