<svg width="64" height="65" viewBox="0 0 64 65" fill="none" xmlns="http://www.w3.org/2000/svg">
<rect width="60" height="60" transform="translate(2 2.5)" fill="#5BA9EE" fill-opacity="0.12" style="fill:#5BA9EE;fill:color(display-p3 0.3569 0.6646 0.9339);fill-opacity:0.12;"/>
<rect opacity="0.2" x="2.5" y="3" width="59" height="59" stroke="#5BA9EE" style="stroke:#5BA9EE;stroke:color(display-p3 0.3569 0.6646 0.9339);stroke-opacity:1;"/>
<rect x="0.5" y="1" width="4" height="4" fill="white" stroke="#CEE6FA" style="fill:white;fill-opacity:1;stroke:#CEE6FA;stroke:color(display-p3 0.8078 0.9020 0.9804);stroke-opacity:1;"/>
<rect x="0.5" y="60" width="4" height="4" fill="white" stroke="#CEE6FA" style="fill:white;fill-opacity:1;stroke:#CEE6FA;stroke:color(display-p3 0.8078 0.9020 0.9804);stroke-opacity:1;"/>
<rect x="59.5" y="1" width="4" height="4" fill="white" stroke="#CEE6FA" style="fill:white;fill-opacity:1;stroke:#CEE6FA;stroke:color(display-p3 0.8078 0.9020 0.9804);stroke-opacity:1;"/>
<rect x="59.5" y="60" width="4" height="4" fill="white" stroke="#CEE6FA" style="fill:white;fill-opacity:1;stroke:#CEE6FA;stroke:color(display-p3 0.8078 0.9020 0.9804);stroke-opacity:1;"/>
<path d="M14 25.1012L32 35.7024M14 25.1012L32 14.5L50 25.1012M14 25.1012V39.8988L32 50.5M32 35.7024L50 25.1012M32 35.7024V50.5M50 25.1012V39.8988L32 50.5" stroke="#5BA9EE" style="stroke:#5BA9EE;stroke:color(display-p3 0.3569 0.6646 0.9339);stroke-opacity:1;"/>
<path d="M50 25.1012L32 35.7024V50.5L50 39.8988V25.1012Z" fill="#5BA9EE" style="fill:#5BA9EE;fill:color(display-p3 0.3569 0.6646 0.9339);fill-opacity:1;"/>
<path d="M32.0544 31.1961C34.4381 31.1961 36.3705 30.0367 36.3705 28.6065V26.0168H27.7383V28.6065C27.7383 30.0367 29.6707 31.1961 32.0544 31.1961Z" fill="#E7F0F9" stroke="#5BA9EE" style="fill:#E7F0F9;fill:color(display-p3 0.9059 0.9412 0.9765);fill-opacity:1;stroke:#5BA9EE;stroke:color(display-p3 0.3569 0.6646 0.9339);stroke-opacity:1;"/>
<ellipse cx="32.0544" cy="26.0168" rx="4.31613" ry="2.58968" fill="#E7F0F9" stroke="#5BA9EE" style="fill:#E7F0F9;fill:color(display-p3 0.9059 0.9412 0.9765);fill-opacity:1;stroke:#5BA9EE;stroke:color(display-p3 0.3569 0.6646 0.9339);stroke-opacity:1;"/>
<path d="M32.0544 21.269C34.4381 21.269 36.3705 20.1096 36.3705 18.6793V16.0897H27.7383V18.6793C27.7383 20.1096 29.6707 21.269 32.0544 21.269Z" fill="#E7F0F9" stroke="#5BA9EE" style="fill:#E7F0F9;fill:color(display-p3 0.9059 0.9412 0.9765);fill-opacity:1;stroke:#5BA9EE;stroke:color(display-p3 0.3569 0.6646 0.9339);stroke-opacity:1;"/>
<ellipse cx="32.0544" cy="16.0897" rx="4.31613" ry="2.58968" fill="#E7F0F9" stroke="#5BA9EE" style="fill:#E7F0F9;fill:color(display-p3 0.9059 0.9412 0.9765);fill-opacity:1;stroke:#5BA9EE;stroke:color(display-p3 0.3569 0.6646 0.9339);stroke-opacity:1;"/>
<path d="M22.1277 26.0168C24.5114 26.0168 26.4438 24.8573 26.4438 23.4271V20.8374H17.8115V23.4271C17.8115 24.8573 19.7439 26.0168 22.1277 26.0168Z" fill="#E7F0F9" stroke="#5BA9EE" style="fill:#E7F0F9;fill:color(display-p3 0.9059 0.9412 0.9765);fill-opacity:1;stroke:#5BA9EE;stroke:color(display-p3 0.3569 0.6646 0.9339);stroke-opacity:1;"/>
<ellipse cx="22.1277" cy="20.8374" rx="4.31613" ry="2.58968" fill="#E7F0F9" stroke="#5BA9EE" style="fill:#E7F0F9;fill:color(display-p3 0.9059 0.9412 0.9765);fill-opacity:1;stroke:#5BA9EE;stroke:color(display-p3 0.3569 0.6646 0.9339);stroke-opacity:1;"/>
<path d="M41.9822 26.0168C44.3659 26.0168 46.2983 24.8573 46.2983 23.4271V20.8374H37.6661V23.4271C37.6661 24.8573 39.5985 26.0168 41.9822 26.0168Z" fill="#E7F0F9" stroke="#5BA9EE" style="fill:#E7F0F9;fill:color(display-p3 0.9059 0.9412 0.9765);fill-opacity:1;stroke:#5BA9EE;stroke:color(display-p3 0.3569 0.6646 0.9339);stroke-opacity:1;"/>
<ellipse cx="41.9822" cy="20.8374" rx="4.31613" ry="2.58968" fill="#E7F0F9" stroke="#5BA9EE" style="fill:#E7F0F9;fill:color(display-p3 0.9059 0.9412 0.9765);fill-opacity:1;stroke:#5BA9EE;stroke:color(display-p3 0.3569 0.6646 0.9339);stroke-opacity:1;"/>
</svg>
