<svg width="184" height="184" viewBox="0 0 184 184" fill="none" xmlns="http://www.w3.org/2000/svg">
<rect width="180" height="180" transform="translate(2 2)" fill="#5BA9EE" fill-opacity="0.12" style="fill:#5BA9EE;fill:color(display-p3 0.3569 0.6646 0.9339);fill-opacity:0.12;"/>
<rect opacity="0.2" x="2.5" y="2.5" width="179" height="179" stroke="#445E76" style="stroke:#445E76;stroke:color(display-p3 0.2667 0.3686 0.4627);stroke-opacity:1;"/>
<rect x="0.5" y="0.5" width="4" height="4" fill="#3A3E43" stroke="#445E76" style="fill:#3A3E43;fill:color(display-p3 0.2275 0.2431 0.2627);fill-opacity:1;stroke:#445E76;stroke:color(display-p3 0.2667 0.3686 0.4627);stroke-opacity:1;"/>
<rect x="0.5" y="179.5" width="4" height="4" fill="#3A3E43" stroke="#445E76" style="fill:#3A3E43;fill:color(display-p3 0.2275 0.2431 0.2627);fill-opacity:1;stroke:#445E76;stroke:color(display-p3 0.2667 0.3686 0.4627);stroke-opacity:1;"/>
<rect x="179.5" y="0.5" width="4" height="4" fill="#3A3E43" stroke="#445E76" style="fill:#3A3E43;fill:color(display-p3 0.2275 0.2431 0.2627);fill-opacity:1;stroke:#445E76;stroke:color(display-p3 0.2667 0.3686 0.4627);stroke-opacity:1;"/>
<rect x="179.5" y="179.5" width="4" height="4" fill="#3A3E43" stroke="#445E76" style="fill:#3A3E43;fill:color(display-p3 0.2275 0.2431 0.2627);fill-opacity:1;stroke:#445E76;stroke:color(display-p3 0.2667 0.3686 0.4627);stroke-opacity:1;"/>
<path d="M38 69.8037L92.0001 101.607M38 69.8037L92.0001 38L146 69.8037M38 69.8037V114.196L92.0001 146M92.0001 101.607L146 69.8037M92.0001 101.607V146M146 69.8037V114.196L92.0001 146" stroke="#445E76" style="stroke:#445E76;stroke:color(display-p3 0.2667 0.3686 0.4627);stroke-opacity:1;"/>
<path d="M146 69.8037L92.0001 101.607V146L146 114.196V69.8037Z" fill="#445E76" style="fill:#445E76;fill:color(display-p3 0.2667 0.3686 0.4627);fill-opacity:1;"/>
<path d="M92.1634 88.0884C99.3146 88.0884 105.112 84.61 105.112 80.3193V72.5503H79.215V80.3193C79.215 84.61 85.0122 88.0884 92.1634 88.0884Z" fill="#3E4B58" stroke="#445E76" style="fill:#3E4B58;fill:color(display-p3 0.2431 0.2941 0.3451);fill-opacity:1;stroke:#445E76;stroke:color(display-p3 0.2667 0.3686 0.4627);stroke-opacity:1;"/>
<ellipse cx="92.1634" cy="72.5508" rx="12.9484" ry="7.76904" fill="#3E4B58" stroke="#445E76" style="fill:#3E4B58;fill:color(display-p3 0.2431 0.2941 0.3451);fill-opacity:1;stroke:#445E76;stroke:color(display-p3 0.2667 0.3686 0.4627);stroke-opacity:1;"/>
<path d="M92.1634 58.3071C99.3146 58.3071 105.112 54.8288 105.112 50.5381V42.769H79.215V50.5381C79.215 54.8288 85.0122 58.3071 92.1634 58.3071Z" fill="#3E4B58" stroke="#445E76" style="fill:#3E4B58;fill:color(display-p3 0.2431 0.2941 0.3451);fill-opacity:1;stroke:#445E76;stroke:color(display-p3 0.2667 0.3686 0.4627);stroke-opacity:1;"/>
<ellipse cx="92.1634" cy="42.769" rx="12.9484" ry="7.76904" fill="#3E4B58" stroke="#445E76" style="fill:#3E4B58;fill:color(display-p3 0.2431 0.2941 0.3451);fill-opacity:1;stroke:#445E76;stroke:color(display-p3 0.2667 0.3686 0.4627);stroke-opacity:1;"/>
<path d="M62.383 72.5503C69.5342 72.5503 75.3314 69.072 75.3314 64.7812V57.0122H49.4346V64.7812C49.4346 69.072 55.2318 72.5503 62.383 72.5503Z" fill="#3E4B58" stroke="#445E76" style="fill:#3E4B58;fill:color(display-p3 0.2431 0.2941 0.3451);fill-opacity:1;stroke:#445E76;stroke:color(display-p3 0.2667 0.3686 0.4627);stroke-opacity:1;"/>
<ellipse cx="62.383" cy="57.0122" rx="12.9484" ry="7.76904" fill="#3E4B58" stroke="#445E76" style="fill:#3E4B58;fill:color(display-p3 0.2431 0.2941 0.3451);fill-opacity:1;stroke:#445E76;stroke:color(display-p3 0.2667 0.3686 0.4627);stroke-opacity:1;"/>
<path d="M121.947 72.5503C129.098 72.5503 134.895 69.072 134.895 64.7812V57.0122H108.998V64.7812C108.998 69.072 114.795 72.5503 121.947 72.5503Z" fill="#3E4B58" stroke="#445E76" style="fill:#3E4B58;fill:color(display-p3 0.2431 0.2941 0.3451);fill-opacity:1;stroke:#445E76;stroke:color(display-p3 0.2667 0.3686 0.4627);stroke-opacity:1;"/>
<ellipse cx="121.947" cy="57.0122" rx="12.9484" ry="7.76904" fill="#3E4B58" stroke="#445E76" style="fill:#3E4B58;fill:color(display-p3 0.2431 0.2941 0.3451);fill-opacity:1;stroke:#445E76;stroke:color(display-p3 0.2667 0.3686 0.4627);stroke-opacity:1;"/>
</svg>
