<svg width="44" height="44" viewBox="0 0 44 44" fill="none" xmlns="http://www.w3.org/2000/svg">
<rect width="44" height="44" fill="#5BA9EE" fill-opacity="0.12" style="fill:#5BA9EE;fill:color(display-p3 0.3569 0.6646 0.9339);fill-opacity:0.12;"/>
<path d="M22 12C22.2761 12 22.5 12.2239 22.5 12.5V14.0166C26.6853 14.2747 30 17.7497 30 22C30 22.2761 29.7761 22.5 29.5 22.5H29.29C29.0914 22.5 28.9116 22.3822 28.832 22.2002C28.5226 21.4925 27.8185 21 27 21C26.1815 21 25.4774 21.4925 25.168 22.2002C25.0884 22.3822 24.9086 22.5 24.71 22.5H24.29C24.0914 22.5 23.9116 22.3822 23.832 22.2002C23.5878 21.6418 23.0979 21.2177 22.5 21.0635V29.75C22.5 30.9926 21.4926 32 20.25 32C19.0074 32 18 30.9926 18 29.75V29.5C18 29.2239 18.2239 29 18.5 29C18.7761 29 19 29.2239 19 29.5V29.75C19 30.4404 19.5596 31 20.25 31C20.9404 31 21.5 30.4404 21.5 29.75V21.0635C20.9021 21.2177 20.4122 21.6418 20.168 22.2002C20.0884 22.3822 19.9086 22.5 19.71 22.5H19.29C19.0914 22.5 18.9116 22.3822 18.832 22.2002C18.5226 21.4925 17.8185 21 17 21C16.1815 21 15.4774 21.4925 15.168 22.2002C15.0884 22.3822 14.9086 22.5 14.71 22.5H14.5C14.2239 22.5 14 22.2761 14 22C14 17.7497 17.3147 14.2747 21.5 14.0166V12.5C21.5 12.2239 21.7239 12 22 12ZM22 15C18.5937 15 15.7566 17.4332 15.1299 20.6562C15.6422 20.2462 16.2916 20 17 20C18.0463 20 18.9639 20.5367 19.5 21.3467C20.0361 20.5367 20.9537 20 22 20C23.0463 20 23.9639 20.5367 24.5 21.3467C25.0361 20.5367 25.9537 20 27 20C27.7081 20 28.357 20.2465 28.8691 20.6562C28.2423 17.4333 25.4063 15 22 15Z" fill="#5BA9EE" style="fill:#5BA9EE;fill:color(display-p3 0.3569 0.6646 0.9339);fill-opacity:1;"/>
</svg>
