<svg width="496" height="240" viewBox="0 0 496 240" fill="none" xmlns="http://www.w3.org/2000/svg">
<rect width="496" height="240" fill="white" style="fill:white;fill-opacity:1;"/>
<path d="M379 17C379 24.732 373.627 31 367 31C360.373 31 355 24.732 355 17C355 8.26801 359.373 3 367 3C374.627 3 379 8.26801 379 17Z" stroke="#808387" style="stroke:#808387;stroke:color(display-p3 0.5020 0.5137 0.5294);stroke-opacity:1;" stroke-width="2"/>
<path d="M390 57C390 51.4087 390 48.6131 389.087 46.4078C387.869 43.4675 385.533 41.1314 382.592 39.9134C380.387 39 377.591 39 372 39H362C356.409 39 353.613 39 351.408 39.9134C348.467 41.1314 346.131 43.4675 344.913 46.4078C344 48.6131 344 51.4087 344 57" stroke="#808387" style="stroke:#808387;stroke:color(display-p3 0.5020 0.5137 0.5294);stroke-opacity:1;" stroke-width="2"/>
<ellipse cx="83" cy="120" rx="36" ry="53" stroke="#808387" style="stroke:#808387;stroke:color(display-p3 0.5020 0.5137 0.5294);stroke-opacity:1;" stroke-width="2"/>
<path d="M86 167C68.3269 167 54 145.957 54 120C54 94.0426 68.3269 73 86 73" stroke="#808387" style="stroke:#808387;stroke:color(display-p3 0.5020 0.5137 0.5294);stroke-opacity:1;"/>
<path d="M83 67H92C111.882 67 128 90.7289 128 120C128 149.271 111.882 173 92 173H83" stroke="#808387" style="stroke:#808387;stroke:color(display-p3 0.5020 0.5137 0.5294);stroke-opacity:1;" stroke-width="2"/>
<path d="M97 169H105.5" stroke="#808387" style="stroke:#808387;stroke:color(display-p3 0.5020 0.5137 0.5294);stroke-opacity:1;" stroke-width="2" stroke-linecap="round"/>
<path d="M97 71H105.5" stroke="#808387" style="stroke:#808387;stroke:color(display-p3 0.5020 0.5137 0.5294);stroke-opacity:1;" stroke-width="2" stroke-linecap="round"/>
<path d="M102 165H111" stroke="#808387" style="stroke:#808387;stroke:color(display-p3 0.5020 0.5137 0.5294);stroke-opacity:1;" stroke-width="2" stroke-linecap="round"/>
<path d="M102 75H111" stroke="#808387" style="stroke:#808387;stroke:color(display-p3 0.5020 0.5137 0.5294);stroke-opacity:1;" stroke-width="2" stroke-linecap="round"/>
<path d="M107.5 159H116" stroke="#808387" style="stroke:#808387;stroke:color(display-p3 0.5020 0.5137 0.5294);stroke-opacity:1;" stroke-width="2" stroke-linecap="round"/>
<path d="M107.5 81H116" stroke="#808387" style="stroke:#808387;stroke:color(display-p3 0.5020 0.5137 0.5294);stroke-opacity:1;" stroke-width="2" stroke-linecap="round"/>
<path d="M155.646 119.646C155.451 119.842 155.451 120.158 155.646 120.354L158.828 123.536C159.024 123.731 159.34 123.731 159.536 123.536C159.731 123.34 159.731 123.024 159.536 122.828L156.707 120L159.536 117.172C159.731 116.976 159.731 116.66 159.536 116.464C159.34 116.269 159.024 116.269 158.828 116.464L155.646 119.646ZM310 30.5C310.276 30.5 310.5 30.2761 310.5 30C310.5 29.7239 310.276 29.5 310 29.5V30.5ZM173.282 117.946L172.947 117.575L173.282 117.946ZM156 120V120.5H167.93V120V119.5H156V120ZM173.282 117.946L173.616 118.318L269.053 32.4253L268.718 32.0536L268.384 31.682L172.947 117.575L173.282 117.946ZM274.07 30V30.5H310V30V29.5H274.07V30ZM268.718 32.0536L269.053 32.4253C270.43 31.1858 272.217 30.5 274.07 30.5V30V29.5C271.97 29.5 269.945 30.2773 268.384 31.682L268.718 32.0536ZM167.93 120V120.5C170.03 120.5 172.056 119.723 173.616 118.318L173.282 117.946L172.947 117.575C171.57 118.814 169.783 119.5 167.93 119.5V120Z" fill="#5BA9EE" style="fill:#5BA9EE;fill:color(display-p3 0.3569 0.6646 0.9339);fill-opacity:1;"/>
<path d="M155.646 139.646C155.451 139.842 155.451 140.158 155.646 140.354L158.828 143.536C159.024 143.731 159.34 143.731 159.536 143.536C159.731 143.34 159.731 143.024 159.536 142.828L156.707 140L159.536 137.172C159.731 136.976 159.731 136.66 159.536 136.464C159.34 136.269 159.024 136.269 158.828 136.464L155.646 139.646ZM360 120.87C360.276 120.87 360.5 120.646 360.5 120.37C360.5 120.094 360.276 119.87 360 119.87V120.87ZM269.144 121.442L268.894 121.009L269.144 121.442ZM238.856 138.928L239.106 139.361L238.856 138.928ZM156 140V140.5H234.856V140V139.5H156V140ZM238.856 138.928L239.106 139.361L269.394 121.875L269.144 121.442L268.894 121.009L238.606 138.495L238.856 138.928ZM273.144 120.37V120.87H360V120.37V119.87H273.144V120.37ZM269.144 121.442L269.394 121.875C270.534 121.217 271.827 120.87 273.144 120.87V120.37V119.87C271.652 119.87 270.186 120.263 268.894 121.009L269.144 121.442ZM234.856 140V140.5C236.348 140.5 237.814 140.107 239.106 139.361L238.856 138.928L238.606 138.495C237.466 139.153 236.173 139.5 234.856 139.5V140Z" fill="#5BA9EE" style="fill:#5BA9EE;fill:color(display-p3 0.3569 0.6646 0.9339);fill-opacity:1;"/>
<path d="M155.646 99.6464C155.451 99.8417 155.451 100.158 155.646 100.354L158.828 103.536C159.024 103.731 159.34 103.731 159.536 103.536C159.731 103.34 159.731 103.024 159.536 102.828L156.707 100L159.536 97.1716C159.731 96.9763 159.731 96.6597 159.536 96.4645C159.34 96.2692 159.024 96.2692 158.828 96.4645L155.646 99.6464ZM310 210.5C310.276 210.5 310.5 210.276 310.5 210C310.5 209.724 310.276 209.5 310 209.5V210.5ZM269.599 207.066L269.986 206.749L269.599 207.066ZM184.401 102.934L184.788 102.617L184.401 102.934ZM156.925 100.5C157.202 100.5 157.425 100.276 157.425 100C157.425 99.7239 157.202 99.5 156.925 99.5V100.5ZM160.627 99.5C160.351 99.5 160.127 99.7239 160.127 100C160.127 100.276 160.351 100.5 160.627 100.5V99.5ZM162.478 100.5C162.754 100.5 162.978 100.276 162.978 100C162.978 99.7239 162.754 99.5 162.478 99.5V100.5ZM166.179 99.5C165.903 99.5 165.679 99.7239 165.679 100C165.679 100.276 165.903 100.5 166.179 100.5V99.5ZM168.03 100.5C168.306 100.5 168.53 100.276 168.53 100C168.53 99.7239 168.306 99.5 168.03 99.5V100.5ZM171.731 99.5C171.455 99.5 171.231 99.7239 171.231 100C171.231 100.276 171.455 100.5 171.731 100.5V99.5ZM173.582 100.5C173.858 100.5 174.082 100.276 174.082 100C174.082 99.7239 173.858 99.5 173.582 99.5V100.5ZM177.284 99.5C177.007 99.5 176.784 99.7239 176.784 100C176.784 100.276 177.007 100.5 177.284 100.5V99.5ZM179.311 100.581C179.585 100.622 179.839 100.433 179.879 100.16C179.92 99.8872 179.731 99.6328 179.458 99.5923L179.311 100.581ZM183.925 101.709C183.721 101.523 183.404 101.538 183.219 101.743C183.033 101.947 183.048 102.263 183.253 102.449L183.925 101.709ZM184.659 104.04C184.834 104.253 185.149 104.285 185.363 104.11C185.576 103.935 185.608 103.62 185.433 103.406L184.659 104.04ZM188.015 106.562C187.84 106.348 187.525 106.317 187.311 106.492C187.098 106.666 187.066 106.981 187.241 107.195L188.015 106.562ZM188.532 108.773C188.707 108.987 189.022 109.018 189.235 108.843C189.449 108.668 189.481 108.353 189.306 108.14L188.532 108.773ZM191.888 111.295C191.713 111.081 191.398 111.05 191.184 111.225C190.97 111.4 190.939 111.715 191.114 111.928L191.888 111.295ZM192.404 113.506C192.579 113.72 192.894 113.751 193.108 113.576C193.322 113.402 193.353 113.087 193.178 112.873L192.404 113.506ZM195.76 116.028C195.585 115.815 195.27 115.783 195.057 115.958C194.843 116.133 194.811 116.448 194.986 116.662L195.76 116.028ZM196.277 118.239C196.452 118.453 196.767 118.485 196.981 118.31C197.194 118.135 197.226 117.82 197.051 117.606L196.277 118.239ZM199.633 120.762C199.458 120.548 199.143 120.516 198.929 120.691C198.716 120.866 198.684 121.181 198.859 121.395L199.633 120.762ZM200.15 122.973C200.325 123.186 200.64 123.218 200.853 123.043C201.067 122.868 201.099 122.553 200.924 122.339L200.15 122.973ZM203.506 125.495C203.331 125.281 203.016 125.25 202.802 125.425C202.588 125.599 202.557 125.914 202.732 126.128L203.506 125.495ZM204.022 127.706C204.197 127.92 204.512 127.951 204.726 127.776C204.94 127.601 204.971 127.286 204.796 127.073L204.022 127.706ZM207.378 130.228C207.203 130.014 206.888 129.983 206.675 130.158C206.461 130.333 206.429 130.648 206.604 130.861L207.378 130.228ZM207.895 132.439C208.07 132.653 208.385 132.684 208.599 132.51C208.812 132.335 208.844 132.02 208.669 131.806L207.895 132.439ZM211.251 134.961C211.076 134.748 210.761 134.716 210.547 134.891C210.334 135.066 210.302 135.381 210.477 135.595L211.251 134.961ZM211.768 137.172C211.943 137.386 212.258 137.418 212.471 137.243C212.685 137.068 212.717 136.753 212.542 136.539L211.768 137.172ZM215.124 139.695C214.949 139.481 214.634 139.449 214.42 139.624C214.206 139.799 214.175 140.114 214.35 140.328L215.124 139.695ZM215.64 141.906C215.815 142.119 216.13 142.151 216.344 141.976C216.558 141.801 216.589 141.486 216.414 141.272L215.64 141.906ZM218.996 144.428C218.821 144.214 218.506 144.183 218.293 144.358C218.079 144.532 218.047 144.847 218.222 145.061L218.996 144.428ZM219.513 146.639C219.688 146.853 220.003 146.884 220.217 146.709C220.43 146.534 220.462 146.219 220.287 146.006L219.513 146.639ZM222.869 149.161C222.694 148.948 222.379 148.916 222.165 149.091C221.952 149.266 221.92 149.581 222.095 149.794L222.869 149.161ZM223.386 151.372C223.561 151.586 223.876 151.617 224.089 151.443C224.303 151.268 224.335 150.953 224.16 150.739L223.386 151.372ZM226.742 153.894C226.567 153.681 226.252 153.649 226.038 153.824C225.824 153.999 225.793 154.314 225.968 154.528L226.742 153.894ZM227.258 156.105C227.433 156.319 227.748 156.351 227.962 156.176C228.176 156.001 228.207 155.686 228.032 155.472L227.258 156.105ZM230.614 158.628C230.439 158.414 230.124 158.383 229.911 158.557C229.697 158.732 229.665 159.047 229.84 159.261L230.614 158.628ZM231.131 160.839C231.306 161.052 231.621 161.084 231.835 160.909C232.048 160.734 232.08 160.419 231.905 160.206L231.131 160.839ZM234.487 163.361C234.312 163.147 233.997 163.116 233.783 163.291C233.57 163.466 233.538 163.781 233.713 163.994L234.487 163.361ZM235.004 165.572C235.179 165.786 235.494 165.817 235.707 165.642C235.921 165.468 235.953 165.153 235.778 164.939L235.004 165.572ZM238.36 168.094C238.185 167.881 237.87 167.849 237.656 168.024C237.442 168.199 237.411 168.514 237.586 168.728L238.36 168.094ZM238.876 170.305C239.051 170.519 239.366 170.55 239.58 170.376C239.794 170.201 239.825 169.886 239.65 169.672L238.876 170.305ZM242.232 172.828C242.057 172.614 241.742 172.582 241.529 172.757C241.315 172.932 241.283 173.247 241.458 173.461L242.232 172.828ZM242.749 175.039C242.924 175.252 243.239 175.284 243.453 175.109C243.666 174.934 243.698 174.619 243.523 174.405L242.749 175.039ZM246.105 177.561C245.93 177.347 245.615 177.316 245.401 177.49C245.188 177.665 245.156 177.98 245.331 178.194L246.105 177.561ZM246.622 179.772C246.797 179.986 247.112 180.017 247.325 179.842C247.539 179.667 247.571 179.352 247.396 179.139L246.622 179.772ZM249.978 182.294C249.803 182.08 249.488 182.049 249.274 182.224C249.06 182.399 249.029 182.714 249.204 182.927L249.978 182.294ZM250.494 184.505C250.669 184.719 250.984 184.75 251.198 184.575C251.412 184.401 251.443 184.086 251.268 183.872L250.494 184.505ZM253.85 187.027C253.675 186.814 253.36 186.782 253.147 186.957C252.933 187.132 252.901 187.447 253.076 187.661L253.85 187.027ZM254.367 189.238C254.542 189.452 254.857 189.484 255.071 189.309C255.284 189.134 255.316 188.819 255.141 188.605L254.367 189.238ZM257.723 191.761C257.548 191.547 257.233 191.515 257.019 191.69C256.806 191.865 256.774 192.18 256.949 192.394L257.723 191.761ZM258.24 193.972C258.415 194.185 258.73 194.217 258.943 194.042C259.157 193.867 259.189 193.552 259.014 193.338L258.24 193.972ZM261.596 196.494C261.421 196.28 261.106 196.249 260.892 196.423C260.678 196.598 260.647 196.913 260.822 197.127L261.596 196.494ZM262.112 198.705C262.287 198.919 262.602 198.95 262.816 198.775C263.03 198.6 263.061 198.285 262.886 198.072L262.112 198.705ZM265.468 201.227C265.293 201.013 264.978 200.982 264.765 201.157C264.551 201.332 264.519 201.647 264.694 201.86L265.468 201.227ZM265.985 203.438C266.16 203.652 266.475 203.683 266.689 203.508C266.902 203.334 266.934 203.019 266.759 202.805L265.985 203.438ZM269.341 205.96C269.166 205.747 268.851 205.715 268.637 205.89C268.424 206.065 268.392 206.38 268.567 206.594L269.341 205.96ZM270.075 208.291C270.279 208.477 270.596 208.462 270.781 208.257C270.967 208.053 270.952 207.737 270.747 207.551L270.075 208.291ZM274.689 209.419C274.415 209.378 274.161 209.567 274.121 209.84C274.08 210.113 274.269 210.367 274.542 210.408L274.689 209.419ZM276.741 210.5C277.017 210.5 277.241 210.276 277.241 210C277.241 209.724 277.017 209.5 276.741 209.5V210.5ZM280.542 209.5C280.266 209.5 280.042 209.724 280.042 210C280.042 210.276 280.266 210.5 280.542 210.5V209.5ZM282.443 210.5C282.719 210.5 282.943 210.276 282.943 210C282.943 209.724 282.719 209.5 282.443 209.5V210.5ZM286.244 209.5C285.968 209.5 285.744 209.724 285.744 210C285.744 210.276 285.968 210.5 286.244 210.5V209.5ZM288.144 210.5C288.42 210.5 288.644 210.276 288.644 210C288.644 209.724 288.42 209.5 288.144 209.5V210.5ZM291.945 209.5C291.669 209.5 291.445 209.724 291.445 210C291.445 210.276 291.669 210.5 291.945 210.5V209.5ZM293.846 210.5C294.122 210.5 294.346 210.276 294.346 210C294.346 209.724 294.122 209.5 293.846 209.5V210.5ZM297.647 209.5C297.371 209.5 297.147 209.724 297.147 210C297.147 210.276 297.371 210.5 297.647 210.5V209.5ZM299.547 210.5C299.823 210.5 300.047 210.276 300.047 210C300.047 209.724 299.823 209.5 299.547 209.5V210.5ZM303.348 209.5C303.072 209.5 302.848 209.724 302.848 210C302.848 210.276 303.072 210.5 303.348 210.5V209.5ZM305.249 210.5C305.525 210.5 305.749 210.276 305.749 210C305.749 209.724 305.525 209.5 305.249 209.5V210.5ZM309.05 209.5C308.774 209.5 308.55 209.724 308.55 210C308.55 210.276 308.774 210.5 309.05 210.5V209.5ZM156 100V100.5H156.925V100V99.5H156V100ZM160.627 100V100.5H162.478V100V99.5H160.627V100ZM166.179 100V100.5H168.03V100V99.5H166.179V100ZM171.731 100V100.5H173.582V100V99.5H171.731V100ZM177.284 100V100.5H178.209V100V99.5H177.284V100ZM178.209 100V100.5C178.581 100.5 178.949 100.528 179.311 100.581L179.385 100.087L179.458 99.5923C179.048 99.5312 178.63 99.5 178.209 99.5V100ZM183.589 102.079L183.253 102.449C183.524 102.695 183.778 102.963 184.014 103.251L184.401 102.934L184.788 102.617C184.521 102.292 184.232 101.988 183.925 101.709L183.589 102.079ZM184.401 102.934L184.014 103.251L184.659 104.04L185.046 103.723L185.433 103.406L184.788 102.617L184.401 102.934ZM187.628 106.878L187.241 107.195L188.532 108.773L188.919 108.456L189.306 108.14L188.015 106.562L187.628 106.878ZM191.501 111.612L191.114 111.928L192.404 113.506L192.791 113.19L193.178 112.873L191.888 111.295L191.501 111.612ZM195.373 116.345L194.986 116.662L196.277 118.239L196.664 117.923L197.051 117.606L195.76 116.028L195.373 116.345ZM199.246 121.078L198.859 121.395L200.15 122.973L200.537 122.656L200.924 122.339L199.633 120.762L199.246 121.078ZM203.119 125.812L202.732 126.128L204.022 127.706L204.409 127.389L204.796 127.073L203.506 125.495L203.119 125.812ZM206.991 130.545L206.604 130.861L207.895 132.439L208.282 132.123L208.669 131.806L207.378 130.228L206.991 130.545ZM210.864 135.278L210.477 135.595L211.768 137.172L212.155 136.856L212.542 136.539L211.251 134.961L210.864 135.278ZM214.737 140.011L214.35 140.328L215.64 141.906L216.027 141.589L216.414 141.272L215.124 139.695L214.737 140.011ZM218.609 144.745L218.222 145.061L219.513 146.639L219.9 146.322L220.287 146.006L218.996 144.428L218.609 144.745ZM222.482 149.478L222.095 149.794L223.386 151.372L223.773 151.056L224.16 150.739L222.869 149.161L222.482 149.478ZM226.355 154.211L225.968 154.528L227.258 156.105L227.645 155.789L228.032 155.472L226.742 153.894L226.355 154.211ZM230.227 158.944L229.84 159.261L231.131 160.839L231.518 160.522L231.905 160.206L230.614 158.628L230.227 158.944ZM234.1 163.678L233.713 163.994L235.004 165.572L235.391 165.255L235.778 164.939L234.487 163.361L234.1 163.678ZM237.973 168.411L237.586 168.728L238.876 170.305L239.263 169.989L239.65 169.672L238.36 168.094L237.973 168.411ZM241.845 173.144L241.458 173.461L242.749 175.039L243.136 174.722L243.523 174.405L242.232 172.828L241.845 173.144ZM245.718 177.877L245.331 178.194L246.622 179.772L247.009 179.455L247.396 179.139L246.105 177.561L245.718 177.877ZM249.591 182.611L249.204 182.927L250.494 184.505L250.881 184.188L251.268 183.872L249.978 182.294L249.591 182.611ZM253.463 187.344L253.076 187.661L254.367 189.238L254.754 188.922L255.141 188.605L253.85 187.027L253.463 187.344ZM257.336 192.077L256.949 192.394L258.24 193.972L258.627 193.655L259.014 193.338L257.723 191.761L257.336 192.077ZM261.209 196.81L260.822 197.127L262.112 198.705L262.499 198.388L262.886 198.072L261.596 196.494L261.209 196.81ZM265.081 201.544L264.694 201.86L265.985 203.438L266.372 203.121L266.759 202.805L265.468 201.227L265.081 201.544ZM268.954 206.277L268.567 206.594L269.212 207.383L269.599 207.066L269.986 206.749L269.341 205.96L268.954 206.277ZM269.599 207.066L269.212 207.383C269.479 207.708 269.768 208.012 270.075 208.291L270.411 207.921L270.747 207.551C270.476 207.305 270.222 207.037 269.986 206.749L269.599 207.066ZM274.615 209.913L274.542 210.408C274.952 210.469 275.37 210.5 275.791 210.5V210V209.5C275.419 209.5 275.051 209.472 274.689 209.419L274.615 209.913ZM275.791 210V210.5H276.741V210V209.5H275.791V210ZM280.542 210V210.5H282.443V210V209.5H280.542V210ZM286.244 210V210.5H288.144V210V209.5H286.244V210ZM291.945 210V210.5H293.846V210V209.5H291.945V210ZM297.647 210V210.5H299.547V210V209.5H297.647V210ZM303.348 210V210.5H305.249V210V209.5H303.348V210ZM309.05 210V210.5H310V210V209.5H309.05V210Z" fill="#5BA9EE" style="fill:#5BA9EE;fill:color(display-p3 0.3569 0.6646 0.9339);fill-opacity:1;"/>
<rect x="395" y="90" width="30" height="54" rx="2" stroke="#808387" style="stroke:#808387;stroke:color(display-p3 0.5020 0.5137 0.5294);stroke-opacity:1;" stroke-width="2"/>
<path d="M405 134C405 132.895 405.895 132 407 132H413C414.105 132 415 132.895 415 134V144H405V134Z" stroke="#808387" style="stroke:#808387;stroke:color(display-p3 0.5020 0.5137 0.5294);stroke-opacity:1;" stroke-width="2"/>
<path d="M400 123H420" stroke="#808387" style="stroke:#808387;stroke:color(display-p3 0.5020 0.5137 0.5294);stroke-opacity:1;" stroke-width="2" stroke-linecap="round"/>
<path d="M400 117H420" stroke="#808387" style="stroke:#808387;stroke:color(display-p3 0.5020 0.5137 0.5294);stroke-opacity:1;" stroke-width="2" stroke-linecap="round"/>
<path d="M400 111H420" stroke="#808387" style="stroke:#808387;stroke:color(display-p3 0.5020 0.5137 0.5294);stroke-opacity:1;" stroke-width="2" stroke-linecap="round"/>
<path d="M400 105H420" stroke="#808387" style="stroke:#808387;stroke:color(display-p3 0.5020 0.5137 0.5294);stroke-opacity:1;" stroke-width="2" stroke-linecap="round"/>
<path d="M400 99H420" stroke="#808387" style="stroke:#808387;stroke:color(display-p3 0.5020 0.5137 0.5294);stroke-opacity:1;" stroke-width="2" stroke-linecap="round"/>
<path d="M425 111L434 111" stroke="#808387" style="stroke:#808387;stroke:color(display-p3 0.5020 0.5137 0.5294);stroke-opacity:1;" stroke-width="2" stroke-linecap="round"/>
<path d="M425 117L434 117" stroke="#808387" style="stroke:#808387;stroke:color(display-p3 0.5020 0.5137 0.5294);stroke-opacity:1;" stroke-width="2" stroke-linecap="round"/>
<path d="M425 123L434 123" stroke="#808387" style="stroke:#808387;stroke:color(display-p3 0.5020 0.5137 0.5294);stroke-opacity:1;" stroke-width="2" stroke-linecap="round"/>
<path d="M425 129L434 129" stroke="#808387" style="stroke:#808387;stroke:color(display-p3 0.5020 0.5137 0.5294);stroke-opacity:1;" stroke-width="2" stroke-linecap="round"/>
<path d="M425 105H437C438.105 105 439 105.895 439 107V142C439 143.105 438.105 144 437 144H421" stroke="#808387" style="stroke:#808387;stroke:color(display-p3 0.5020 0.5137 0.5294);stroke-opacity:1;" stroke-width="2"/>
<path d="M357 196V223M357 196H355M357 196H359M357 223H355M357 223H359" stroke="#808387" style="stroke:#808387;stroke:color(display-p3 0.5020 0.5137 0.5294);stroke-opacity:1;" stroke-width="2" stroke-linecap="round"/>
<path d="M369 196V223M369 196H367M369 196H371M369 223H367M369 223H371" stroke="#808387" style="stroke:#808387;stroke:color(display-p3 0.5020 0.5137 0.5294);stroke-opacity:1;" stroke-width="2" stroke-linecap="round"/>
<path d="M381 196V223M381 196H379M381 196H383M381 223H379M381 223H383" stroke="#808387" style="stroke:#808387;stroke:color(display-p3 0.5020 0.5137 0.5294);stroke-opacity:1;" stroke-width="2" stroke-linecap="round"/>
<path d="M393 196V223M393 196H391M393 196H395M393 223H391M393 223H395" stroke="#808387" style="stroke:#808387;stroke:color(display-p3 0.5020 0.5137 0.5294);stroke-opacity:1;" stroke-width="2" stroke-linecap="round"/>
<path d="M351 227H399" stroke="#808387" style="stroke:#808387;stroke:color(display-p3 0.5020 0.5137 0.5294);stroke-opacity:1;" stroke-width="2" stroke-linecap="round"/>
<path d="M399 192H351L373.211 180.894C374.337 180.331 375.663 180.331 376.789 180.894L399 192Z" stroke="#808387" style="stroke:#808387;stroke:color(display-p3 0.5020 0.5137 0.5294);stroke-opacity:1;" stroke-width="2" stroke-linecap="round" stroke-linejoin="round"/>
</svg>
