<?xml version="1.0" encoding="UTF-8" standalone="no"?>
<svg
   width="421.72037"
   height="235.95006"
   viewBox="0 0 421.72037 235.95006"
   fill="none"
   version="1.1"
   id="svg22"
   sodipodi:docname="howto-4.svg"
   inkscape:version="1.4.3 (0d15f75042, 2025-12-25)"
   xmlns:inkscape="http://www.inkscape.org/namespaces/inkscape"
   xmlns:sodipodi="http://sodipodi.sourceforge.net/DTD/sodipodi-0.dtd"
   xmlns="http://www.w3.org/2000/svg"
   xmlns:svg="http://www.w3.org/2000/svg">
  <defs
     id="defs22" />
  <sodipodi:namedview
     id="namedview22"
     pagecolor="#ffffff"
     bordercolor="#666666"
     borderopacity="1.0"
     inkscape:showpageshadow="2"
     inkscape:pageopacity="0.0"
     inkscape:pagecheckerboard="0"
     inkscape:deskcolor="#d1d1d1"
     inkscape:zoom="4"
     inkscape:cx="101.25"
     inkscape:cy="7.125"
     inkscape:window-width="3840"
     inkscape:window-height="2127"
     inkscape:window-x="0"
     inkscape:window-y="0"
     inkscape:window-maximized="0"
     inkscape:current-layer="svg22" />
  <rect
     width="421.72037"
     height="235.95006"
     fill="white"
     style="fill:#ffffff;fill-opacity:1;stroke-width:0.999998"
     id="rect1"
     x="-5.1284013e-07"
     y="1.7991809e-08" />
  <path
     d="m 136.98087,97.216435 c -0.195,0.1953 -0.195,0.5116 0,0.7076 l 3.182,3.181995 c 0.196,0.195 0.512,0.195 0.708,0 0.195,-0.196 0.195,-0.512 0,-0.708 l -2.829,-2.827995 2.829,-2.8284 c 0.195,-0.1953 0.195,-0.5119 0,-0.7071 -0.196,-0.1953 -0.512,-0.1953 -0.708,0 z m 174.354,70.853595 c 0.276,0 0.5,-0.224 0.5,-0.5 0,-0.276 -0.224,-0.5 -0.5,-0.5 z m -135.157,-68.156995 0.354,-0.353 z m -38.843,-2.343 v 0.5 h 33.186 v -0.5 -0.5 h -33.186 z m 38.843,2.343 -0.353,0.353995 65.313,65.313 0.354,-0.353 0.353,-0.354 -65.313,-65.312995 z m 70.971,67.656995 v 0.5 h 64.186 v -0.5 -0.5 h -64.186 z m -5.657,-2.343 -0.354,0.353 c 1.594,1.594 3.756,2.49 6.011,2.49 v -0.5 -0.5 c -1.989,0 -3.897,-0.79 -5.304,-2.197 z m -70.971,-67.656995 v 0.5 c 1.989,0 3.897,0.79 5.304,2.196995 l 0.353,-0.353995 0.354,-0.353 c -1.594,-1.594 -3.756,-2.49 -6.011,-2.49 z"
     fill="#5BA9EE"
     style="fill:#5ba9ee;fill-opacity:1"
     id="path1" />
  <path
     d="m 136.98087,117.21603 c -0.195,0.196 -0.195,0.512 0,0.708 l 3.182,3.182 c 0.196,0.195 0.512,0.195 0.708,0 0.195,-0.196 0.195,-0.512 0,-0.708 l -2.829,-2.828 2.829,-2.828 c 0.195,-0.196 0.195,-0.512 0,-0.708 -0.196,-0.195 -0.512,-0.195 -0.708,0 z m 154.354,-99.145995 c 0.276,0 0.5,-0.2239 0.5,-0.5 0,-0.2761 -0.224,-0.5 -0.5,-0.5 z m -41.343,1.8431 0.353,0.3536 z m -95.314,95.313895 0.354,0.353 z m -17.343,2.343 v 0.5 h 11.686 v -0.5 -0.5 h -11.686 z m 17.343,-2.343 0.354,0.353 95.313,-95.313295 -0.353,-0.3536 -0.354,-0.3535 -95.313,95.313395 z m 100.971,-97.656995 v 0.5 h 35.686 v -0.5 -0.5 h -35.686 z m -5.657,2.3431 0.353,0.3536 c 1.407,-1.4065 3.315,-2.1967 5.304,-2.1967 v -0.5 -0.5 c -2.255,0 -4.417,0.8955 -6.011,2.4896 z m -100.971,97.656895 v 0.5 c 2.255,0 4.417,-0.896 6.011,-2.49 l -0.354,-0.353 -0.353,-0.354 c -1.407,1.407 -3.315,2.197 -5.304,2.197 z"
     fill="#5BA9EE"
     style="fill:#5ba9ee;fill-opacity:1"
     id="path2" />
  <path
     d="m 136.98087,137.21603 c -0.195,0.196 -0.195,0.512 0,0.708 l 3.182,3.182 c 0.196,0.195 0.512,0.195 0.708,0 0.195,-0.196 0.195,-0.512 0,-0.708 l -2.829,-2.828 2.829,-2.828 c 0.195,-0.196 0.195,-0.512 0,-0.708 -0.196,-0.195 -0.512,-0.195 -0.708,0 z m 204.354,-18.776 c 0.276,0 0.5,-0.224 0.5,-0.5 0,-0.276 -0.224,-0.5 -0.5,-0.5 z m -110.856,0.572 -0.25,-0.433 z m -30.288,17.486 -0.25,-0.433 z m -62.856,1.072 v 0.5 h 58.856 v -0.5 -0.5 h -58.856 z m 62.856,-1.072 0.25,0.433 30.288,-17.486 -0.25,-0.433 -0.25,-0.433 -30.288,17.486 z m 34.288,-18.558 v 0.5 h 106.856 v -0.5 -0.5 h -106.856 z m -4,1.072 0.25,0.433 c 1.14,-0.658 2.433,-1.005 3.75,-1.005 v -0.5 -0.5 c -1.492,0 -2.958,0.393 -4.25,1.139 z m -34.288,18.558 v 0.5 c 1.492,0 2.958,-0.393 4.25,-1.139 l -0.25,-0.433 -0.25,-0.433 c -1.14,0.658 -2.433,1.005 -3.75,1.005 z"
     fill="#5BA9EE"
     style="fill:#5ba9ee;fill-opacity:1"
     id="path3" />
  <path
     d="m 136.98087,127.21603 c -0.195,0.196 -0.195,0.512 0,0.708 l 3.182,3.182 c 0.196,0.195 0.512,0.195 0.708,0 0.195,-0.196 0.195,-0.512 0,-0.708 l -2.829,-2.828 2.829,-2.828 c 0.195,-0.196 0.195,-0.512 0,-0.708 -0.196,-0.195 -0.512,-0.195 -0.708,0 z m 154.354,90.854 c 0.276,0 0.5,-0.224 0.5,-0.5 0,-0.276 -0.224,-0.5 -0.5,-0.5 z m -125.657,-88.157 -0.353,0.354 z m -27.398,-1.843 c 0.276,0 0.5,-0.224 0.5,-0.5 0,-0.276 -0.224,-0.5 -0.5,-0.5 z m 3.781,-1 c -0.276,0 -0.5,0.224 -0.5,0.5 0,0.276 0.224,0.5 0.5,0.5 z m 1.891,1 c 0.276,0 0.5,-0.224 0.5,-0.5 0,-0.276 -0.224,-0.5 -0.5,-0.5 z m 3.781,-1 c -0.276,0 -0.5,0.224 -0.5,0.5 0,0.276 0.224,0.5 0.5,0.5 z m 1.89,1 c 0.277,0 0.5,-0.224 0.5,-0.5 0,-0.276 -0.223,-0.5 -0.5,-0.5 z m 3.781,-1 c -0.276,0 -0.5,0.224 -0.5,0.5 0,0.276 0.224,0.5 0.5,0.5 z m 1.891,1 c 0.276,0 0.5,-0.224 0.5,-0.5 0,-0.276 -0.224,-0.5 -0.5,-0.5 z m 3.781,-1 c -0.276,0 -0.5,0.224 -0.5,0.5 0,0.276 0.224,0.5 0.5,0.5 z m 1.924,1.064 c 0.274,0.036 0.525,-0.157 0.561,-0.43 0.036,-0.274 -0.156,-0.525 -0.43,-0.561 z m 4.196,0.692 c -0.219,-0.168 -0.533,-0.126 -0.701,0.093 -0.168,0.219 -0.127,0.533 0.092,0.701 z m 0.84,2.152 c 0.195,0.195 0.511,0.195 0.707,0 0.195,-0.196 0.195,-0.512 0,-0.707 z m 3.55,2.136 c -0.195,-0.195 -0.511,-0.195 -0.707,0 -0.195,0.196 -0.195,0.512 0,0.707 z m 0.715,2.129 c 0.195,0.196 0.512,0.196 0.707,0 0.196,-0.195 0.196,-0.512 0,-0.707 z m 3.551,2.137 c -0.195,-0.195 -0.512,-0.195 -0.707,0 -0.195,0.195 -0.195,0.512 0,0.707 z m 0.715,2.129 c 0.195,0.195 0.512,0.195 0.707,0 0.195,-0.195 0.195,-0.512 0,-0.707 z m 3.551,2.137 c -0.195,-0.196 -0.512,-0.196 -0.707,0 -0.196,0.195 -0.196,0.512 0,0.707 z m 0.715,2.129 c 0.195,0.195 0.511,0.195 0.707,0 0.195,-0.196 0.195,-0.512 0,-0.707 z m 3.55,2.136 c -0.195,-0.195 -0.511,-0.195 -0.707,0 -0.195,0.196 -0.195,0.512 0,0.707 z m 0.715,2.129 c 0.196,0.196 0.512,0.196 0.707,0 0.196,-0.195 0.196,-0.511 0,-0.707 z m 3.551,2.137 c -0.195,-0.195 -0.512,-0.195 -0.707,0 -0.195,0.195 -0.195,0.512 0,0.707 z m 0.715,2.129 c 0.195,0.195 0.512,0.195 0.707,0 0.195,-0.195 0.195,-0.512 0,-0.707 z m 3.551,2.137 c -0.195,-0.196 -0.512,-0.196 -0.707,0 -0.196,0.195 -0.196,0.512 0,0.707 z m 0.715,2.129 c 0.195,0.195 0.512,0.195 0.707,0 0.195,-0.195 0.195,-0.512 0,-0.707 z m 3.551,2.136 c -0.196,-0.195 -0.512,-0.195 -0.708,0 -0.195,0.196 -0.195,0.512 0,0.708 z m 0.714,2.129 c 0.196,0.196 0.512,0.196 0.707,0 0.196,-0.195 0.196,-0.511 0,-0.707 z m 3.551,2.137 c -0.195,-0.195 -0.512,-0.195 -0.707,0 -0.195,0.195 -0.195,0.512 0,0.707 z m 0.715,2.129 c 0.195,0.195 0.512,0.195 0.707,0 0.195,-0.195 0.195,-0.512 0,-0.707 z m 3.551,2.137 c -0.195,-0.195 -0.512,-0.195 -0.707,0 -0.195,0.195 -0.195,0.512 0,0.707 z m 0.715,2.129 c 0.195,0.195 0.512,0.195 0.707,0 0.195,-0.195 0.195,-0.512 0,-0.707 z m 3.551,2.137 c -0.196,-0.196 -0.512,-0.196 -0.707,0 -0.196,0.195 -0.196,0.511 0,0.707 z m 0.714,2.129 c 0.196,0.195 0.512,0.195 0.708,0 0.195,-0.196 0.195,-0.512 0,-0.708 z m 3.551,2.136 c -0.195,-0.195 -0.512,-0.195 -0.707,0 -0.195,0.195 -0.195,0.512 0,0.707 z m 0.715,2.129 c 0.195,0.195 0.512,0.195 0.707,0 0.195,-0.195 0.195,-0.512 0,-0.707 z m 3.551,2.137 c -0.195,-0.195 -0.512,-0.195 -0.707,0 -0.195,0.195 -0.195,0.512 0,0.707 z m 0.715,2.129 c 0.195,0.195 0.512,0.195 0.707,0 0.195,-0.195 0.195,-0.512 0,-0.707 z m 3.551,2.137 c -0.196,-0.196 -0.512,-0.196 -0.707,0 -0.196,0.195 -0.196,0.511 0,0.707 z m 0.714,2.129 c 0.196,0.195 0.512,0.195 0.708,0 0.195,-0.196 0.195,-0.512 0,-0.708 z m 3.551,2.136 c -0.195,-0.195 -0.511,-0.195 -0.707,0 -0.195,0.196 -0.195,0.512 0,0.707 z m 0.715,2.129 c 0.195,0.196 0.512,0.196 0.707,0 0.196,-0.195 0.196,-0.512 0,-0.707 z m 3.551,2.137 c -0.195,-0.195 -0.512,-0.195 -0.707,0 -0.195,0.195 -0.195,0.512 0,0.707 z m 0.715,2.129 c 0.195,0.195 0.512,0.195 0.707,0 0.195,-0.195 0.195,-0.512 0,-0.707 z m 3.551,2.137 c -0.196,-0.196 -0.512,-0.196 -0.707,0 -0.196,0.195 -0.196,0.511 0,0.707 z m 0.715,2.129 c 0.195,0.195 0.511,0.195 0.707,0 0.195,-0.196 0.195,-0.512 0,-0.707 z m 3.55,2.136 c -0.195,-0.195 -0.511,-0.195 -0.707,0 -0.195,0.196 -0.195,0.512 0,0.707 z m 0.715,2.129 c 0.195,0.196 0.512,0.196 0.707,0 0.196,-0.195 0.196,-0.512 0,-0.707 z m 3.551,2.137 c -0.195,-0.195 -0.512,-0.195 -0.707,0 -0.195,0.195 -0.195,0.512 0,0.707 z m 0.715,2.129 c 0.195,0.195 0.512,0.195 0.707,0 0.195,-0.195 0.195,-0.512 0,-0.707 z m 3.551,2.137 c -0.195,-0.196 -0.512,-0.196 -0.707,0 -0.196,0.195 -0.196,0.512 0,0.707 z m 0.715,2.129 c 0.195,0.195 0.511,0.195 0.707,0 0.195,-0.196 0.195,-0.512 0,-0.707 z m 3.55,2.136 c -0.195,-0.195 -0.511,-0.195 -0.707,0 -0.195,0.196 -0.195,0.512 0,0.707 z m 0.84,2.152 c 0.219,0.168 0.533,0.126 0.701,-0.093 0.168,-0.219 0.127,-0.533 -0.092,-0.701 z m 4.196,0.692 c -0.274,-0.036 -0.525,0.157 -0.561,0.43 -0.036,0.274 0.156,0.525 0.43,0.561 z m 1.942,1.064 c 0.276,0 0.5,-0.224 0.5,-0.5 0,-0.276 -0.224,-0.5 -0.5,-0.5 z m 3.854,-1 c -0.276,0 -0.5,0.224 -0.5,0.5 0,0.276 0.224,0.5 0.5,0.5 z m 1.927,1 c 0.276,0 0.5,-0.224 0.5,-0.5 0,-0.276 -0.224,-0.5 -0.5,-0.5 z m 3.854,-1 c -0.276,0 -0.5,0.224 -0.5,0.5 0,0.276 0.224,0.5 0.5,0.5 z m 1.927,1 c 0.276,0 0.5,-0.224 0.5,-0.5 0,-0.276 -0.224,-0.5 -0.5,-0.5 z m 3.854,-1 c -0.276,0 -0.5,0.224 -0.5,0.5 0,0.276 0.224,0.5 0.5,0.5 z m 1.927,1 c 0.276,0 0.5,-0.224 0.5,-0.5 0,-0.276 -0.224,-0.5 -0.5,-0.5 z m 3.854,-1 c -0.276,0 -0.5,0.224 -0.5,0.5 0,0.276 0.224,0.5 0.5,0.5 z m 1.927,1 c 0.277,0 0.5,-0.224 0.5,-0.5 0,-0.276 -0.223,-0.5 -0.5,-0.5 z m 3.854,-1 c -0.276,0 -0.5,0.224 -0.5,0.5 0,0.276 0.224,0.5 0.5,0.5 z m 1.927,1 c 0.277,0 0.5,-0.224 0.5,-0.5 0,-0.276 -0.223,-0.5 -0.5,-0.5 z m 3.854,-1 c -0.276,0 -0.5,0.224 -0.5,0.5 0,0.276 0.224,0.5 0.5,0.5 z m -153.036,-89.5 v 0.5 h 0.945 v -0.5 -0.5 h -0.945 z m 4.726,0 v 0.5 h 1.891 v -0.5 -0.5 h -1.891 z m 5.672,0 v 0.5 h 1.89 v -0.5 -0.5 h -1.89 z m 5.671,0 v 0.5 h 1.891 v -0.5 -0.5 h -1.891 z m 5.672,0 v 0.5 h 0.945 v -0.5 -0.5 h -0.945 z m 0.945,0 v 0.5 c 0.33,0 0.656,0.022 0.979,0.064 l 0.066,-0.496 0.065,-0.495 c -0.366,-0.048 -0.737,-0.073 -1.11,-0.073 z m 4.87,1.653 -0.304,0.397 c 0.258,0.198 0.505,0.414 0.738,0.647 l 0.353,-0.354 0.354,-0.353 c -0.264,-0.264 -0.543,-0.509 -0.836,-0.734 z m 0.787,0.69 -0.353,0.354 0.711,0.711 0.353,-0.354 0.354,-0.353 -0.711,-0.711 z m 3.555,3.555 -0.354,0.353 1.422,1.422 0.354,-0.353 0.353,-0.354 -1.422,-1.422 z m 4.266,4.266 -0.354,0.353 1.422,1.422 0.353,-0.354 0.354,-0.353 -1.422,-1.422 z m 4.265,4.265 -0.353,0.354 1.422,1.422 0.353,-0.354 0.354,-0.353 -1.422,-1.422 z m 4.266,4.266 -0.354,0.353 1.422,1.422 0.354,-0.353 0.353,-0.354 -1.422,-1.422 z m 4.266,4.266 -0.354,0.353 1.422,1.422 0.354,-0.353 0.353,-0.354 -1.422,-1.422 z m 4.265,4.265 -0.353,0.354 1.422,1.422 0.353,-0.354 0.354,-0.353 -1.422,-1.422 z m 4.266,4.266 -0.354,0.354 1.422,1.421 0.354,-0.353 0.353,-0.354 -1.421,-1.422 z m 4.266,4.266 -0.354,0.353 1.422,1.422 0.354,-0.353 0.353,-0.354 -1.422,-1.422 z m 4.265,4.265 -0.353,0.354 1.422,1.422 0.353,-0.354 0.354,-0.353 -1.422,-1.422 z m 4.266,4.266 -0.353,0.354 1.421,1.422 0.354,-0.354 0.354,-0.354 -1.422,-1.421 z m 4.266,4.266 -0.354,0.353 1.422,1.422 0.354,-0.353 0.353,-0.354 -1.422,-1.422 z m 4.265,4.265 -0.353,0.354 1.422,1.422 0.353,-0.354 0.354,-0.353 -1.422,-1.422 z m 4.266,4.266 -0.353,0.354 1.421,1.422 0.354,-0.354 0.354,-0.354 -1.422,-1.421 z m 4.266,4.266 -0.354,0.353 1.422,1.422 0.354,-0.353 0.353,-0.354 -1.422,-1.422 z m 4.265,4.265 -0.353,0.354 1.422,1.422 0.353,-0.354 0.354,-0.353 -1.422,-1.422 z m 4.266,4.266 -0.353,0.354 1.422,1.422 0.353,-0.354 0.354,-0.353 -1.422,-1.422 z m 4.266,4.266 -0.354,0.353 1.422,1.422 0.354,-0.353 0.353,-0.354 -1.422,-1.422 z m 4.266,4.266 -0.354,0.353 1.422,1.422 0.353,-0.354 0.354,-0.353 -1.422,-1.422 z m 4.265,4.265 -0.353,0.354 1.422,1.422 0.353,-0.354 0.354,-0.353 -1.422,-1.422 z m 4.266,4.266 -0.354,0.353 0.711,0.711 0.354,-0.353 0.353,-0.354 -0.711,-0.711 z m 0.711,0.711 -0.354,0.353 c 0.264,0.264 0.543,0.509 0.836,0.734 l 0.305,-0.397 0.304,-0.397 c -0.258,-0.198 -0.505,-0.414 -0.738,-0.647 z m 4.612,2.275 -0.065,0.495 c 0.366,0.048 0.737,0.073 1.11,0.073 v -0.5 -0.5 c -0.33,0 -0.656,-0.022 -0.979,-0.064 z m 1.045,0.068 v 0.5 h 0.963 v -0.5 -0.5 h -0.963 z m 4.817,0 v 0.5 h 1.927 v -0.5 -0.5 h -1.927 z m 5.781,0 v 0.5 h 1.927 v -0.5 -0.5 h -1.927 z m 5.781,0 v 0.5 h 1.927 v -0.5 -0.5 h -1.927 z m 5.781,0 v 0.5 h 1.927 v -0.5 -0.5 h -1.927 z m 5.781,0 v 0.5 h 1.927 v -0.5 -0.5 h -1.927 z m 5.781,0 v 0.5 h 0.964 v -0.5 -0.5 h -0.964 z"
     fill="#5BA9EE"
     style="fill:#5ba9ee;fill-opacity:1"
     id="path4" />
  <path
     d="m 136.98087,107.21603 c -0.195,0.196 -0.195,0.512 0,0.708 l 3.182,3.182 c 0.196,0.195 0.512,0.195 0.708,0 0.195,-0.196 0.195,-0.512 0,-0.708 l -2.829,-2.828 2.829,-2.828 c 0.195,-0.196 0.195,-0.512 0,-0.708 -0.196,-0.195 -0.512,-0.195 -0.708,0 z m 174.354,-39.145995 c 0.276,0 0.5,-0.2239 0.5,-0.5 0,-0.2761 -0.224,-0.5 -0.5,-0.5 z m -59.343,1.8431 -0.354,-0.3535 z m -35.314,35.313895 -0.353,-0.354 z m -79.293,2.843 c 0.276,0 0.5,-0.224 0.5,-0.5 0,-0.276 -0.224,-0.5 -0.5,-0.5 z m 2.005,-1 c -0.276,0 -0.5,0.224 -0.5,0.5 0,0.276 0.224,0.5 0.5,0.5 z m 0.1,1 c 0.277,0 0.5,-0.224 0.5,-0.5 0,-0.276 -0.223,-0.5 -0.5,-0.5 z m 2.006,-1 c -0.277,0 -0.5,0.224 -0.5,0.5 0,0.276 0.223,0.5 0.5,0.5 z m 0.1,1 c 0.276,0 0.5,-0.224 0.5,-0.5 0,-0.276 -0.224,-0.5 -0.5,-0.5 z m 2.005,-1 c -0.276,0 -0.5,0.224 -0.5,0.5 0,0.276 0.224,0.5 0.5,0.5 z m 0.1,1 c 0.276,0 0.5,-0.224 0.5,-0.5 0,-0.276 -0.224,-0.5 -0.5,-0.5 z m 2.005,-1 c -0.276,0 -0.5,0.224 -0.5,0.5 0,0.276 0.224,0.5 0.5,0.5 z m 0.1,1 c 0.277,0 0.5,-0.224 0.5,-0.5 0,-0.276 -0.223,-0.5 -0.5,-0.5 z m 2.005,-1 c -0.276,0 -0.5,0.224 -0.5,0.5 0,0.276 0.224,0.5 0.5,0.5 z m 0.101,1 c 0.276,0 0.5,-0.224 0.5,-0.5 0,-0.276 -0.224,-0.5 -0.5,-0.5 z m 2.005,-1 c -0.276,0 -0.5,0.224 -0.5,0.5 0,0.276 0.224,0.5 0.5,0.5 z m 0.1,1 c 0.276,0 0.5,-0.224 0.5,-0.5 0,-0.276 -0.224,-0.5 -0.5,-0.5 z m 2.005,-1 c -0.276,0 -0.5,0.224 -0.5,0.5 0,0.276 0.224,0.5 0.5,0.5 z m 0.1,1 c 0.277,0 0.5,-0.224 0.5,-0.5 0,-0.276 -0.223,-0.5 -0.5,-0.5 z m 2.005,-1 c -0.276,0 -0.5,0.224 -0.5,0.5 0,0.276 0.224,0.5 0.5,0.5 z m 0.101,1 c 0.276,0 0.5,-0.224 0.5,-0.5 0,-0.276 -0.224,-0.5 -0.5,-0.5 z m 2.005,-1 c -0.276,0 -0.5,0.224 -0.5,0.5 0,0.276 0.224,0.5 0.5,0.5 z m 0.1,1 c 0.276,0 0.5,-0.224 0.5,-0.5 0,-0.276 -0.224,-0.5 -0.5,-0.5 z m 2.005,-1 c -0.276,0 -0.5,0.224 -0.5,0.5 0,0.276 0.224,0.5 0.5,0.5 z m 0.1,1 c 0.276,0 0.5,-0.224 0.5,-0.5 0,-0.276 -0.224,-0.5 -0.5,-0.5 z m 2.005,-1 c -0.276,0 -0.5,0.224 -0.5,0.5 0,0.276 0.224,0.5 0.5,0.5 z m 0.101,1 c 0.276,0 0.5,-0.224 0.5,-0.5 0,-0.276 -0.224,-0.5 -0.5,-0.5 z m 2.005,-1 c -0.276,0 -0.5,0.224 -0.5,0.5 0,0.276 0.224,0.5 0.5,0.5 z m 0.1,1 c 0.276,0 0.5,-0.224 0.5,-0.5 0,-0.276 -0.224,-0.5 -0.5,-0.5 z m 2.005,-1 c -0.276,0 -0.5,0.224 -0.5,0.5 0,0.276 0.224,0.5 0.5,0.5 z m 0.1,1 c 0.276,0 0.5,-0.224 0.5,-0.5 0,-0.276 -0.224,-0.5 -0.5,-0.5 z m 2.005,-1 c -0.276,0 -0.5,0.224 -0.5,0.5 0,0.276 0.224,0.5 0.5,0.5 z m 0.101,1 c 0.276,0 0.5,-0.224 0.5,-0.5 0,-0.276 -0.224,-0.5 -0.5,-0.5 z m 2.005,-1 c -0.276,0 -0.5,0.224 -0.5,0.5 0,0.276 0.224,0.5 0.5,0.5 z m 0.1,1 c 0.276,0 0.5,-0.224 0.5,-0.5 0,-0.276 -0.224,-0.5 -0.5,-0.5 z m 2.005,-1 c -0.276,0 -0.5,0.224 -0.5,0.5 0,0.276 0.224,0.5 0.5,0.5 z m 0.1,1 c 0.276,0 0.5,-0.224 0.5,-0.5 0,-0.276 -0.224,-0.5 -0.5,-0.5 z m 2.005,-1 c -0.276,0 -0.5,0.224 -0.5,0.5 0,0.276 0.224,0.5 0.5,0.5 z m 0.101,1 c 0.276,0 0.5,-0.224 0.5,-0.5 0,-0.276 -0.224,-0.5 -0.5,-0.5 z m 2.005,-1 c -0.276,0 -0.5,0.224 -0.5,0.5 0,0.276 0.224,0.5 0.5,0.5 z m 0.1,1 c 0.276,0 0.5,-0.224 0.5,-0.5 0,-0.276 -0.224,-0.5 -0.5,-0.5 z m 2.005,-1 c -0.276,0 -0.5,0.224 -0.5,0.5 0,0.276 0.224,0.5 0.5,0.5 z m 0.1,1 c 0.276,0 0.5,-0.224 0.5,-0.5 0,-0.276 -0.224,-0.5 -0.5,-0.5 z m 2.005,-1 c -0.276,0 -0.5,0.224 -0.5,0.5 0,0.276 0.224,0.5 0.5,0.5 z m 0.101,1 c 0.276,0 0.5,-0.224 0.5,-0.5 0,-0.276 -0.224,-0.5 -0.5,-0.5 z m 2.005,-1 c -0.276,0 -0.5,0.224 -0.5,0.5 0,0.276 0.224,0.5 0.5,0.5 z m 0.1,1 c 0.276,0 0.5,-0.224 0.5,-0.5 0,-0.276 -0.224,-0.5 -0.5,-0.5 z m 2.005,-1 c -0.276,0 -0.5,0.224 -0.5,0.5 0,0.276 0.224,0.5 0.5,0.5 z m 0.1,1 c 0.276,0 0.5,-0.224 0.5,-0.5 0,-0.276 -0.224,-0.5 -0.5,-0.5 z m 2.005,-1 c -0.276,0 -0.5,0.224 -0.5,0.5 0,0.276 0.224,0.5 0.5,0.5 z m 0.101,1 c 0.276,0 0.5,-0.224 0.5,-0.5 0,-0.276 -0.224,-0.5 -0.5,-0.5 z m 2.005,-1 c -0.277,0 -0.5,0.224 -0.5,0.5 0,0.276 0.223,0.5 0.5,0.5 z m 0.1,1 c 0.276,0 0.5,-0.224 0.5,-0.5 0,-0.276 -0.224,-0.5 -0.5,-0.5 z m 2.005,-1 c -0.276,0 -0.5,0.224 -0.5,0.5 0,0.276 0.224,0.5 0.5,0.5 z m 0.1,1 c 0.276,0 0.5,-0.224 0.5,-0.5 0,-0.276 -0.224,-0.5 -0.5,-0.5 z m 2.005,-1 c -0.276,0 -0.5,0.224 -0.5,0.5 0,0.276 0.224,0.5 0.5,0.5 z m 0.101,1 c 0.276,0 0.5,-0.224 0.5,-0.5 0,-0.276 -0.224,-0.5 -0.5,-0.5 z m 2.005,-1 c -0.277,0 -0.5,0.224 -0.5,0.5 0,0.276 0.223,0.5 0.5,0.5 z m 0.1,1 c 0.276,0 0.5,-0.224 0.5,-0.5 0,-0.276 -0.224,-0.5 -0.5,-0.5 z m 2.005,-1 c -0.276,0 -0.5,0.224 -0.5,0.5 0,0.276 0.224,0.5 0.5,0.5 z m 0.1,1 c 0.276,0 0.5,-0.224 0.5,-0.5 0,-0.276 -0.224,-0.5 -0.5,-0.5 z m 2.005,-1 c -0.276,0 -0.5,0.224 -0.5,0.5 0,0.276 0.224,0.5 0.5,0.5 z m 0.101,1 c 0.276,0 0.5,-0.224 0.5,-0.5 0,-0.276 -0.224,-0.5 -0.5,-0.5 z m 2.005,-1 c -0.277,0 -0.5,0.224 -0.5,0.5 0,0.276 0.223,0.5 0.5,0.5 z m 0.1,1 c 0.276,0 0.5,-0.224 0.5,-0.5 0,-0.276 -0.224,-0.5 -0.5,-0.5 z m 2.005,-1 c -0.276,0 -0.5,0.224 -0.5,0.5 0,0.276 0.224,0.5 0.5,0.5 z m 0.1,1 c 0.276,0 0.5,-0.224 0.5,-0.5 0,-0.276 -0.224,-0.5 -0.5,-0.5 z m 2.005,-1 c -0.276,0 -0.5,0.224 -0.5,0.5 0,0.276 0.224,0.5 0.5,0.5 z m 0.1,1 c 0.277,0 0.5,-0.224 0.5,-0.5 0,-0.276 -0.223,-0.5 -0.5,-0.5 z m 2.006,-1 c -0.277,0 -0.5,0.224 -0.5,0.5 0,0.276 0.223,0.5 0.5,0.5 z m 0.1,1 c 0.276,0 0.5,-0.224 0.5,-0.5 0,-0.276 -0.224,-0.5 -0.5,-0.5 z m 2.005,-1 c -0.276,0 -0.5,0.224 -0.5,0.5 0,0.276 0.224,0.5 0.5,0.5 z m 0.1,1 c 0.276,0 0.5,-0.224 0.5,-0.5 0,-0.276 -0.224,-0.5 -0.5,-0.5 z m 2.005,-1 c -0.276,0 -0.5,0.224 -0.5,0.5 0,0.276 0.224,0.5 0.5,0.5 z m 0.103,1 c 0.276,-0.002 0.499,-0.227 0.497,-0.503 -0.002,-0.276 -0.227,-0.499 -0.503,-0.497 z m 1.843,-1.244 c -0.267,0.07 -0.427,0.343 -0.357,0.611 0.07,0.267 0.343,0.427 0.61,0.357 z m 0.355,0.941 c 0.267,-0.074 0.423,-0.349 0.35,-0.615 -0.073,-0.266 -0.348,-0.423 -0.614,-0.35 z m 1.459,-1.679 c -0.24,0.137 -0.324,0.442 -0.188,0.682 0.137,0.24 0.442,0.324 0.682,0.188 z m 0.586,0.817 c 0.238,-0.14 0.318,-0.446 0.179,-0.685 -0.14,-0.238 -0.446,-0.318 -0.684,-0.178 z m 0.974,-1.999 c -0.196,0.194 -0.198,0.511 -0.004,0.707 0.194,0.197 0.511,0.199 0.707,0.005 z m 0.776,0.639 c 0.195,-0.195 0.195,-0.511 0,-0.707 -0.196,-0.195 -0.512,-0.195 -0.707,0 z m 0.694,-2.108 c -0.195,0.195 -0.195,0.512 0,0.707 0.195,0.195 0.512,0.195 0.707,0 z m 0.777,0.637 c 0.195,-0.195 0.195,-0.512 0,-0.707 -0.195,-0.195 -0.512,-0.195 -0.707,0 z m 0.694,-2.108 c -0.195,0.195 -0.195,0.511 0,0.707 0.196,0.195 0.512,0.195 0.707,0 z m 0.778,0.637 c 0.195,-0.196 0.195,-0.512 0,-0.708 -0.196,-0.195 -0.512,-0.195 -0.708,0 z m 0.694,-2.109 c -0.195,0.195 -0.195,0.512 0,0.707 0.195,0.195 0.512,0.195 0.707,0 z m 0.777,0.637 c 0.195,-0.195 0.195,-0.512 0,-0.707 -0.195,-0.195 -0.512,-0.195 -0.707,0 z m 0.694,-2.107995 c -0.195,0.195 -0.195,0.512 0,0.707 0.195,0.195 0.512,0.195 0.707,0 z m 0.777,0.637 c 0.196,-0.196 0.196,-0.512 0,-0.707 -0.195,-0.196 -0.511,-0.196 -0.707,0 z m 0.695,-2.1087 c -0.196,0.1957 -0.196,0.5117 0,0.7067 0.195,0.196 0.511,0.196 0.707,0 z m 0.777,0.6367 c 0.195,-0.195 0.195,-0.511 0,-0.7068 -0.196,-0.1952 -0.512,-0.1952 -0.707,0 z m 0.694,-2.1081 c -0.195,0.1953 -0.195,0.5119 0,0.7071 0.195,0.1953 0.512,0.1953 0.707,0 z m 0.777,0.637 c 0.195,-0.1952 0.195,-0.5118 0,-0.7071 -0.195,-0.1952 -0.512,-0.1952 -0.707,0 z m 0.694,-2.1084 c -0.195,0.1953 -0.195,0.5118 0,0.7071 0.196,0.1953 0.512,0.1953 0.707,0 z m 0.778,0.637 c 0.195,-0.1952 0.195,-0.5118 0,-0.7071 -0.196,-0.1952 -0.512,-0.1952 -0.708,0 z m 0.694,-2.1084 c -0.195,0.1953 -0.195,0.5118 0,0.7071 0.195,0.1953 0.512,0.1953 0.707,0 z m 0.777,0.637 c 0.195,-0.1952 0.195,-0.5118 0,-0.7071 -0.195,-0.1952 -0.512,-0.1952 -0.707,0 z m 0.694,-2.1084 c -0.195,0.1953 -0.195,0.5118 0,0.7071 0.195,0.1953 0.512,0.1953 0.707,0 z m 0.777,0.637 c 0.196,-0.1952 0.196,-0.5118 0,-0.7071 -0.195,-0.1952 -0.511,-0.1952 -0.707,0 z m 0.695,-2.1084 c -0.196,0.1953 -0.196,0.5118 0,0.7071 0.195,0.1953 0.511,0.1953 0.707,0 z m 0.777,0.637 c 0.195,-0.1952 0.195,-0.5118 0,-0.7071 -0.195,-0.1952 -0.512,-0.1952 -0.707,0 z m 0.694,-2.1084 c -0.195,0.1952 -0.195,0.5118 0,0.7071 0.195,0.1953 0.512,0.1953 0.707,0 z m 0.777,0.637 c 0.195,-0.1952 0.195,-0.5118 0,-0.7071 -0.195,-0.1952 -0.512,-0.1952 -0.707,0 z m 0.694,-2.1084 c -0.195,0.1952 -0.195,0.5118 0,0.7071 0.196,0.1953 0.512,0.1953 0.708,0 z m 0.778,0.637 c 0.195,-0.1952 0.195,-0.5118 0,-0.7071 -0.196,-0.1952 -0.512,-0.1952 -0.708,0 z m 0.694,-2.1084 c -0.195,0.1952 -0.195,0.5118 0,0.7071 0.195,0.1952 0.512,0.1952 0.707,0 z m 0.777,0.637 c 0.195,-0.1952 0.195,-0.5118 0,-0.7071 -0.195,-0.1953 -0.512,-0.1953 -0.707,0 z m 0.694,-2.1084 c -0.195,0.1952 -0.195,0.5118 0,0.7071 0.195,0.1952 0.512,0.1952 0.707,0 z m 0.777,0.637 c 0.196,-0.1952 0.196,-0.5118 0,-0.7071 -0.195,-0.1953 -0.511,-0.1953 -0.707,0 z m 0.695,-2.1084 c -0.196,0.1952 -0.196,0.5118 0,0.7071 0.195,0.1952 0.511,0.1952 0.707,0 z m 0.777,0.637 c 0.195,-0.1952 0.195,-0.5118 0,-0.7071 -0.195,-0.1953 -0.512,-0.1953 -0.707,0 z m 0.694,-2.1084 c -0.195,0.1952 -0.195,0.5118 0,0.7071 0.195,0.1952 0.512,0.1952 0.707,0 z m 0.777,0.637 c 0.195,-0.1953 0.195,-0.5118 0,-0.7071 -0.195,-0.1953 -0.512,-0.1953 -0.707,0 z m 0.694,-2.1084 c -0.195,0.1952 -0.195,0.5118 0,0.7071 0.196,0.1952 0.512,0.1952 0.708,0 z m 0.778,0.637 c 0.195,-0.1953 0.195,-0.5118 0,-0.7071 -0.196,-0.1953 -0.512,-0.1953 -0.708,0 z m 0.694,-2.1084 c -0.195,0.1952 -0.195,0.5118 0,0.7071 0.195,0.1952 0.512,0.1952 0.707,0 z m 0.777,0.637 c 0.195,-0.1953 0.195,-0.5119 0,-0.7071 -0.195,-0.1953 -0.512,-0.1953 -0.707,0 z m 0.694,-2.1085 c -0.195,0.1953 -0.195,0.5119 0,0.7072 0.196,0.1952 0.512,0.1952 0.707,0 z m 0.777,0.6371 c 0.196,-0.1953 0.196,-0.5119 0,-0.7071 -0.195,-0.1953 -0.511,-0.1953 -0.707,0 z m 0.695,-2.1085 c -0.196,0.1953 -0.196,0.5119 0,0.7071 0.195,0.1953 0.512,0.1953 0.707,0 z m 0.777,0.6371 c 0.195,-0.1953 0.195,-0.5119 0,-0.7071 -0.195,-0.1953 -0.512,-0.1953 -0.707,0 z m 0.694,-2.1085 c -0.195,0.1953 -0.195,0.5119 0,0.7071 0.195,0.1953 0.512,0.1953 0.707,0 z m 0.777,0.6371 c 0.195,-0.1953 0.195,-0.5119 0,-0.7071 -0.195,-0.1953 -0.512,-0.1953 -0.707,0 z m 0.694,-2.1085 c -0.195,0.1953 -0.195,0.5119 0,0.7071 0.196,0.1953 0.512,0.1953 0.708,0 z m 0.778,0.6371 c 0.195,-0.1953 0.195,-0.5119 0,-0.7071 -0.196,-0.1953 -0.512,-0.1953 -0.707,0 z m 0.694,-2.1085 c -0.195,0.1953 -0.195,0.5119 0,0.7071 0.195,0.1953 0.512,0.1953 0.707,0 z m 0.777,0.6371 c 0.195,-0.1953 0.195,-0.5119 0,-0.7071 -0.195,-0.1953 -0.512,-0.1953 -0.707,0 z m 0.694,-2.1085 c -0.195,0.1953 -0.195,0.5119 0,0.7071 0.196,0.1953 0.512,0.1953 0.707,0 z m 0.776,0.6391 c 0.196,-0.194 0.198,-0.5106 0.004,-0.7071 -0.194,-0.1965 -0.511,-0.1984 -0.707,-0.0044 z m 0.974,-1.9983 c -0.238,0.1395 -0.318,0.4458 -0.179,0.6841 0.14,0.2383 0.446,0.3183 0.684,0.1788 z m 0.586,0.8161 c 0.24,-0.1365 0.324,-0.4418 0.188,-0.6818 -0.137,-0.24 -0.442,-0.3239 -0.682,-0.1873 z m 1.459,-1.678 c -0.267,0.0731 -0.423,0.3483 -0.35,0.6146 0.073,0.2662 0.348,0.4228 0.614,0.3497 z m 0.355,0.9401 c 0.267,-0.0698 0.427,-0.343 0.357,-0.6102 -0.07,-0.2672 -0.343,-0.4272 -0.61,-0.3573 z m 1.843,-1.2434 c -0.276,0.0017 -0.499,0.2269 -0.497,0.5031 0.002,0.2761 0.227,0.4986 0.503,0.4968 z m 0.102,0.9998 c 0.276,0 0.5,-0.2239 0.5,-0.5 0,-0.2761 -0.224,-0.5 -0.5,-0.5 z m 1.966,-1 c -0.276,0 -0.5,0.2239 -0.5,0.5 0,0.2761 0.224,0.5 0.5,0.5 z m 0.099,1 c 0.276,0 0.5,-0.2239 0.5,-0.5 0,-0.2761 -0.224,-0.5 -0.5,-0.5 z m 1.966,-1 c -0.276,0 -0.5,0.2239 -0.5,0.5 0,0.2761 0.224,0.5 0.5,0.5 z m 0.099,1 c 0.276,0 0.5,-0.2239 0.5,-0.5 0,-0.2761 -0.224,-0.5 -0.5,-0.5 z m 1.966,-1 c -0.276,0 -0.5,0.2239 -0.5,0.5 0,0.2761 0.224,0.5 0.5,0.5 z m 0.098,1 c 0.277,0 0.5,-0.2239 0.5,-0.5 0,-0.2761 -0.223,-0.5 -0.5,-0.5 z m 1.967,-1 c -0.276,0 -0.5,0.2239 -0.5,0.5 0,0.2761 0.224,0.5 0.5,0.5 z m 0.098,1 c 0.276,0 0.5,-0.2239 0.5,-0.5 0,-0.2761 -0.224,-0.5 -0.5,-0.5 z m 1.967,-1 c -0.276,0 -0.5,0.2239 -0.5,0.5 0,0.2761 0.224,0.5 0.5,0.5 z m 0.098,1 c 0.276,0 0.5,-0.2239 0.5,-0.5 0,-0.2761 -0.224,-0.5 -0.5,-0.5 z m 1.967,-1 c -0.276,0 -0.5,0.2239 -0.5,0.5 0,0.2761 0.224,0.5 0.5,0.5 z m 0.098,1 c 0.276,0 0.5,-0.2239 0.5,-0.5 0,-0.2761 -0.224,-0.5 -0.5,-0.5 z m 1.967,-1 c -0.277,0 -0.5,0.2239 -0.5,0.5 0,0.2761 0.223,0.5 0.5,0.5 z m 0.098,1 c 0.276,0 0.5,-0.2239 0.5,-0.5 0,-0.2761 -0.224,-0.5 -0.5,-0.5 z m 1.966,-1 c -0.276,0 -0.5,0.2239 -0.5,0.5 0,0.2761 0.224,0.5 0.5,0.5 z m 0.099,1 c 0.276,0 0.5,-0.2239 0.5,-0.5 0,-0.2761 -0.224,-0.5 -0.5,-0.5 z m 1.966,-1 c -0.276,0 -0.5,0.2239 -0.5,0.5 0,0.2761 0.224,0.5 0.5,0.5 z m 0.099,1 c 0.276,0 0.5,-0.2239 0.5,-0.5 0,-0.2761 -0.224,-0.5 -0.5,-0.5 z m 1.966,-1 c -0.276,0 -0.5,0.2239 -0.5,0.5 0,0.2761 0.224,0.5 0.5,0.5 z m 0.098,1 c 0.277,0 0.5,-0.2239 0.5,-0.5 0,-0.2761 -0.223,-0.5 -0.5,-0.5 z m 1.967,-1 c -0.276,0 -0.5,0.2239 -0.5,0.5 0,0.2761 0.224,0.5 0.5,0.5 z m 0.098,1 c 0.276,0 0.5,-0.2239 0.5,-0.5 0,-0.2761 -0.224,-0.5 -0.5,-0.5 z m 1.967,-1 c -0.276,0 -0.5,0.2239 -0.5,0.5 0,0.2761 0.224,0.5 0.5,0.5 z m 0.098,1 c 0.276,0 0.5,-0.2239 0.5,-0.5 0,-0.2761 -0.224,-0.5 -0.5,-0.5 z m 1.967,-1 c -0.276,0 -0.5,0.2239 -0.5,0.5 0,0.2761 0.224,0.5 0.5,0.5 z m 0.098,1 c 0.276,0 0.5,-0.2239 0.5,-0.5 0,-0.2761 -0.224,-0.5 -0.5,-0.5 z m 1.967,-1 c -0.277,0 -0.5,0.2239 -0.5,0.5 0,0.2761 0.223,0.5 0.5,0.5 z m 0.098,1 c 0.276,0 0.5,-0.2239 0.5,-0.5 0,-0.2761 -0.224,-0.5 -0.5,-0.5 z m 1.966,-1 c -0.276,0 -0.5,0.2239 -0.5,0.5 0,0.2761 0.224,0.5 0.5,0.5 z m 0.099,1 c 0.276,0 0.5,-0.2239 0.5,-0.5 0,-0.2761 -0.224,-0.5 -0.5,-0.5 z m 1.966,-1 c -0.276,0 -0.5,0.2239 -0.5,0.5 0,0.2761 0.224,0.5 0.5,0.5 z m 0.099,1 c 0.276,0 0.5,-0.2239 0.5,-0.5 0,-0.2761 -0.224,-0.5 -0.5,-0.5 z m 1.966,-1 c -0.276,0 -0.5,0.2239 -0.5,0.5 0,0.2761 0.224,0.5 0.5,0.5 z m 0.098,1 c 0.277,0 0.5,-0.2239 0.5,-0.5 0,-0.2761 -0.223,-0.5 -0.5,-0.5 z m 1.967,-1 c -0.276,0 -0.5,0.2239 -0.5,0.5 0,0.2761 0.224,0.5 0.5,0.5 z m 0.098,1 c 0.276,0 0.5,-0.2239 0.5,-0.5 0,-0.2761 -0.224,-0.5 -0.5,-0.5 z m 1.967,-1 c -0.276,0 -0.5,0.2239 -0.5,0.5 0,0.2761 0.224,0.5 0.5,0.5 z m 0.098,1 c 0.276,0 0.5,-0.2239 0.5,-0.5 0,-0.2761 -0.224,-0.5 -0.5,-0.5 z m 1.967,-1 c -0.276,0 -0.5,0.2239 -0.5,0.5 0,0.2761 0.224,0.5 0.5,0.5 z m 0.098,1 c 0.276,0 0.5,-0.2239 0.5,-0.5 0,-0.2761 -0.224,-0.5 -0.5,-0.5 z m 1.967,-1 c -0.277,0 -0.5,0.2239 -0.5,0.5 0,0.2761 0.223,0.5 0.5,0.5 z m 0.098,1 c 0.276,0 0.5,-0.2239 0.5,-0.5 0,-0.2761 -0.224,-0.5 -0.5,-0.5 z m 1.966,-1 c -0.276,0 -0.5,0.2239 -0.5,0.5 0,0.2761 0.224,0.5 0.5,0.5 z m 0.099,1 c 0.276,0 0.5,-0.2239 0.5,-0.5 0,-0.2761 -0.224,-0.5 -0.5,-0.5 z m 1.966,-1 c -0.276,0 -0.5,0.2239 -0.5,0.5 0,0.2761 0.224,0.5 0.5,0.5 z m 0.099,1 c 0.276,0 0.5,-0.2239 0.5,-0.5 0,-0.2761 -0.224,-0.5 -0.5,-0.5 z m 1.966,-1 c -0.276,0 -0.5,0.2239 -0.5,0.5 0,0.2761 0.224,0.5 0.5,0.5 z m 0.098,1 c 0.277,0 0.5,-0.2239 0.5,-0.5 0,-0.2761 -0.223,-0.5 -0.5,-0.5 z m 1.967,-1 c -0.276,0 -0.5,0.2239 -0.5,0.5 0,0.2761 0.224,0.5 0.5,0.5 z m 0.098,1 c 0.276,0 0.5,-0.2239 0.5,-0.5 0,-0.2761 -0.224,-0.5 -0.5,-0.5 z m 1.967,-1 c -0.276,0 -0.5,0.2239 -0.5,0.5 0,0.2761 0.224,0.5 0.5,0.5 z m -173.951,40.499995 v 0.5 h 0.05 v -0.5 -0.5 h -0.05 z m 2.055,0 v 0.5 h 0.1 v -0.5 -0.5 h -0.1 z m 2.106,0 v 0.5 h 0.1 v -0.5 -0.5 h -0.1 z m 2.105,0 v 0.5 h 0.1 v -0.5 -0.5 h -0.1 z m 2.105,0 v 0.5 h 0.1 v -0.5 -0.5 h -0.1 z m 2.105,0 v 0.5 h 0.101 v -0.5 -0.5 h -0.101 z m 2.106,0 v 0.5 h 0.1 v -0.5 -0.5 h -0.1 z m 2.105,0 v 0.5 h 0.1 v -0.5 -0.5 h -0.1 z m 2.105,0 v 0.5 h 0.101 v -0.5 -0.5 h -0.101 z m 2.106,0 v 0.5 h 0.1 v -0.5 -0.5 h -0.1 z m 2.105,0 v 0.5 h 0.1 v -0.5 -0.5 h -0.1 z m 2.105,0 v 0.5 h 0.101 v -0.5 -0.5 h -0.101 z m 2.106,0 v 0.5 h 0.1 v -0.5 -0.5 h -0.1 z m 2.105,0 v 0.5 h 0.1 v -0.5 -0.5 h -0.1 z m 2.105,0 v 0.5 h 0.101 v -0.5 -0.5 h -0.101 z m 2.106,0 v 0.5 h 0.1 v -0.5 -0.5 h -0.1 z m 2.105,0 v 0.5 h 0.1 v -0.5 -0.5 h -0.1 z m 2.105,0 v 0.5 h 0.101 v -0.5 -0.5 h -0.101 z m 2.106,0 v 0.5 h 0.1 v -0.5 -0.5 h -0.1 z m 2.105,0 v 0.5 h 0.1 v -0.5 -0.5 h -0.1 z m 2.105,0 v 0.5 h 0.101 v -0.5 -0.5 h -0.101 z m 2.106,0 v 0.5 h 0.1 v -0.5 -0.5 h -0.1 z m 2.105,0 v 0.5 h 0.1 v -0.5 -0.5 h -0.1 z m 2.105,0 v 0.5 h 0.101 v -0.5 -0.5 h -0.101 z m 2.106,0 v 0.5 h 0.1 v -0.5 -0.5 h -0.1 z m 2.105,0 v 0.5 h 0.1 v -0.5 -0.5 h -0.1 z m 2.105,0 v 0.5 h 0.101 v -0.5 -0.5 h -0.101 z m 2.106,0 v 0.5 h 0.1 v -0.5 -0.5 h -0.1 z m 2.105,0 v 0.5 h 0.1 v -0.5 -0.5 h -0.1 z m 2.105,0 v 0.5 h 0.101 v -0.5 -0.5 h -0.101 z m 2.106,0 v 0.5 h 0.1 v -0.5 -0.5 h -0.1 z m 2.105,0 v 0.5 h 0.1 v -0.5 -0.5 h -0.1 z m 2.105,0 v 0.5 h 0.1 v -0.5 -0.5 h -0.1 z m 2.106,0 v 0.5 h 0.1 v -0.5 -0.5 h -0.1 z m 2.105,0 v 0.5 h 0.1 v -0.5 -0.5 h -0.1 z m 2.105,0 v 0.5 h 0.05 v -0.5 -0.5 h -0.05 z m 0.05,0 v 0.5 c 0.018,0 0.036,0 0.053,0 l -0.003,-0.5 -0.003,-0.5 c -0.016,0 -0.031,0 -0.047,0 z m 2.023,-0.26 0.126,0.484 c 0.034,-0.009 0.068,-0.018 0.102,-0.027 l -0.132,-0.483 -0.132,-0.482 c -0.03,0.008 -0.061,0.017 -0.091,0.024 z m 1.934,-0.787 0.247,0.435 c 0.031,-0.018 0.062,-0.036 0.092,-0.053 l -0.253,-0.432 -0.252,-0.431 c -0.027,0.015 -0.054,0.031 -0.081,0.046 z m 1.665,-1.261 0.351,0.356 c 0.013,-0.013 0.025,-0.025 0.038,-0.038 l -0.354,-0.353 -0.353,-0.354 c -0.011,0.011 -0.023,0.022 -0.034,0.033 z m 0.035,-0.035 0.354,0.353 0.035,-0.035 -0.354,-0.353 -0.353,-0.354 -0.035,0.035 z m 1.437,-1.437 0.353,0.354 0.07,-0.07 -0.353,-0.354 -0.354,-0.353 -0.07,0.07 z m 1.471,-1.471 0.353,0.354 0.071,-0.07 -0.354,-0.354 -0.354,-0.354 -0.07,0.071 z m 1.471,-1.471 0.354,0.353 0.07,-0.07 -0.354,-0.353 -0.353,-0.354 -0.07,0.07 z m 1.472,-1.471995 0.353,0.354 0.07,-0.07 -0.353,-0.354 -0.354,-0.353 -0.07,0.07 z m 1.471,-1.471 0.354,0.353 0.07,-0.07 -0.354,-0.353 -0.353,-0.3538 -0.07,0.0701 z m 1.472,-1.4715 0.353,0.3535 0.07,-0.0701 -0.353,-0.3535 -0.354,-0.3536 -0.07,0.0701 z m 1.471,-1.4714 0.353,0.3535 0.071,-0.0701 -0.354,-0.3535 -0.354,-0.3536 -0.07,0.0701 z m 1.471,-1.4714 0.354,0.3535 0.07,-0.0701 -0.354,-0.3535 -0.353,-0.3536 -0.07,0.0701 z m 1.472,-1.4715 0.353,0.3536 0.07,-0.0701 -0.353,-0.3535 -0.354,-0.3536 -0.07,0.0701 z m 1.471,-1.4714 0.354,0.3536 0.07,-0.0701 -0.354,-0.3535 -0.353,-0.3536 -0.07,0.0701 z m 1.472,-1.4714 0.353,0.3536 0.07,-0.0701 -0.353,-0.3535 -0.354,-0.3536 -0.07,0.0701 z m 1.471,-1.4714 0.354,0.3536 0.07,-0.0701 -0.354,-0.3535 -0.354,-0.3536 -0.07,0.0701 z m 1.471,-1.4714 0.354,0.3536 0.07,-0.0701 -0.354,-0.3535 -0.353,-0.3536 -0.07,0.0701 z m 1.472,-1.4714 0.353,0.3536 0.07,-0.0701 -0.353,-0.3535 -0.354,-0.3536 -0.07,0.0701 z m 1.471,-1.4714 0.354,0.3536 0.07,-0.0701 -0.354,-0.3535 -0.353,-0.3536 -0.07,0.0701 z m 1.472,-1.4714 0.353,0.3536 0.07,-0.0701 -0.353,-0.3535 -0.354,-0.3536 -0.07,0.0701 z m 1.471,-1.4714 0.354,0.3536 0.07,-0.0701 -0.354,-0.3536 -0.354,-0.3535 -0.07,0.0701 z m 1.471,-1.4714 0.354,0.3536 0.07,-0.0701 -0.354,-0.3536 -0.353,-0.3535 -0.07,0.0701 z m 1.472,-1.4714 0.353,0.3536 0.07,-0.0701 -0.353,-0.3536 -0.354,-0.3535 -0.07,0.07 z m 1.471,-1.4714 0.354,0.3535 0.07,-0.07 -0.354,-0.3536 -0.353,-0.3535 -0.07,0.07 z m 1.472,-1.4714 0.353,0.3535 0.07,-0.07 -0.353,-0.3536 -0.354,-0.3535 -0.07,0.07 z m 1.471,-1.4714 0.354,0.3535 0.07,-0.07 -0.354,-0.3536 -0.353,-0.3535 -0.071,0.07 z m 1.471,-1.4714 0.354,0.3535 0.07,-0.07 -0.354,-0.3536 -0.353,-0.3535 -0.07,0.07 z m 1.472,-1.4714 0.353,0.3535 0.035,-0.035 -0.353,-0.3536 -0.354,-0.3535 -0.035,0.035 z m 0.035,-0.0351 0.353,0.3536 c 0.011,-0.011 0.023,-0.022 0.034,-0.033 l -0.352,-0.3557 -0.351,-0.3558 c -0.013,0.0124 -0.025,0.0249 -0.038,0.0374 z m 1.614,-1.2463 0.252,0.4315 c 0.027,-0.0158 0.054,-0.0313 0.081,-0.0468 l -0.247,-0.4345 -0.247,-0.4346 c -0.031,0.0175 -0.062,0.0351 -0.092,0.053 z m 1.924,-0.8112 0.132,0.4822 c 0.03,-0.0083 0.061,-0.0163 0.091,-0.0242 l -0.127,-0.4838 -0.126,-0.4837 c -0.034,0.0089 -0.068,0.018 -0.102,0.0274 z m 2.069,-0.2854 0.003,0.4999 c 0.016,-10e-5 0.031,-10e-5 0.047,-10e-5 v -0.5 -0.5 c -0.018,0 -0.036,10e-5 -0.053,2e-4 z m 0.05,-2e-4 v 0.5 h 0.049 v -0.5 -0.5 h -0.049 z m 2.015,0 v 0.5 h 0.099 v -0.5 -0.5 h -0.099 z m 2.065,0 v 0.5 h 0.099 v -0.5 -0.5 h -0.099 z m 2.065,0 v 0.5 h 0.098 v -0.5 -0.5 h -0.098 z m 2.065,0 v 0.5 h 0.098 v -0.5 -0.5 h -0.098 z m 2.065,0 v 0.5 h 0.098 v -0.5 -0.5 h -0.098 z m 2.065,0 v 0.5 h 0.098 v -0.5 -0.5 h -0.098 z m 2.065,0 v 0.5 h 0.098 v -0.5 -0.5 h -0.098 z m 2.064,0 v 0.5 h 0.099 v -0.5 -0.5 h -0.099 z m 2.065,0 v 0.5 h 0.099 v -0.5 -0.5 h -0.099 z m 2.065,0 v 0.5 h 0.098 v -0.5 -0.5 h -0.098 z m 2.065,0 v 0.5 h 0.098 v -0.5 -0.5 h -0.098 z m 2.065,0 v 0.5 h 0.098 v -0.5 -0.5 h -0.098 z m 2.065,0 v 0.5 h 0.098 v -0.5 -0.5 h -0.098 z m 2.065,0 v 0.5 h 0.098 v -0.5 -0.5 h -0.098 z m 2.064,0 v 0.5 h 0.099 v -0.5 -0.5 h -0.099 z m 2.065,0 v 0.5 h 0.099 v -0.5 -0.5 h -0.099 z m 2.065,0 v 0.5 h 0.098 v -0.5 -0.5 h -0.098 z m 2.065,0 v 0.5 h 0.098 v -0.5 -0.5 h -0.098 z m 2.065,0 v 0.5 h 0.098 v -0.5 -0.5 h -0.098 z m 2.065,0 v 0.5 h 0.098 v -0.5 -0.5 h -0.098 z m 2.065,0 v 0.5 h 0.098 v -0.5 -0.5 h -0.098 z m 2.064,0 v 0.5 h 0.099 v -0.5 -0.5 h -0.099 z m 2.065,0 v 0.5 h 0.099 v -0.5 -0.5 h -0.099 z m 2.065,0 v 0.5 h 0.098 v -0.5 -0.5 h -0.098 z m 2.065,0 v 0.5 h 0.098 v -0.5 -0.5 h -0.098 z m 2.065,0 v 0.5 h 0.049 v -0.5 -0.5 h -0.049 z"
     fill="#5BA9EE"
     style="fill:#5ba9ee;fill-opacity:1"
     id="path5" />
  <path
     d="m 408.33487,47.570035 c 0,7.732 -5.373,14 -12,14 -6.627,0 -12,-6.268 -12,-14 0,-8.732 4.373,-14 12,-14 7.627,0 12,5.268 12,14 z"
     stroke="#808387"
     style="stroke:#808387;stroke-opacity:1"
     stroke-width="2"
     id="path6" />
  <path
     d="m 419.33487,87.570035 c 0,-5.5913 0,-8.3869 -0.913,-10.5922 -1.218,-2.9403 -3.554,-5.2764 -6.495,-6.4944 -2.205,-0.9134 -5.001,-0.9134 -10.592,-0.9134 h -10 c -5.591,0 -8.387,0 -10.592,0.9134 -2.941,1.218 -5.277,3.5541 -6.495,6.4944 -0.913,2.2053 -0.913,5.0009 -0.913,10.5922"
     stroke="#808387"
     style="stroke:#808387;stroke-opacity:1"
     stroke-width="2"
     id="path7" />
  <path
     d="m 361.96487,204.22203 c 0,5.883 -4.087,10.652 -9.13,10.652 -5.043,0 -9.13,-4.769 -9.13,-10.652 0,-6.644 3.326,-10.652 9.13,-10.652 5.803,0 9.13,4.008 9.13,10.652 z"
     stroke="#808387"
     style="stroke:#808387;stroke-opacity:1"
     stroke-width="2"
     id="path8" />
  <path
     d="m 370.33487,234.65703 c 0,-4.254 0,-6.381 -0.695,-8.059 -0.927,-2.237 -2.704,-4.015 -4.941,-4.942 -1.678,-0.695 -3.805,-0.695 -8.06,-0.695 h -7.608 c -4.255,0 -6.382,0 -8.06,0.695 -2.237,0.927 -4.014,2.705 -4.941,4.942 -0.695,1.678 -0.695,3.805 -0.695,8.059"
     stroke="#808387"
     style="stroke:#808387;stroke-opacity:1"
     stroke-width="2"
     id="path9" />
  <path
     d="m 401.39987,109.39603 c 0,4.875 -3.387,8.826 -7.565,8.826 -4.178,0 -7.565,-3.951 -7.565,-8.826 0,-5.505 2.756,-8.826 7.565,-8.826 4.809,0 7.565,3.321 7.565,8.826 z"
     stroke="#808387"
     style="stroke:#808387;stroke-opacity:1"
     stroke-width="2"
     id="path10" />
  <path
     d="m 408.33487,134.61303 c 0,-3.525 0,-5.287 -0.576,-6.677 -0.768,-1.854 -2.24,-3.327 -4.094,-4.095 -1.39,-0.575 -3.153,-0.575 -6.678,-0.575 h -6.304 c -3.525,0 -5.288,0 -6.678,0.575 -1.854,0.768 -3.326,2.241 -4.094,4.095 -0.576,1.39 -0.576,3.152 -0.576,6.677"
     stroke="#808387"
     style="stroke:#808387;stroke-opacity:1"
     stroke-width="2"
     id="path11" />
  <path
     d="m 351.35687,10.178735 c 0,4.2022 -2.92,7.6087 -6.522,7.6087 -3.602,0 -6.522,-3.4065 -6.522,-7.6087 0,-4.7456501 2.377,-7.6087001 6.522,-7.6087001 4.145,0 6.522,2.86305 6.522,7.6087001 z"
     stroke="#808387"
     style="stroke:#808387;stroke-opacity:1"
     stroke-width="2"
     id="path12" />
  <path
     d="m 357.33487,31.917535 c 0,-3.0387 0,-4.5581 -0.497,-5.7566 -0.661,-1.598 -1.931,-2.8676 -3.529,-3.5295 -1.199,-0.4965 -2.718,-0.4965 -5.757,-0.4965 h -5.434 c -3.039,0 -4.559,0 -5.757,0.4965 -1.598,0.6619 -2.868,1.9315 -3.53,3.5295 -0.496,1.1985 -0.496,2.7179 -0.496,5.7566"
     stroke="#808387"
     style="stroke:#808387;stroke-opacity:1"
     stroke-width="2"
     id="path13" />
  <path
     d="m 407.31287,161.96103 c 0,3.53 -2.452,6.392 -5.478,6.392 -3.026,0 -5.478,-2.862 -5.478,-6.392 0,-3.986 1.996,-6.391 5.478,-6.391 3.482,0 5.478,2.405 5.478,6.391 z"
     stroke="#808387"
     style="stroke:#808387;stroke-opacity:1"
     stroke-width="2"
     id="path14" />
  <path
     d="m 412.33487,180.22203 c 0,-2.552 0,-3.829 -0.417,-4.835 -0.556,-1.343 -1.623,-2.409 -2.965,-2.965 -1.007,-0.417 -2.283,-0.417 -4.835,-0.417 h -4.566 c -2.552,0 -3.828,0 -4.835,0.417 -1.343,0.556 -2.409,1.622 -2.965,2.965 -0.417,1.006 -0.417,2.283 -0.417,4.835"
     stroke="#808387"
     style="stroke:#808387;stroke-opacity:1"
     stroke-width="2"
     id="path15" />
  <path
     d="m 23.334873,91.570035 28,16.999995 34,-24.999995"
     stroke="#808387"
     style="stroke:#808387;stroke-opacity:1"
     stroke-width="2"
     stroke-linecap="round"
     id="path16" />
  <path
     d="m 24.334873,47.570035 h -11 c -6.6274,0 -12,5.3726 -12,12 V 175.57003 c 0,6.627 5.3726,12 12,12 h 82 c 6.626997,0 11.999997,-5.373 11.999997,-12 V 59.570035 c 0,-6.6274 -5.373,-12 -11.999997,-12 h -11"
     stroke="#808387"
     style="stroke:#808387;stroke-opacity:1"
     stroke-width="2"
     stroke-linecap="round"
     id="path17" />
  <path
     d="m 76.334873,42.570035 c 1.105,0 2,0.8954 2,2 v 6 c 0,3.3137 -2.686,6 -6,6 h -36 c -3.3137,0 -6,-2.6863 -6,-6 v -6 c 0,-1.1046 0.8954,-2 2,-2 h 14 c 0,4.4183 3.5817,8 8,8 4.4183,0 8,-3.5817 8,-8 z"
     fill="#808387"
     style="fill:#808387;fill-opacity:1"
     id="path18" />
  <circle
     cx="54.334873"
     cy="42.570034"
     r="9"
     stroke="#808387"
     style="stroke:#808387;stroke-opacity:1"
     stroke-width="2"
     id="circle18" />
  <path
     d="m 20.334873,132.57003 h 68"
     stroke="#808387"
     style="stroke:#808387;stroke-opacity:1"
     stroke-width="2"
     stroke-linecap="round"
     id="path19" />
  <path
     d="m 20.334873,159.57003 h 49"
     stroke="#808387"
     style="stroke:#808387;stroke-opacity:1"
     stroke-width="2"
     stroke-linecap="round"
     id="path20" />
  <circle
     cx="23.334873"
     cy="91.570038"
     r="3"
     fill="#808387"
     style="fill:#808387;fill-opacity:1"
     id="circle20" />
  <circle
     cx="51.334873"
     cy="108.57004"
     r="3"
     fill="#808387"
     style="fill:#808387;fill-opacity:1"
     id="circle21" />
  <circle
     cx="85.334869"
     cy="83.570038"
     r="3"
     fill="#808387"
     style="fill:#808387;fill-opacity:1"
     id="circle22" />
</svg>
