<svg width="496" height="240" viewBox="0 0 496 240" fill="none" xmlns="http://www.w3.org/2000/svg">
<rect width="496" height="240" fill="white" style="fill:white;fill-opacity:1;"/>
<path d="M177.646 99.6464C177.451 99.8417 177.451 100.158 177.646 100.354L180.828 103.536C181.024 103.731 181.34 103.731 181.536 103.536C181.731 103.34 181.731 103.024 181.536 102.828L178.707 100L181.536 97.1716C181.731 96.9763 181.731 96.6597 181.536 96.4645C181.34 96.2692 181.024 96.2692 180.828 96.4645L177.646 99.6464ZM352 170.5C352.276 170.5 352.5 170.276 352.5 170C352.5 169.724 352.276 169.5 352 169.5V170.5ZM216.843 102.343L217.197 101.99L216.843 102.343ZM178 100V100.5H211.186V100V99.5H178V100ZM216.843 102.343L216.49 102.697L281.803 168.01L282.157 167.657L282.51 167.303L217.197 101.99L216.843 102.343ZM287.814 170V170.5H352V170V169.5H287.814V170ZM282.157 167.657L281.803 168.01C283.397 169.604 285.559 170.5 287.814 170.5V170V169.5C285.825 169.5 283.917 168.71 282.51 167.303L282.157 167.657ZM211.186 100V100.5C213.175 100.5 215.083 101.29 216.49 102.697L216.843 102.343L217.197 101.99C215.603 100.396 213.441 99.5 211.186 99.5V100Z" fill="#5BA9EE" style="fill:#5BA9EE;fill:color(display-p3 0.3569 0.6646 0.9339);fill-opacity:1;"/>
<path d="M177.646 119.646C177.451 119.842 177.451 120.158 177.646 120.354L180.828 123.536C181.024 123.731 181.34 123.731 181.536 123.536C181.731 123.34 181.731 123.024 181.536 122.828L178.707 120L181.536 117.172C181.731 116.976 181.731 116.66 181.536 116.464C181.34 116.269 181.024 116.269 180.828 116.464L177.646 119.646ZM332 20.5C332.276 20.5 332.5 20.2761 332.5 20C332.5 19.7239 332.276 19.5 332 19.5V20.5ZM290.657 22.3431L291.01 22.6967L290.657 22.3431ZM195.343 117.657L195.697 118.01L195.343 117.657ZM178 120V120.5H189.686V120V119.5H178V120ZM195.343 117.657L195.697 118.01L291.01 22.6967L290.657 22.3431L290.303 21.9896L194.99 117.303L195.343 117.657ZM296.314 20V20.5H332V20V19.5H296.314V20ZM290.657 22.3431L291.01 22.6967C292.417 21.2902 294.325 20.5 296.314 20.5V20V19.5C294.059 19.5 291.897 20.3955 290.303 21.9896L290.657 22.3431ZM189.686 120V120.5C191.941 120.5 194.103 119.604 195.697 118.01L195.343 117.657L194.99 117.303C193.583 118.71 191.675 119.5 189.686 119.5V120Z" fill="#5BA9EE" style="fill:#5BA9EE;fill:color(display-p3 0.3569 0.6646 0.9339);fill-opacity:1;"/>
<path d="M177.646 139.646C177.451 139.842 177.451 140.158 177.646 140.354L180.828 143.536C181.024 143.731 181.34 143.731 181.536 143.536C181.731 143.34 181.731 143.024 181.536 142.828L178.707 140L181.536 137.172C181.731 136.976 181.731 136.66 181.536 136.464C181.34 136.269 181.024 136.269 180.828 136.464L177.646 139.646ZM382 120.87C382.276 120.87 382.5 120.646 382.5 120.37C382.5 120.094 382.276 119.87 382 119.87V120.87ZM271.144 121.442L270.894 121.009L271.144 121.442ZM240.856 138.928L240.606 138.495L240.856 138.928ZM178 140V140.5H236.856V140V139.5H178V140ZM240.856 138.928L241.106 139.361L271.394 121.875L271.144 121.442L270.894 121.009L240.606 138.495L240.856 138.928ZM275.144 120.37V120.87H382V120.37V119.87H275.144V120.37ZM271.144 121.442L271.394 121.875C272.534 121.217 273.827 120.87 275.144 120.87V120.37V119.87C273.652 119.87 272.186 120.263 270.894 121.009L271.144 121.442ZM236.856 140V140.5C238.348 140.5 239.814 140.107 241.106 139.361L240.856 138.928L240.606 138.495C239.466 139.153 238.173 139.5 236.856 139.5V140Z" fill="#5BA9EE" style="fill:#5BA9EE;fill:color(display-p3 0.3569 0.6646 0.9339);fill-opacity:1;"/>
<path d="M177.646 129.646C177.451 129.842 177.451 130.158 177.646 130.354L180.828 133.536C181.024 133.731 181.34 133.731 181.536 133.536C181.731 133.34 181.731 133.024 181.536 132.828L178.707 130L181.536 127.172C181.731 126.976 181.731 126.66 181.536 126.464C181.34 126.269 181.024 126.269 180.828 126.464L177.646 129.646ZM332 220.5C332.276 220.5 332.5 220.276 332.5 220C332.5 219.724 332.276 219.5 332 219.5V220.5ZM206.343 132.343L205.99 132.697L206.343 132.343ZM178.945 130.5C179.221 130.5 179.445 130.276 179.445 130C179.445 129.724 179.221 129.5 178.945 129.5V130.5ZM182.726 129.5C182.45 129.5 182.226 129.724 182.226 130C182.226 130.276 182.45 130.5 182.726 130.5V129.5ZM184.617 130.5C184.893 130.5 185.117 130.276 185.117 130C185.117 129.724 184.893 129.5 184.617 129.5V130.5ZM188.398 129.5C188.122 129.5 187.898 129.724 187.898 130C187.898 130.276 188.122 130.5 188.398 130.5V129.5ZM190.288 130.5C190.565 130.5 190.788 130.276 190.788 130C190.788 129.724 190.565 129.5 190.288 129.5V130.5ZM194.069 129.5C193.793 129.5 193.569 129.724 193.569 130C193.569 130.276 193.793 130.5 194.069 130.5V129.5ZM195.96 130.5C196.236 130.5 196.46 130.276 196.46 130C196.46 129.724 196.236 129.5 195.96 129.5V130.5ZM199.741 129.5C199.465 129.5 199.241 129.724 199.241 130C199.241 130.276 199.465 130.5 199.741 130.5V129.5ZM201.665 130.564C201.939 130.6 202.19 130.407 202.226 130.134C202.262 129.86 202.07 129.609 201.796 129.573L201.665 130.564ZM205.861 131.256C205.642 131.088 205.328 131.13 205.16 131.349C204.992 131.568 205.033 131.882 205.252 132.05L205.861 131.256ZM206.701 133.408C206.896 133.603 207.212 133.603 207.408 133.408C207.603 133.212 207.603 132.896 207.408 132.701L206.701 133.408ZM210.251 135.544C210.056 135.349 209.74 135.349 209.544 135.544C209.349 135.74 209.349 136.056 209.544 136.251L210.251 135.544ZM210.966 137.673C211.161 137.869 211.478 137.869 211.673 137.673C211.869 137.478 211.869 137.161 211.673 136.966L210.966 137.673ZM214.517 139.81C214.322 139.615 214.005 139.615 213.81 139.81C213.615 140.005 213.615 140.322 213.81 140.517L214.517 139.81ZM215.232 141.939C215.427 142.134 215.744 142.134 215.939 141.939C216.134 141.744 216.134 141.427 215.939 141.232L215.232 141.939ZM218.783 144.076C218.588 143.88 218.271 143.88 218.076 144.076C217.88 144.271 217.88 144.588 218.076 144.783L218.783 144.076ZM219.498 146.205C219.693 146.4 220.009 146.4 220.205 146.205C220.4 146.009 220.4 145.693 220.205 145.498L219.498 146.205ZM223.048 148.341C222.853 148.146 222.537 148.146 222.341 148.341C222.146 148.537 222.146 148.853 222.341 149.048L223.048 148.341ZM223.763 150.47C223.959 150.666 224.275 150.666 224.47 150.47C224.666 150.275 224.666 149.959 224.47 149.763L223.763 150.47ZM227.314 152.607C227.119 152.412 226.802 152.412 226.607 152.607C226.412 152.802 226.412 153.119 226.607 153.314L227.314 152.607ZM228.029 154.736C228.224 154.931 228.541 154.931 228.736 154.736C228.931 154.541 228.931 154.224 228.736 154.029L228.029 154.736ZM231.58 156.873C231.385 156.677 231.068 156.677 230.873 156.873C230.677 157.068 230.677 157.385 230.873 157.58L231.58 156.873ZM232.295 159.002C232.49 159.197 232.807 159.197 233.002 159.002C233.197 158.807 233.197 158.49 233.002 158.295L232.295 159.002ZM235.846 161.138C235.65 160.943 235.334 160.943 235.138 161.138C234.943 161.334 234.943 161.65 235.138 161.846L235.846 161.138ZM236.56 163.267C236.756 163.463 237.072 163.463 237.267 163.267C237.463 163.072 237.463 162.756 237.267 162.56L236.56 163.267ZM240.111 165.404C239.916 165.209 239.599 165.209 239.404 165.404C239.209 165.599 239.209 165.916 239.404 166.111L240.111 165.404ZM240.826 167.533C241.021 167.728 241.338 167.728 241.533 167.533C241.728 167.338 241.728 167.021 241.533 166.826L240.826 167.533ZM244.377 169.67C244.182 169.475 243.865 169.475 243.67 169.67C243.475 169.865 243.475 170.182 243.67 170.377L244.377 169.67ZM245.092 171.799C245.287 171.994 245.604 171.994 245.799 171.799C245.994 171.604 245.994 171.287 245.799 171.092L245.092 171.799ZM248.643 173.936C248.447 173.74 248.131 173.74 247.936 173.936C247.74 174.131 247.74 174.447 247.936 174.643L248.643 173.936ZM249.357 176.065C249.553 176.26 249.869 176.26 250.065 176.065C250.26 175.869 250.26 175.553 250.065 175.357L249.357 176.065ZM252.908 178.201C252.713 178.006 252.396 178.006 252.201 178.201C252.006 178.396 252.006 178.713 252.201 178.908L252.908 178.201ZM253.623 180.33C253.818 180.525 254.135 180.525 254.33 180.33C254.525 180.135 254.525 179.818 254.33 179.623L253.623 180.33ZM257.174 182.467C256.979 182.272 256.662 182.272 256.467 182.467C256.272 182.662 256.272 182.979 256.467 183.174L257.174 182.467ZM257.889 184.596C258.084 184.791 258.401 184.791 258.596 184.596C258.791 184.401 258.791 184.084 258.596 183.889L257.889 184.596ZM261.44 186.733C261.244 186.537 260.928 186.537 260.733 186.733C260.537 186.928 260.537 187.244 260.733 187.44L261.44 186.733ZM262.154 188.862C262.35 189.057 262.666 189.057 262.862 188.862C263.057 188.666 263.057 188.35 262.862 188.154L262.154 188.862ZM265.705 190.998C265.51 190.803 265.194 190.803 264.998 190.998C264.803 191.194 264.803 191.51 264.998 191.705L265.705 190.998ZM266.42 193.127C266.615 193.323 266.932 193.323 267.127 193.127C267.323 192.932 267.323 192.615 267.127 192.42L266.42 193.127ZM269.971 195.264C269.776 195.069 269.459 195.069 269.264 195.264C269.069 195.459 269.069 195.776 269.264 195.971L269.971 195.264ZM270.686 197.393C270.881 197.588 271.198 197.588 271.393 197.393C271.588 197.198 271.588 196.881 271.393 196.686L270.686 197.393ZM274.237 199.53C274.041 199.334 273.725 199.334 273.53 199.53C273.334 199.725 273.334 200.041 273.53 200.237L274.237 199.53ZM274.952 201.659C275.147 201.854 275.463 201.854 275.659 201.659C275.854 201.463 275.854 201.147 275.659 200.952L274.952 201.659ZM278.502 203.795C278.307 203.6 277.991 203.6 277.795 203.795C277.6 203.991 277.6 204.307 277.795 204.502L278.502 203.795ZM279.217 205.924C279.412 206.12 279.729 206.12 279.924 205.924C280.12 205.729 280.12 205.412 279.924 205.217L279.217 205.924ZM282.768 208.061C282.573 207.866 282.256 207.866 282.061 208.061C281.866 208.256 281.866 208.573 282.061 208.768L282.768 208.061ZM283.483 210.19C283.678 210.385 283.995 210.385 284.19 210.19C284.385 209.995 284.385 209.678 284.19 209.483L283.483 210.19ZM287.034 212.327C286.839 212.131 286.522 212.131 286.327 212.327C286.131 212.522 286.131 212.839 286.327 213.034L287.034 212.327ZM287.749 214.456C287.944 214.651 288.26 214.651 288.456 214.456C288.651 214.26 288.651 213.944 288.456 213.749L287.749 214.456ZM291.299 216.592C291.104 216.397 290.788 216.397 290.592 216.592C290.397 216.788 290.397 217.104 290.592 217.299L291.299 216.592ZM292.139 218.744C292.358 218.912 292.672 218.87 292.84 218.651C293.008 218.432 292.967 218.118 292.748 217.95L292.139 218.744ZM296.335 219.436C296.061 219.4 295.81 219.593 295.774 219.866C295.738 220.14 295.93 220.391 296.204 220.427L296.335 219.436ZM298.277 220.5C298.553 220.5 298.777 220.276 298.777 220C298.777 219.724 298.553 219.5 298.277 219.5V220.5ZM302.131 219.5C301.855 219.5 301.631 219.724 301.631 220C301.631 220.276 301.855 220.5 302.131 220.5V219.5ZM304.058 220.5C304.334 220.5 304.558 220.276 304.558 220C304.558 219.724 304.334 219.5 304.058 219.5V220.5ZM307.912 219.5C307.636 219.5 307.412 219.724 307.412 220C307.412 220.276 307.636 220.5 307.912 220.5V219.5ZM309.839 220.5C310.115 220.5 310.339 220.276 310.339 220C310.339 219.724 310.115 219.5 309.839 219.5V220.5ZM313.693 219.5C313.417 219.5 313.193 219.724 313.193 220C313.193 220.276 313.417 220.5 313.693 220.5V219.5ZM315.62 220.5C315.896 220.5 316.12 220.276 316.12 220C316.12 219.724 315.896 219.5 315.62 219.5V220.5ZM319.474 219.5C319.198 219.5 318.974 219.724 318.974 220C318.974 220.276 319.198 220.5 319.474 220.5V219.5ZM321.401 220.5C321.678 220.5 321.901 220.276 321.901 220C321.901 219.724 321.678 219.5 321.401 219.5V220.5ZM325.255 219.5C324.979 219.5 324.755 219.724 324.755 220C324.755 220.276 324.979 220.5 325.255 220.5V219.5ZM327.182 220.5C327.459 220.5 327.682 220.276 327.682 220C327.682 219.724 327.459 219.5 327.182 219.5V220.5ZM331.036 219.5C330.76 219.5 330.536 219.724 330.536 220C330.536 220.276 330.76 220.5 331.036 220.5V219.5ZM178 130V130.5H178.945V130V129.5H178V130ZM182.726 130V130.5H184.617V130V129.5H182.726V130ZM188.398 130V130.5H190.288V130V129.5H188.398V130ZM194.069 130V130.5H195.96V130V129.5H194.069V130ZM199.741 130V130.5H200.686V130V129.5H199.741V130ZM200.686 130V130.5C201.016 130.5 201.342 130.522 201.665 130.564L201.731 130.068L201.796 129.573C201.43 129.525 201.059 129.5 200.686 129.5V130ZM205.556 131.653L205.252 132.05C205.51 132.248 205.757 132.464 205.99 132.697L206.343 132.343L206.697 131.99C206.433 131.726 206.154 131.481 205.861 131.256L205.556 131.653ZM206.343 132.343L205.99 132.697L206.701 133.408L207.054 133.054L207.408 132.701L206.697 131.99L206.343 132.343ZM209.898 135.898L209.544 136.251L210.966 137.673L211.32 137.32L211.673 136.966L210.251 135.544L209.898 135.898ZM214.164 140.164L213.81 140.517L215.232 141.939L215.585 141.585L215.939 141.232L214.517 139.81L214.164 140.164ZM218.429 144.429L218.076 144.783L219.498 146.205L219.851 145.851L220.205 145.498L218.783 144.076L218.429 144.429ZM222.695 148.695L222.341 149.048L223.763 150.47L224.117 150.117L224.47 149.763L223.048 148.341L222.695 148.695ZM226.961 152.961L226.607 153.314L228.029 154.736L228.383 154.383L228.736 154.029L227.314 152.607L226.961 152.961ZM231.226 157.226L230.873 157.58L232.295 159.002L232.648 158.648L233.002 158.295L231.58 156.873L231.226 157.226ZM235.492 161.492L235.138 161.846L236.56 163.267L236.914 162.914L237.267 162.56L235.846 161.138L235.492 161.492ZM239.758 165.758L239.404 166.111L240.826 167.533L241.18 167.18L241.533 166.826L240.111 165.404L239.758 165.758ZM244.023 170.023L243.67 170.377L245.092 171.799L245.445 171.445L245.799 171.092L244.377 169.67L244.023 170.023ZM248.289 174.289L247.936 174.643L249.357 176.065L249.711 175.711L250.065 175.357L248.643 173.936L248.289 174.289ZM252.555 178.555L252.201 178.908L253.623 180.33L253.977 179.977L254.33 179.623L252.908 178.201L252.555 178.555ZM256.82 182.82L256.467 183.174L257.889 184.596L258.242 184.242L258.596 183.889L257.174 182.467L256.82 182.82ZM261.086 187.086L260.733 187.44L262.154 188.862L262.508 188.508L262.862 188.154L261.44 186.733L261.086 187.086ZM265.352 191.352L264.998 191.705L266.42 193.127L266.774 192.774L267.127 192.42L265.705 190.998L265.352 191.352ZM269.617 195.617L269.264 195.971L270.686 197.393L271.039 197.039L271.393 196.686L269.971 195.264L269.617 195.617ZM273.883 199.883L273.53 200.237L274.952 201.659L275.305 201.305L275.659 200.952L274.237 199.53L273.883 199.883ZM278.149 204.149L277.795 204.502L279.217 205.924L279.571 205.571L279.924 205.217L278.502 203.795L278.149 204.149ZM282.415 208.415L282.061 208.768L283.483 210.19L283.836 209.836L284.19 209.483L282.768 208.061L282.415 208.415ZM286.68 212.68L286.327 213.034L287.749 214.456L288.102 214.102L288.456 213.749L287.034 212.327L286.68 212.68ZM290.946 216.946L290.592 217.299L291.303 218.01L291.657 217.657L292.01 217.303L291.299 216.592L290.946 216.946ZM291.657 217.657L291.303 218.01C291.567 218.274 291.846 218.519 292.139 218.744L292.444 218.347L292.748 217.95C292.49 217.752 292.243 217.536 292.01 217.303L291.657 217.657ZM296.269 219.932L296.204 220.427C296.57 220.475 296.941 220.5 297.314 220.5V220V219.5C296.984 219.5 296.658 219.478 296.335 219.436L296.269 219.932ZM297.314 220V220.5H298.277V220V219.5H297.314V220ZM302.131 220V220.5H304.058V220V219.5H302.131V220ZM307.912 220V220.5H309.839V220V219.5H307.912V220ZM313.693 220V220.5H315.62V220V219.5H313.693V220ZM319.474 220V220.5H321.401V220V219.5H319.474V220ZM325.255 220V220.5H327.182V220V219.5H325.255V220ZM331.036 220V220.5H332V220V219.5H331.036V220Z" fill="#5BA9EE" style="fill:#5BA9EE;fill:color(display-p3 0.3569 0.6646 0.9339);fill-opacity:1;"/>
<path d="M177.646 109.646C177.451 109.842 177.451 110.158 177.646 110.354L180.828 113.536C181.024 113.731 181.34 113.731 181.536 113.536C181.731 113.34 181.731 113.024 181.536 112.828L178.707 110L181.536 107.172C181.731 106.976 181.731 106.66 181.536 106.464C181.34 106.269 181.024 106.269 180.828 106.464L177.646 109.646ZM352 70.5C352.276 70.5 352.5 70.2761 352.5 70C352.5 69.7239 352.276 69.5 352 69.5V70.5ZM292.657 72.3431L292.303 71.9896L292.657 72.3431ZM257.343 107.657L256.99 107.303L257.343 107.657ZM178.05 110.5C178.326 110.5 178.55 110.276 178.55 110C178.55 109.724 178.326 109.5 178.05 109.5V110.5ZM180.055 109.5C179.779 109.5 179.555 109.724 179.555 110C179.555 110.276 179.779 110.5 180.055 110.5V109.5ZM180.155 110.5C180.432 110.5 180.655 110.276 180.655 110C180.655 109.724 180.432 109.5 180.155 109.5V110.5ZM182.161 109.5C181.884 109.5 181.661 109.724 181.661 110C181.661 110.276 181.884 110.5 182.161 110.5V109.5ZM182.261 110.5C182.537 110.5 182.761 110.276 182.761 110C182.761 109.724 182.537 109.5 182.261 109.5V110.5ZM184.266 109.5C183.99 109.5 183.766 109.724 183.766 110C183.766 110.276 183.99 110.5 184.266 110.5V109.5ZM184.366 110.5C184.642 110.5 184.866 110.276 184.866 110C184.866 109.724 184.642 109.5 184.366 109.5V110.5ZM186.371 109.5C186.095 109.5 185.871 109.724 185.871 110C185.871 110.276 186.095 110.5 186.371 110.5V109.5ZM186.471 110.5C186.748 110.5 186.971 110.276 186.971 110C186.971 109.724 186.748 109.5 186.471 109.5V110.5ZM188.476 109.5C188.2 109.5 187.976 109.724 187.976 110C187.976 110.276 188.2 110.5 188.476 110.5V109.5ZM188.577 110.5C188.853 110.5 189.077 110.276 189.077 110C189.077 109.724 188.853 109.5 188.577 109.5V110.5ZM190.582 109.5C190.306 109.5 190.082 109.724 190.082 110C190.082 110.276 190.306 110.5 190.582 110.5V109.5ZM190.682 110.5C190.958 110.5 191.182 110.276 191.182 110C191.182 109.724 190.958 109.5 190.682 109.5V110.5ZM192.687 109.5C192.411 109.5 192.187 109.724 192.187 110C192.187 110.276 192.411 110.5 192.687 110.5V109.5ZM192.787 110.5C193.064 110.5 193.287 110.276 193.287 110C193.287 109.724 193.064 109.5 192.787 109.5V110.5ZM194.792 109.5C194.516 109.5 194.292 109.724 194.292 110C194.292 110.276 194.516 110.5 194.792 110.5V109.5ZM194.893 110.5C195.169 110.5 195.393 110.276 195.393 110C195.393 109.724 195.169 109.5 194.893 109.5V110.5ZM196.898 109.5C196.622 109.5 196.398 109.724 196.398 110C196.398 110.276 196.622 110.5 196.898 110.5V109.5ZM196.998 110.5C197.274 110.5 197.498 110.276 197.498 110C197.498 109.724 197.274 109.5 196.998 109.5V110.5ZM199.003 109.5C198.727 109.5 198.503 109.724 198.503 110C198.503 110.276 198.727 110.5 199.003 110.5V109.5ZM199.103 110.5C199.379 110.5 199.603 110.276 199.603 110C199.603 109.724 199.379 109.5 199.103 109.5V110.5ZM201.108 109.5C200.832 109.5 200.608 109.724 200.608 110C200.608 110.276 200.832 110.5 201.108 110.5V109.5ZM201.209 110.5C201.485 110.5 201.709 110.276 201.709 110C201.709 109.724 201.485 109.5 201.209 109.5V110.5ZM203.214 109.5C202.938 109.5 202.714 109.724 202.714 110C202.714 110.276 202.938 110.5 203.214 110.5V109.5ZM203.314 110.5C203.59 110.5 203.814 110.276 203.814 110C203.814 109.724 203.59 109.5 203.314 109.5V110.5ZM205.319 109.5C205.043 109.5 204.819 109.724 204.819 110C204.819 110.276 205.043 110.5 205.319 110.5V109.5ZM205.419 110.5C205.695 110.5 205.919 110.276 205.919 110C205.919 109.724 205.695 109.5 205.419 109.5V110.5ZM207.424 109.5C207.148 109.5 206.924 109.724 206.924 110C206.924 110.276 207.148 110.5 207.424 110.5V109.5ZM207.525 110.5C207.801 110.5 208.025 110.276 208.025 110C208.025 109.724 207.801 109.5 207.525 109.5V110.5ZM209.53 109.5C209.254 109.5 209.03 109.724 209.03 110C209.03 110.276 209.254 110.5 209.53 110.5V109.5ZM209.63 110.5C209.906 110.5 210.13 110.276 210.13 110C210.13 109.724 209.906 109.5 209.63 109.5V110.5ZM211.635 109.5C211.359 109.5 211.135 109.724 211.135 110C211.135 110.276 211.359 110.5 211.635 110.5V109.5ZM211.735 110.5C212.011 110.5 212.235 110.276 212.235 110C212.235 109.724 212.011 109.5 211.735 109.5V110.5ZM213.74 109.5C213.464 109.5 213.24 109.724 213.24 110C213.24 110.276 213.464 110.5 213.74 110.5V109.5ZM213.841 110.5C214.117 110.5 214.341 110.276 214.341 110C214.341 109.724 214.117 109.5 213.841 109.5V110.5ZM215.846 109.5C215.57 109.5 215.346 109.724 215.346 110C215.346 110.276 215.57 110.5 215.846 110.5V109.5ZM215.946 110.5C216.222 110.5 216.446 110.276 216.446 110C216.446 109.724 216.222 109.5 215.946 109.5V110.5ZM217.951 109.5C217.675 109.5 217.451 109.724 217.451 110C217.451 110.276 217.675 110.5 217.951 110.5V109.5ZM218.051 110.5C218.327 110.5 218.551 110.276 218.551 110C218.551 109.724 218.327 109.5 218.051 109.5V110.5ZM220.056 109.5C219.78 109.5 219.556 109.724 219.556 110C219.556 110.276 219.78 110.5 220.056 110.5V109.5ZM220.157 110.5C220.433 110.5 220.657 110.276 220.657 110C220.657 109.724 220.433 109.5 220.157 109.5V110.5ZM222.162 109.5C221.886 109.5 221.662 109.724 221.662 110C221.662 110.276 221.886 110.5 222.162 110.5V109.5ZM222.262 110.5C222.538 110.5 222.762 110.276 222.762 110C222.762 109.724 222.538 109.5 222.262 109.5V110.5ZM224.267 109.5C223.991 109.5 223.767 109.724 223.767 110C223.767 110.276 223.991 110.5 224.267 110.5V109.5ZM224.367 110.5C224.643 110.5 224.867 110.276 224.867 110C224.867 109.724 224.643 109.5 224.367 109.5V110.5ZM226.372 109.5C226.096 109.5 225.872 109.724 225.872 110C225.872 110.276 226.096 110.5 226.372 110.5V109.5ZM226.473 110.5C226.749 110.5 226.973 110.276 226.973 110C226.973 109.724 226.749 109.5 226.473 109.5V110.5ZM228.478 109.5C228.201 109.5 227.978 109.724 227.978 110C227.978 110.276 228.201 110.5 228.478 110.5V109.5ZM228.578 110.5C228.854 110.5 229.078 110.276 229.078 110C229.078 109.724 228.854 109.5 228.578 109.5V110.5ZM230.583 109.5C230.307 109.5 230.083 109.724 230.083 110C230.083 110.276 230.307 110.5 230.583 110.5V109.5ZM230.683 110.5C230.959 110.5 231.183 110.276 231.183 110C231.183 109.724 230.959 109.5 230.683 109.5V110.5ZM232.688 109.5C232.412 109.5 232.188 109.724 232.188 110C232.188 110.276 232.412 110.5 232.688 110.5V109.5ZM232.789 110.5C233.065 110.5 233.289 110.276 233.289 110C233.289 109.724 233.065 109.5 232.789 109.5V110.5ZM234.794 109.5C234.517 109.5 234.294 109.724 234.294 110C234.294 110.276 234.517 110.5 234.794 110.5V109.5ZM234.894 110.5C235.17 110.5 235.394 110.276 235.394 110C235.394 109.724 235.17 109.5 234.894 109.5V110.5ZM236.899 109.5C236.623 109.5 236.399 109.724 236.399 110C236.399 110.276 236.623 110.5 236.899 110.5V109.5ZM236.999 110.5C237.275 110.5 237.499 110.276 237.499 110C237.499 109.724 237.275 109.5 236.999 109.5V110.5ZM239.004 109.5C238.728 109.5 238.504 109.724 238.504 110C238.504 110.276 238.728 110.5 239.004 110.5V109.5ZM239.105 110.5C239.381 110.5 239.605 110.276 239.605 110C239.605 109.724 239.381 109.5 239.105 109.5V110.5ZM241.11 109.5C240.833 109.5 240.61 109.724 240.61 110C240.61 110.276 240.833 110.5 241.11 110.5V109.5ZM241.21 110.5C241.486 110.5 241.71 110.276 241.71 110C241.71 109.724 241.486 109.5 241.21 109.5V110.5ZM243.215 109.5C242.939 109.5 242.715 109.724 242.715 110C242.715 110.276 242.939 110.5 243.215 110.5V109.5ZM243.315 110.5C243.591 110.5 243.815 110.276 243.815 110C243.815 109.724 243.591 109.5 243.315 109.5V110.5ZM245.32 109.5C245.044 109.5 244.82 109.724 244.82 110C244.82 110.276 245.044 110.5 245.32 110.5V109.5ZM245.42 110.5C245.697 110.5 245.92 110.276 245.92 110C245.92 109.724 245.697 109.5 245.42 109.5V110.5ZM247.426 109.5C247.149 109.5 246.926 109.724 246.926 110C246.926 110.276 247.149 110.5 247.426 110.5V109.5ZM247.526 110.5C247.802 110.5 248.026 110.276 248.026 110C248.026 109.724 247.802 109.5 247.526 109.5V110.5ZM249.531 109.5C249.255 109.5 249.031 109.724 249.031 110C249.031 110.276 249.255 110.5 249.531 110.5V109.5ZM249.631 110.5C249.907 110.5 250.131 110.276 250.131 110C250.131 109.724 249.907 109.5 249.631 109.5V110.5ZM251.636 109.5C251.36 109.5 251.136 109.724 251.136 110C251.136 110.276 251.36 110.5 251.636 110.5V109.5ZM251.739 110.5C252.015 110.498 252.238 110.273 252.236 109.997C252.234 109.721 252.009 109.498 251.733 109.5L251.739 110.5ZM253.582 109.256C253.315 109.326 253.155 109.599 253.225 109.867C253.295 110.134 253.568 110.294 253.835 110.224L253.582 109.256ZM253.937 110.197C254.204 110.123 254.36 109.848 254.287 109.582C254.214 109.316 253.939 109.159 253.673 109.232L253.937 110.197ZM255.396 108.518C255.156 108.655 255.072 108.96 255.208 109.2C255.345 109.44 255.65 109.524 255.89 109.388L255.396 108.518ZM255.982 109.335C256.22 109.195 256.3 108.889 256.161 108.65C256.021 108.412 255.715 108.332 255.477 108.472L255.982 109.335ZM256.956 107.336C256.76 107.53 256.758 107.847 256.952 108.043C257.146 108.24 257.463 108.242 257.659 108.048L256.956 107.336ZM257.732 107.975C257.927 107.78 257.927 107.464 257.732 107.268C257.536 107.073 257.22 107.073 257.025 107.268L257.732 107.975ZM258.426 105.867C258.231 106.062 258.231 106.379 258.426 106.574C258.621 106.769 258.938 106.769 259.133 106.574L258.426 105.867ZM259.203 106.504C259.398 106.309 259.398 105.992 259.203 105.797C259.008 105.602 258.691 105.602 258.496 105.797L259.203 106.504ZM259.897 104.396C259.702 104.591 259.702 104.907 259.897 105.103C260.093 105.298 260.409 105.298 260.604 105.103L259.897 104.396ZM260.675 105.033C260.87 104.837 260.87 104.521 260.675 104.325C260.479 104.13 260.163 104.13 259.967 104.325L260.675 105.033ZM261.369 102.924C261.174 103.119 261.174 103.436 261.369 103.631C261.564 103.826 261.881 103.826 262.076 103.631L261.369 102.924ZM262.146 103.561C262.341 103.366 262.341 103.049 262.146 102.854C261.951 102.659 261.634 102.659 261.439 102.854L262.146 103.561ZM262.84 101.453C262.645 101.648 262.645 101.965 262.84 102.16C263.035 102.355 263.352 102.355 263.547 102.16L262.84 101.453ZM263.617 102.09C263.813 101.894 263.813 101.578 263.617 101.383C263.422 101.187 263.106 101.187 262.91 101.383L263.617 102.09ZM264.312 99.9813C264.116 100.177 264.116 100.493 264.312 100.688C264.507 100.884 264.823 100.884 265.019 100.688L264.312 99.9813ZM265.089 100.618C265.284 100.423 265.284 100.107 265.089 99.9112C264.893 99.716 264.577 99.716 264.382 99.9112L265.089 100.618ZM265.783 98.5099C265.588 98.7052 265.588 99.0218 265.783 99.217C265.978 99.4123 266.295 99.4123 266.49 99.217L265.783 98.5099ZM266.56 99.1469C266.755 98.9517 266.755 98.6351 266.56 98.4398C266.365 98.2446 266.048 98.2446 265.853 98.4398L266.56 99.1469ZM267.254 97.0385C267.059 97.2338 267.059 97.5503 267.254 97.7456C267.45 97.9409 267.766 97.9409 267.961 97.7456L267.254 97.0385ZM268.032 97.6755C268.227 97.4803 268.227 97.1637 268.032 96.9684C267.836 96.7732 267.52 96.7732 267.324 96.9684L268.032 97.6755ZM268.726 95.5671C268.531 95.7624 268.531 96.0789 268.726 96.2742C268.921 96.4695 269.238 96.4695 269.433 96.2742L268.726 95.5671ZM269.503 96.2041C269.698 96.0089 269.698 95.6923 269.503 95.497C269.308 95.3018 268.991 95.3018 268.796 95.497L269.503 96.2041ZM270.197 94.0957C270.002 94.291 270.002 94.6075 270.197 94.8028C270.392 94.9981 270.709 94.9981 270.904 94.8028L270.197 94.0957ZM270.974 94.7327C271.17 94.5375 271.17 94.2209 270.974 94.0256C270.779 93.8304 270.463 93.8304 270.267 94.0256L270.974 94.7327ZM271.669 92.6243C271.473 92.8196 271.473 93.1361 271.669 93.3314C271.864 93.5267 272.18 93.5267 272.376 93.3314L271.669 92.6243ZM272.446 93.2613C272.641 93.0661 272.641 92.7495 272.446 92.5542C272.251 92.359 271.934 92.359 271.739 92.5542L272.446 93.2613ZM273.14 91.1529C272.945 91.3481 272.945 91.6647 273.14 91.86C273.335 92.0553 273.652 92.0553 273.847 91.86L273.14 91.1529ZM273.917 91.7899C274.112 91.5947 274.112 91.2781 273.917 91.0828C273.722 90.8876 273.405 90.8876 273.21 91.0828L273.917 91.7899ZM274.611 89.6815C274.416 89.8767 274.416 90.1933 274.611 90.3886C274.807 90.5839 275.123 90.5839 275.319 90.3886L274.611 89.6815ZM275.389 90.3185C275.584 90.1233 275.584 89.8067 275.389 89.6114C275.193 89.4162 274.877 89.4162 274.681 89.6114L275.389 90.3185ZM276.083 88.2101C275.888 88.4053 275.888 88.7219 276.083 88.9172C276.278 89.1124 276.595 89.1124 276.79 88.9172L276.083 88.2101ZM276.86 88.8471C277.055 88.6519 277.055 88.3353 276.86 88.14C276.665 87.9447 276.348 87.9447 276.153 88.14L276.86 88.8471ZM277.554 86.7387C277.359 86.9339 277.359 87.2505 277.554 87.4458C277.749 87.641 278.066 87.641 278.261 87.4458L277.554 86.7387ZM278.331 87.3757C278.527 87.1805 278.527 86.8639 278.331 86.6686C278.136 86.4733 277.82 86.4733 277.624 86.6686L278.331 87.3757ZM279.026 85.2673C278.83 85.4625 278.83 85.7791 279.026 85.9744C279.221 86.1696 279.537 86.1696 279.733 85.9744L279.026 85.2673ZM279.803 85.9043C279.998 85.7091 279.998 85.3925 279.803 85.1972C279.608 85.0019 279.291 85.0019 279.096 85.1972L279.803 85.9043ZM280.497 83.7959C280.302 83.9911 280.302 84.3077 280.497 84.503C280.692 84.6982 281.009 84.6982 281.204 84.503L280.497 83.7959ZM281.274 84.4329C281.469 84.2376 281.469 83.9211 281.274 83.7258C281.079 83.5305 280.762 83.5305 280.567 83.7258L281.274 84.4329ZM281.968 82.3245C281.773 82.5197 281.773 82.8363 281.968 83.0316C282.164 83.2268 282.48 83.2268 282.676 83.0316L281.968 82.3245ZM282.746 82.9615C282.941 82.7662 282.941 82.4497 282.746 82.2544C282.55 82.0591 282.234 82.0591 282.038 82.2544L282.746 82.9615ZM283.44 80.8531C283.245 81.0483 283.245 81.3649 283.44 81.5602C283.635 81.7554 283.952 81.7554 284.147 81.5602L283.44 80.8531ZM284.217 81.4901C284.412 81.2948 284.412 80.9782 284.217 80.783C284.022 80.5877 283.705 80.5877 283.51 80.783L284.217 81.4901ZM284.911 79.3816C284.716 79.5769 284.716 79.8935 284.911 80.0888C285.107 80.284 285.423 80.284 285.618 80.0888L284.911 79.3816ZM285.688 80.0187C285.884 79.8234 285.884 79.5068 285.688 79.3116C285.493 79.1163 285.177 79.1163 284.981 79.3116L285.688 80.0187ZM286.383 77.9102C286.187 78.1055 286.187 78.4221 286.383 78.6173C286.578 78.8126 286.895 78.8126 287.09 78.6173L286.383 77.9102ZM287.16 78.5473C287.355 78.352 287.355 78.0354 287.16 77.8402C286.965 77.6449 286.648 77.6449 286.453 77.8402L287.16 78.5473ZM287.854 76.4388C287.659 76.6341 287.659 76.9507 287.854 77.1459C288.049 77.3412 288.366 77.3412 288.561 77.1459L287.854 76.4388ZM288.631 77.0759C288.826 76.8806 288.826 76.564 288.631 76.3688C288.436 76.1735 288.119 76.1735 287.924 76.3688L288.631 77.0759ZM289.325 74.9674C289.13 75.1627 289.13 75.4793 289.325 75.6745C289.521 75.8698 289.837 75.8698 290.033 75.6745L289.325 74.9674ZM290.103 75.6045C290.298 75.4092 290.298 75.0926 290.103 74.8974C289.907 74.7021 289.591 74.7021 289.396 74.8974L290.103 75.6045ZM290.797 73.496C290.602 73.6913 290.602 74.0079 290.797 74.2031C290.992 74.3984 291.309 74.3984 291.504 74.2031L290.797 73.496ZM291.574 74.1331C291.769 73.9378 291.769 73.6212 291.574 73.426C291.379 73.2307 291.062 73.2307 290.867 73.426L291.574 74.1331ZM292.268 72.0246C292.073 72.2199 292.073 72.5365 292.268 72.7317C292.464 72.927 292.78 72.927 292.975 72.7317L292.268 72.0246ZM293.044 72.6637C293.24 72.4697 293.242 72.1531 293.048 71.9566C292.854 71.7601 292.537 71.7582 292.341 71.9522L293.044 72.6637ZM294.018 70.6654C293.78 70.8049 293.7 71.1112 293.839 71.3495C293.979 71.5878 294.285 71.6678 294.523 71.5283L294.018 70.6654ZM294.604 71.4815C294.844 71.345 294.928 71.0397 294.792 70.7997C294.655 70.5597 294.35 70.4758 294.11 70.6124L294.604 71.4815ZM296.063 69.8035C295.796 69.8766 295.64 70.1518 295.713 70.4181C295.786 70.6843 296.061 70.8409 296.327 70.7678L296.063 69.8035ZM296.418 70.7436C296.685 70.6738 296.845 70.4006 296.775 70.1334C296.705 69.8662 296.432 69.7062 296.165 69.7761L296.418 70.7436ZM298.261 69.5002C297.985 69.5019 297.762 69.7271 297.764 70.0033C297.766 70.2794 297.991 70.5019 298.267 70.5001L298.261 69.5002ZM298.363 70.5C298.639 70.5 298.863 70.2761 298.863 70C298.863 69.7239 298.639 69.5 298.363 69.5V70.5ZM300.329 69.5C300.053 69.5 299.829 69.7239 299.829 70C299.829 70.2761 300.053 70.5 300.329 70.5V69.5ZM300.428 70.5C300.704 70.5 300.928 70.2761 300.928 70C300.928 69.7239 300.704 69.5 300.428 69.5V70.5ZM302.394 69.5C302.118 69.5 301.894 69.7239 301.894 70C301.894 70.2761 302.118 70.5 302.394 70.5V69.5ZM302.493 70.5C302.769 70.5 302.993 70.2761 302.993 70C302.993 69.7239 302.769 69.5 302.493 69.5V70.5ZM304.459 69.5C304.183 69.5 303.959 69.7239 303.959 70C303.959 70.2761 304.183 70.5 304.459 70.5V69.5ZM304.557 70.5C304.834 70.5 305.057 70.2761 305.057 70C305.057 69.7239 304.834 69.5 304.557 69.5V70.5ZM306.524 69.5C306.248 69.5 306.024 69.7239 306.024 70C306.024 70.2761 306.248 70.5 306.524 70.5V69.5ZM306.622 70.5C306.898 70.5 307.122 70.2761 307.122 70C307.122 69.7239 306.898 69.5 306.622 69.5V70.5ZM308.589 69.5C308.313 69.5 308.089 69.7239 308.089 70C308.089 70.2761 308.313 70.5 308.589 70.5V69.5ZM308.687 70.5C308.963 70.5 309.187 70.2761 309.187 70C309.187 69.7239 308.963 69.5 308.687 69.5V70.5ZM310.654 69.5C310.378 69.5 310.154 69.7239 310.154 70C310.154 70.2761 310.378 70.5 310.654 70.5V69.5ZM310.752 70.5C311.028 70.5 311.252 70.2761 311.252 70C311.252 69.7239 311.028 69.5 310.752 69.5V70.5ZM312.719 69.5C312.442 69.5 312.219 69.7239 312.219 70C312.219 70.2761 312.442 70.5 312.719 70.5V69.5ZM312.817 70.5C313.093 70.5 313.317 70.2761 313.317 70C313.317 69.7239 313.093 69.5 312.817 69.5V70.5ZM314.783 69.5C314.507 69.5 314.283 69.7239 314.283 70C314.283 70.2761 314.507 70.5 314.783 70.5V69.5ZM314.882 70.5C315.158 70.5 315.382 70.2761 315.382 70C315.382 69.7239 315.158 69.5 314.882 69.5V70.5ZM316.848 69.5C316.572 69.5 316.348 69.7239 316.348 70C316.348 70.2761 316.572 70.5 316.848 70.5V69.5ZM316.947 70.5C317.223 70.5 317.447 70.2761 317.447 70C317.447 69.7239 317.223 69.5 316.947 69.5V70.5ZM318.913 69.5C318.637 69.5 318.413 69.7239 318.413 70C318.413 70.2761 318.637 70.5 318.913 70.5V69.5ZM319.011 70.5C319.288 70.5 319.511 70.2761 319.511 70C319.511 69.7239 319.288 69.5 319.011 69.5V70.5ZM320.978 69.5C320.702 69.5 320.478 69.7239 320.478 70C320.478 70.2761 320.702 70.5 320.978 70.5V69.5ZM321.076 70.5C321.352 70.5 321.576 70.2761 321.576 70C321.576 69.7239 321.352 69.5 321.076 69.5V70.5ZM323.043 69.5C322.767 69.5 322.543 69.7239 322.543 70C322.543 70.2761 322.767 70.5 323.043 70.5V69.5ZM323.141 70.5C323.417 70.5 323.641 70.2761 323.641 70C323.641 69.7239 323.417 69.5 323.141 69.5V70.5ZM325.108 69.5C324.832 69.5 324.608 69.7239 324.608 70C324.608 70.2761 324.832 70.5 325.108 70.5V69.5ZM325.206 70.5C325.482 70.5 325.706 70.2761 325.706 70C325.706 69.7239 325.482 69.5 325.206 69.5V70.5ZM327.173 69.5C326.896 69.5 326.673 69.7239 326.673 70C326.673 70.2761 326.896 70.5 327.173 70.5V69.5ZM327.271 70.5C327.547 70.5 327.771 70.2761 327.771 70C327.771 69.7239 327.547 69.5 327.271 69.5V70.5ZM329.237 69.5C328.961 69.5 328.737 69.7239 328.737 70C328.737 70.2761 328.961 70.5 329.237 70.5V69.5ZM329.336 70.5C329.612 70.5 329.836 70.2761 329.836 70C329.836 69.7239 329.612 69.5 329.336 69.5V70.5ZM331.302 69.5C331.026 69.5 330.802 69.7239 330.802 70C330.802 70.2761 331.026 70.5 331.302 70.5V69.5ZM331.401 70.5C331.677 70.5 331.901 70.2761 331.901 70C331.901 69.7239 331.677 69.5 331.401 69.5V70.5ZM333.367 69.5C333.091 69.5 332.867 69.7239 332.867 70C332.867 70.2761 333.091 70.5 333.367 70.5V69.5ZM333.465 70.5C333.742 70.5 333.965 70.2761 333.965 70C333.965 69.7239 333.742 69.5 333.465 69.5V70.5ZM335.432 69.5C335.156 69.5 334.932 69.7239 334.932 70C334.932 70.2761 335.156 70.5 335.432 70.5V69.5ZM335.53 70.5C335.806 70.5 336.03 70.2761 336.03 70C336.03 69.7239 335.806 69.5 335.53 69.5V70.5ZM337.497 69.5C337.221 69.5 336.997 69.7239 336.997 70C336.997 70.2761 337.221 70.5 337.497 70.5V69.5ZM337.595 70.5C337.871 70.5 338.095 70.2761 338.095 70C338.095 69.7239 337.871 69.5 337.595 69.5V70.5ZM339.562 69.5C339.286 69.5 339.062 69.7239 339.062 70C339.062 70.2761 339.286 70.5 339.562 70.5V69.5ZM339.66 70.5C339.936 70.5 340.16 70.2761 340.16 70C340.16 69.7239 339.936 69.5 339.66 69.5V70.5ZM341.627 69.5C341.35 69.5 341.127 69.7239 341.127 70C341.127 70.2761 341.35 70.5 341.627 70.5V69.5ZM341.725 70.5C342.001 70.5 342.225 70.2761 342.225 70C342.225 69.7239 342.001 69.5 341.725 69.5V70.5ZM343.691 69.5C343.415 69.5 343.191 69.7239 343.191 70C343.191 70.2761 343.415 70.5 343.691 70.5V69.5ZM343.79 70.5C344.066 70.5 344.29 70.2761 344.29 70C344.29 69.7239 344.066 69.5 343.79 69.5V70.5ZM345.756 69.5C345.48 69.5 345.256 69.7239 345.256 70C345.256 70.2761 345.48 70.5 345.756 70.5V69.5ZM345.855 70.5C346.131 70.5 346.355 70.2761 346.355 70C346.355 69.7239 346.131 69.5 345.855 69.5V70.5ZM347.821 69.5C347.545 69.5 347.321 69.7239 347.321 70C347.321 70.2761 347.545 70.5 347.821 70.5V69.5ZM347.919 70.5C348.196 70.5 348.419 70.2761 348.419 70C348.419 69.7239 348.196 69.5 347.919 69.5V70.5ZM349.886 69.5C349.61 69.5 349.386 69.7239 349.386 70C349.386 70.2761 349.61 70.5 349.886 70.5V69.5ZM349.984 70.5C350.26 70.5 350.484 70.2761 350.484 70C350.484 69.7239 350.26 69.5 349.984 69.5V70.5ZM351.951 69.5C351.675 69.5 351.451 69.7239 351.451 70C351.451 70.2761 351.675 70.5 351.951 70.5V69.5ZM178 110V110.5H178.05V110V109.5H178V110ZM180.055 110V110.5H180.155V110V109.5H180.055V110ZM182.161 110V110.5H182.261V110V109.5H182.161V110ZM184.266 110V110.5H184.366V110V109.5H184.266V110ZM186.371 110V110.5H186.471V110V109.5H186.371V110ZM188.476 110V110.5H188.577V110V109.5H188.476V110ZM190.582 110V110.5H190.682V110V109.5H190.582V110ZM192.687 110V110.5H192.787V110V109.5H192.687V110ZM194.792 110V110.5H194.893V110V109.5H194.792V110ZM196.898 110V110.5H196.998V110V109.5H196.898V110ZM199.003 110V110.5H199.103V110V109.5H199.003V110ZM201.108 110V110.5H201.209V110V109.5H201.108V110ZM203.214 110V110.5H203.314V110V109.5H203.214V110ZM205.319 110V110.5H205.419V110V109.5H205.319V110ZM207.424 110V110.5H207.525V110V109.5H207.424V110ZM209.53 110V110.5H209.63V110V109.5H209.53V110ZM211.635 110V110.5H211.735V110V109.5H211.635V110ZM213.74 110V110.5H213.841V110V109.5H213.74V110ZM215.846 110V110.5H215.946V110V109.5H215.846V110ZM217.951 110V110.5H218.051V110V109.5H217.951V110ZM220.056 110V110.5H220.157V110V109.5H220.056V110ZM222.162 110V110.5H222.262V110V109.5H222.162V110ZM224.267 110V110.5H224.367V110V109.5H224.267V110ZM226.372 110V110.5H226.473V110V109.5H226.372V110ZM228.478 110V110.5H228.578V110V109.5H228.478V110ZM230.583 110V110.5H230.683V110V109.5H230.583V110ZM232.688 110V110.5H232.789V110V109.5H232.688V110ZM234.794 110V110.5H234.894V110V109.5H234.794V110ZM236.899 110V110.5H236.999V110V109.5H236.899V110ZM239.004 110V110.5H239.105V110V109.5H239.004V110ZM241.11 110V110.5H241.21V110V109.5H241.11V110ZM243.215 110V110.5H243.315V110V109.5H243.215V110ZM245.32 110V110.5H245.42V110V109.5H245.32V110ZM247.426 110V110.5H247.526V110V109.5H247.426V110ZM249.531 110V110.5H249.631V110V109.5H249.531V110ZM251.636 110V110.5H251.686V110V109.5H251.636V110ZM251.686 110V110.5C251.704 110.5 251.722 110.5 251.739 110.5L251.736 110L251.733 109.5C251.717 109.5 251.702 109.5 251.686 109.5V110ZM253.709 109.74L253.835 110.224C253.869 110.215 253.903 110.206 253.937 110.197L253.805 109.714L253.673 109.232C253.643 109.24 253.612 109.249 253.582 109.256L253.709 109.74ZM255.643 108.953L255.89 109.388C255.921 109.37 255.952 109.352 255.982 109.335L255.729 108.903L255.477 108.472C255.45 108.487 255.423 108.503 255.396 108.518L255.643 108.953ZM257.308 107.692L257.659 108.048C257.672 108.035 257.684 108.023 257.697 108.01L257.343 107.657L256.99 107.303C256.979 107.314 256.967 107.325 256.956 107.336L257.308 107.692ZM257.343 107.657L257.697 108.01L257.732 107.975L257.378 107.622L257.025 107.268L256.99 107.303L257.343 107.657ZM258.78 106.22L259.133 106.574L259.203 106.504L258.85 106.15L258.496 105.797L258.426 105.867L258.78 106.22ZM260.251 104.749L260.604 105.103L260.675 105.033L260.321 104.679L259.967 104.325L259.897 104.396L260.251 104.749ZM261.722 103.278L262.076 103.631L262.146 103.561L261.792 103.208L261.439 102.854L261.369 102.924L261.722 103.278ZM263.194 101.806L263.547 102.16L263.617 102.09L263.264 101.736L262.91 101.383L262.84 101.453L263.194 101.806ZM264.665 100.335L265.019 100.688L265.089 100.618L264.735 100.265L264.382 99.9112L264.312 99.9813L264.665 100.335ZM266.137 98.8635L266.49 99.217L266.56 99.1469L266.207 98.7934L265.853 98.4398L265.783 98.5099L266.137 98.8635ZM267.608 97.3921L267.961 97.7456L268.032 97.6755L267.678 97.322L267.324 96.9684L267.254 97.0385L267.608 97.3921ZM269.079 95.9207L269.433 96.2742L269.503 96.2041L269.149 95.8506L268.796 95.497L268.726 95.5671L269.079 95.9207ZM270.551 94.4492L270.904 94.8028L270.974 94.7327L270.621 94.3792L270.267 94.0256L270.197 94.0957L270.551 94.4492ZM272.022 92.9778L272.376 93.3314L272.446 93.2613L272.092 92.9078L271.739 92.5542L271.669 92.6243L272.022 92.9778ZM273.494 91.5064L273.847 91.86L273.917 91.7899L273.564 91.4364L273.21 91.0828L273.14 91.1529L273.494 91.5064ZM274.965 90.035L275.319 90.3886L275.389 90.3185L275.035 89.965L274.681 89.6114L274.611 89.6815L274.965 90.035ZM276.436 88.5636L276.79 88.9172L276.86 88.8471L276.506 88.4936L276.153 88.14L276.083 88.2101L276.436 88.5636ZM277.908 87.0922L278.261 87.4458L278.331 87.3757L277.978 87.0222L277.624 86.6686L277.554 86.7387L277.908 87.0922ZM279.379 85.6208L279.733 85.9744L279.803 85.9043L279.449 85.5508L279.096 85.1972L279.026 85.2673L279.379 85.6208ZM280.851 84.1494L281.204 84.503L281.274 84.4329L280.921 84.0794L280.567 83.7258L280.497 83.7959L280.851 84.1494ZM282.322 82.678L282.676 83.0316L282.746 82.9615L282.392 82.6079L282.038 82.2544L281.968 82.3245L282.322 82.678ZM283.793 81.2066L284.147 81.5602L284.217 81.4901L283.863 81.1365L283.51 80.783L283.44 80.8531L283.793 81.2066ZM285.265 79.7352L285.618 80.0888L285.688 80.0187L285.335 79.6651L284.981 79.3116L284.911 79.3816L285.265 79.7352ZM286.736 78.2638L287.09 78.6173L287.16 78.5473L286.806 78.1937L286.453 77.8402L286.383 77.9102L286.736 78.2638ZM288.208 76.7924L288.561 77.1459L288.631 77.0759L288.278 76.7223L287.924 76.3688L287.854 76.4388L288.208 76.7924ZM289.679 75.321L290.033 75.6745L290.103 75.6045L289.749 75.2509L289.396 74.8974L289.325 74.9674L289.679 75.321ZM291.15 73.8496L291.504 74.2031L291.574 74.1331L291.22 73.7795L290.867 73.426L290.797 73.496L291.15 73.8496ZM292.622 72.3782L292.975 72.7317L293.01 72.6967L292.657 72.3431L292.303 71.9896L292.268 72.0246L292.622 72.3782ZM292.657 72.3431L293.01 72.6967C293.021 72.6857 293.033 72.6747 293.044 72.6637L292.692 72.308L292.341 71.9522C292.328 71.9646 292.316 71.9771 292.303 71.9896L292.657 72.3431ZM294.271 71.0968L294.523 71.5283C294.55 71.5125 294.577 71.497 294.604 71.4815L294.357 71.047L294.11 70.6124C294.079 70.6299 294.048 70.6475 294.018 70.6654L294.271 71.0968ZM296.195 70.2856L296.327 70.7678C296.357 70.7595 296.388 70.7515 296.418 70.7436L296.291 70.2598L296.165 69.7761C296.131 69.785 296.097 69.7941 296.063 69.8035L296.195 70.2856ZM298.264 70.0002L298.267 70.5001C298.283 70.5 298.298 70.5 298.314 70.5V70V69.5C298.296 69.5 298.278 69.5001 298.261 69.5002L298.264 70.0002ZM298.314 70V70.5H298.363V70V69.5H298.314V70ZM300.329 70V70.5H300.428V70V69.5H300.329V70ZM302.394 70V70.5H302.493V70V69.5H302.394V70ZM304.459 70V70.5H304.557V70V69.5H304.459V70ZM306.524 70V70.5H306.622V70V69.5H306.524V70ZM308.589 70V70.5H308.687V70V69.5H308.589V70ZM310.654 70V70.5H310.752V70V69.5H310.654V70ZM312.719 70V70.5H312.817V70V69.5H312.719V70ZM314.783 70V70.5H314.882V70V69.5H314.783V70ZM316.848 70V70.5H316.947V70V69.5H316.848V70ZM318.913 70V70.5H319.011V70V69.5H318.913V70ZM320.978 70V70.5H321.076V70V69.5H320.978V70ZM323.043 70V70.5H323.141V70V69.5H323.043V70ZM325.108 70V70.5H325.206V70V69.5H325.108V70ZM327.173 70V70.5H327.271V70V69.5H327.173V70ZM329.237 70V70.5H329.336V70V69.5H329.237V70ZM331.302 70V70.5H331.401V70V69.5H331.302V70ZM333.367 70V70.5H333.465V70V69.5H333.367V70ZM335.432 70V70.5H335.53V70V69.5H335.432V70ZM337.497 70V70.5H337.595V70V69.5H337.497V70ZM339.562 70V70.5H339.66V70V69.5H339.562V70ZM341.627 70V70.5H341.725V70V69.5H341.627V70ZM343.691 70V70.5H343.79V70V69.5H343.691V70ZM345.756 70V70.5H345.855V70V69.5H345.756V70ZM347.821 70V70.5H347.919V70V69.5H347.821V70ZM349.886 70V70.5H349.984V70V69.5H349.886V70ZM351.951 70V70.5H352V70V69.5H351.951V70Z" fill="#5BA9EE" style="fill:#5BA9EE;fill:color(display-p3 0.3569 0.6646 0.9339);fill-opacity:1;"/>
<path d="M449 50C449 57.732 443.627 64 437 64C430.373 64 425 57.732 425 50C425 41.268 429.373 36 437 36C444.627 36 449 41.268 449 50Z" stroke="#808387" style="stroke:#808387;stroke:color(display-p3 0.5020 0.5137 0.5294);stroke-opacity:1;" stroke-width="2"/>
<path d="M460 90C460 84.4087 460 81.6131 459.087 79.4078C457.869 76.4675 455.533 74.1314 452.592 72.9134C450.387 72 447.591 72 442 72H432C426.409 72 423.613 72 421.408 72.9134C418.467 74.1314 416.131 76.4675 414.913 79.4078C414 81.6131 414 84.4087 414 90" stroke="#808387" style="stroke:#808387;stroke:color(display-p3 0.5020 0.5137 0.5294);stroke-opacity:1;" stroke-width="2"/>
<path d="M402.63 206.652C402.63 212.535 398.543 217.304 393.5 217.304C388.457 217.304 384.37 212.535 384.37 206.652C384.37 200.008 387.696 196 393.5 196C399.303 196 402.63 200.008 402.63 206.652Z" stroke="#808387" style="stroke:#808387;stroke:color(display-p3 0.5020 0.5137 0.5294);stroke-opacity:1;" stroke-width="2"/>
<path d="M411 237.087C411 232.833 411 230.706 410.305 229.028C409.378 226.791 407.601 225.013 405.364 224.086C403.686 223.391 401.559 223.391 397.304 223.391H389.696C385.441 223.391 383.314 223.391 381.636 224.086C379.399 225.013 377.622 226.791 376.695 229.028C376 230.706 376 232.833 376 237.087" stroke="#808387" style="stroke:#808387;stroke:color(display-p3 0.5020 0.5137 0.5294);stroke-opacity:1;" stroke-width="2"/>
<path d="M442.065 111.826C442.065 116.701 438.678 120.652 434.5 120.652C430.322 120.652 426.935 116.701 426.935 111.826C426.935 106.321 429.691 103 434.5 103C439.309 103 442.065 106.321 442.065 111.826Z" stroke="#808387" style="stroke:#808387;stroke:color(display-p3 0.5020 0.5137 0.5294);stroke-opacity:1;" stroke-width="2"/>
<path d="M449 137.043C449 133.518 449 131.756 448.424 130.366C447.656 128.512 446.184 127.039 444.33 126.271C442.94 125.696 441.177 125.696 437.652 125.696H431.348C427.823 125.696 426.06 125.696 424.67 126.271C422.816 127.039 421.344 128.512 420.576 130.366C420 131.756 420 133.518 420 137.043" stroke="#808387" style="stroke:#808387;stroke:color(display-p3 0.5020 0.5137 0.5294);stroke-opacity:1;" stroke-width="2"/>
<path d="M392.022 12.6087C392.022 16.8109 389.102 20.2174 385.5 20.2174C381.898 20.2174 378.978 16.8109 378.978 12.6087C378.978 7.86305 381.355 5 385.5 5C389.645 5 392.022 7.86305 392.022 12.6087Z" stroke="#808387" style="stroke:#808387;stroke:color(display-p3 0.5020 0.5137 0.5294);stroke-opacity:1;" stroke-width="2"/>
<path d="M398 34.3475C398 31.3088 398 29.7894 397.503 28.5909C396.842 26.9929 395.572 25.7233 393.974 25.0614C392.775 24.5649 391.256 24.5649 388.217 24.5649H382.783C379.744 24.5649 378.224 24.5649 377.026 25.0614C375.428 25.7233 374.158 26.9929 373.496 28.5909C373 29.7894 373 31.3088 373 34.3475" stroke="#808387" style="stroke:#808387;stroke:color(display-p3 0.5020 0.5137 0.5294);stroke-opacity:1;" stroke-width="2"/>
<path d="M447.978 164.391C447.978 167.921 445.526 170.783 442.5 170.783C439.474 170.783 437.022 167.921 437.022 164.391C437.022 160.405 439.018 158 442.5 158C445.982 158 447.978 160.405 447.978 164.391Z" stroke="#808387" style="stroke:#808387;stroke:color(display-p3 0.5020 0.5137 0.5294);stroke-opacity:1;" stroke-width="2"/>
<path d="M453 182.652C453 180.1 453 178.823 452.583 177.817C452.027 176.474 450.96 175.408 449.618 174.852C448.611 174.435 447.335 174.435 444.783 174.435H440.217C437.665 174.435 436.389 174.435 435.382 174.852C434.039 175.408 432.973 176.474 432.417 177.817C432 178.823 432 180.1 432 182.652" stroke="#808387" style="stroke:#808387;stroke:color(display-p3 0.5020 0.5137 0.5294);stroke-opacity:1;" stroke-width="2"/>
<path d="M64 94L92 111L126 86" stroke="#808387" style="stroke:#808387;stroke:color(display-p3 0.5020 0.5137 0.5294);stroke-opacity:1;" stroke-width="2" stroke-linecap="round"/>
<path d="M65 50H54C47.3726 50 42 55.3726 42 62V178C42 184.627 47.3726 190 54 190H136C142.627 190 148 184.627 148 178V62C148 55.3726 142.627 50 136 50H125" stroke="#808387" style="stroke:#808387;stroke:color(display-p3 0.5020 0.5137 0.5294);stroke-opacity:1;" stroke-width="2" stroke-linecap="round"/>
<path d="M117 45C118.105 45 119 45.8954 119 47V53C119 56.3137 116.314 59 113 59H77C73.6863 59 71 56.3137 71 53V47C71 45.8954 71.8954 45 73 45H87C87 49.4183 90.5817 53 95 53C99.4183 53 103 49.4183 103 45H117Z" fill="#808387" style="fill:#808387;fill:color(display-p3 0.5020 0.5137 0.5294);fill-opacity:1;"/>
<circle cx="95" cy="45" r="9" stroke="#808387" style="stroke:#808387;stroke:color(display-p3 0.5020 0.5137 0.5294);stroke-opacity:1;" stroke-width="2"/>
<path d="M61 135H129" stroke="#808387" style="stroke:#808387;stroke:color(display-p3 0.5020 0.5137 0.5294);stroke-opacity:1;" stroke-width="2" stroke-linecap="round"/>
<path d="M61 162H110" stroke="#808387" style="stroke:#808387;stroke:color(display-p3 0.5020 0.5137 0.5294);stroke-opacity:1;" stroke-width="2" stroke-linecap="round"/>
<circle cx="64" cy="94" r="3" fill="#808387" style="fill:#808387;fill:color(display-p3 0.5020 0.5137 0.5294);fill-opacity:1;"/>
<circle cx="92" cy="111" r="3" fill="#808387" style="fill:#808387;fill:color(display-p3 0.5020 0.5137 0.5294);fill-opacity:1;"/>
<circle cx="126" cy="86" r="3" fill="#808387" style="fill:#808387;fill:color(display-p3 0.5020 0.5137 0.5294);fill-opacity:1;"/>
</svg>
