<svg width="496" height="240" viewBox="0 0 496 240" fill="none" xmlns="http://www.w3.org/2000/svg">
<rect width="496" height="240" fill="white" style="fill:white;fill-opacity:1;"/>
<path d="M95.5041 10C96.1432 10 96.6612 10.518 96.6612 11.157V23.0777C96.6612 24.4999 97.315 25.843 98.4343 26.7203L112.747 37.9382C116.105 40.5701 118.066 44.5996 118.066 48.8659V136.116C118.066 143.784 111.85 150 104.182 150H27.8182C20.1501 150 13.9339 143.784 13.9339 136.116V48.8659C13.9339 44.5996 15.8954 40.5701 19.2532 37.9382L33.5657 26.7203C34.685 25.843 35.3389 24.4999 35.3389 23.0777V11.157C35.3389 10.518 35.8569 10 36.4959 10H95.5041Z" stroke="#E1E2E3" style="stroke:#E1E2E3;stroke:color(display-p3 0.8824 0.8863 0.8902);stroke-opacity:1;" stroke-width="2" stroke-linecap="round"/>
<path d="M34.1818 22H97.8182" stroke="#E1E2E3" style="stroke:#E1E2E3;stroke:color(display-p3 0.8824 0.8863 0.8902);stroke-opacity:1;" stroke-width="2" stroke-linecap="round"/>
<path d="M34.1818 18H97.8182" stroke="#E1E2E3" style="stroke:#E1E2E3;stroke:color(display-p3 0.8824 0.8863 0.8902);stroke-opacity:1;" stroke-width="2" stroke-linecap="round"/>
<path d="M34.1818 14H97.8182" stroke="#E1E2E3" style="stroke:#E1E2E3;stroke:color(display-p3 0.8824 0.8863 0.8902);stroke-opacity:1;" stroke-width="2" stroke-linecap="round"/>
<ellipse cx="61.6006" cy="90" rx="30.6667" ry="45" stroke="#E1E2E3" style="stroke:#E1E2E3;stroke:color(display-p3 0.8824 0.8863 0.8902);stroke-opacity:1;" stroke-width="2"/>
<path d="M64.1561 129.906C49.1012 129.906 36.8969 112.039 36.8969 89.9999C36.8969 67.9606 49.1012 50.0942 64.1561 50.0942" stroke="#E1E2E3" style="stroke:#E1E2E3;stroke:color(display-p3 0.8824 0.8863 0.8902);stroke-opacity:1;"/>
<path d="M61.6006 45H69.2673C86.204 45 99.9339 65.1472 99.9339 90C99.9339 114.853 86.204 135 69.2673 135H61.6006" stroke="#E1E2E3" style="stroke:#E1E2E3;stroke:color(display-p3 0.8824 0.8863 0.8902);stroke-opacity:1;" stroke-width="2"/>
<path d="M73.5265 131.604H80.7672" stroke="#E1E2E3" style="stroke:#E1E2E3;stroke:color(display-p3 0.8824 0.8863 0.8902);stroke-opacity:1;" stroke-linecap="round"/>
<path d="M73.5265 48.3962H80.7672" stroke="#E1E2E3" style="stroke:#E1E2E3;stroke:color(display-p3 0.8824 0.8863 0.8902);stroke-opacity:1;" stroke-linecap="round"/>
<path d="M77.7858 128.208H85.4524" stroke="#E1E2E3" style="stroke:#E1E2E3;stroke:color(display-p3 0.8824 0.8863 0.8902);stroke-opacity:1;" stroke-linecap="round"/>
<path d="M77.7858 51.7925H85.4524" stroke="#E1E2E3" style="stroke:#E1E2E3;stroke:color(display-p3 0.8824 0.8863 0.8902);stroke-opacity:1;" stroke-linecap="round"/>
<path d="M82.4709 123.113H89.7117" stroke="#E1E2E3" style="stroke:#E1E2E3;stroke:color(display-p3 0.8824 0.8863 0.8902);stroke-opacity:1;" stroke-linecap="round"/>
<path d="M82.4709 56.8867H89.7117" stroke="#E1E2E3" style="stroke:#E1E2E3;stroke:color(display-p3 0.8824 0.8863 0.8902);stroke-opacity:1;" stroke-linecap="round"/>
<rect width="72" height="10" transform="translate(100 155)" fill="white" style="fill:white;fill-opacity:1;"/>
<rect x="100" y="155" width="72" height="10" rx="1" stroke="#808387" style="stroke:#808387;stroke:color(display-p3 0.5020 0.5137 0.5294);stroke-opacity:1;" stroke-width="2"/>
<path d="M104.5 156V164" stroke="#808387" style="stroke:#808387;stroke:color(display-p3 0.5020 0.5137 0.5294);stroke-opacity:1;" stroke-linecap="round"/>
<path d="M167.5 156V164" stroke="#808387" style="stroke:#808387;stroke:color(display-p3 0.5020 0.5137 0.5294);stroke-opacity:1;" stroke-linecap="round"/>
<path d="M109 156V164" stroke="#808387" style="stroke:#808387;stroke:color(display-p3 0.5020 0.5137 0.5294);stroke-opacity:1;" stroke-linecap="round"/>
<path d="M163 156V164" stroke="#808387" style="stroke:#808387;stroke:color(display-p3 0.5020 0.5137 0.5294);stroke-opacity:1;" stroke-linecap="round"/>
<path d="M119 156V164" stroke="#808387" style="stroke:#808387;stroke:color(display-p3 0.5020 0.5137 0.5294);stroke-opacity:1;" stroke-linecap="round"/>
<path d="M153 156V164" stroke="#808387" style="stroke:#808387;stroke:color(display-p3 0.5020 0.5137 0.5294);stroke-opacity:1;" stroke-linecap="round"/>
<rect width="72" height="10" transform="translate(100 145)" fill="white" style="fill:white;fill-opacity:1;"/>
<rect x="100" y="145" width="72" height="10" rx="1" stroke="#808387" style="stroke:#808387;stroke:color(display-p3 0.5020 0.5137 0.5294);stroke-opacity:1;" stroke-width="2"/>
<path d="M104.5 146V154" stroke="#808387" style="stroke:#808387;stroke:color(display-p3 0.5020 0.5137 0.5294);stroke-opacity:1;" stroke-linecap="round"/>
<path d="M167.5 146V154" stroke="#808387" style="stroke:#808387;stroke:color(display-p3 0.5020 0.5137 0.5294);stroke-opacity:1;" stroke-linecap="round"/>
<path d="M109 146V154" stroke="#808387" style="stroke:#808387;stroke:color(display-p3 0.5020 0.5137 0.5294);stroke-opacity:1;" stroke-linecap="round"/>
<path d="M163 146V154" stroke="#808387" style="stroke:#808387;stroke:color(display-p3 0.5020 0.5137 0.5294);stroke-opacity:1;" stroke-linecap="round"/>
<path d="M119 146V154" stroke="#808387" style="stroke:#808387;stroke:color(display-p3 0.5020 0.5137 0.5294);stroke-opacity:1;" stroke-linecap="round"/>
<path d="M153 146V154" stroke="#808387" style="stroke:#808387;stroke:color(display-p3 0.5020 0.5137 0.5294);stroke-opacity:1;" stroke-linecap="round"/>
<rect width="72" height="10" transform="translate(92 135)" fill="white" style="fill:white;fill-opacity:1;"/>
<rect x="92" y="135" width="72" height="10" rx="1" stroke="#808387" style="stroke:#808387;stroke:color(display-p3 0.5020 0.5137 0.5294);stroke-opacity:1;" stroke-width="2"/>
<path d="M96.5 136V144" stroke="#808387" style="stroke:#808387;stroke:color(display-p3 0.5020 0.5137 0.5294);stroke-opacity:1;" stroke-linecap="round"/>
<path d="M159.5 136V144" stroke="#808387" style="stroke:#808387;stroke:color(display-p3 0.5020 0.5137 0.5294);stroke-opacity:1;" stroke-linecap="round"/>
<path d="M101 136V144" stroke="#808387" style="stroke:#808387;stroke:color(display-p3 0.5020 0.5137 0.5294);stroke-opacity:1;" stroke-linecap="round"/>
<path d="M155 136V144" stroke="#808387" style="stroke:#808387;stroke:color(display-p3 0.5020 0.5137 0.5294);stroke-opacity:1;" stroke-linecap="round"/>
<path d="M111 136V144" stroke="#808387" style="stroke:#808387;stroke:color(display-p3 0.5020 0.5137 0.5294);stroke-opacity:1;" stroke-linecap="round"/>
<path d="M145 136V144" stroke="#808387" style="stroke:#808387;stroke:color(display-p3 0.5020 0.5137 0.5294);stroke-opacity:1;" stroke-linecap="round"/>
<rect width="72" height="10" transform="translate(100 125)" fill="white" style="fill:white;fill-opacity:1;"/>
<rect x="100" y="125" width="72" height="10" rx="1" stroke="#808387" style="stroke:#808387;stroke:color(display-p3 0.5020 0.5137 0.5294);stroke-opacity:1;" stroke-width="2"/>
<path d="M104.5 126V134" stroke="#808387" style="stroke:#808387;stroke:color(display-p3 0.5020 0.5137 0.5294);stroke-opacity:1;" stroke-linecap="round"/>
<path d="M167.5 126V134" stroke="#808387" style="stroke:#808387;stroke:color(display-p3 0.5020 0.5137 0.5294);stroke-opacity:1;" stroke-linecap="round"/>
<path d="M109 126V134" stroke="#808387" style="stroke:#808387;stroke:color(display-p3 0.5020 0.5137 0.5294);stroke-opacity:1;" stroke-linecap="round"/>
<path d="M163 126V134" stroke="#808387" style="stroke:#808387;stroke:color(display-p3 0.5020 0.5137 0.5294);stroke-opacity:1;" stroke-linecap="round"/>
<path d="M119 126V134" stroke="#808387" style="stroke:#808387;stroke:color(display-p3 0.5020 0.5137 0.5294);stroke-opacity:1;" stroke-linecap="round"/>
<path d="M153 126V134" stroke="#808387" style="stroke:#808387;stroke:color(display-p3 0.5020 0.5137 0.5294);stroke-opacity:1;" stroke-linecap="round"/>
<rect width="72" height="10" transform="translate(100 115)" fill="white" style="fill:white;fill-opacity:1;"/>
<rect x="100" y="115" width="72" height="10" rx="1" stroke="#808387" style="stroke:#808387;stroke:color(display-p3 0.5020 0.5137 0.5294);stroke-opacity:1;" stroke-width="2"/>
<path d="M104.5 116V124" stroke="#808387" style="stroke:#808387;stroke:color(display-p3 0.5020 0.5137 0.5294);stroke-opacity:1;" stroke-linecap="round"/>
<path d="M167.5 116V124" stroke="#808387" style="stroke:#808387;stroke:color(display-p3 0.5020 0.5137 0.5294);stroke-opacity:1;" stroke-linecap="round"/>
<path d="M109 116V124" stroke="#808387" style="stroke:#808387;stroke:color(display-p3 0.5020 0.5137 0.5294);stroke-opacity:1;" stroke-linecap="round"/>
<path d="M163 116V124" stroke="#808387" style="stroke:#808387;stroke:color(display-p3 0.5020 0.5137 0.5294);stroke-opacity:1;" stroke-linecap="round"/>
<path d="M119 116V124" stroke="#808387" style="stroke:#808387;stroke:color(display-p3 0.5020 0.5137 0.5294);stroke-opacity:1;" stroke-linecap="round"/>
<path d="M153 116V124" stroke="#808387" style="stroke:#808387;stroke:color(display-p3 0.5020 0.5137 0.5294);stroke-opacity:1;" stroke-linecap="round"/>
<rect width="72" height="10" transform="translate(108 105)" fill="white" style="fill:white;fill-opacity:1;"/>
<rect x="108" y="105" width="72" height="10" rx="1" stroke="#808387" style="stroke:#808387;stroke:color(display-p3 0.5020 0.5137 0.5294);stroke-opacity:1;" stroke-width="2"/>
<path d="M112.5 106V114" stroke="#808387" style="stroke:#808387;stroke:color(display-p3 0.5020 0.5137 0.5294);stroke-opacity:1;" stroke-linecap="round"/>
<path d="M175.5 106V114" stroke="#808387" style="stroke:#808387;stroke:color(display-p3 0.5020 0.5137 0.5294);stroke-opacity:1;" stroke-linecap="round"/>
<path d="M117 106V114" stroke="#808387" style="stroke:#808387;stroke:color(display-p3 0.5020 0.5137 0.5294);stroke-opacity:1;" stroke-linecap="round"/>
<path d="M171 106V114" stroke="#808387" style="stroke:#808387;stroke:color(display-p3 0.5020 0.5137 0.5294);stroke-opacity:1;" stroke-linecap="round"/>
<path d="M127 106V114" stroke="#808387" style="stroke:#808387;stroke:color(display-p3 0.5020 0.5137 0.5294);stroke-opacity:1;" stroke-linecap="round"/>
<path d="M161 106V114" stroke="#808387" style="stroke:#808387;stroke:color(display-p3 0.5020 0.5137 0.5294);stroke-opacity:1;" stroke-linecap="round"/>
<rect width="72" height="10" transform="translate(100 95)" fill="white" style="fill:white;fill-opacity:1;"/>
<rect x="100" y="95" width="72" height="10" rx="1" stroke="#808387" style="stroke:#808387;stroke:color(display-p3 0.5020 0.5137 0.5294);stroke-opacity:1;" stroke-width="2"/>
<path d="M104.5 96V104" stroke="#808387" style="stroke:#808387;stroke:color(display-p3 0.5020 0.5137 0.5294);stroke-opacity:1;" stroke-linecap="round"/>
<path d="M167.5 96V104" stroke="#808387" style="stroke:#808387;stroke:color(display-p3 0.5020 0.5137 0.5294);stroke-opacity:1;" stroke-linecap="round"/>
<path d="M109 96V104" stroke="#808387" style="stroke:#808387;stroke:color(display-p3 0.5020 0.5137 0.5294);stroke-opacity:1;" stroke-linecap="round"/>
<path d="M163 96V104" stroke="#808387" style="stroke:#808387;stroke:color(display-p3 0.5020 0.5137 0.5294);stroke-opacity:1;" stroke-linecap="round"/>
<path d="M119 96V104" stroke="#808387" style="stroke:#808387;stroke:color(display-p3 0.5020 0.5137 0.5294);stroke-opacity:1;" stroke-linecap="round"/>
<path d="M153 96V104" stroke="#808387" style="stroke:#808387;stroke:color(display-p3 0.5020 0.5137 0.5294);stroke-opacity:1;" stroke-linecap="round"/>
<rect width="72" height="10" transform="translate(100 85)" fill="white" style="fill:white;fill-opacity:1;"/>
<rect x="100" y="85" width="72" height="10" rx="1" stroke="#808387" style="stroke:#808387;stroke:color(display-p3 0.5020 0.5137 0.5294);stroke-opacity:1;" stroke-width="2"/>
<path d="M104.5 86V94" stroke="#808387" style="stroke:#808387;stroke:color(display-p3 0.5020 0.5137 0.5294);stroke-opacity:1;" stroke-linecap="round"/>
<path d="M167.5 86V94" stroke="#808387" style="stroke:#808387;stroke:color(display-p3 0.5020 0.5137 0.5294);stroke-opacity:1;" stroke-linecap="round"/>
<path d="M109 86V94" stroke="#808387" style="stroke:#808387;stroke:color(display-p3 0.5020 0.5137 0.5294);stroke-opacity:1;" stroke-linecap="round"/>
<path d="M163 86V94" stroke="#808387" style="stroke:#808387;stroke:color(display-p3 0.5020 0.5137 0.5294);stroke-opacity:1;" stroke-linecap="round"/>
<path d="M119 86V94" stroke="#808387" style="stroke:#808387;stroke:color(display-p3 0.5020 0.5137 0.5294);stroke-opacity:1;" stroke-linecap="round"/>
<path d="M153 86V94" stroke="#808387" style="stroke:#808387;stroke:color(display-p3 0.5020 0.5137 0.5294);stroke-opacity:1;" stroke-linecap="round"/>
<rect width="72" height="10" transform="translate(100 75)" fill="white" style="fill:white;fill-opacity:1;"/>
<rect x="100" y="75" width="72" height="10" rx="1" stroke="#808387" style="stroke:#808387;stroke:color(display-p3 0.5020 0.5137 0.5294);stroke-opacity:1;" stroke-width="2"/>
<path d="M104.5 76V84" stroke="#808387" style="stroke:#808387;stroke:color(display-p3 0.5020 0.5137 0.5294);stroke-opacity:1;" stroke-linecap="round"/>
<path d="M167.5 76V84" stroke="#808387" style="stroke:#808387;stroke:color(display-p3 0.5020 0.5137 0.5294);stroke-opacity:1;" stroke-linecap="round"/>
<path d="M109 76V84" stroke="#808387" style="stroke:#808387;stroke:color(display-p3 0.5020 0.5137 0.5294);stroke-opacity:1;" stroke-linecap="round"/>
<path d="M163 76V84" stroke="#808387" style="stroke:#808387;stroke:color(display-p3 0.5020 0.5137 0.5294);stroke-opacity:1;" stroke-linecap="round"/>
<path d="M119 76V84" stroke="#808387" style="stroke:#808387;stroke:color(display-p3 0.5020 0.5137 0.5294);stroke-opacity:1;" stroke-linecap="round"/>
<path d="M153 76V84" stroke="#808387" style="stroke:#808387;stroke:color(display-p3 0.5020 0.5137 0.5294);stroke-opacity:1;" stroke-linecap="round"/>
<path d="M202 99.5C201.724 99.5 201.5 99.7239 201.5 100C201.5 100.276 201.724 100.5 202 100.5V99.5ZM376.354 170.354C376.549 170.158 376.549 169.842 376.354 169.646L373.172 166.464C372.976 166.269 372.66 166.269 372.464 166.464C372.269 166.66 372.269 166.976 372.464 167.172L375.293 170L372.464 172.828C372.269 173.024 372.269 173.34 372.464 173.536C372.66 173.731 372.976 173.731 373.172 173.536L376.354 170.354ZM240.843 102.343L241.197 101.99L240.843 102.343ZM202 100V100.5H235.186V100V99.5H202V100ZM240.843 102.343L240.49 102.697L305.803 168.01L306.157 167.657L306.51 167.303L241.197 101.99L240.843 102.343ZM311.814 170V170.5H376V170V169.5H311.814V170ZM306.157 167.657L305.803 168.01C307.397 169.604 309.559 170.5 311.814 170.5V170V169.5C309.825 169.5 307.917 168.71 306.51 167.303L306.157 167.657ZM235.186 100V100.5C237.175 100.5 239.083 101.29 240.49 102.697L240.843 102.343L241.197 101.99C239.603 100.396 237.441 99.5 235.186 99.5V100Z" fill="#5BA9EE" style="fill:#5BA9EE;fill:color(display-p3 0.3569 0.6646 0.9339);fill-opacity:1;"/>
<path d="M202 119.5C201.724 119.5 201.5 119.724 201.5 120C201.5 120.276 201.724 120.5 202 120.5V119.5ZM356.354 20.3536C356.549 20.1583 356.549 19.8417 356.354 19.6464L353.172 16.4645C352.976 16.2692 352.66 16.2692 352.464 16.4645C352.269 16.6597 352.269 16.9763 352.464 17.1716L355.293 20L352.464 22.8284C352.269 23.0237 352.269 23.3403 352.464 23.5355C352.66 23.7308 352.976 23.7308 353.172 23.5355L356.354 20.3536ZM314.657 22.3431L315.01 22.6967L314.657 22.3431ZM219.343 117.657L219.697 118.01L219.343 117.657ZM202 120V120.5H213.686V120V119.5H202V120ZM219.343 117.657L219.697 118.01L315.01 22.6967L314.657 22.3431L314.303 21.9896L218.99 117.303L219.343 117.657ZM320.314 20V20.5H356V20V19.5H320.314V20ZM314.657 22.3431L315.01 22.6967C316.417 21.2902 318.325 20.5 320.314 20.5V20V19.5C318.059 19.5 315.897 20.3955 314.303 21.9896L314.657 22.3431ZM213.686 120V120.5C215.941 120.5 218.103 119.604 219.697 118.01L219.343 117.657L218.99 117.303C217.583 118.71 215.675 119.5 213.686 119.5V120Z" fill="#5BA9EE" style="fill:#5BA9EE;fill:color(display-p3 0.3569 0.6646 0.9339);fill-opacity:1;"/>
<path d="M202 139.5C201.724 139.5 201.5 139.724 201.5 140C201.5 140.276 201.724 140.5 202 140.5V139.5ZM406.354 120.724C406.549 120.528 406.549 120.212 406.354 120.017L403.172 116.835C402.976 116.639 402.66 116.639 402.464 116.835C402.269 117.03 402.269 117.346 402.464 117.542L405.293 120.37L402.464 123.199C402.269 123.394 402.269 123.71 402.464 123.906C402.66 124.101 402.976 124.101 403.172 123.906L406.354 120.724ZM295.144 121.442L294.894 121.009L295.144 121.442ZM264.856 138.928L264.606 138.495L264.856 138.928ZM202 140V140.5H260.856V140V139.5H202V140ZM264.856 138.928L265.106 139.361L295.394 121.875L295.144 121.442L294.894 121.009L264.606 138.495L264.856 138.928ZM299.144 120.37V120.87H406V120.37V119.87H299.144V120.37ZM295.144 121.442L295.394 121.875C296.534 121.217 297.827 120.87 299.144 120.87V120.37V119.87C297.652 119.87 296.186 120.263 294.894 121.009L295.144 121.442ZM260.856 140V140.5C262.348 140.5 263.814 140.107 265.106 139.361L264.856 138.928L264.606 138.495C263.466 139.153 262.173 139.5 260.856 139.5V140Z" fill="#5BA9EE" style="fill:#5BA9EE;fill:color(display-p3 0.3569 0.6646 0.9339);fill-opacity:1;"/>
<path d="M202 129.5C201.724 129.5 201.5 129.724 201.5 130C201.5 130.276 201.724 130.5 202 130.5V129.5ZM356.354 220.354C356.549 220.158 356.549 219.842 356.354 219.646L353.172 216.464C352.976 216.269 352.66 216.269 352.464 216.464C352.269 216.66 352.269 216.976 352.464 217.172L355.293 220L352.464 222.828C352.269 223.024 352.269 223.34 352.464 223.536C352.66 223.731 352.976 223.731 353.172 223.536L356.354 220.354ZM230.343 132.343L229.99 132.697L230.343 132.343ZM202.945 130.5C203.221 130.5 203.445 130.276 203.445 130C203.445 129.724 203.221 129.5 202.945 129.5V130.5ZM206.726 129.5C206.45 129.5 206.226 129.724 206.226 130C206.226 130.276 206.45 130.5 206.726 130.5V129.5ZM208.617 130.5C208.893 130.5 209.117 130.276 209.117 130C209.117 129.724 208.893 129.5 208.617 129.5V130.5ZM212.398 129.5C212.122 129.5 211.898 129.724 211.898 130C211.898 130.276 212.122 130.5 212.398 130.5V129.5ZM214.288 130.5C214.565 130.5 214.788 130.276 214.788 130C214.788 129.724 214.565 129.5 214.288 129.5V130.5ZM218.069 129.5C217.793 129.5 217.569 129.724 217.569 130C217.569 130.276 217.793 130.5 218.069 130.5V129.5ZM219.96 130.5C220.236 130.5 220.46 130.276 220.46 130C220.46 129.724 220.236 129.5 219.96 129.5V130.5ZM223.741 129.5C223.465 129.5 223.241 129.724 223.241 130C223.241 130.276 223.465 130.5 223.741 130.5V129.5ZM225.665 130.564C225.939 130.6 226.19 130.407 226.226 130.134C226.262 129.86 226.07 129.609 225.796 129.573L225.665 130.564ZM229.861 131.256C229.642 131.088 229.328 131.13 229.16 131.349C228.992 131.568 229.033 131.882 229.252 132.05L229.861 131.256ZM230.701 133.408C230.896 133.603 231.212 133.603 231.408 133.408C231.603 133.212 231.603 132.896 231.408 132.701L230.701 133.408ZM234.251 135.544C234.056 135.349 233.74 135.349 233.544 135.544C233.349 135.74 233.349 136.056 233.544 136.251L234.251 135.544ZM234.966 137.673C235.161 137.869 235.478 137.869 235.673 137.673C235.869 137.478 235.869 137.161 235.673 136.966L234.966 137.673ZM238.517 139.81C238.322 139.615 238.005 139.615 237.81 139.81C237.615 140.005 237.615 140.322 237.81 140.517L238.517 139.81ZM239.232 141.939C239.427 142.134 239.744 142.134 239.939 141.939C240.134 141.744 240.134 141.427 239.939 141.232L239.232 141.939ZM242.783 144.076C242.588 143.88 242.271 143.88 242.076 144.076C241.88 144.271 241.88 144.588 242.076 144.783L242.783 144.076ZM243.498 146.205C243.693 146.4 244.009 146.4 244.205 146.205C244.4 146.009 244.4 145.693 244.205 145.498L243.498 146.205ZM247.048 148.341C246.853 148.146 246.537 148.146 246.341 148.341C246.146 148.537 246.146 148.853 246.341 149.048L247.048 148.341ZM247.763 150.47C247.959 150.666 248.275 150.666 248.47 150.47C248.666 150.275 248.666 149.959 248.47 149.763L247.763 150.47ZM251.314 152.607C251.119 152.412 250.802 152.412 250.607 152.607C250.412 152.802 250.412 153.119 250.607 153.314L251.314 152.607ZM252.029 154.736C252.224 154.931 252.541 154.931 252.736 154.736C252.931 154.541 252.931 154.224 252.736 154.029L252.029 154.736ZM255.58 156.873C255.385 156.677 255.068 156.677 254.873 156.873C254.677 157.068 254.677 157.385 254.873 157.58L255.58 156.873ZM256.295 159.002C256.49 159.197 256.807 159.197 257.002 159.002C257.197 158.807 257.197 158.49 257.002 158.295L256.295 159.002ZM259.846 161.138C259.65 160.943 259.334 160.943 259.138 161.138C258.943 161.334 258.943 161.65 259.138 161.846L259.846 161.138ZM260.56 163.267C260.756 163.463 261.072 163.463 261.267 163.267C261.463 163.072 261.463 162.756 261.267 162.56L260.56 163.267ZM264.111 165.404C263.916 165.209 263.599 165.209 263.404 165.404C263.209 165.599 263.209 165.916 263.404 166.111L264.111 165.404ZM264.826 167.533C265.021 167.728 265.338 167.728 265.533 167.533C265.728 167.338 265.728 167.021 265.533 166.826L264.826 167.533ZM268.377 169.67C268.182 169.475 267.865 169.475 267.67 169.67C267.475 169.865 267.475 170.182 267.67 170.377L268.377 169.67ZM269.092 171.799C269.287 171.994 269.604 171.994 269.799 171.799C269.994 171.604 269.994 171.287 269.799 171.092L269.092 171.799ZM272.643 173.936C272.447 173.74 272.131 173.74 271.936 173.936C271.74 174.131 271.74 174.447 271.936 174.643L272.643 173.936ZM273.357 176.065C273.553 176.26 273.869 176.26 274.065 176.065C274.26 175.869 274.26 175.553 274.065 175.357L273.357 176.065ZM276.908 178.201C276.713 178.006 276.396 178.006 276.201 178.201C276.006 178.396 276.006 178.713 276.201 178.908L276.908 178.201ZM277.623 180.33C277.818 180.525 278.135 180.525 278.33 180.33C278.525 180.135 278.525 179.818 278.33 179.623L277.623 180.33ZM281.174 182.467C280.979 182.272 280.662 182.272 280.467 182.467C280.272 182.662 280.272 182.979 280.467 183.174L281.174 182.467ZM281.889 184.596C282.084 184.791 282.401 184.791 282.596 184.596C282.791 184.401 282.791 184.084 282.596 183.889L281.889 184.596ZM285.44 186.733C285.244 186.537 284.928 186.537 284.733 186.733C284.537 186.928 284.537 187.244 284.733 187.44L285.44 186.733ZM286.154 188.862C286.35 189.057 286.666 189.057 286.862 188.862C287.057 188.666 287.057 188.35 286.862 188.154L286.154 188.862ZM289.705 190.998C289.51 190.803 289.194 190.803 288.998 190.998C288.803 191.194 288.803 191.51 288.998 191.705L289.705 190.998ZM290.42 193.127C290.615 193.323 290.932 193.323 291.127 193.127C291.323 192.932 291.323 192.615 291.127 192.42L290.42 193.127ZM293.971 195.264C293.776 195.069 293.459 195.069 293.264 195.264C293.069 195.459 293.069 195.776 293.264 195.971L293.971 195.264ZM294.686 197.393C294.881 197.588 295.198 197.588 295.393 197.393C295.588 197.198 295.588 196.881 295.393 196.686L294.686 197.393ZM298.237 199.53C298.041 199.334 297.725 199.334 297.53 199.53C297.334 199.725 297.334 200.041 297.53 200.237L298.237 199.53ZM298.952 201.659C299.147 201.854 299.463 201.854 299.659 201.659C299.854 201.463 299.854 201.147 299.659 200.952L298.952 201.659ZM302.502 203.795C302.307 203.6 301.991 203.6 301.795 203.795C301.6 203.991 301.6 204.307 301.795 204.502L302.502 203.795ZM303.217 205.924C303.412 206.12 303.729 206.12 303.924 205.924C304.12 205.729 304.12 205.412 303.924 205.217L303.217 205.924ZM306.768 208.061C306.573 207.866 306.256 207.866 306.061 208.061C305.866 208.256 305.866 208.573 306.061 208.768L306.768 208.061ZM307.483 210.19C307.678 210.385 307.995 210.385 308.19 210.19C308.385 209.995 308.385 209.678 308.19 209.483L307.483 210.19ZM311.034 212.327C310.839 212.131 310.522 212.131 310.327 212.327C310.131 212.522 310.131 212.839 310.327 213.034L311.034 212.327ZM311.749 214.456C311.944 214.651 312.26 214.651 312.456 214.456C312.651 214.26 312.651 213.944 312.456 213.749L311.749 214.456ZM315.299 216.592C315.104 216.397 314.788 216.397 314.592 216.592C314.397 216.788 314.397 217.104 314.592 217.299L315.299 216.592ZM316.139 218.744C316.358 218.912 316.672 218.87 316.84 218.651C317.008 218.432 316.967 218.118 316.748 217.95L316.139 218.744ZM320.335 219.436C320.061 219.4 319.81 219.593 319.774 219.866C319.738 220.14 319.93 220.391 320.204 220.427L320.335 219.436ZM322.277 220.5C322.553 220.5 322.777 220.276 322.777 220C322.777 219.724 322.553 219.5 322.277 219.5V220.5ZM326.131 219.5C325.855 219.5 325.631 219.724 325.631 220C325.631 220.276 325.855 220.5 326.131 220.5V219.5ZM328.058 220.5C328.334 220.5 328.558 220.276 328.558 220C328.558 219.724 328.334 219.5 328.058 219.5V220.5ZM331.912 219.5C331.636 219.5 331.412 219.724 331.412 220C331.412 220.276 331.636 220.5 331.912 220.5V219.5ZM333.839 220.5C334.115 220.5 334.339 220.276 334.339 220C334.339 219.724 334.115 219.5 333.839 219.5V220.5ZM337.693 219.5C337.417 219.5 337.193 219.724 337.193 220C337.193 220.276 337.417 220.5 337.693 220.5V219.5ZM339.62 220.5C339.896 220.5 340.12 220.276 340.12 220C340.12 219.724 339.896 219.5 339.62 219.5V220.5ZM343.474 219.5C343.198 219.5 342.974 219.724 342.974 220C342.974 220.276 343.198 220.5 343.474 220.5V219.5ZM345.401 220.5C345.678 220.5 345.901 220.276 345.901 220C345.901 219.724 345.678 219.5 345.401 219.5V220.5ZM349.255 219.5C348.979 219.5 348.755 219.724 348.755 220C348.755 220.276 348.979 220.5 349.255 220.5V219.5ZM351.182 220.5C351.459 220.5 351.682 220.276 351.682 220C351.682 219.724 351.459 219.5 351.182 219.5V220.5ZM355.036 219.5C354.76 219.5 354.536 219.724 354.536 220C354.536 220.276 354.76 220.5 355.036 220.5V219.5ZM202 130V130.5H202.945V130V129.5H202V130ZM206.726 130V130.5H208.617V130V129.5H206.726V130ZM212.398 130V130.5H214.288V130V129.5H212.398V130ZM218.069 130V130.5H219.96V130V129.5H218.069V130ZM223.741 130V130.5H224.686V130V129.5H223.741V130ZM224.686 130V130.5C225.016 130.5 225.342 130.522 225.665 130.564L225.731 130.068L225.796 129.573C225.43 129.525 225.059 129.5 224.686 129.5V130ZM229.556 131.653L229.252 132.05C229.51 132.248 229.757 132.464 229.99 132.697L230.343 132.343L230.697 131.99C230.433 131.726 230.154 131.481 229.861 131.256L229.556 131.653ZM230.343 132.343L229.99 132.697L230.701 133.408L231.054 133.054L231.408 132.701L230.697 131.99L230.343 132.343ZM233.898 135.898L233.544 136.251L234.966 137.673L235.32 137.32L235.673 136.966L234.251 135.544L233.898 135.898ZM238.164 140.164L237.81 140.517L239.232 141.939L239.585 141.585L239.939 141.232L238.517 139.81L238.164 140.164ZM242.429 144.429L242.076 144.783L243.498 146.205L243.851 145.851L244.205 145.498L242.783 144.076L242.429 144.429ZM246.695 148.695L246.341 149.048L247.763 150.47L248.117 150.117L248.47 149.763L247.048 148.341L246.695 148.695ZM250.961 152.961L250.607 153.314L252.029 154.736L252.383 154.383L252.736 154.029L251.314 152.607L250.961 152.961ZM255.226 157.226L254.873 157.58L256.295 159.002L256.648 158.648L257.002 158.295L255.58 156.873L255.226 157.226ZM259.492 161.492L259.138 161.846L260.56 163.267L260.914 162.914L261.267 162.56L259.846 161.138L259.492 161.492ZM263.758 165.758L263.404 166.111L264.826 167.533L265.18 167.18L265.533 166.826L264.111 165.404L263.758 165.758ZM268.023 170.023L267.67 170.377L269.092 171.799L269.445 171.445L269.799 171.092L268.377 169.67L268.023 170.023ZM272.289 174.289L271.936 174.643L273.357 176.065L273.711 175.711L274.065 175.357L272.643 173.936L272.289 174.289ZM276.555 178.555L276.201 178.908L277.623 180.33L277.977 179.977L278.33 179.623L276.908 178.201L276.555 178.555ZM280.82 182.82L280.467 183.174L281.889 184.596L282.242 184.242L282.596 183.889L281.174 182.467L280.82 182.82ZM285.086 187.086L284.733 187.44L286.154 188.862L286.508 188.508L286.862 188.154L285.44 186.733L285.086 187.086ZM289.352 191.352L288.998 191.705L290.42 193.127L290.774 192.774L291.127 192.42L289.705 190.998L289.352 191.352ZM293.617 195.617L293.264 195.971L294.686 197.393L295.039 197.039L295.393 196.686L293.971 195.264L293.617 195.617ZM297.883 199.883L297.53 200.237L298.952 201.659L299.305 201.305L299.659 200.952L298.237 199.53L297.883 199.883ZM302.149 204.149L301.795 204.502L303.217 205.924L303.571 205.571L303.924 205.217L302.502 203.795L302.149 204.149ZM306.415 208.415L306.061 208.768L307.483 210.19L307.836 209.836L308.19 209.483L306.768 208.061L306.415 208.415ZM310.68 212.68L310.327 213.034L311.749 214.456L312.102 214.102L312.456 213.749L311.034 212.327L310.68 212.68ZM314.946 216.946L314.592 217.299L315.303 218.01L315.657 217.657L316.01 217.303L315.299 216.592L314.946 216.946ZM315.657 217.657L315.303 218.01C315.567 218.274 315.846 218.519 316.139 218.744L316.444 218.347L316.748 217.95C316.49 217.752 316.243 217.536 316.01 217.303L315.657 217.657ZM320.269 219.932L320.204 220.427C320.57 220.475 320.941 220.5 321.314 220.5V220V219.5C320.984 219.5 320.658 219.478 320.335 219.436L320.269 219.932ZM321.314 220V220.5H322.277V220V219.5H321.314V220ZM326.131 220V220.5H328.058V220V219.5H326.131V220ZM331.912 220V220.5H333.839V220V219.5H331.912V220ZM337.693 220V220.5H339.62V220V219.5H337.693V220ZM343.474 220V220.5H345.401V220V219.5H343.474V220ZM349.255 220V220.5H351.182V220V219.5H349.255V220ZM355.036 220V220.5H356V220V219.5H355.036V220Z" fill="#5BA9EE" style="fill:#5BA9EE;fill:color(display-p3 0.3569 0.6646 0.9339);fill-opacity:1;"/>
<path d="M202 109.5C201.724 109.5 201.5 109.724 201.5 110C201.5 110.276 201.724 110.5 202 110.5V109.5ZM376.354 70.3536C376.549 70.1583 376.549 69.8417 376.354 69.6464L373.172 66.4645C372.976 66.2692 372.66 66.2692 372.464 66.4645C372.269 66.6597 372.269 66.9763 372.464 67.1716L375.293 70L372.464 72.8284C372.269 73.0237 372.269 73.3403 372.464 73.5355C372.66 73.7308 372.976 73.7308 373.172 73.5355L376.354 70.3536ZM316.657 72.3431L316.303 71.9896L316.657 72.3431ZM281.343 107.657L280.99 107.303L281.343 107.657ZM202.05 110.5C202.326 110.5 202.55 110.276 202.55 110C202.55 109.724 202.326 109.5 202.05 109.5V110.5ZM204.055 109.5C203.779 109.5 203.555 109.724 203.555 110C203.555 110.276 203.779 110.5 204.055 110.5V109.5ZM204.155 110.5C204.432 110.5 204.655 110.276 204.655 110C204.655 109.724 204.432 109.5 204.155 109.5V110.5ZM206.161 109.5C205.884 109.5 205.661 109.724 205.661 110C205.661 110.276 205.884 110.5 206.161 110.5V109.5ZM206.261 110.5C206.537 110.5 206.761 110.276 206.761 110C206.761 109.724 206.537 109.5 206.261 109.5V110.5ZM208.266 109.5C207.99 109.5 207.766 109.724 207.766 110C207.766 110.276 207.99 110.5 208.266 110.5V109.5ZM208.366 110.5C208.642 110.5 208.866 110.276 208.866 110C208.866 109.724 208.642 109.5 208.366 109.5V110.5ZM210.371 109.5C210.095 109.5 209.871 109.724 209.871 110C209.871 110.276 210.095 110.5 210.371 110.5V109.5ZM210.471 110.5C210.748 110.5 210.971 110.276 210.971 110C210.971 109.724 210.748 109.5 210.471 109.5V110.5ZM212.476 109.5C212.2 109.5 211.976 109.724 211.976 110C211.976 110.276 212.2 110.5 212.476 110.5V109.5ZM212.577 110.5C212.853 110.5 213.077 110.276 213.077 110C213.077 109.724 212.853 109.5 212.577 109.5V110.5ZM214.582 109.5C214.306 109.5 214.082 109.724 214.082 110C214.082 110.276 214.306 110.5 214.582 110.5V109.5ZM214.682 110.5C214.958 110.5 215.182 110.276 215.182 110C215.182 109.724 214.958 109.5 214.682 109.5V110.5ZM216.687 109.5C216.411 109.5 216.187 109.724 216.187 110C216.187 110.276 216.411 110.5 216.687 110.5V109.5ZM216.787 110.5C217.064 110.5 217.287 110.276 217.287 110C217.287 109.724 217.064 109.5 216.787 109.5V110.5ZM218.792 109.5C218.516 109.5 218.292 109.724 218.292 110C218.292 110.276 218.516 110.5 218.792 110.5V109.5ZM218.893 110.5C219.169 110.5 219.393 110.276 219.393 110C219.393 109.724 219.169 109.5 218.893 109.5V110.5ZM220.898 109.5C220.622 109.5 220.398 109.724 220.398 110C220.398 110.276 220.622 110.5 220.898 110.5V109.5ZM220.998 110.5C221.274 110.5 221.498 110.276 221.498 110C221.498 109.724 221.274 109.5 220.998 109.5V110.5ZM223.003 109.5C222.727 109.5 222.503 109.724 222.503 110C222.503 110.276 222.727 110.5 223.003 110.5V109.5ZM223.103 110.5C223.379 110.5 223.603 110.276 223.603 110C223.603 109.724 223.379 109.5 223.103 109.5V110.5ZM225.108 109.5C224.832 109.5 224.608 109.724 224.608 110C224.608 110.276 224.832 110.5 225.108 110.5V109.5ZM225.209 110.5C225.485 110.5 225.709 110.276 225.709 110C225.709 109.724 225.485 109.5 225.209 109.5V110.5ZM227.214 109.5C226.938 109.5 226.714 109.724 226.714 110C226.714 110.276 226.938 110.5 227.214 110.5V109.5ZM227.314 110.5C227.59 110.5 227.814 110.276 227.814 110C227.814 109.724 227.59 109.5 227.314 109.5V110.5ZM229.319 109.5C229.043 109.5 228.819 109.724 228.819 110C228.819 110.276 229.043 110.5 229.319 110.5V109.5ZM229.419 110.5C229.695 110.5 229.919 110.276 229.919 110C229.919 109.724 229.695 109.5 229.419 109.5V110.5ZM231.424 109.5C231.148 109.5 230.924 109.724 230.924 110C230.924 110.276 231.148 110.5 231.424 110.5V109.5ZM231.525 110.5C231.801 110.5 232.025 110.276 232.025 110C232.025 109.724 231.801 109.5 231.525 109.5V110.5ZM233.53 109.5C233.254 109.5 233.03 109.724 233.03 110C233.03 110.276 233.254 110.5 233.53 110.5V109.5ZM233.63 110.5C233.906 110.5 234.13 110.276 234.13 110C234.13 109.724 233.906 109.5 233.63 109.5V110.5ZM235.635 109.5C235.359 109.5 235.135 109.724 235.135 110C235.135 110.276 235.359 110.5 235.635 110.5V109.5ZM235.735 110.5C236.011 110.5 236.235 110.276 236.235 110C236.235 109.724 236.011 109.5 235.735 109.5V110.5ZM237.74 109.5C237.464 109.5 237.24 109.724 237.24 110C237.24 110.276 237.464 110.5 237.74 110.5V109.5ZM237.841 110.5C238.117 110.5 238.341 110.276 238.341 110C238.341 109.724 238.117 109.5 237.841 109.5V110.5ZM239.846 109.5C239.57 109.5 239.346 109.724 239.346 110C239.346 110.276 239.57 110.5 239.846 110.5V109.5ZM239.946 110.5C240.222 110.5 240.446 110.276 240.446 110C240.446 109.724 240.222 109.5 239.946 109.5V110.5ZM241.951 109.5C241.675 109.5 241.451 109.724 241.451 110C241.451 110.276 241.675 110.5 241.951 110.5V109.5ZM242.051 110.5C242.327 110.5 242.551 110.276 242.551 110C242.551 109.724 242.327 109.5 242.051 109.5V110.5ZM244.056 109.5C243.78 109.5 243.556 109.724 243.556 110C243.556 110.276 243.78 110.5 244.056 110.5V109.5ZM244.157 110.5C244.433 110.5 244.657 110.276 244.657 110C244.657 109.724 244.433 109.5 244.157 109.5V110.5ZM246.162 109.5C245.886 109.5 245.662 109.724 245.662 110C245.662 110.276 245.886 110.5 246.162 110.5V109.5ZM246.262 110.5C246.538 110.5 246.762 110.276 246.762 110C246.762 109.724 246.538 109.5 246.262 109.5V110.5ZM248.267 109.5C247.991 109.5 247.767 109.724 247.767 110C247.767 110.276 247.991 110.5 248.267 110.5V109.5ZM248.367 110.5C248.643 110.5 248.867 110.276 248.867 110C248.867 109.724 248.643 109.5 248.367 109.5V110.5ZM250.372 109.5C250.096 109.5 249.872 109.724 249.872 110C249.872 110.276 250.096 110.5 250.372 110.5V109.5ZM250.473 110.5C250.749 110.5 250.973 110.276 250.973 110C250.973 109.724 250.749 109.5 250.473 109.5V110.5ZM252.478 109.5C252.201 109.5 251.978 109.724 251.978 110C251.978 110.276 252.201 110.5 252.478 110.5V109.5ZM252.578 110.5C252.854 110.5 253.078 110.276 253.078 110C253.078 109.724 252.854 109.5 252.578 109.5V110.5ZM254.583 109.5C254.307 109.5 254.083 109.724 254.083 110C254.083 110.276 254.307 110.5 254.583 110.5V109.5ZM254.683 110.5C254.959 110.5 255.183 110.276 255.183 110C255.183 109.724 254.959 109.5 254.683 109.5V110.5ZM256.688 109.5C256.412 109.5 256.188 109.724 256.188 110C256.188 110.276 256.412 110.5 256.688 110.5V109.5ZM256.789 110.5C257.065 110.5 257.289 110.276 257.289 110C257.289 109.724 257.065 109.5 256.789 109.5V110.5ZM258.794 109.5C258.517 109.5 258.294 109.724 258.294 110C258.294 110.276 258.517 110.5 258.794 110.5V109.5ZM258.894 110.5C259.17 110.5 259.394 110.276 259.394 110C259.394 109.724 259.17 109.5 258.894 109.5V110.5ZM260.899 109.5C260.623 109.5 260.399 109.724 260.399 110C260.399 110.276 260.623 110.5 260.899 110.5V109.5ZM260.999 110.5C261.275 110.5 261.499 110.276 261.499 110C261.499 109.724 261.275 109.5 260.999 109.5V110.5ZM263.004 109.5C262.728 109.5 262.504 109.724 262.504 110C262.504 110.276 262.728 110.5 263.004 110.5V109.5ZM263.105 110.5C263.381 110.5 263.605 110.276 263.605 110C263.605 109.724 263.381 109.5 263.105 109.5V110.5ZM265.11 109.5C264.833 109.5 264.61 109.724 264.61 110C264.61 110.276 264.833 110.5 265.11 110.5V109.5ZM265.21 110.5C265.486 110.5 265.71 110.276 265.71 110C265.71 109.724 265.486 109.5 265.21 109.5V110.5ZM267.215 109.5C266.939 109.5 266.715 109.724 266.715 110C266.715 110.276 266.939 110.5 267.215 110.5V109.5ZM267.315 110.5C267.591 110.5 267.815 110.276 267.815 110C267.815 109.724 267.591 109.5 267.315 109.5V110.5ZM269.32 109.5C269.044 109.5 268.82 109.724 268.82 110C268.82 110.276 269.044 110.5 269.32 110.5V109.5ZM269.42 110.5C269.697 110.5 269.92 110.276 269.92 110C269.92 109.724 269.697 109.5 269.42 109.5V110.5ZM271.426 109.5C271.149 109.5 270.926 109.724 270.926 110C270.926 110.276 271.149 110.5 271.426 110.5V109.5ZM271.526 110.5C271.802 110.5 272.026 110.276 272.026 110C272.026 109.724 271.802 109.5 271.526 109.5V110.5ZM273.531 109.5C273.255 109.5 273.031 109.724 273.031 110C273.031 110.276 273.255 110.5 273.531 110.5V109.5ZM273.631 110.5C273.907 110.5 274.131 110.276 274.131 110C274.131 109.724 273.907 109.5 273.631 109.5V110.5ZM275.636 109.5C275.36 109.5 275.136 109.724 275.136 110C275.136 110.276 275.36 110.5 275.636 110.5V109.5ZM275.739 110.5C276.015 110.498 276.238 110.273 276.236 109.997C276.234 109.721 276.009 109.498 275.733 109.5L275.739 110.5ZM277.582 109.256C277.315 109.326 277.155 109.599 277.225 109.867C277.295 110.134 277.568 110.294 277.835 110.224L277.582 109.256ZM277.937 110.197C278.204 110.123 278.36 109.848 278.287 109.582C278.214 109.316 277.939 109.159 277.673 109.232L277.937 110.197ZM279.396 108.518C279.156 108.655 279.072 108.96 279.208 109.2C279.345 109.44 279.65 109.524 279.89 109.388L279.396 108.518ZM279.982 109.335C280.22 109.195 280.3 108.889 280.161 108.65C280.021 108.412 279.715 108.332 279.477 108.472L279.982 109.335ZM280.956 107.336C280.76 107.53 280.758 107.847 280.952 108.043C281.146 108.24 281.463 108.242 281.659 108.048L280.956 107.336ZM281.732 107.975C281.927 107.78 281.927 107.464 281.732 107.268C281.536 107.073 281.22 107.073 281.025 107.268L281.732 107.975ZM282.426 105.867C282.231 106.062 282.231 106.379 282.426 106.574C282.621 106.769 282.938 106.769 283.133 106.574L282.426 105.867ZM283.203 106.504C283.398 106.309 283.398 105.992 283.203 105.797C283.008 105.602 282.691 105.602 282.496 105.797L283.203 106.504ZM283.897 104.396C283.702 104.591 283.702 104.907 283.897 105.103C284.093 105.298 284.409 105.298 284.604 105.103L283.897 104.396ZM284.675 105.033C284.87 104.837 284.87 104.521 284.675 104.325C284.479 104.13 284.163 104.13 283.967 104.325L284.675 105.033ZM285.369 102.924C285.174 103.119 285.174 103.436 285.369 103.631C285.564 103.826 285.881 103.826 286.076 103.631L285.369 102.924ZM286.146 103.561C286.341 103.366 286.341 103.049 286.146 102.854C285.951 102.659 285.634 102.659 285.439 102.854L286.146 103.561ZM286.84 101.453C286.645 101.648 286.645 101.965 286.84 102.16C287.035 102.355 287.352 102.355 287.547 102.16L286.84 101.453ZM287.617 102.09C287.813 101.894 287.813 101.578 287.617 101.383C287.422 101.187 287.106 101.187 286.91 101.383L287.617 102.09ZM288.312 99.9813C288.116 100.177 288.116 100.493 288.312 100.688C288.507 100.884 288.823 100.884 289.019 100.688L288.312 99.9813ZM289.089 100.618C289.284 100.423 289.284 100.107 289.089 99.9112C288.893 99.716 288.577 99.716 288.382 99.9112L289.089 100.618ZM289.783 98.5099C289.588 98.7052 289.588 99.0218 289.783 99.217C289.978 99.4123 290.295 99.4123 290.49 99.217L289.783 98.5099ZM290.56 99.1469C290.755 98.9517 290.755 98.6351 290.56 98.4398C290.365 98.2446 290.048 98.2446 289.853 98.4398L290.56 99.1469ZM291.254 97.0385C291.059 97.2338 291.059 97.5503 291.254 97.7456C291.45 97.9409 291.766 97.9409 291.961 97.7456L291.254 97.0385ZM292.032 97.6755C292.227 97.4803 292.227 97.1637 292.032 96.9684C291.836 96.7732 291.52 96.7732 291.324 96.9684L292.032 97.6755ZM292.726 95.5671C292.531 95.7624 292.531 96.0789 292.726 96.2742C292.921 96.4695 293.238 96.4695 293.433 96.2742L292.726 95.5671ZM293.503 96.2041C293.698 96.0089 293.698 95.6923 293.503 95.497C293.308 95.3018 292.991 95.3018 292.796 95.497L293.503 96.2041ZM294.197 94.0957C294.002 94.291 294.002 94.6075 294.197 94.8028C294.392 94.9981 294.709 94.9981 294.904 94.8028L294.197 94.0957ZM294.974 94.7327C295.17 94.5375 295.17 94.2209 294.974 94.0256C294.779 93.8304 294.463 93.8304 294.267 94.0256L294.974 94.7327ZM295.669 92.6243C295.473 92.8196 295.473 93.1361 295.669 93.3314C295.864 93.5267 296.18 93.5267 296.376 93.3314L295.669 92.6243ZM296.446 93.2613C296.641 93.0661 296.641 92.7495 296.446 92.5542C296.251 92.359 295.934 92.359 295.739 92.5542L296.446 93.2613ZM297.14 91.1529C296.945 91.3481 296.945 91.6647 297.14 91.86C297.335 92.0553 297.652 92.0553 297.847 91.86L297.14 91.1529ZM297.917 91.7899C298.112 91.5947 298.112 91.2781 297.917 91.0828C297.722 90.8876 297.405 90.8876 297.21 91.0828L297.917 91.7899ZM298.611 89.6815C298.416 89.8767 298.416 90.1933 298.611 90.3886C298.807 90.5839 299.123 90.5839 299.319 90.3886L298.611 89.6815ZM299.389 90.3185C299.584 90.1233 299.584 89.8067 299.389 89.6114C299.193 89.4162 298.877 89.4162 298.681 89.6114L299.389 90.3185ZM300.083 88.2101C299.888 88.4053 299.888 88.7219 300.083 88.9172C300.278 89.1124 300.595 89.1124 300.79 88.9172L300.083 88.2101ZM300.86 88.8471C301.055 88.6519 301.055 88.3353 300.86 88.14C300.665 87.9447 300.348 87.9447 300.153 88.14L300.86 88.8471ZM301.554 86.7387C301.359 86.9339 301.359 87.2505 301.554 87.4458C301.749 87.641 302.066 87.641 302.261 87.4458L301.554 86.7387ZM302.331 87.3757C302.527 87.1805 302.527 86.8639 302.331 86.6686C302.136 86.4733 301.82 86.4733 301.624 86.6686L302.331 87.3757ZM303.026 85.2673C302.83 85.4625 302.83 85.7791 303.026 85.9744C303.221 86.1696 303.537 86.1696 303.733 85.9744L303.026 85.2673ZM303.803 85.9043C303.998 85.7091 303.998 85.3925 303.803 85.1972C303.608 85.0019 303.291 85.0019 303.096 85.1972L303.803 85.9043ZM304.497 83.7959C304.302 83.9911 304.302 84.3077 304.497 84.503C304.692 84.6982 305.009 84.6982 305.204 84.503L304.497 83.7959ZM305.274 84.4329C305.469 84.2376 305.469 83.9211 305.274 83.7258C305.079 83.5305 304.762 83.5305 304.567 83.7258L305.274 84.4329ZM305.968 82.3245C305.773 82.5197 305.773 82.8363 305.968 83.0316C306.164 83.2268 306.48 83.2268 306.676 83.0316L305.968 82.3245ZM306.746 82.9615C306.941 82.7662 306.941 82.4497 306.746 82.2544C306.55 82.0591 306.234 82.0591 306.038 82.2544L306.746 82.9615ZM307.44 80.8531C307.245 81.0483 307.245 81.3649 307.44 81.5602C307.635 81.7554 307.952 81.7554 308.147 81.5602L307.44 80.8531ZM308.217 81.4901C308.412 81.2948 308.412 80.9782 308.217 80.783C308.022 80.5877 307.705 80.5877 307.51 80.783L308.217 81.4901ZM308.911 79.3816C308.716 79.5769 308.716 79.8935 308.911 80.0888C309.107 80.284 309.423 80.284 309.618 80.0888L308.911 79.3816ZM309.688 80.0187C309.884 79.8234 309.884 79.5068 309.688 79.3116C309.493 79.1163 309.177 79.1163 308.981 79.3116L309.688 80.0187ZM310.383 77.9102C310.187 78.1055 310.187 78.4221 310.383 78.6173C310.578 78.8126 310.895 78.8126 311.09 78.6173L310.383 77.9102ZM311.16 78.5473C311.355 78.352 311.355 78.0354 311.16 77.8402C310.965 77.6449 310.648 77.6449 310.453 77.8402L311.16 78.5473ZM311.854 76.4388C311.659 76.6341 311.659 76.9507 311.854 77.1459C312.049 77.3412 312.366 77.3412 312.561 77.1459L311.854 76.4388ZM312.631 77.0759C312.826 76.8806 312.826 76.564 312.631 76.3688C312.436 76.1735 312.119 76.1735 311.924 76.3688L312.631 77.0759ZM313.325 74.9674C313.13 75.1627 313.13 75.4793 313.325 75.6745C313.521 75.8698 313.837 75.8698 314.033 75.6745L313.325 74.9674ZM314.103 75.6045C314.298 75.4092 314.298 75.0926 314.103 74.8974C313.907 74.7021 313.591 74.7021 313.396 74.8974L314.103 75.6045ZM314.797 73.496C314.602 73.6913 314.602 74.0079 314.797 74.2031C314.992 74.3984 315.309 74.3984 315.504 74.2031L314.797 73.496ZM315.574 74.1331C315.769 73.9378 315.769 73.6212 315.574 73.426C315.379 73.2307 315.062 73.2307 314.867 73.426L315.574 74.1331ZM316.268 72.0246C316.073 72.2199 316.073 72.5365 316.268 72.7317C316.464 72.927 316.78 72.927 316.975 72.7317L316.268 72.0246ZM317.044 72.6637C317.24 72.4697 317.242 72.1531 317.048 71.9566C316.854 71.7601 316.537 71.7582 316.341 71.9522L317.044 72.6637ZM318.018 70.6654C317.78 70.8049 317.7 71.1112 317.839 71.3495C317.979 71.5878 318.285 71.6678 318.523 71.5283L318.018 70.6654ZM318.604 71.4815C318.844 71.345 318.928 71.0397 318.792 70.7997C318.655 70.5597 318.35 70.4758 318.11 70.6124L318.604 71.4815ZM320.063 69.8035C319.796 69.8766 319.64 70.1518 319.713 70.4181C319.786 70.6843 320.061 70.8409 320.327 70.7678L320.063 69.8035ZM320.418 70.7436C320.685 70.6738 320.845 70.4006 320.775 70.1334C320.705 69.8662 320.432 69.7062 320.165 69.7761L320.418 70.7436ZM322.261 69.5002C321.985 69.5019 321.762 69.7271 321.764 70.0033C321.766 70.2794 321.991 70.5019 322.267 70.5001L322.261 69.5002ZM322.363 70.5C322.639 70.5 322.863 70.2761 322.863 70C322.863 69.7239 322.639 69.5 322.363 69.5V70.5ZM324.329 69.5C324.053 69.5 323.829 69.7239 323.829 70C323.829 70.2761 324.053 70.5 324.329 70.5V69.5ZM324.428 70.5C324.704 70.5 324.928 70.2761 324.928 70C324.928 69.7239 324.704 69.5 324.428 69.5V70.5ZM326.394 69.5C326.118 69.5 325.894 69.7239 325.894 70C325.894 70.2761 326.118 70.5 326.394 70.5V69.5ZM326.493 70.5C326.769 70.5 326.993 70.2761 326.993 70C326.993 69.7239 326.769 69.5 326.493 69.5V70.5ZM328.459 69.5C328.183 69.5 327.959 69.7239 327.959 70C327.959 70.2761 328.183 70.5 328.459 70.5V69.5ZM328.557 70.5C328.834 70.5 329.057 70.2761 329.057 70C329.057 69.7239 328.834 69.5 328.557 69.5V70.5ZM330.524 69.5C330.248 69.5 330.024 69.7239 330.024 70C330.024 70.2761 330.248 70.5 330.524 70.5V69.5ZM330.622 70.5C330.898 70.5 331.122 70.2761 331.122 70C331.122 69.7239 330.898 69.5 330.622 69.5V70.5ZM332.589 69.5C332.313 69.5 332.089 69.7239 332.089 70C332.089 70.2761 332.313 70.5 332.589 70.5V69.5ZM332.687 70.5C332.963 70.5 333.187 70.2761 333.187 70C333.187 69.7239 332.963 69.5 332.687 69.5V70.5ZM334.654 69.5C334.378 69.5 334.154 69.7239 334.154 70C334.154 70.2761 334.378 70.5 334.654 70.5V69.5ZM334.752 70.5C335.028 70.5 335.252 70.2761 335.252 70C335.252 69.7239 335.028 69.5 334.752 69.5V70.5ZM336.719 69.5C336.442 69.5 336.219 69.7239 336.219 70C336.219 70.2761 336.442 70.5 336.719 70.5V69.5ZM336.817 70.5C337.093 70.5 337.317 70.2761 337.317 70C337.317 69.7239 337.093 69.5 336.817 69.5V70.5ZM338.783 69.5C338.507 69.5 338.283 69.7239 338.283 70C338.283 70.2761 338.507 70.5 338.783 70.5V69.5ZM338.882 70.5C339.158 70.5 339.382 70.2761 339.382 70C339.382 69.7239 339.158 69.5 338.882 69.5V70.5ZM340.848 69.5C340.572 69.5 340.348 69.7239 340.348 70C340.348 70.2761 340.572 70.5 340.848 70.5V69.5ZM340.947 70.5C341.223 70.5 341.447 70.2761 341.447 70C341.447 69.7239 341.223 69.5 340.947 69.5V70.5ZM342.913 69.5C342.637 69.5 342.413 69.7239 342.413 70C342.413 70.2761 342.637 70.5 342.913 70.5V69.5ZM343.011 70.5C343.288 70.5 343.511 70.2761 343.511 70C343.511 69.7239 343.288 69.5 343.011 69.5V70.5ZM344.978 69.5C344.702 69.5 344.478 69.7239 344.478 70C344.478 70.2761 344.702 70.5 344.978 70.5V69.5ZM345.076 70.5C345.352 70.5 345.576 70.2761 345.576 70C345.576 69.7239 345.352 69.5 345.076 69.5V70.5ZM347.043 69.5C346.767 69.5 346.543 69.7239 346.543 70C346.543 70.2761 346.767 70.5 347.043 70.5V69.5ZM347.141 70.5C347.417 70.5 347.641 70.2761 347.641 70C347.641 69.7239 347.417 69.5 347.141 69.5V70.5ZM349.108 69.5C348.832 69.5 348.608 69.7239 348.608 70C348.608 70.2761 348.832 70.5 349.108 70.5V69.5ZM349.206 70.5C349.482 70.5 349.706 70.2761 349.706 70C349.706 69.7239 349.482 69.5 349.206 69.5V70.5ZM351.173 69.5C350.896 69.5 350.673 69.7239 350.673 70C350.673 70.2761 350.896 70.5 351.173 70.5V69.5ZM351.271 70.5C351.547 70.5 351.771 70.2761 351.771 70C351.771 69.7239 351.547 69.5 351.271 69.5V70.5ZM353.237 69.5C352.961 69.5 352.737 69.7239 352.737 70C352.737 70.2761 352.961 70.5 353.237 70.5V69.5ZM353.336 70.5C353.612 70.5 353.836 70.2761 353.836 70C353.836 69.7239 353.612 69.5 353.336 69.5V70.5ZM355.302 69.5C355.026 69.5 354.802 69.7239 354.802 70C354.802 70.2761 355.026 70.5 355.302 70.5V69.5ZM355.401 70.5C355.677 70.5 355.901 70.2761 355.901 70C355.901 69.7239 355.677 69.5 355.401 69.5V70.5ZM357.367 69.5C357.091 69.5 356.867 69.7239 356.867 70C356.867 70.2761 357.091 70.5 357.367 70.5V69.5ZM357.465 70.5C357.742 70.5 357.965 70.2761 357.965 70C357.965 69.7239 357.742 69.5 357.465 69.5V70.5ZM359.432 69.5C359.156 69.5 358.932 69.7239 358.932 70C358.932 70.2761 359.156 70.5 359.432 70.5V69.5ZM359.53 70.5C359.806 70.5 360.03 70.2761 360.03 70C360.03 69.7239 359.806 69.5 359.53 69.5V70.5ZM361.497 69.5C361.221 69.5 360.997 69.7239 360.997 70C360.997 70.2761 361.221 70.5 361.497 70.5V69.5ZM361.595 70.5C361.871 70.5 362.095 70.2761 362.095 70C362.095 69.7239 361.871 69.5 361.595 69.5V70.5ZM363.562 69.5C363.286 69.5 363.062 69.7239 363.062 70C363.062 70.2761 363.286 70.5 363.562 70.5V69.5ZM363.66 70.5C363.936 70.5 364.16 70.2761 364.16 70C364.16 69.7239 363.936 69.5 363.66 69.5V70.5ZM365.627 69.5C365.35 69.5 365.127 69.7239 365.127 70C365.127 70.2761 365.35 70.5 365.627 70.5V69.5ZM365.725 70.5C366.001 70.5 366.225 70.2761 366.225 70C366.225 69.7239 366.001 69.5 365.725 69.5V70.5ZM367.691 69.5C367.415 69.5 367.191 69.7239 367.191 70C367.191 70.2761 367.415 70.5 367.691 70.5V69.5ZM367.79 70.5C368.066 70.5 368.29 70.2761 368.29 70C368.29 69.7239 368.066 69.5 367.79 69.5V70.5ZM369.756 69.5C369.48 69.5 369.256 69.7239 369.256 70C369.256 70.2761 369.48 70.5 369.756 70.5V69.5ZM369.855 70.5C370.131 70.5 370.355 70.2761 370.355 70C370.355 69.7239 370.131 69.5 369.855 69.5V70.5ZM371.821 69.5C371.545 69.5 371.321 69.7239 371.321 70C371.321 70.2761 371.545 70.5 371.821 70.5V69.5ZM371.919 70.5C372.196 70.5 372.419 70.2761 372.419 70C372.419 69.7239 372.196 69.5 371.919 69.5V70.5ZM373.886 69.5C373.61 69.5 373.386 69.7239 373.386 70C373.386 70.2761 373.61 70.5 373.886 70.5V69.5ZM373.984 70.5C374.26 70.5 374.484 70.2761 374.484 70C374.484 69.7239 374.26 69.5 373.984 69.5V70.5ZM375.951 69.5C375.675 69.5 375.451 69.7239 375.451 70C375.451 70.2761 375.675 70.5 375.951 70.5V69.5ZM202 110V110.5H202.05V110V109.5H202V110ZM204.055 110V110.5H204.155V110V109.5H204.055V110ZM206.161 110V110.5H206.261V110V109.5H206.161V110ZM208.266 110V110.5H208.366V110V109.5H208.266V110ZM210.371 110V110.5H210.471V110V109.5H210.371V110ZM212.476 110V110.5H212.577V110V109.5H212.476V110ZM214.582 110V110.5H214.682V110V109.5H214.582V110ZM216.687 110V110.5H216.787V110V109.5H216.687V110ZM218.792 110V110.5H218.893V110V109.5H218.792V110ZM220.898 110V110.5H220.998V110V109.5H220.898V110ZM223.003 110V110.5H223.103V110V109.5H223.003V110ZM225.108 110V110.5H225.209V110V109.5H225.108V110ZM227.214 110V110.5H227.314V110V109.5H227.214V110ZM229.319 110V110.5H229.419V110V109.5H229.319V110ZM231.424 110V110.5H231.525V110V109.5H231.424V110ZM233.53 110V110.5H233.63V110V109.5H233.53V110ZM235.635 110V110.5H235.735V110V109.5H235.635V110ZM237.74 110V110.5H237.841V110V109.5H237.74V110ZM239.846 110V110.5H239.946V110V109.5H239.846V110ZM241.951 110V110.5H242.051V110V109.5H241.951V110ZM244.056 110V110.5H244.157V110V109.5H244.056V110ZM246.162 110V110.5H246.262V110V109.5H246.162V110ZM248.267 110V110.5H248.367V110V109.5H248.267V110ZM250.372 110V110.5H250.473V110V109.5H250.372V110ZM252.478 110V110.5H252.578V110V109.5H252.478V110ZM254.583 110V110.5H254.683V110V109.5H254.583V110ZM256.688 110V110.5H256.789V110V109.5H256.688V110ZM258.794 110V110.5H258.894V110V109.5H258.794V110ZM260.899 110V110.5H260.999V110V109.5H260.899V110ZM263.004 110V110.5H263.105V110V109.5H263.004V110ZM265.11 110V110.5H265.21V110V109.5H265.11V110ZM267.215 110V110.5H267.315V110V109.5H267.215V110ZM269.32 110V110.5H269.42V110V109.5H269.32V110ZM271.426 110V110.5H271.526V110V109.5H271.426V110ZM273.531 110V110.5H273.631V110V109.5H273.531V110ZM275.636 110V110.5H275.686V110V109.5H275.636V110ZM275.686 110V110.5C275.704 110.5 275.722 110.5 275.739 110.5L275.736 110L275.733 109.5C275.717 109.5 275.702 109.5 275.686 109.5V110ZM277.709 109.74L277.835 110.224C277.869 110.215 277.903 110.206 277.937 110.197L277.805 109.714L277.673 109.232C277.643 109.24 277.612 109.249 277.582 109.256L277.709 109.74ZM279.643 108.953L279.89 109.388C279.921 109.37 279.952 109.352 279.982 109.335L279.729 108.903L279.477 108.472C279.45 108.487 279.423 108.503 279.396 108.518L279.643 108.953ZM281.308 107.692L281.659 108.048C281.672 108.035 281.684 108.023 281.697 108.01L281.343 107.657L280.99 107.303C280.979 107.314 280.967 107.325 280.956 107.336L281.308 107.692ZM281.343 107.657L281.697 108.01L281.732 107.975L281.378 107.622L281.025 107.268L280.99 107.303L281.343 107.657ZM282.78 106.22L283.133 106.574L283.203 106.504L282.85 106.15L282.496 105.797L282.426 105.867L282.78 106.22ZM284.251 104.749L284.604 105.103L284.675 105.033L284.321 104.679L283.967 104.325L283.897 104.396L284.251 104.749ZM285.722 103.278L286.076 103.631L286.146 103.561L285.792 103.208L285.439 102.854L285.369 102.924L285.722 103.278ZM287.194 101.806L287.547 102.16L287.617 102.09L287.264 101.736L286.91 101.383L286.84 101.453L287.194 101.806ZM288.665 100.335L289.019 100.688L289.089 100.618L288.735 100.265L288.382 99.9112L288.312 99.9813L288.665 100.335ZM290.137 98.8635L290.49 99.217L290.56 99.1469L290.207 98.7934L289.853 98.4398L289.783 98.5099L290.137 98.8635ZM291.608 97.3921L291.961 97.7456L292.032 97.6755L291.678 97.322L291.324 96.9684L291.254 97.0385L291.608 97.3921ZM293.079 95.9207L293.433 96.2742L293.503 96.2041L293.149 95.8506L292.796 95.497L292.726 95.5671L293.079 95.9207ZM294.551 94.4492L294.904 94.8028L294.974 94.7327L294.621 94.3792L294.267 94.0256L294.197 94.0957L294.551 94.4492ZM296.022 92.9778L296.376 93.3314L296.446 93.2613L296.092 92.9078L295.739 92.5542L295.669 92.6243L296.022 92.9778ZM297.494 91.5064L297.847 91.86L297.917 91.7899L297.564 91.4364L297.21 91.0828L297.14 91.1529L297.494 91.5064ZM298.965 90.035L299.319 90.3886L299.389 90.3185L299.035 89.965L298.681 89.6114L298.611 89.6815L298.965 90.035ZM300.436 88.5636L300.79 88.9172L300.86 88.8471L300.506 88.4936L300.153 88.14L300.083 88.2101L300.436 88.5636ZM301.908 87.0922L302.261 87.4458L302.331 87.3757L301.978 87.0222L301.624 86.6686L301.554 86.7387L301.908 87.0922ZM303.379 85.6208L303.733 85.9744L303.803 85.9043L303.449 85.5508L303.096 85.1972L303.026 85.2673L303.379 85.6208ZM304.851 84.1494L305.204 84.503L305.274 84.4329L304.921 84.0794L304.567 83.7258L304.497 83.7959L304.851 84.1494ZM306.322 82.678L306.676 83.0316L306.746 82.9615L306.392 82.6079L306.038 82.2544L305.968 82.3245L306.322 82.678ZM307.793 81.2066L308.147 81.5602L308.217 81.4901L307.863 81.1365L307.51 80.783L307.44 80.8531L307.793 81.2066ZM309.265 79.7352L309.618 80.0888L309.688 80.0187L309.335 79.6651L308.981 79.3116L308.911 79.3816L309.265 79.7352ZM310.736 78.2638L311.09 78.6173L311.16 78.5473L310.806 78.1937L310.453 77.8402L310.383 77.9102L310.736 78.2638ZM312.208 76.7924L312.561 77.1459L312.631 77.0759L312.278 76.7223L311.924 76.3688L311.854 76.4388L312.208 76.7924ZM313.679 75.321L314.033 75.6745L314.103 75.6045L313.749 75.2509L313.396 74.8974L313.325 74.9674L313.679 75.321ZM315.15 73.8496L315.504 74.2031L315.574 74.1331L315.22 73.7795L314.867 73.426L314.797 73.496L315.15 73.8496ZM316.622 72.3782L316.975 72.7317L317.01 72.6967L316.657 72.3431L316.303 71.9896L316.268 72.0246L316.622 72.3782ZM316.657 72.3431L317.01 72.6967C317.021 72.6857 317.033 72.6747 317.044 72.6637L316.692 72.308L316.341 71.9522C316.328 71.9646 316.316 71.9771 316.303 71.9896L316.657 72.3431ZM318.271 71.0968L318.523 71.5283C318.55 71.5125 318.577 71.497 318.604 71.4815L318.357 71.047L318.11 70.6124C318.079 70.6299 318.048 70.6475 318.018 70.6654L318.271 71.0968ZM320.195 70.2856L320.327 70.7678C320.357 70.7595 320.388 70.7515 320.418 70.7436L320.291 70.2598L320.165 69.7761C320.131 69.785 320.097 69.7941 320.063 69.8035L320.195 70.2856ZM322.264 70.0002L322.267 70.5001C322.283 70.5 322.298 70.5 322.314 70.5V70V69.5C322.296 69.5 322.278 69.5001 322.261 69.5002L322.264 70.0002ZM322.314 70V70.5H322.363V70V69.5H322.314V70ZM324.329 70V70.5H324.428V70V69.5H324.329V70ZM326.394 70V70.5H326.493V70V69.5H326.394V70ZM328.459 70V70.5H328.557V70V69.5H328.459V70ZM330.524 70V70.5H330.622V70V69.5H330.524V70ZM332.589 70V70.5H332.687V70V69.5H332.589V70ZM334.654 70V70.5H334.752V70V69.5H334.654V70ZM336.719 70V70.5H336.817V70V69.5H336.719V70ZM338.783 70V70.5H338.882V70V69.5H338.783V70ZM340.848 70V70.5H340.947V70V69.5H340.848V70ZM342.913 70V70.5H343.011V70V69.5H342.913V70ZM344.978 70V70.5H345.076V70V69.5H344.978V70ZM347.043 70V70.5H347.141V70V69.5H347.043V70ZM349.108 70V70.5H349.206V70V69.5H349.108V70ZM351.173 70V70.5H351.271V70V69.5H351.173V70ZM353.237 70V70.5H353.336V70V69.5H353.237V70ZM355.302 70V70.5H355.401V70V69.5H355.302V70ZM357.367 70V70.5H357.465V70V69.5H357.367V70ZM359.432 70V70.5H359.53V70V69.5H359.432V70ZM361.497 70V70.5H361.595V70V69.5H361.497V70ZM363.562 70V70.5H363.66V70V69.5H363.562V70ZM365.627 70V70.5H365.725V70V69.5H365.627V70ZM367.691 70V70.5H367.79V70V69.5H367.691V70ZM369.756 70V70.5H369.855V70V69.5H369.756V70ZM371.821 70V70.5H371.919V70V69.5H371.821V70ZM373.886 70V70.5H373.984V70V69.5H373.886V70ZM375.951 70V70.5H376V70V69.5H375.951V70Z" fill="#5BA9EE" style="fill:#5BA9EE;fill:color(display-p3 0.3569 0.6646 0.9339);fill-opacity:1;"/>
<path d="M463 50C463 57.732 457.627 64 451 64C444.373 64 439 57.732 439 50C439 41.268 443.373 36 451 36C458.627 36 463 41.268 463 50Z" stroke="#808387" style="stroke:#808387;stroke:color(display-p3 0.5020 0.5137 0.5294);stroke-opacity:1;" stroke-width="2"/>
<path d="M474 90C474 84.4087 474 81.6131 473.087 79.4078C471.869 76.4675 469.533 74.1314 466.592 72.9134C464.387 72 461.591 72 456 72H446C440.409 72 437.613 72 435.408 72.9134C432.467 74.1314 430.131 76.4675 428.913 79.4078C428 81.6131 428 84.4087 428 90" stroke="#808387" style="stroke:#808387;stroke:color(display-p3 0.5020 0.5137 0.5294);stroke-opacity:1;" stroke-width="2"/>
<path d="M416.63 206.652C416.63 212.535 412.543 217.304 407.5 217.304C402.457 217.304 398.37 212.535 398.37 206.652C398.37 200.008 401.696 196 407.5 196C413.303 196 416.63 200.008 416.63 206.652Z" stroke="#808387" style="stroke:#808387;stroke:color(display-p3 0.5020 0.5137 0.5294);stroke-opacity:1;" stroke-width="2"/>
<path d="M425 237.087C425 232.833 425 230.706 424.305 229.028C423.378 226.791 421.601 225.013 419.364 224.086C417.686 223.391 415.559 223.391 411.304 223.391H403.696C399.441 223.391 397.314 223.391 395.636 224.086C393.399 225.013 391.622 226.791 390.695 229.028C390 230.706 390 232.833 390 237.087" stroke="#808387" style="stroke:#808387;stroke:color(display-p3 0.5020 0.5137 0.5294);stroke-opacity:1;" stroke-width="2"/>
<path d="M456.065 111.826C456.065 116.701 452.678 120.652 448.5 120.652C444.322 120.652 440.935 116.701 440.935 111.826C440.935 106.321 443.691 103 448.5 103C453.309 103 456.065 106.321 456.065 111.826Z" stroke="#808387" style="stroke:#808387;stroke:color(display-p3 0.5020 0.5137 0.5294);stroke-opacity:1;" stroke-width="2"/>
<path d="M463 137.043C463 133.518 463 131.756 462.424 130.366C461.656 128.512 460.184 127.039 458.33 126.271C456.94 125.696 455.177 125.696 451.652 125.696H445.348C441.823 125.696 440.06 125.696 438.67 126.271C436.816 127.039 435.344 128.512 434.576 130.366C434 131.756 434 133.518 434 137.043" stroke="#808387" style="stroke:#808387;stroke:color(display-p3 0.5020 0.5137 0.5294);stroke-opacity:1;" stroke-width="2"/>
<path d="M406.022 12.6087C406.022 16.8109 403.102 20.2174 399.5 20.2174C395.898 20.2174 392.978 16.8109 392.978 12.6087C392.978 7.86305 395.355 5 399.5 5C403.645 5 406.022 7.86305 406.022 12.6087Z" stroke="#808387" style="stroke:#808387;stroke:color(display-p3 0.5020 0.5137 0.5294);stroke-opacity:1;" stroke-width="2"/>
<path d="M412 34.3475C412 31.3088 412 29.7894 411.503 28.5909C410.842 26.9929 409.572 25.7233 407.974 25.0614C406.775 24.5649 405.256 24.5649 402.217 24.5649H396.783C393.744 24.5649 392.224 24.5649 391.026 25.0614C389.428 25.7233 388.158 26.9929 387.496 28.5909C387 29.7894 387 31.3088 387 34.3475" stroke="#808387" style="stroke:#808387;stroke:color(display-p3 0.5020 0.5137 0.5294);stroke-opacity:1;" stroke-width="2"/>
<path d="M461.978 164.391C461.978 167.921 459.526 170.783 456.5 170.783C453.474 170.783 451.022 167.921 451.022 164.391C451.022 160.405 453.018 158 456.5 158C459.982 158 461.978 160.405 461.978 164.391Z" stroke="#808387" style="stroke:#808387;stroke:color(display-p3 0.5020 0.5137 0.5294);stroke-opacity:1;" stroke-width="2"/>
<path d="M467 182.652C467 180.1 467 178.823 466.583 177.817C466.027 176.474 464.96 175.408 463.618 174.852C462.611 174.435 461.335 174.435 458.783 174.435H454.217C451.665 174.435 450.389 174.435 449.382 174.852C448.039 175.408 446.973 176.474 446.417 177.817C446 178.823 446 180.1 446 182.652" stroke="#808387" style="stroke:#808387;stroke:color(display-p3 0.5020 0.5137 0.5294);stroke-opacity:1;" stroke-width="2"/>
</svg>
