<?xml version="1.0" encoding="UTF-8" standalone="no"?>
<svg
   width="395.95755"
   height="230.6978"
   viewBox="0 0 395.95755 230.6978"
   fill="none"
   version="1.1"
   id="svg30"
   sodipodi:docname="howto-1.svg"
   inkscape:version="1.4.3 (0d15f75042, 2025-12-25)"
   xmlns:inkscape="http://www.inkscape.org/namespaces/inkscape"
   xmlns:sodipodi="http://sodipodi.sourceforge.net/DTD/sodipodi-0.dtd"
   xmlns="http://www.w3.org/2000/svg"
   xmlns:svg="http://www.w3.org/2000/svg">
  <defs
     id="defs30" />
  <sodipodi:namedview
     id="namedview30"
     pagecolor="#ffffff"
     bordercolor="#666666"
     borderopacity="1.0"
     inkscape:showpageshadow="2"
     inkscape:pageopacity="0.0"
     inkscape:pagecheckerboard="0"
     inkscape:deskcolor="#d1d1d1"
     showgrid="false"
     inkscape:zoom="5.6975806"
     inkscape:cx="206.4034"
     inkscape:cy="123.12243"
     inkscape:window-width="3840"
     inkscape:window-height="2127"
     inkscape:window-x="0"
     inkscape:window-y="0"
     inkscape:window-maximized="0"
     inkscape:current-layer="svg30" />
  <rect
     width="395.95755"
     height="230.6978"
     fill="white"
     style="fill:#ffffff;fill-opacity:1;stroke-width:0.999998"
     id="rect1"
     x="-395.95755"
     y="0"
     transform="scale(-1,1)" />
  <path
     d="m 61.713376,17 c 0,7.732 5.373,14 12,14 6.627,0 12,-6.268 12,-14 0,-8.73199 -4.373,-14 -12,-14 -7.627,0 -12,5.26801 -12,14 z"
     stroke="#808387"
     style="stroke:#808387;stroke-opacity:1"
     stroke-width="2"
     id="path1" />
  <path
     d="m 50.713376,57 c 0,-5.5913 0,-8.3869 0.913,-10.5922 1.218,-2.9403 3.554,-5.2764 6.495,-6.4944 C 60.326376,39 63.122376,39 68.713376,39 h 10 c 5.591,0 8.387,0 10.592,0.9134 2.941,1.218 5.277,3.5541 6.495,6.4944 0.913,2.2053 0.913,5.0009 0.913,10.5922"
     stroke="#808387"
     style="stroke:#808387;stroke-opacity:1"
     stroke-width="2"
     id="path2" />
  <ellipse
     cx="-357.71338"
     cy="120"
     rx="36"
     ry="53"
     stroke="#808387"
     style="stroke:#808387;stroke-opacity:1"
     stroke-width="2"
     id="ellipse2"
     transform="scale(-1,1)" />
  <path
     d="m 354.71338,167 c 17.6731,0 32,-21.043 32,-47 0,-25.9574 -14.3269,-47 -32,-47"
     stroke="#808387"
     style="stroke:#808387;stroke-opacity:1"
     id="path3" />
  <path
     d="m 357.71338,67 h -9 c -19.882,0 -36,23.7289 -36,53 0,29.271 16.118,53 36,53 h 9"
     stroke="#808387"
     style="stroke:#808387;stroke-opacity:1"
     stroke-width="2"
     id="path4" />
  <path
     d="m 343.71338,169 h -8.5"
     stroke="#808387"
     style="stroke:#808387;stroke-opacity:1"
     stroke-width="2"
     stroke-linecap="round"
     id="path5" />
  <path
     d="m 343.71338,71 h -8.5"
     stroke="#808387"
     style="stroke:#808387;stroke-opacity:1"
     stroke-width="2"
     stroke-linecap="round"
     id="path6" />
  <path
     d="m 338.71338,165 h -9"
     stroke="#808387"
     style="stroke:#808387;stroke-opacity:1"
     stroke-width="2"
     stroke-linecap="round"
     id="path7" />
  <path
     d="m 338.71338,75 h -9"
     stroke="#808387"
     style="stroke:#808387;stroke-opacity:1"
     stroke-width="2"
     stroke-linecap="round"
     id="path8" />
  <path
     d="m 333.21338,159 h -8.5"
     stroke="#808387"
     style="stroke:#808387;stroke-opacity:1"
     stroke-width="2"
     stroke-linecap="round"
     id="path9" />
  <path
     d="m 333.21338,81 h -8.5"
     stroke="#808387"
     style="stroke:#808387;stroke-opacity:1"
     stroke-width="2"
     stroke-linecap="round"
     id="path10" />
  <path
     d="m 285.06738,119.646 c 0.195,0.196 0.195,0.512 0,0.708 l -3.182,3.182 c -0.196,0.195 -0.512,0.195 -0.708,0 -0.195,-0.196 -0.195,-0.512 0,-0.708 l 2.829,-2.828 -2.829,-2.828 c -0.195,-0.196 -0.195,-0.512 0,-0.708 0.196,-0.195 0.512,-0.195 0.708,0 z M 130.71338,30.5 c -0.276,0 -0.5,-0.2239 -0.5,-0.5 0,-0.2761 0.224,-0.5 0.5,-0.5 z m 136.718,87.446 0.335,-0.371 z m 17.282,2.054 v 0.5 h -11.93 v -0.5 -0.5 h 11.93 z m -17.282,-2.054 -0.334,0.372 -95.437,-85.8927 0.335,-0.3717 0.334,-0.3716 95.437,85.893 z M 166.64338,30 v 0.5 h -35.93 V 30 29.5 h 35.93 z m 5.352,2.0536 -0.335,0.3717 c -1.377,-1.2395 -3.164,-1.9253 -5.017,-1.9253 V 30 29.5 c 2.1,0 4.125,0.7773 5.686,2.182 z M 272.78338,120 v 0.5 c -2.1,0 -4.126,-0.777 -5.686,-2.182 l 0.334,-0.372 0.335,-0.371 c 1.377,1.239 3.164,1.925 5.017,1.925 z"
     fill="#5BA9EE"
     style="fill:#5ba9ee;fill-opacity:1"
     id="path11" />
  <path
     d="m 285.06738,139.646 c 0.195,0.196 0.195,0.512 0,0.708 l -3.182,3.182 c -0.196,0.195 -0.512,0.195 -0.708,0 -0.195,-0.196 -0.195,-0.512 0,-0.708 l 2.829,-2.828 -2.829,-2.828 c -0.195,-0.196 -0.195,-0.512 0,-0.708 0.196,-0.195 0.512,-0.195 0.708,0 z M 80.713376,120.87 c -0.276,0 -0.5,-0.224 -0.5,-0.5 0,-0.276 0.224,-0.5 0.5,-0.5 z m 90.856004,0.572 0.25,-0.433 z m 30.288,17.486 -0.25,0.433 z m 82.856,1.072 v 0.5 h -78.856 v -0.5 -0.5 h 78.856 z m -82.856,-1.072 -0.25,0.433 -30.288,-17.486 0.25,-0.433 0.25,-0.433 30.288,17.486 z m -34.288,-18.558 v 0.5 H 80.713376 v -0.5 -0.5 h 86.856004 z m 4,1.072 -0.25,0.433 c -1.14,-0.658 -2.433,-1.005 -3.75,-1.005 v -0.5 -0.5 c 1.492,0 2.958,0.393 4.25,1.139 z m 34.288,18.558 v 0.5 c -1.492,0 -2.958,-0.393 -4.25,-1.139 l 0.25,-0.433 0.25,-0.433 c 1.14,0.658 2.433,1.005 3.75,1.005 z"
     fill="#5BA9EE"
     style="fill:#5ba9ee;fill-opacity:1"
     id="path12" />
  <path
     d="m 285.06738,99.6464 c 0.195,0.1953 0.195,0.5116 0,0.7076 l -3.182,3.182 c -0.196,0.195 -0.512,0.195 -0.708,0 -0.195,-0.196 -0.195,-0.512 0,-0.708 l 2.829,-2.828 -2.829,-2.8284 c -0.195,-0.1953 -0.195,-0.5119 0,-0.7071 0.196,-0.1953 0.512,-0.1953 0.708,0 z M 130.71338,210.5 c -0.276,0 -0.5,-0.224 -0.5,-0.5 0,-0.276 0.224,-0.5 0.5,-0.5 z m 40.401,-3.434 -0.387,-0.317 z m 85.198,-104.132 -0.387,-0.317 z m 27.476,-2.434 c -0.277,0 -0.5,-0.224 -0.5,-0.5 0,-0.2761 0.223,-0.5 0.5,-0.5 z m -3.702,-1 c 0.276,0 0.5,0.2239 0.5,0.5 0,0.276 -0.224,0.5 -0.5,0.5 z m -1.851,1 c -0.276,0 -0.5,-0.224 -0.5,-0.5 0,-0.2761 0.224,-0.5 0.5,-0.5 z m -3.701,-1 c 0.276,0 0.5,0.2239 0.5,0.5 0,0.276 -0.224,0.5 -0.5,0.5 z m -1.851,1 c -0.276,0 -0.5,-0.224 -0.5,-0.5 0,-0.2761 0.224,-0.5 0.5,-0.5 z m -3.701,-1 c 0.276,0 0.5,0.2239 0.5,0.5 0,0.276 -0.224,0.5 -0.5,0.5 z m -1.851,1 c -0.276,0 -0.5,-0.224 -0.5,-0.5 0,-0.2761 0.224,-0.5 0.5,-0.5 z m -3.702,-1 c 0.277,0 0.5,0.2239 0.5,0.5 0,0.276 -0.223,0.5 -0.5,0.5 z m -2.027,1.081 c -0.274,0.041 -0.528,-0.148 -0.568,-0.421 -0.041,-0.2728 0.148,-0.5272 0.421,-0.5677 z m -4.614,1.128 c 0.204,-0.186 0.521,-0.171 0.706,0.034 0.186,0.204 0.171,0.52 -0.034,0.706 z m -0.734,2.331 c -0.175,0.213 -0.49,0.245 -0.704,0.07 -0.213,-0.175 -0.245,-0.49 -0.07,-0.704 z m -3.356,2.522 c 0.175,-0.214 0.49,-0.245 0.704,-0.07 0.213,0.174 0.245,0.489 0.07,0.703 z m -0.517,2.211 c -0.175,0.214 -0.49,0.245 -0.703,0.07 -0.214,-0.175 -0.246,-0.49 -0.071,-0.703 z m -3.356,2.522 c 0.175,-0.214 0.49,-0.245 0.704,-0.07 0.214,0.175 0.245,0.49 0.07,0.703 z m -0.516,2.211 c -0.175,0.214 -0.49,0.245 -0.704,0.07 -0.214,-0.174 -0.245,-0.489 -0.07,-0.703 z m -3.356,2.522 c 0.175,-0.213 0.49,-0.245 0.703,-0.07 0.214,0.175 0.246,0.49 0.071,0.704 z m -0.517,2.211 c -0.175,0.214 -0.49,0.246 -0.704,0.071 -0.213,-0.175 -0.245,-0.49 -0.07,-0.704 z m -3.356,2.523 c 0.175,-0.214 0.49,-0.246 0.704,-0.071 0.213,0.175 0.245,0.49 0.07,0.704 z m -0.517,2.211 c -0.175,0.213 -0.49,0.245 -0.703,0.07 -0.214,-0.175 -0.246,-0.49 -0.071,-0.704 z m -3.356,2.522 c 0.175,-0.214 0.49,-0.245 0.704,-0.07 0.214,0.174 0.245,0.489 0.07,0.703 z m -0.516,2.211 c -0.175,0.214 -0.49,0.245 -0.704,0.07 -0.214,-0.175 -0.245,-0.49 -0.07,-0.703 z m -3.356,2.522 c 0.175,-0.214 0.49,-0.245 0.703,-0.07 0.214,0.175 0.246,0.49 0.071,0.703 z m -0.517,2.211 c -0.175,0.214 -0.49,0.245 -0.704,0.071 -0.213,-0.175 -0.245,-0.49 -0.07,-0.704 z m -3.356,2.522 c 0.175,-0.213 0.49,-0.245 0.704,-0.07 0.213,0.175 0.245,0.49 0.07,0.704 z m -0.517,2.211 c -0.175,0.214 -0.49,0.246 -0.703,0.071 -0.214,-0.175 -0.246,-0.49 -0.071,-0.704 z m -3.356,2.523 c 0.175,-0.214 0.49,-0.246 0.704,-0.071 0.214,0.175 0.245,0.49 0.07,0.704 z m -0.516,2.211 c -0.175,0.213 -0.49,0.245 -0.704,0.07 -0.214,-0.175 -0.245,-0.49 -0.07,-0.704 z m -3.356,2.522 c 0.175,-0.214 0.49,-0.245 0.703,-0.07 0.214,0.174 0.246,0.489 0.071,0.703 z m -0.517,2.211 c -0.175,0.214 -0.49,0.245 -0.704,0.07 -0.213,-0.175 -0.245,-0.49 -0.07,-0.703 z m -3.356,2.522 c 0.175,-0.213 0.49,-0.245 0.704,-0.07 0.213,0.175 0.245,0.49 0.07,0.703 z m -0.517,2.211 c -0.175,0.214 -0.49,0.245 -0.703,0.071 -0.214,-0.175 -0.246,-0.49 -0.071,-0.704 z m -3.356,2.522 c 0.175,-0.213 0.49,-0.245 0.704,-0.07 0.214,0.175 0.245,0.49 0.07,0.704 z m -0.516,2.211 c -0.175,0.214 -0.49,0.246 -0.704,0.071 -0.214,-0.175 -0.245,-0.49 -0.07,-0.704 z m -3.356,2.523 c 0.175,-0.214 0.49,-0.245 0.703,-0.071 0.214,0.175 0.246,0.49 0.071,0.704 z m -0.517,2.211 c -0.175,0.213 -0.49,0.245 -0.704,0.07 -0.213,-0.175 -0.245,-0.49 -0.07,-0.703 z m -3.356,2.522 c 0.175,-0.214 0.49,-0.245 0.704,-0.07 0.213,0.175 0.245,0.49 0.07,0.703 z m -0.517,2.211 c -0.175,0.214 -0.49,0.245 -0.703,0.07 -0.214,-0.174 -0.246,-0.489 -0.071,-0.703 z m -3.356,2.522 c 0.175,-0.213 0.49,-0.245 0.704,-0.07 0.214,0.175 0.245,0.49 0.07,0.704 z m -0.516,2.211 c -0.175,0.214 -0.49,0.245 -0.704,0.071 -0.214,-0.175 -0.245,-0.49 -0.07,-0.704 z m -3.356,2.523 c 0.175,-0.214 0.49,-0.246 0.703,-0.071 0.214,0.175 0.246,0.49 0.071,0.704 z m -0.517,2.211 c -0.175,0.213 -0.49,0.245 -0.704,0.07 -0.213,-0.175 -0.245,-0.49 -0.07,-0.704 z m -3.356,2.522 c 0.175,-0.214 0.49,-0.245 0.704,-0.071 0.213,0.175 0.245,0.49 0.07,0.704 z m -0.517,2.211 c -0.175,0.214 -0.49,0.245 -0.703,0.07 -0.214,-0.175 -0.246,-0.49 -0.071,-0.703 z m -3.356,2.522 c 0.175,-0.214 0.49,-0.245 0.704,-0.07 0.214,0.175 0.245,0.49 0.07,0.703 z m -0.516,2.211 c -0.175,0.214 -0.49,0.245 -0.704,0.07 -0.214,-0.174 -0.245,-0.489 -0.07,-0.703 z m -3.356,2.522 c 0.175,-0.213 0.49,-0.245 0.703,-0.07 0.214,0.175 0.246,0.49 0.071,0.704 z m -0.517,2.211 c -0.175,0.214 -0.49,0.246 -0.704,0.071 -0.213,-0.175 -0.245,-0.49 -0.07,-0.704 z m -3.356,2.523 c 0.175,-0.214 0.49,-0.246 0.704,-0.071 0.213,0.175 0.245,0.49 0.07,0.704 z m -0.517,2.211 c -0.175,0.213 -0.49,0.245 -0.703,0.07 -0.214,-0.175 -0.246,-0.49 -0.071,-0.704 z m -3.356,2.522 c 0.175,-0.214 0.49,-0.245 0.704,-0.071 0.214,0.175 0.245,0.49 0.07,0.704 z m -0.516,2.211 c -0.175,0.214 -0.49,0.245 -0.704,0.07 -0.214,-0.175 -0.245,-0.49 -0.07,-0.703 z m -3.356,2.522 c 0.175,-0.214 0.49,-0.245 0.703,-0.07 0.214,0.175 0.246,0.49 0.071,0.703 z m -0.517,2.211 c -0.175,0.214 -0.49,0.245 -0.704,0.07 -0.213,-0.174 -0.245,-0.489 -0.07,-0.703 z m -3.356,2.522 c 0.175,-0.213 0.49,-0.245 0.704,-0.07 0.213,0.175 0.245,0.49 0.07,0.704 z m -0.734,2.331 c -0.204,0.186 -0.521,0.171 -0.706,-0.034 -0.186,-0.204 -0.171,-0.52 0.034,-0.706 z m -4.614,1.128 c 0.274,-0.041 0.528,0.148 0.568,0.421 0.041,0.273 -0.148,0.527 -0.421,0.568 z m -2.052,1.081 c -0.276,0 -0.5,-0.224 -0.5,-0.5 0,-0.276 0.224,-0.5 0.5,-0.5 z m -3.801,-1 c 0.276,0 0.5,0.224 0.5,0.5 0,0.276 -0.224,0.5 -0.5,0.5 z m -1.901,1 c -0.276,0 -0.5,-0.224 -0.5,-0.5 0,-0.276 0.224,-0.5 0.5,-0.5 z m -3.801,-1 c 0.276,0 0.5,0.224 0.5,0.5 0,0.276 -0.224,0.5 -0.5,0.5 z m -1.9,1 c -0.276,0 -0.5,-0.224 -0.5,-0.5 0,-0.276 0.224,-0.5 0.5,-0.5 z m -3.801,-1 c 0.276,0 0.5,0.224 0.5,0.5 0,0.276 -0.224,0.5 -0.5,0.5 z m -1.901,1 c -0.276,0 -0.5,-0.224 -0.5,-0.5 0,-0.276 0.224,-0.5 0.5,-0.5 z m -3.801,-1 c 0.276,0 0.5,0.224 0.5,0.5 0,0.276 -0.224,0.5 -0.5,0.5 z m -1.9,1 c -0.276,0 -0.5,-0.224 -0.5,-0.5 0,-0.276 0.224,-0.5 0.5,-0.5 z m -3.801,-1 c 0.276,0 0.5,0.224 0.5,0.5 0,0.276 -0.224,0.5 -0.5,0.5 z m -1.901,1 c -0.276,0 -0.5,-0.224 -0.5,-0.5 0,-0.276 0.224,-0.5 0.5,-0.5 z m -3.801,-1 c 0.276,0 0.5,0.224 0.5,0.5 0,0.276 -0.224,0.5 -0.5,0.5 z m 153.05,-109.5 v 0.5 h -0.925 V 100 99.5 h 0.925 z m -4.627,0 v 0.5 h -1.851 V 100 99.5 h 1.851 z m -5.552,0 v 0.5 h -1.851 V 100 99.5 h 1.851 z m -5.552,0 v 0.5 h -1.851 V 100 99.5 h 1.851 z m -5.553,0 v 0.5 h -0.925 V 100 99.5 h 0.925 z m -0.925,0 v 0.5 c -0.372,0 -0.74,0.028 -1.102,0.081 l -0.074,-0.494 -0.073,-0.4947 c 0.41,-0.0611 0.828,-0.0923 1.249,-0.0923 z m -5.38,2.079 0.336,0.37 c -0.271,0.246 -0.525,0.514 -0.761,0.802 l -0.387,-0.317 -0.387,-0.317 c 0.267,-0.325 0.556,-0.629 0.863,-0.908 z m -0.812,0.855 0.387,0.317 -0.645,0.789 -0.387,-0.317 -0.387,-0.317 0.645,-0.789 z m -3.227,3.944 0.387,0.317 -1.291,1.578 -0.387,-0.317 -0.387,-0.316 1.291,-1.578 z m -3.873,4.734 0.387,0.316 -1.29,1.578 -0.387,-0.316 -0.387,-0.317 1.29,-1.578 z m -3.872,4.733 0.387,0.317 -1.291,1.577 -0.387,-0.316 -0.387,-0.317 1.291,-1.578 z m -3.873,4.733 0.387,0.317 -1.291,1.578 -0.387,-0.317 -0.387,-0.317 1.291,-1.577 z m -3.873,4.734 0.387,0.316 -1.29,1.578 -0.387,-0.317 -0.387,-0.316 1.29,-1.578 z m -3.872,4.733 0.387,0.316 -1.291,1.578 -0.387,-0.316 -0.387,-0.317 1.291,-1.578 z m -3.873,4.733 0.387,0.317 -1.291,1.577 -0.387,-0.316 -0.387,-0.317 1.291,-1.578 z m -3.873,4.733 0.387,0.317 -1.29,1.578 -0.387,-0.317 -0.387,-0.317 1.29,-1.577 z m -3.872,4.734 0.387,0.316 -1.291,1.578 -0.387,-0.317 -0.387,-0.316 1.291,-1.578 z m -3.873,4.733 0.387,0.316 -1.291,1.578 -0.387,-0.316 -0.387,-0.317 1.291,-1.578 z m -3.873,4.733 0.387,0.317 -1.29,1.577 -0.387,-0.316 -0.387,-0.317 1.29,-1.578 z m -3.872,4.733 0.387,0.317 -1.291,1.578 -0.387,-0.317 -0.387,-0.316 1.291,-1.578 z m -3.873,4.734 0.387,0.316 -1.291,1.578 -0.387,-0.317 -0.387,-0.316 1.291,-1.578 z m -3.873,4.733 0.387,0.317 -1.29,1.577 -0.387,-0.316 -0.387,-0.317 1.29,-1.578 z m -3.872,4.733 0.387,0.317 -1.291,1.578 -0.387,-0.317 -0.387,-0.317 1.291,-1.577 z m -3.873,4.733 0.387,0.317 -1.291,1.578 -0.387,-0.317 -0.387,-0.316 1.291,-1.578 z m -3.873,4.734 0.387,0.316 -1.29,1.578 -0.387,-0.317 -0.387,-0.316 1.29,-1.578 z m -3.872,4.733 0.387,0.317 -1.291,1.577 -0.387,-0.316 -0.387,-0.317 1.291,-1.578 z m -3.873,4.733 0.387,0.317 -1.291,1.578 -0.387,-0.317 -0.387,-0.317 1.291,-1.577 z m -3.873,4.733 0.387,0.317 -1.29,1.578 -0.387,-0.317 -0.387,-0.316 1.29,-1.578 z m -3.872,4.734 0.387,0.316 -1.291,1.578 -0.387,-0.317 -0.387,-0.316 1.291,-1.578 z m -3.873,4.733 0.387,0.317 -0.645,0.789 -0.387,-0.317 -0.387,-0.317 0.645,-0.789 z m -0.645,0.789 0.387,0.317 c -0.267,0.325 -0.556,0.629 -0.863,0.908 l -0.336,-0.37 -0.336,-0.37 c 0.271,-0.246 0.525,-0.514 0.761,-0.802 z m -5.016,2.847 0.073,0.495 c -0.41,0.061 -0.828,0.092 -1.249,0.092 v -0.5 -0.5 c 0.372,0 0.74,-0.028 1.102,-0.081 z m -1.176,0.087 v 0.5 h -0.95 v -0.5 -0.5 h 0.95 z m -4.751,0 v 0.5 h -1.901 v -0.5 -0.5 h 1.901 z m -5.702,0 v 0.5 h -1.9 v -0.5 -0.5 h 1.9 z m -5.701,0 v 0.5 h -1.901 v -0.5 -0.5 h 1.901 z m -5.702,0 v 0.5 h -1.9 v -0.5 -0.5 h 1.9 z m -5.701,0 v 0.5 h -1.901 v -0.5 -0.5 h 1.901 z m -5.702,0 v 0.5 h -0.95 v -0.5 -0.5 h 0.95 z"
     fill="#5BA9EE"
     style="fill:#5ba9ee;fill-opacity:1"
     id="path13" />
  <rect
     x="-45.713375"
     y="90"
     width="30"
     height="54"
     rx="2"
     stroke="#808387"
     style="stroke:#808387;stroke-opacity:1"
     stroke-width="2"
     id="rect13"
     transform="scale(-1,1)" />
  <path
     d="m 35.713376,134 c 0,-1.105 -0.895,-2 -2,-2 h -6 c -1.105,0 -2,0.895 -2,2 v 10 h 10 z"
     stroke="#808387"
     style="stroke:#808387;stroke-opacity:1"
     stroke-width="2"
     id="path14" />
  <path
     d="m 40.713376,123 h -20"
     stroke="#808387"
     style="stroke:#808387;stroke-opacity:1"
     stroke-width="2"
     stroke-linecap="round"
     id="path15" />
  <path
     d="m 40.713376,117 h -20"
     stroke="#808387"
     style="stroke:#808387;stroke-opacity:1"
     stroke-width="2"
     stroke-linecap="round"
     id="path16" />
  <path
     d="m 40.713376,111 h -20"
     stroke="#808387"
     style="stroke:#808387;stroke-opacity:1"
     stroke-width="2"
     stroke-linecap="round"
     id="path17" />
  <path
     d="m 40.713376,105 h -20"
     stroke="#808387"
     style="stroke:#808387;stroke-opacity:1"
     stroke-width="2"
     stroke-linecap="round"
     id="path18" />
  <path
     d="m 40.713376,99 h -20"
     stroke="#808387"
     style="stroke:#808387;stroke-opacity:1"
     stroke-width="2"
     stroke-linecap="round"
     id="path19" />
  <path
     d="M 15.713376,111 H 6.7133758"
     stroke="#808387"
     style="stroke:#808387;stroke-opacity:1"
     stroke-width="2"
     stroke-linecap="round"
     id="path20" />
  <path
     d="M 15.713376,117 H 6.7133758"
     stroke="#808387"
     style="stroke:#808387;stroke-opacity:1"
     stroke-width="2"
     stroke-linecap="round"
     id="path21" />
  <path
     d="M 15.713376,123 H 6.7133758"
     stroke="#808387"
     style="stroke:#808387;stroke-opacity:1"
     stroke-width="2"
     stroke-linecap="round"
     id="path22" />
  <path
     d="M 15.713376,129 H 6.7133758"
     stroke="#808387"
     style="stroke:#808387;stroke-opacity:1"
     stroke-width="2"
     stroke-linecap="round"
     id="path23" />
  <path
     d="M 15.713376,105 H 3.7133758 c -1.105,0 -2,0.895 -2,2 v 35 c 0,1.105 0.895,2 2,2 H 19.713376"
     stroke="#808387"
     style="stroke:#808387;stroke-opacity:1"
     stroke-width="2"
     id="path24" />
  <path
     d="m 83.713376,196 v 27 m 0,-27 h 2 m -2,0 h -2 m 2,27 h 2 m -2,0 h -2"
     stroke="#808387"
     style="stroke:#808387;stroke-opacity:1"
     stroke-width="2"
     stroke-linecap="round"
     id="path25" />
  <path
     d="m 71.713376,196 v 27 m 0,-27 h 2 m -2,0 h -2 m 2,27 h 2 m -2,0 h -2"
     stroke="#808387"
     style="stroke:#808387;stroke-opacity:1"
     stroke-width="2"
     stroke-linecap="round"
     id="path26" />
  <path
     d="m 59.713376,196 v 27 m 0,-27 h 2 m -2,0 h -2 m 2,27 h 2 m -2,0 h -2"
     stroke="#808387"
     style="stroke:#808387;stroke-opacity:1"
     stroke-width="2"
     stroke-linecap="round"
     id="path27" />
  <path
     d="m 47.713376,196 v 27 m 0,-27 h 2 m -2,0 h -2 m 2,27 h 2 m -2,0 h -2"
     stroke="#808387"
     style="stroke:#808387;stroke-opacity:1"
     stroke-width="2"
     stroke-linecap="round"
     id="path28" />
  <path
     d="m 89.713376,227 h -48"
     stroke="#808387"
     style="stroke:#808387;stroke-opacity:1"
     stroke-width="2"
     stroke-linecap="round"
     id="path29" />
  <path
     d="m 41.713376,192 h 48 l -22.211,-11.106 c -1.126,-0.563 -2.452,-0.563 -3.578,0 z"
     stroke="#808387"
     style="stroke:#808387;stroke-opacity:1"
     stroke-width="2"
     stroke-linecap="round"
     stroke-linejoin="round"
     id="path30" />
</svg>
