<svg width="10" height="9" viewBox="0 0 10 9" fill="none" xmlns="http://www.w3.org/2000/svg">
<path d="M5.775 8.85503V5.62103C5.775 4.13236 6.09583 2.90036 6.7375 1.92503C7.40483 0.949696 8.36733 0.308029 9.625 3.01301e-05V1.34753C8.855 1.55286 8.30317 1.93786 7.9695 2.50253C7.63583 3.04153 7.44333 3.74736 7.392 4.62003H8.855V8.85503H5.775ZM-1.61305e-06 8.85503V5.62103C-1.61305e-06 4.13236 0.320832 2.90036 0.962498 1.92503C1.62983 0.949696 2.59233 0.308029 3.85 3.01301e-05V1.34753C3.08 1.55286 2.52817 1.93786 2.1945 2.50253C1.86083 3.04153 1.66833 3.74736 1.617 4.62003H3.08V8.85503H-1.61305e-06Z" fill="#3A3E43" style="fill:#3A3E43;fill:color(display-p3 0.2275 0.2431 0.2627);fill-opacity:1;"/>
</svg>
