<svg width="96" height="72" viewBox="0 0 96 72" fill="none" xmlns="http://www.w3.org/2000/svg">
<g opacity="0.6">
<rect x="91.5" y="67.5" width="15" height="15" transform="rotate(-180 91.5 67.5)" stroke="#5BA9EE" style="stroke:#5BA9EE;stroke:color(display-p3 0.3569 0.6646 0.9339);stroke-opacity:1;"/>
<circle cx="84" cy="60" r="2" transform="rotate(-180 84 60)" fill="#5BA9EE" style="fill:#5BA9EE;fill:color(display-p3 0.3569 0.6646 0.9339);fill-opacity:1;"/>
<rect x="67.5" y="67.5" width="15" height="15" transform="rotate(-180 67.5 67.5)" stroke="#5BA9EE" style="stroke:#5BA9EE;stroke:color(display-p3 0.3569 0.6646 0.9339);stroke-opacity:1;"/>
<circle cx="60" cy="60" r="2" transform="rotate(-180 60 60)" fill="#5BA9EE" style="fill:#5BA9EE;fill:color(display-p3 0.3569 0.6646 0.9339);fill-opacity:1;"/>
<circle cx="36" cy="60" r="2" transform="rotate(-180 36 60)" fill="#5BA9EE" style="fill:#5BA9EE;fill:color(display-p3 0.3569 0.6646 0.9339);fill-opacity:1;"/>
<rect x="19.5" y="67.5" width="15" height="15" transform="rotate(-180 19.5 67.5)" stroke="#5BA9EE" style="stroke:#5BA9EE;stroke:color(display-p3 0.3569 0.6646 0.9339);stroke-opacity:1;"/>
<circle cx="12" cy="60" r="2" transform="rotate(-180 12 60)" fill="#5BA9EE" style="fill:#5BA9EE;fill:color(display-p3 0.3569 0.6646 0.9339);fill-opacity:1;"/>
<g opacity="0.6">
<rect x="43.5" y="43.5" width="15" height="15" transform="rotate(-180 43.5 43.5)" stroke="#5BA9EE" style="stroke:#5BA9EE;stroke:color(display-p3 0.3569 0.6646 0.9339);stroke-opacity:1;"/>
<circle cx="36" cy="36" r="2" transform="rotate(-180 36 36)" fill="#5BA9EE" style="fill:#5BA9EE;fill:color(display-p3 0.3569 0.6646 0.9339);fill-opacity:1;"/>
</g>
<rect x="19.5" y="43.5" width="15" height="15" transform="rotate(-180 19.5 43.5)" stroke="#5BA9EE" style="stroke:#5BA9EE;stroke:color(display-p3 0.3569 0.6646 0.9339);stroke-opacity:1;"/>
<circle cx="12" cy="36" r="2" transform="rotate(-180 12 36)" fill="#5BA9EE" style="fill:#5BA9EE;fill:color(display-p3 0.3569 0.6646 0.9339);fill-opacity:1;"/>
<g opacity="0.2">
<rect x="19.5" y="19.5" width="15" height="15" transform="rotate(-180 19.5 19.5)" stroke="#5BA9EE" style="stroke:#5BA9EE;stroke:color(display-p3 0.3569 0.6646 0.9339);stroke-opacity:1;"/>
<circle cx="12" cy="12" r="2" transform="rotate(-180 12 12)" fill="#5BA9EE" style="fill:#5BA9EE;fill:color(display-p3 0.3569 0.6646 0.9339);fill-opacity:1;"/>
</g>
</g>
</svg>
