<svg width="144" height="360" viewBox="0 0 144 360" fill="none" xmlns="http://www.w3.org/2000/svg">
<rect x="139.5" y="4.50001" width="15" height="15" transform="rotate(90 139.5 4.50001)" stroke="#4e7d9e" style="stroke:#4e7d9e;stroke:color(display-p3 0.3059 0.4902 0.6196);stroke-opacity:1;"/>
<circle opacity="0.6" cx="132" cy="12" r="2" transform="rotate(90 132 12)" fill="#4e7d9e" style="fill:#4e7d9e;fill:color(display-p3 0.3059 0.4902 0.6196);fill-opacity:1;"/>
<rect x="139.5" y="28.5" width="15" height="15" transform="rotate(90 139.5 28.5)" stroke="#4e7d9e" style="stroke:#4e7d9e;stroke:color(display-p3 0.3059 0.4902 0.6196);stroke-opacity:1;"/>
<circle cx="132" cy="36" r="2" transform="rotate(90 132 36)" fill="#4e7d9e" style="fill:#4e7d9e;fill:color(display-p3 0.3059 0.4902 0.6196);fill-opacity:1;"/>
<rect x="139.5" y="52.5" width="15" height="15" transform="rotate(90 139.5 52.5)" stroke="#4e7d9e" style="stroke:#4e7d9e;stroke:color(display-p3 0.3059 0.4902 0.6196);stroke-opacity:1;"/>
<circle cx="132" cy="60" r="2" transform="rotate(90 132 60)" fill="#4e7d9e" style="fill:#4e7d9e;fill:color(display-p3 0.3059 0.4902 0.6196);fill-opacity:1;"/>
<circle cx="132" cy="84" r="2" transform="rotate(90 132 84)" fill="#4e7d9e" style="fill:#4e7d9e;fill:color(display-p3 0.3059 0.4902 0.6196);fill-opacity:1;"/>
<rect x="139.5" y="100.5" width="15" height="15" transform="rotate(90 139.5 100.5)" stroke="#4e7d9e" style="stroke:#4e7d9e;stroke:color(display-p3 0.3059 0.4902 0.6196);stroke-opacity:1;"/>
<circle cx="132" cy="108" r="2" transform="rotate(90 132 108)" fill="#4e7d9e" style="fill:#4e7d9e;fill:color(display-p3 0.3059 0.4902 0.6196);fill-opacity:1;"/>
<rect x="139.5" y="124.5" width="15" height="15" transform="rotate(90 139.5 124.5)" stroke="#4e7d9e" style="stroke:#4e7d9e;stroke:color(display-p3 0.3059 0.4902 0.6196);stroke-opacity:1;"/>
<circle cx="132" cy="132" r="2" transform="rotate(90 132 132)" fill="#4e7d9e" style="fill:#4e7d9e;fill:color(display-p3 0.3059 0.4902 0.6196);fill-opacity:1;"/>
<rect x="139.5" y="148.5" width="15" height="15" transform="rotate(90 139.5 148.5)" stroke="#4e7d9e" style="stroke:#4e7d9e;stroke:color(display-p3 0.3059 0.4902 0.6196);stroke-opacity:1;"/>
<circle cx="132" cy="156" r="2" transform="rotate(90 132 156)" fill="#4e7d9e" style="fill:#4e7d9e;fill:color(display-p3 0.3059 0.4902 0.6196);fill-opacity:1;"/>
<rect x="139.5" y="172.5" width="15" height="15" transform="rotate(90 139.5 172.5)" stroke="#4e7d9e" style="stroke:#4e7d9e;stroke:color(display-p3 0.3059 0.4902 0.6196);stroke-opacity:1;"/>
<circle opacity="0.6" cx="132" cy="180" r="2" transform="rotate(90 132 180)" fill="#4e7d9e" style="fill:#4e7d9e;fill:color(display-p3 0.3059 0.4902 0.6196);fill-opacity:1;"/>
<rect x="139.5" y="196.5" width="15" height="15" transform="rotate(90 139.5 196.5)" stroke="#4e7d9e" style="stroke:#4e7d9e;stroke:color(display-p3 0.3059 0.4902 0.6196);stroke-opacity:1;"/>
<circle cx="132" cy="204" r="2" transform="rotate(90 132 204)" fill="#4e7d9e" style="fill:#4e7d9e;fill:color(display-p3 0.3059 0.4902 0.6196);fill-opacity:1;"/>
<rect x="139.5" y="220.5" width="15" height="15" transform="rotate(90 139.5 220.5)" stroke="#4e7d9e" style="stroke:#4e7d9e;stroke:color(display-p3 0.3059 0.4902 0.6196);stroke-opacity:1;"/>
<circle cx="132" cy="228" r="2" transform="rotate(90 132 228)" fill="#4e7d9e" style="fill:#4e7d9e;fill:color(display-p3 0.3059 0.4902 0.6196);fill-opacity:1;"/>
<circle cx="132" cy="252" r="2" transform="rotate(90 132 252)" fill="#4e7d9e" style="fill:#4e7d9e;fill:color(display-p3 0.3059 0.4902 0.6196);fill-opacity:1;"/>
<rect x="139.5" y="268.5" width="15" height="15" transform="rotate(90 139.5 268.5)" stroke="#4e7d9e" style="stroke:#4e7d9e;stroke:color(display-p3 0.3059 0.4902 0.6196);stroke-opacity:1;"/>
<circle cx="132" cy="276" r="2" transform="rotate(90 132 276)" fill="#4e7d9e" style="fill:#4e7d9e;fill:color(display-p3 0.3059 0.4902 0.6196);fill-opacity:1;"/>
<g opacity="0.6">
<rect x="139.5" y="292.5" width="15" height="15" transform="rotate(90 139.5 292.5)" stroke="#4e7d9e" style="stroke:#4e7d9e;stroke:color(display-p3 0.3059 0.4902 0.6196);stroke-opacity:1;"/>
<circle cx="132" cy="300" r="2" transform="rotate(90 132 300)" fill="#4e7d9e" style="fill:#4e7d9e;fill:color(display-p3 0.3059 0.4902 0.6196);fill-opacity:1;"/>
</g>
<rect x="139.5" y="316.5" width="15" height="15" transform="rotate(90 139.5 316.5)" stroke="#4e7d9e" style="stroke:#4e7d9e;stroke:color(display-p3 0.3059 0.4902 0.6196);stroke-opacity:1;"/>
<circle opacity="0.6" cx="132" cy="324" r="2" transform="rotate(90 132 324)" fill="#4e7d9e" style="fill:#4e7d9e;fill:color(display-p3 0.3059 0.4902 0.6196);fill-opacity:1;"/>
<rect x="139.5" y="340.5" width="15" height="15" transform="rotate(90 139.5 340.5)" stroke="#4e7d9e" style="stroke:#4e7d9e;stroke:color(display-p3 0.3059 0.4902 0.6196);stroke-opacity:1;"/>
<circle cx="132" cy="348" r="2" transform="rotate(90 132 348)" fill="#4e7d9e" style="fill:#4e7d9e;fill:color(display-p3 0.3059 0.4902 0.6196);fill-opacity:1;"/>
<g opacity="0.6">
<rect x="115.5" y="28.5" width="15" height="15" transform="rotate(90 115.5 28.5)" stroke="#4e7d9e" style="stroke:#4e7d9e;stroke:color(display-p3 0.3059 0.4902 0.6196);stroke-opacity:1;"/>
<circle cx="108" cy="36" r="2" transform="rotate(90 108 36)" fill="#4e7d9e" style="fill:#4e7d9e;fill:color(display-p3 0.3059 0.4902 0.6196);fill-opacity:1;"/>
</g>
<rect x="115.5" y="52.5" width="15" height="15" transform="rotate(90 115.5 52.5)" stroke="#4e7d9e" style="stroke:#4e7d9e;stroke:color(display-p3 0.3059 0.4902 0.6196);stroke-opacity:1;"/>
<circle cx="108" cy="60" r="2" transform="rotate(90 108 60)" fill="#4e7d9e" style="fill:#4e7d9e;fill:color(display-p3 0.3059 0.4902 0.6196);fill-opacity:1;"/>
<g opacity="0.6">
<rect x="115.5" y="76.5" width="15" height="15" transform="rotate(90 115.5 76.5)" stroke="#4e7d9e" style="stroke:#4e7d9e;stroke:color(display-p3 0.3059 0.4902 0.6196);stroke-opacity:1;"/>
<circle cx="108" cy="84" r="2" transform="rotate(90 108 84)" fill="#4e7d9e" style="fill:#4e7d9e;fill:color(display-p3 0.3059 0.4902 0.6196);fill-opacity:1;"/>
</g>
<rect x="115.5" y="100.5" width="15" height="15" transform="rotate(90 115.5 100.5)" stroke="#4e7d9e" style="stroke:#4e7d9e;stroke:color(display-p3 0.3059 0.4902 0.6196);stroke-opacity:1;"/>
<circle cx="108" cy="108" r="2" transform="rotate(90 108 108)" fill="#4e7d9e" style="fill:#4e7d9e;fill:color(display-p3 0.3059 0.4902 0.6196);fill-opacity:1;"/>
<rect x="115.5" y="124.5" width="15" height="15" transform="rotate(90 115.5 124.5)" stroke="#4e7d9e" style="stroke:#4e7d9e;stroke:color(display-p3 0.3059 0.4902 0.6196);stroke-opacity:1;"/>
<circle cx="108" cy="132" r="2" transform="rotate(90 108 132)" fill="#4e7d9e" style="fill:#4e7d9e;fill:color(display-p3 0.3059 0.4902 0.6196);fill-opacity:1;"/>
<rect x="115.5" y="172.5" width="15" height="15" transform="rotate(90 115.5 172.5)" stroke="#4e7d9e" style="stroke:#4e7d9e;stroke:color(display-p3 0.3059 0.4902 0.6196);stroke-opacity:1;"/>
<circle cx="108" cy="180" r="2" transform="rotate(90 108 180)" fill="#4e7d9e" style="fill:#4e7d9e;fill:color(display-p3 0.3059 0.4902 0.6196);fill-opacity:1;"/>
<rect x="115.5" y="196.5" width="15" height="15" transform="rotate(90 115.5 196.5)" stroke="#4e7d9e" style="stroke:#4e7d9e;stroke:color(display-p3 0.3059 0.4902 0.6196);stroke-opacity:1;"/>
<circle cx="108" cy="204" r="2" transform="rotate(90 108 204)" fill="#4e7d9e" style="fill:#4e7d9e;fill:color(display-p3 0.3059 0.4902 0.6196);fill-opacity:1;"/>
<g opacity="0.6">
<rect x="115.5" y="220.5" width="15" height="15" transform="rotate(90 115.5 220.5)" stroke="#4e7d9e" style="stroke:#4e7d9e;stroke:color(display-p3 0.3059 0.4902 0.6196);stroke-opacity:1;"/>
<circle cx="108" cy="228" r="2" transform="rotate(90 108 228)" fill="#4e7d9e" style="fill:#4e7d9e;fill:color(display-p3 0.3059 0.4902 0.6196);fill-opacity:1;"/>
</g>
<rect x="115.5" y="244.5" width="15" height="15" transform="rotate(90 115.5 244.5)" stroke="#4e7d9e" style="stroke:#4e7d9e;stroke:color(display-p3 0.3059 0.4902 0.6196);stroke-opacity:1;"/>
<circle cx="108" cy="252" r="2" transform="rotate(90 108 252)" fill="#4e7d9e" style="fill:#4e7d9e;fill:color(display-p3 0.3059 0.4902 0.6196);fill-opacity:1;"/>
<rect x="115.5" y="268.5" width="15" height="15" transform="rotate(90 115.5 268.5)" stroke="#4e7d9e" style="stroke:#4e7d9e;stroke:color(display-p3 0.3059 0.4902 0.6196);stroke-opacity:1;"/>
<circle cx="108" cy="276" r="2" transform="rotate(90 108 276)" fill="#4e7d9e" style="fill:#4e7d9e;fill:color(display-p3 0.3059 0.4902 0.6196);fill-opacity:1;"/>
<rect x="115.5" y="316.5" width="15" height="15" transform="rotate(90 115.5 316.5)" stroke="#4e7d9e" style="stroke:#4e7d9e;stroke:color(display-p3 0.3059 0.4902 0.6196);stroke-opacity:1;"/>
<circle cx="108" cy="324" r="2" transform="rotate(90 108 324)" fill="#4e7d9e" style="fill:#4e7d9e;fill:color(display-p3 0.3059 0.4902 0.6196);fill-opacity:1;"/>
<rect x="115.5" y="340.5" width="15" height="15" transform="rotate(90 115.5 340.5)" stroke="#4e7d9e" style="stroke:#4e7d9e;stroke:color(display-p3 0.3059 0.4902 0.6196);stroke-opacity:1;"/>
<circle cx="108" cy="348" r="2" transform="rotate(90 108 348)" fill="#4e7d9e" style="fill:#4e7d9e;fill:color(display-p3 0.3059 0.4902 0.6196);fill-opacity:1;"/>
<g opacity="0.2">
<rect x="91.5" y="4.50001" width="15" height="15" transform="rotate(90 91.5 4.50001)" stroke="#4e7d9e" style="stroke:#4e7d9e;stroke:color(display-p3 0.3059 0.4902 0.6196);stroke-opacity:1;"/>
<circle cx="84" cy="12" r="2" transform="rotate(90 84 12)" fill="#4e7d9e" style="fill:#4e7d9e;fill:color(display-p3 0.3059 0.4902 0.6196);fill-opacity:1;"/>
</g>
<rect x="91.5" y="28.5" width="15" height="15" transform="rotate(90 91.5 28.5)" stroke="#4e7d9e" style="stroke:#4e7d9e;stroke:color(display-p3 0.3059 0.4902 0.6196);stroke-opacity:1;"/>
<circle cx="84" cy="36" r="2" transform="rotate(90 84 36)" fill="#4e7d9e" style="fill:#4e7d9e;fill:color(display-p3 0.3059 0.4902 0.6196);fill-opacity:1;"/>
<g opacity="0.6">
<rect x="91.5" y="76.5" width="15" height="15" transform="rotate(90 91.5 76.5)" stroke="#4e7d9e" style="stroke:#4e7d9e;stroke:color(display-p3 0.3059 0.4902 0.6196);stroke-opacity:1;"/>
<circle cx="84" cy="84" r="2" transform="rotate(90 84 84)" fill="#4e7d9e" style="fill:#4e7d9e;fill:color(display-p3 0.3059 0.4902 0.6196);fill-opacity:1;"/>
</g>
<g opacity="0.2">
<rect x="91.5" y="100.5" width="15" height="15" transform="rotate(90 91.5 100.5)" stroke="#4e7d9e" style="stroke:#4e7d9e;stroke:color(display-p3 0.3059 0.4902 0.6196);stroke-opacity:1;"/>
<circle cx="84" cy="108" r="2" transform="rotate(90 84 108)" fill="#4e7d9e" style="fill:#4e7d9e;fill:color(display-p3 0.3059 0.4902 0.6196);fill-opacity:1;"/>
</g>
<rect x="91.5" y="124.5" width="15" height="15" transform="rotate(90 91.5 124.5)" stroke="#4e7d9e" style="stroke:#4e7d9e;stroke:color(display-p3 0.3059 0.4902 0.6196);stroke-opacity:1;"/>
<circle cx="84" cy="132" r="2" transform="rotate(90 84 132)" fill="#4e7d9e" style="fill:#4e7d9e;fill:color(display-p3 0.3059 0.4902 0.6196);fill-opacity:1;"/>
<circle cx="84" cy="156" r="2" transform="rotate(90 84 156)" fill="#4e7d9e" style="fill:#4e7d9e;fill:color(display-p3 0.3059 0.4902 0.6196);fill-opacity:1;"/>
<g opacity="0.6">
<rect x="91.5" y="172.5" width="15" height="15" transform="rotate(90 91.5 172.5)" stroke="#4e7d9e" style="stroke:#4e7d9e;stroke:color(display-p3 0.3059 0.4902 0.6196);stroke-opacity:1;"/>
<circle cx="84" cy="180" r="2" transform="rotate(90 84 180)" fill="#4e7d9e" style="fill:#4e7d9e;fill:color(display-p3 0.3059 0.4902 0.6196);fill-opacity:1;"/>
</g>
<circle cx="84" cy="204" r="2" transform="rotate(90 84 204)" fill="#4e7d9e" style="fill:#4e7d9e;fill:color(display-p3 0.3059 0.4902 0.6196);fill-opacity:1;"/>
<rect x="91.5" y="220.5" width="15" height="15" transform="rotate(90 91.5 220.5)" stroke="#4e7d9e" style="stroke:#4e7d9e;stroke:color(display-p3 0.3059 0.4902 0.6196);stroke-opacity:1;"/>
<circle cx="84" cy="228" r="2" transform="rotate(90 84 228)" fill="#4e7d9e" style="fill:#4e7d9e;fill:color(display-p3 0.3059 0.4902 0.6196);fill-opacity:1;"/>
<rect x="91.5" y="244.5" width="15" height="15" transform="rotate(90 91.5 244.5)" stroke="#4e7d9e" style="stroke:#4e7d9e;stroke:color(display-p3 0.3059 0.4902 0.6196);stroke-opacity:1;"/>
<circle cx="84" cy="252" r="2" transform="rotate(90 84 252)" fill="#4e7d9e" style="fill:#4e7d9e;fill:color(display-p3 0.3059 0.4902 0.6196);fill-opacity:1;"/>
<circle cx="84" cy="276" r="2" transform="rotate(90 84 276)" fill="#4e7d9e" style="fill:#4e7d9e;fill:color(display-p3 0.3059 0.4902 0.6196);fill-opacity:1;"/>
<g opacity="0.6">
<rect x="91.5" y="292.5" width="15" height="15" transform="rotate(90 91.5 292.5)" stroke="#4e7d9e" style="stroke:#4e7d9e;stroke:color(display-p3 0.3059 0.4902 0.6196);stroke-opacity:1;"/>
<circle cx="84" cy="300" r="2" transform="rotate(90 84 300)" fill="#4e7d9e" style="fill:#4e7d9e;fill:color(display-p3 0.3059 0.4902 0.6196);fill-opacity:1;"/>
</g>
<circle cx="84" cy="324" r="2" transform="rotate(90 84 324)" fill="#4e7d9e" style="fill:#4e7d9e;fill:color(display-p3 0.3059 0.4902 0.6196);fill-opacity:1;"/>
<circle cx="84" cy="348" r="2" transform="rotate(90 84 348)" fill="#4e7d9e" style="fill:#4e7d9e;fill:color(display-p3 0.3059 0.4902 0.6196);fill-opacity:1;"/>
<circle cx="60" cy="36" r="2" transform="rotate(90 60 36)" fill="#4e7d9e" style="fill:#4e7d9e;fill:color(display-p3 0.3059 0.4902 0.6196);fill-opacity:1;"/>
<g opacity="0.2">
<rect x="67.5" y="52.5" width="15" height="15" transform="rotate(90 67.5 52.5)" stroke="#4e7d9e" style="stroke:#4e7d9e;stroke:color(display-p3 0.3059 0.4902 0.6196);stroke-opacity:1;"/>
<circle cx="60" cy="60" r="2" transform="rotate(90 60 60)" fill="#4e7d9e" style="fill:#4e7d9e;fill:color(display-p3 0.3059 0.4902 0.6196);fill-opacity:1;"/>
</g>
<rect x="67.5" y="76.5" width="15" height="15" transform="rotate(90 67.5 76.5)" stroke="#4e7d9e" style="stroke:#4e7d9e;stroke:color(display-p3 0.3059 0.4902 0.6196);stroke-opacity:1;"/>
<circle cx="60" cy="84" r="2" transform="rotate(90 60 84)" fill="#4e7d9e" style="fill:#4e7d9e;fill:color(display-p3 0.3059 0.4902 0.6196);fill-opacity:1;"/>
<g opacity="0.6">
<rect x="67.5" y="124.5" width="15" height="15" transform="rotate(90 67.5 124.5)" stroke="#4e7d9e" style="stroke:#4e7d9e;stroke:color(display-p3 0.3059 0.4902 0.6196);stroke-opacity:1;"/>
<circle cx="60" cy="132" r="2" transform="rotate(90 60 132)" fill="#4e7d9e" style="fill:#4e7d9e;fill:color(display-p3 0.3059 0.4902 0.6196);fill-opacity:1;"/>
</g>
<rect x="67.5" y="148.5" width="15" height="15" transform="rotate(90 67.5 148.5)" stroke="#4e7d9e" style="stroke:#4e7d9e;stroke:color(display-p3 0.3059 0.4902 0.6196);stroke-opacity:1;"/>
<circle cx="60" cy="156" r="2" transform="rotate(90 60 156)" fill="#4e7d9e" style="fill:#4e7d9e;fill:color(display-p3 0.3059 0.4902 0.6196);fill-opacity:1;"/>
<g opacity="0.4">
<rect x="67.5" y="172.5" width="15" height="15" transform="rotate(90 67.5 172.5)" stroke="#4e7d9e" style="stroke:#4e7d9e;stroke:color(display-p3 0.3059 0.4902 0.6196);stroke-opacity:1;"/>
<circle cx="60" cy="180" r="2" transform="rotate(90 60 180)" fill="#4e7d9e" style="fill:#4e7d9e;fill:color(display-p3 0.3059 0.4902 0.6196);fill-opacity:1;"/>
</g>
<rect x="67.5" y="196.5" width="15" height="15" transform="rotate(90 67.5 196.5)" stroke="#4e7d9e" style="stroke:#4e7d9e;stroke:color(display-p3 0.3059 0.4902 0.6196);stroke-opacity:1;"/>
<circle cx="60" cy="204" r="2" transform="rotate(90 60 204)" fill="#4e7d9e" style="fill:#4e7d9e;fill:color(display-p3 0.3059 0.4902 0.6196);fill-opacity:1;"/>
<circle cx="60" cy="228" r="2" transform="rotate(90 60 228)" fill="#4e7d9e" style="fill:#4e7d9e;fill:color(display-p3 0.3059 0.4902 0.6196);fill-opacity:1;"/>
<circle cx="60" cy="276" r="2" transform="rotate(90 60 276)" fill="#4e7d9e" style="fill:#4e7d9e;fill:color(display-p3 0.3059 0.4902 0.6196);fill-opacity:1;"/>
<g opacity="0.2">
<rect x="67.5" y="292.5" width="15" height="15" transform="rotate(90 67.5 292.5)" stroke="#4e7d9e" style="stroke:#4e7d9e;stroke:color(display-p3 0.3059 0.4902 0.6196);stroke-opacity:1;"/>
<circle cx="60" cy="300" r="2" transform="rotate(90 60 300)" fill="#4e7d9e" style="fill:#4e7d9e;fill:color(display-p3 0.3059 0.4902 0.6196);fill-opacity:1;"/>
</g>
<g opacity="0.4">
<rect x="67.5" y="340.5" width="15" height="15" transform="rotate(90 67.5 340.5)" stroke="#4e7d9e" style="stroke:#4e7d9e;stroke:color(display-p3 0.3059 0.4902 0.6196);stroke-opacity:1;"/>
<circle cx="60" cy="348" r="2" transform="rotate(90 60 348)" fill="#4e7d9e" style="fill:#4e7d9e;fill:color(display-p3 0.3059 0.4902 0.6196);fill-opacity:1;"/>
</g>
<circle cx="36" cy="84" r="2" transform="rotate(90 36 84)" fill="#4e7d9e" style="fill:#4e7d9e;fill:color(display-p3 0.3059 0.4902 0.6196);fill-opacity:1;"/>
<g opacity="0.4">
<rect x="43.5" y="100.5" width="15" height="15" transform="rotate(90 43.5 100.5)" stroke="#4e7d9e" style="stroke:#4e7d9e;stroke:color(display-p3 0.3059 0.4902 0.6196);stroke-opacity:1;"/>
<circle cx="36" cy="108" r="2" transform="rotate(90 36 108)" fill="#4e7d9e" style="fill:#4e7d9e;fill:color(display-p3 0.3059 0.4902 0.6196);fill-opacity:1;"/>
</g>
<g opacity="0.6">
<rect x="43.5" y="172.5" width="15" height="15" transform="rotate(90 43.5 172.5)" stroke="#4e7d9e" style="stroke:#4e7d9e;stroke:color(display-p3 0.3059 0.4902 0.6196);stroke-opacity:1;"/>
<circle cx="36" cy="180" r="2" transform="rotate(90 36 180)" fill="#4e7d9e" style="fill:#4e7d9e;fill:color(display-p3 0.3059 0.4902 0.6196);fill-opacity:1;"/>
</g>
<g opacity="0.4">
<rect x="43.5" y="220.5" width="15" height="15" transform="rotate(90 43.5 220.5)" stroke="#4e7d9e" style="stroke:#4e7d9e;stroke:color(display-p3 0.3059 0.4902 0.6196);stroke-opacity:1;"/>
<circle cx="36" cy="228" r="2" transform="rotate(90 36 228)" fill="#4e7d9e" style="fill:#4e7d9e;fill:color(display-p3 0.3059 0.4902 0.6196);fill-opacity:1;"/>
</g>
<g opacity="0.2">
<circle cx="36" cy="276" r="2" transform="rotate(90 36 276)" fill="#4e7d9e" style="fill:#4e7d9e;fill:color(display-p3 0.3059 0.4902 0.6196);fill-opacity:1;"/>
</g>
<circle cx="36" cy="300" r="2" transform="rotate(90 36 300)" fill="#4e7d9e" style="fill:#4e7d9e;fill:color(display-p3 0.3059 0.4902 0.6196);fill-opacity:1;"/>
<g opacity="0.2">
<circle cx="12" cy="180" r="2" transform="rotate(90 12 180)" fill="#4e7d9e" style="fill:#4e7d9e;fill:color(display-p3 0.3059 0.4902 0.6196);fill-opacity:1;"/>
</g>
<circle cx="12" cy="276" r="2" transform="rotate(90 12 276)" fill="#4e7d9e" style="fill:#4e7d9e;fill:color(display-p3 0.3059 0.4902 0.6196);fill-opacity:1;"/>
</svg>
