<svg width="360" height="144" viewBox="0 0 360 144" fill="none" xmlns="http://www.w3.org/2000/svg">
<g opacity="0.6">
<rect x="331.5" y="139.5" width="15" height="15" transform="rotate(-180 331.5 139.5)" stroke="#5BA9EE" style="stroke:#5BA9EE;stroke:color(display-p3 0.3569 0.6646 0.9339);stroke-opacity:1;"/>
<circle cx="324" cy="132" r="2" transform="rotate(-180 324 132)" fill="#5BA9EE" style="fill:#5BA9EE;fill:color(display-p3 0.3569 0.6646 0.9339);fill-opacity:1;"/>
<rect x="307.5" y="139.5" width="15" height="15" transform="rotate(-180 307.5 139.5)" stroke="#5BA9EE" style="stroke:#5BA9EE;stroke:color(display-p3 0.3569 0.6646 0.9339);stroke-opacity:1;"/>
<circle cx="300" cy="132" r="2" transform="rotate(-180 300 132)" fill="#5BA9EE" style="fill:#5BA9EE;fill:color(display-p3 0.3569 0.6646 0.9339);fill-opacity:1;"/>
<circle cx="276" cy="132" r="2" transform="rotate(-180 276 132)" fill="#5BA9EE" style="fill:#5BA9EE;fill:color(display-p3 0.3569 0.6646 0.9339);fill-opacity:1;"/>
<rect x="259.5" y="139.5" width="15" height="15" transform="rotate(-180 259.5 139.5)" stroke="#5BA9EE" style="stroke:#5BA9EE;stroke:color(display-p3 0.3569 0.6646 0.9339);stroke-opacity:1;"/>
<circle cx="252" cy="132" r="2" transform="rotate(-180 252 132)" fill="#5BA9EE" style="fill:#5BA9EE;fill:color(display-p3 0.3569 0.6646 0.9339);fill-opacity:1;"/>
<rect x="211.5" y="139.5" width="15" height="15" transform="rotate(-180 211.5 139.5)" stroke="#5BA9EE" style="stroke:#5BA9EE;stroke:color(display-p3 0.3569 0.6646 0.9339);stroke-opacity:1;"/>
<circle cx="204" cy="132" r="2" transform="rotate(-180 204 132)" fill="#5BA9EE" style="fill:#5BA9EE;fill:color(display-p3 0.3569 0.6646 0.9339);fill-opacity:1;"/>
<rect x="187.5" y="139.5" width="15" height="15" transform="rotate(-180 187.5 139.5)" stroke="#5BA9EE" style="stroke:#5BA9EE;stroke:color(display-p3 0.3569 0.6646 0.9339);stroke-opacity:1;"/>
<circle opacity="0.6" cx="180" cy="132" r="2" transform="rotate(-180 180 132)" fill="#5BA9EE" style="fill:#5BA9EE;fill:color(display-p3 0.3569 0.6646 0.9339);fill-opacity:1;"/>
<rect x="163.5" y="139.5" width="15" height="15" transform="rotate(-180 163.5 139.5)" stroke="#5BA9EE" style="stroke:#5BA9EE;stroke:color(display-p3 0.3569 0.6646 0.9339);stroke-opacity:1;"/>
<circle cx="156" cy="132" r="2" transform="rotate(-180 156 132)" fill="#5BA9EE" style="fill:#5BA9EE;fill:color(display-p3 0.3569 0.6646 0.9339);fill-opacity:1;"/>
<rect x="139.5" y="139.5" width="15" height="15" transform="rotate(-180 139.5 139.5)" stroke="#5BA9EE" style="stroke:#5BA9EE;stroke:color(display-p3 0.3569 0.6646 0.9339);stroke-opacity:1;"/>
<circle cx="132" cy="132" r="2" transform="rotate(-180 132 132)" fill="#5BA9EE" style="fill:#5BA9EE;fill:color(display-p3 0.3569 0.6646 0.9339);fill-opacity:1;"/>
<circle cx="108" cy="132" r="2" transform="rotate(-180 108 132)" fill="#5BA9EE" style="fill:#5BA9EE;fill:color(display-p3 0.3569 0.6646 0.9339);fill-opacity:1;"/>
<rect x="91.5" y="139.5" width="15" height="15" transform="rotate(-180 91.5 139.5)" stroke="#5BA9EE" style="stroke:#5BA9EE;stroke:color(display-p3 0.3569 0.6646 0.9339);stroke-opacity:1;"/>
<circle cx="84" cy="132" r="2" transform="rotate(-180 84 132)" fill="#5BA9EE" style="fill:#5BA9EE;fill:color(display-p3 0.3569 0.6646 0.9339);fill-opacity:1;"/>
<g opacity="0.6">
<rect x="67.5" y="139.5" width="15" height="15" transform="rotate(-180 67.5 139.5)" stroke="#5BA9EE" style="stroke:#5BA9EE;stroke:color(display-p3 0.3569 0.6646 0.9339);stroke-opacity:1;"/>
<circle cx="60" cy="132" r="2" transform="rotate(-180 60 132)" fill="#5BA9EE" style="fill:#5BA9EE;fill:color(display-p3 0.3569 0.6646 0.9339);fill-opacity:1;"/>
</g>
<rect x="43.5" y="139.5" width="15" height="15" transform="rotate(-180 43.5 139.5)" stroke="#5BA9EE" style="stroke:#5BA9EE;stroke:color(display-p3 0.3569 0.6646 0.9339);stroke-opacity:1;"/>
<circle opacity="0.6" cx="36" cy="132" r="2" transform="rotate(-180 36 132)" fill="#5BA9EE" style="fill:#5BA9EE;fill:color(display-p3 0.3569 0.6646 0.9339);fill-opacity:1;"/>
<rect x="19.5" y="139.5" width="15" height="15" transform="rotate(-180 19.5 139.5)" stroke="#5BA9EE" style="stroke:#5BA9EE;stroke:color(display-p3 0.3569 0.6646 0.9339);stroke-opacity:1;"/>
<circle cx="12" cy="132" r="2" transform="rotate(-180 12 132)" fill="#5BA9EE" style="fill:#5BA9EE;fill:color(display-p3 0.3569 0.6646 0.9339);fill-opacity:1;"/>
<g opacity="0.6">
<rect x="283.5" y="115.5" width="15" height="15" transform="rotate(-180 283.5 115.5)" stroke="#5BA9EE" style="stroke:#5BA9EE;stroke:color(display-p3 0.3569 0.6646 0.9339);stroke-opacity:1;"/>
<circle cx="276" cy="108" r="2" transform="rotate(-180 276 108)" fill="#5BA9EE" style="fill:#5BA9EE;fill:color(display-p3 0.3569 0.6646 0.9339);fill-opacity:1;"/>
</g>
<rect x="259.5" y="115.5" width="15" height="15" transform="rotate(-180 259.5 115.5)" stroke="#5BA9EE" style="stroke:#5BA9EE;stroke:color(display-p3 0.3569 0.6646 0.9339);stroke-opacity:1;"/>
<circle cx="252" cy="108" r="2" transform="rotate(-180 252 108)" fill="#5BA9EE" style="fill:#5BA9EE;fill:color(display-p3 0.3569 0.6646 0.9339);fill-opacity:1;"/>
<rect x="187.5" y="115.5" width="15" height="15" transform="rotate(-180 187.5 115.5)" stroke="#5BA9EE" style="stroke:#5BA9EE;stroke:color(display-p3 0.3569 0.6646 0.9339);stroke-opacity:1;"/>
<circle cx="180" cy="108" r="2" transform="rotate(-180 180 108)" fill="#5BA9EE" style="fill:#5BA9EE;fill:color(display-p3 0.3569 0.6646 0.9339);fill-opacity:1;"/>
<rect x="163.5" y="115.5" width="15" height="15" transform="rotate(-180 163.5 115.5)" stroke="#5BA9EE" style="stroke:#5BA9EE;stroke:color(display-p3 0.3569 0.6646 0.9339);stroke-opacity:1;"/>
<circle cx="156" cy="108" r="2" transform="rotate(-180 156 108)" fill="#5BA9EE" style="fill:#5BA9EE;fill:color(display-p3 0.3569 0.6646 0.9339);fill-opacity:1;"/>
<g opacity="0.6">
<rect x="139.5" y="115.5" width="15" height="15" transform="rotate(-180 139.5 115.5)" stroke="#5BA9EE" style="stroke:#5BA9EE;stroke:color(display-p3 0.3569 0.6646 0.9339);stroke-opacity:1;"/>
<circle cx="132" cy="108" r="2" transform="rotate(-180 132 108)" fill="#5BA9EE" style="fill:#5BA9EE;fill:color(display-p3 0.3569 0.6646 0.9339);fill-opacity:1;"/>
</g>
<rect x="115.5" y="115.5" width="15" height="15" transform="rotate(-180 115.5 115.5)" stroke="#5BA9EE" style="stroke:#5BA9EE;stroke:color(display-p3 0.3569 0.6646 0.9339);stroke-opacity:1;"/>
<circle cx="108" cy="108" r="2" transform="rotate(-180 108 108)" fill="#5BA9EE" style="fill:#5BA9EE;fill:color(display-p3 0.3569 0.6646 0.9339);fill-opacity:1;"/>
<rect x="91.5" y="115.5" width="15" height="15" transform="rotate(-180 91.5 115.5)" stroke="#5BA9EE" style="stroke:#5BA9EE;stroke:color(display-p3 0.3569 0.6646 0.9339);stroke-opacity:1;"/>
<circle cx="84" cy="108" r="2" transform="rotate(-180 84 108)" fill="#5BA9EE" style="fill:#5BA9EE;fill:color(display-p3 0.3569 0.6646 0.9339);fill-opacity:1;"/>
<rect x="43.5" y="115.5" width="15" height="15" transform="rotate(-180 43.5 115.5)" stroke="#5BA9EE" style="stroke:#5BA9EE;stroke:color(display-p3 0.3569 0.6646 0.9339);stroke-opacity:1;"/>
<circle cx="36" cy="108" r="2" transform="rotate(-180 36 108)" fill="#5BA9EE" style="fill:#5BA9EE;fill:color(display-p3 0.3569 0.6646 0.9339);fill-opacity:1;"/>
<rect x="19.5" y="115.5" width="15" height="15" transform="rotate(-180 19.5 115.5)" stroke="#5BA9EE" style="stroke:#5BA9EE;stroke:color(display-p3 0.3569 0.6646 0.9339);stroke-opacity:1;"/>
<circle cx="12" cy="108" r="2" transform="rotate(-180 12 108)" fill="#5BA9EE" style="fill:#5BA9EE;fill:color(display-p3 0.3569 0.6646 0.9339);fill-opacity:1;"/>
<g opacity="0.2">
<rect x="259.5" y="91.5" width="15" height="15" transform="rotate(-180 259.5 91.5)" stroke="#5BA9EE" style="stroke:#5BA9EE;stroke:color(display-p3 0.3569 0.6646 0.9339);stroke-opacity:1;"/>
<circle cx="252" cy="84" r="2" transform="rotate(-180 252 84)" fill="#5BA9EE" style="fill:#5BA9EE;fill:color(display-p3 0.3569 0.6646 0.9339);fill-opacity:1;"/>
</g>
<circle cx="204" cy="84" r="2" transform="rotate(-180 204 84)" fill="#5BA9EE" style="fill:#5BA9EE;fill:color(display-p3 0.3569 0.6646 0.9339);fill-opacity:1;"/>
<circle cx="156" cy="84" r="2" transform="rotate(-180 156 84)" fill="#5BA9EE" style="fill:#5BA9EE;fill:color(display-p3 0.3569 0.6646 0.9339);fill-opacity:1;"/>
<rect x="139.5" y="91.5" width="15" height="15" transform="rotate(-180 139.5 91.5)" stroke="#5BA9EE" style="stroke:#5BA9EE;stroke:color(display-p3 0.3569 0.6646 0.9339);stroke-opacity:1;"/>
<circle cx="132" cy="84" r="2" transform="rotate(-180 132 84)" fill="#5BA9EE" style="fill:#5BA9EE;fill:color(display-p3 0.3569 0.6646 0.9339);fill-opacity:1;"/>
<rect x="115.5" y="91.5" width="15" height="15" transform="rotate(-180 115.5 91.5)" stroke="#5BA9EE" style="stroke:#5BA9EE;stroke:color(display-p3 0.3569 0.6646 0.9339);stroke-opacity:1;"/>
<circle cx="108" cy="84" r="2" transform="rotate(-180 108 84)" fill="#5BA9EE" style="fill:#5BA9EE;fill:color(display-p3 0.3569 0.6646 0.9339);fill-opacity:1;"/>
<circle cx="84" cy="84" r="2" transform="rotate(-180 84 84)" fill="#5BA9EE" style="fill:#5BA9EE;fill:color(display-p3 0.3569 0.6646 0.9339);fill-opacity:1;"/>
<g opacity="0.6">
<rect x="67.5" y="91.5" width="15" height="15" transform="rotate(-180 67.5 91.5)" stroke="#5BA9EE" style="stroke:#5BA9EE;stroke:color(display-p3 0.3569 0.6646 0.9339);stroke-opacity:1;"/>
<circle cx="60" cy="84" r="2" transform="rotate(-180 60 84)" fill="#5BA9EE" style="fill:#5BA9EE;fill:color(display-p3 0.3569 0.6646 0.9339);fill-opacity:1;"/>
</g>
<circle cx="36" cy="84" r="2" transform="rotate(-180 36 84)" fill="#5BA9EE" style="fill:#5BA9EE;fill:color(display-p3 0.3569 0.6646 0.9339);fill-opacity:1;"/>
<circle cx="12" cy="84" r="2" transform="rotate(-180 12 84)" fill="#5BA9EE" style="fill:#5BA9EE;fill:color(display-p3 0.3569 0.6646 0.9339);fill-opacity:1;"/>
<circle cx="324" cy="60" r="2" transform="rotate(-180 324 60)" fill="#5BA9EE" style="fill:#5BA9EE;fill:color(display-p3 0.3569 0.6646 0.9339);fill-opacity:1;"/>
<g opacity="0.2">
<rect x="307.5" y="67.5" width="15" height="15" transform="rotate(-180 307.5 67.5)" stroke="#5BA9EE" style="stroke:#5BA9EE;stroke:color(display-p3 0.3569 0.6646 0.9339);stroke-opacity:1;"/>
<circle cx="300" cy="60" r="2" transform="rotate(-180 300 60)" fill="#5BA9EE" style="fill:#5BA9EE;fill:color(display-p3 0.3569 0.6646 0.9339);fill-opacity:1;"/>
</g>
<g opacity="0.6">
<rect x="235.5" y="67.5" width="15" height="15" transform="rotate(-180 235.5 67.5)" stroke="#5BA9EE" style="stroke:#5BA9EE;stroke:color(display-p3 0.3569 0.6646 0.9339);stroke-opacity:1;"/>
<circle cx="228" cy="60" r="2" transform="rotate(-180 228 60)" fill="#5BA9EE" style="fill:#5BA9EE;fill:color(display-p3 0.3569 0.6646 0.9339);fill-opacity:1;"/>
</g>
<circle cx="132" cy="60" r="2" transform="rotate(-180 132 60)" fill="#5BA9EE" style="fill:#5BA9EE;fill:color(display-p3 0.3569 0.6646 0.9339);fill-opacity:1;"/>
<circle cx="84" cy="60" r="2" transform="rotate(-180 84 60)" fill="#5BA9EE" style="fill:#5BA9EE;fill:color(display-p3 0.3569 0.6646 0.9339);fill-opacity:1;"/>
<g opacity="0.2">
<rect x="67.5" y="67.5" width="15" height="15" transform="rotate(-180 67.5 67.5)" stroke="#5BA9EE" style="stroke:#5BA9EE;stroke:color(display-p3 0.3569 0.6646 0.9339);stroke-opacity:1;"/>
<circle cx="60" cy="60" r="2" transform="rotate(-180 60 60)" fill="#5BA9EE" style="fill:#5BA9EE;fill:color(display-p3 0.3569 0.6646 0.9339);fill-opacity:1;"/>
</g>
<g opacity="0.4">
<rect x="19.5" y="67.5" width="15" height="15" transform="rotate(-180 19.5 67.5)" stroke="#5BA9EE" style="stroke:#5BA9EE;stroke:color(display-p3 0.3569 0.6646 0.9339);stroke-opacity:1;"/>
<circle cx="12" cy="60" r="2" transform="rotate(-180 12 60)" fill="#5BA9EE" style="fill:#5BA9EE;fill:color(display-p3 0.3569 0.6646 0.9339);fill-opacity:1;"/>
</g>
<circle cx="276" cy="36" r="2" transform="rotate(-180 276 36)" fill="#5BA9EE" style="fill:#5BA9EE;fill:color(display-p3 0.3569 0.6646 0.9339);fill-opacity:1;"/>
<g opacity="0.2">
<circle cx="84" cy="36" r="2" transform="rotate(-180 84 36)" fill="#5BA9EE" style="fill:#5BA9EE;fill:color(display-p3 0.3569 0.6646 0.9339);fill-opacity:1;"/>
</g>
<circle cx="60" cy="36" r="2" transform="rotate(-180 60 36)" fill="#5BA9EE" style="fill:#5BA9EE;fill:color(display-p3 0.3569 0.6646 0.9339);fill-opacity:1;"/>
<g opacity="0.2">
<circle cx="180" cy="12" r="2" transform="rotate(-180 180 12)" fill="#5BA9EE" style="fill:#5BA9EE;fill:color(display-p3 0.3569 0.6646 0.9339);fill-opacity:1;"/>
</g>
<circle cx="84" cy="12" r="2" transform="rotate(-180 84 12)" fill="#5BA9EE" style="fill:#5BA9EE;fill:color(display-p3 0.3569 0.6646 0.9339);fill-opacity:1;"/>
</g>
</svg>
